<svg xmlns="http://www.w3.org/2000/svg" xmlns:xlink="http://www.w3.org/1999/xlink" width="854" zoomAndPan="magnify" viewBox="0 0 640.5 761.999994" height="1016" preserveAspectRatio="xMidYMid meet" version="1.2"><defs><clipPath id="915f18d9bc"><path d="M 0 0.296875 L 639 0.296875 L 639 761.703125 L 0 761.703125 Z M 0 0.296875 "/></clipPath><clipPath id="44de35ec0b"><path d="M 178 163.796875 L 424 163.796875 L 424 286 L 178 286 Z M 178 163.796875 "/></clipPath><clipPath id="700b7d5e2d"><path d="M 191 163.796875 L 404 163.796875 L 404 242 L 191 242 Z M 191 163.796875 "/></clipPath><clipPath id="3b67b68016"><path d="M 0 163.796875 L 639 163.796875 L 639 761.078125 L 0 761.078125 Z M 0 163.796875 "/></clipPath></defs><g id="1493bfa9b5"><path style=" stroke:none;fill-rule:evenodd;fill:#f3571d;fill-opacity:1;" d="M 485.941406 534.757812 C 485.359375 536.953125 484.992188 537.25 482.503906 536.617188 L 481.820312 534.953125 C 484.058594 535.503906 483.78125 535.570312 485.941406 534.757812 Z M 408.648438 314.957031 C 407.558594 314.925781 405.367188 314.554688 403.960938 314.347656 C 390.960938 312.449219 383.078125 316.957031 372.832031 323.125 C 371.453125 323.957031 370.953125 324.382812 369.4375 325.199219 L 357.949219 331.375 C 352.394531 333.933594 346.578125 335.871094 340.601562 337.160156 C 326.40625 340.15625 317.707031 340.582031 303.695312 340.640625 C 296.75 340.332031 289.839844 339.515625 283.015625 338.195312 C 279.921875 337.433594 280.933594 338.175781 279.121094 336.203125 C 276.605469 333.460938 265.609375 332.449219 261.671875 330.53125 C 259.476562 330.480469 259.433594 329.855469 257.476562 329.6875 C 226.203125 322.535156 231.34375 318.058594 196.128906 346.582031 L 169.898438 370.40625 C 168.15625 372.148438 166.640625 373.8125 164.855469 375.464844 C 163.78125 376.460938 163.203125 376.679688 162.109375 377.765625 L 142.152344 397.769531 C 141.179688 398.875 140.96875 399.382812 139.84375 400.507812 L 129.746094 410.179688 C 127.960938 411.96875 126.480469 413.4375 124.703125 415.234375 C 124.191406 415.746094 123.960938 416.003906 123.429688 416.488281 L 114.402344 424.707031 C 113.433594 425.558594 112.832031 426.355469 111.882812 427.234375 L 100.589844 437.394531 C 97.269531 440.195312 92.667969 445.5 88.757812 449.113281 C 86.804688 450.921875 84.578125 451.386719 84.609375 455.09375 C 84.859375 457.875 85.441406 460.617188 86.332031 463.265625 C 90.652344 476.40625 97.28125 488.671875 105.90625 499.484375 C 106.742188 500.546875 107.113281 501.003906 107.945312 502.070312 C 108.78125 503.136719 109.273438 503.4375 110.113281 504.527344 L 114.371094 509.394531 C 119.304688 514.910156 124.804688 519.886719 130.773438 524.25 C 134.757812 527.257812 145.976562 534.269531 151.050781 535.492188 L 152.339844 536.101562 L 161.960938 539.328125 C 165.035156 540.488281 167.261719 542.828125 171.140625 543.605469 C 175.210938 544.246094 179.3125 544.636719 183.429688 544.773438 C 187.710938 545.117188 191.019531 545.589844 196.066406 545.589844 C 196.066406 548.753906 195.644531 550.121094 195.644531 553.050781 L 193.984375 596.539062 C 193.808594 598.667969 194.082031 601.09375 193.964844 603.25 L 191.867188 659.664062 C 191.882812 662.371094 191.496094 663.300781 191.429688 665.539062 C 191.367188 667.558594 191.582031 669.859375 191.429688 671.84375 C 191.183594 673.945312 191.050781 676.058594 191.027344 678.179688 C 191.046875 686.882812 190.167969 694.726562 190.1875 703.433594 C 190.199219 707.855469 189.84375 711.347656 189.785156 716.074219 C 189.753906 718.511719 189.328125 719.246094 189.335938 721.941406 C 189.347656 724.179688 189.390625 726.464844 189.363281 728.703125 L 188.753906 741.132812 C 188.375 745.390625 188.292969 749.667969 188.511719 753.9375 C 191.269531 753.9375 192.945312 753.558594 196.097656 753.53125 C 198.679688 753.507812 200.503906 753.085938 203.648438 753.09375 C 208.765625 753.105469 214.609375 752.820312 219.628906 753.09375 C 221.453125 753.191406 221.167969 753.421875 222.988281 753.519531 C 226.609375 753.707031 230.054688 753.445312 234.648438 754.050781 L 249.042969 755.636719 C 270.28125 755.886719 291.707031 755.621094 312.96875 755.621094 L 472.742188 755.621094 C 481.875 755.621094 481.621094 757.492188 481.570312 748.46875 C 481.550781 745.261719 482.015625 743.902344 482.003906 740.902344 C 481.945312 727.226562 482.832031 714.710938 482.832031 701.753906 C 482.832031 682.605469 484.515625 658.519531 484.515625 639.460938 C 484.515625 636.792969 484.515625 634.125 484.507812 631.457031 C 484.492188 628.464844 484.960938 627.097656 484.9375 623.890625 L 485.355469 600.316406 C 485.34375 597.121094 485.789062 595.550781 485.792969 592.757812 C 485.792969 590.085938 485.777344 587.410156 485.769531 584.738281 C 485.753906 581.746094 486.222656 580.378906 486.203125 577.175781 C 486.152344 567.957031 486.710938 562.410156 486.605469 553.648438 C 486.554688 549.542969 486.925781 549.984375 489.171875 548.128906 L 521.582031 523.777344 C 522.625 522.953125 522.308594 522.886719 523.617188 522.265625 C 526.117188 520.136719 528.425781 518.6875 530.863281 516.660156 C 532.167969 515.578125 533.140625 515.03125 534.453125 513.941406 C 535.84375 512.78125 536.734375 512.421875 538.191406 511.09375 C 539.238281 510.183594 539.101562 510.84375 539.984375 509.410156 C 541.285156 508.917969 542.453125 508.113281 543.378906 507.066406 C 544.554688 506.390625 545.65625 505.605469 546.683594 504.722656 L 556.742188 497.113281 C 561.183594 493.085938 567.566406 469.921875 569.714844 463.382812 C 570.78125 460.15625 571.335938 457.519531 572.238281 454.125 C 572.988281 451.3125 575.15625 447.769531 575.335938 445.269531 C 575.757812 444.855469 576.089844 444.355469 576.304688 443.804688 C 576.523438 443.253906 576.621094 442.664062 576.597656 442.074219 C 576.652344 441.984375 576.707031 441.722656 576.726562 441.78125 C 576.742188 441.835938 576.824219 441.546875 576.847656 441.476562 C 576.957031 441.148438 577.0625 440.851562 577.144531 440.503906 L 577.886719 434.488281 C 577.726562 429.433594 574.015625 429.273438 568.601562 425.652344 C 561.894531 421.164062 545.0625 409.574219 539.304688 404.898438 C 538.332031 404.109375 537.691406 403.589844 536.71875 402.859375 C 534.867188 401.476562 533.320312 400.28125 531.515625 398.808594 L 525.113281 393.429688 C 524.738281 393.113281 525.03125 393.367188 524.660156 393.050781 C 524.257812 392.710938 524.316406 392.773438 523.976562 392.46875 L 516.710938 385.851562 L 516.480469 385.664062 L 503.902344 373 L 503.707031 372.773438 L 496.472656 365.285156 C 493.417969 361.335938 479.910156 348.5625 475.828125 345.128906 C 464.105469 335.273438 455.28125 331.027344 440.921875 324.933594 L 434.441406 322.582031 C 432.023438 321.769531 430.003906 321.09375 427.507812 320.261719 L 413.09375 316.21875 C 411.507812 315.5 410.167969 315.539062 408.671875 314.953125 Z M 442.925781 437.542969 C 442.398438 437.039062 442.648438 438.339844 442.113281 436.449219 C 442.019531 436.101562 442.011719 435.738281 442.09375 435.390625 C 442.339844 434.136719 443.984375 432.53125 446.074219 434.8125 C 443.421875 434.636719 442.425781 434.765625 442.925781 437.542969 Z M 210.25 459.4375 C 210.058594 457.53125 210.628906 457.484375 210.644531 455.1875 L 206.765625 455.28125 C 208.050781 450.984375 212.609375 453.066406 210.597656 458.792969 Z M 210.25 459.4375 "/><path style=" stroke:none;fill-rule:evenodd;fill:#cb0711;fill-opacity:1;" d="M 261.671875 330.53125 C 259.472656 330.480469 259.429688 329.855469 257.472656 329.6875 C 255.648438 342.929688 255.820312 353.367188 259.976562 365.46875 C 270.445312 395.949219 303.4375 414.699219 338.667969 405.914062 C 367.84375 398.644531 391.003906 374.449219 403.929688 348.363281 C 408.425781 339.285156 412.898438 328.613281 413.070312 316.21875 C 411.484375 315.503906 410.144531 315.539062 408.652344 314.957031 C 410.003906 323.855469 403.792969 339.203125 400.484375 345.753906 C 387.773438 370.917969 367.253906 393.722656 339.191406 401.410156 C 293.042969 414.054688 252.433594 376.320312 261.671875 330.53125 Z M 261.671875 330.53125 "/><path style=" stroke:none;fill-rule:evenodd;fill:#cb0711;fill-opacity:1;" d="M 159.804688 531.914062 C 154.285156 533.566406 156.628906 533.710938 154.226562 535.300781 L 152.339844 536.101562 L 161.960938 539.332031 C 165.035156 540.492188 167.261719 542.832031 171.140625 543.609375 C 175.210938 544.25 179.3125 544.640625 183.429688 544.777344 C 187.714844 545.117188 191.023438 545.59375 196.066406 545.59375 C 196.066406 548.757812 195.648438 550.121094 195.648438 553.050781 C 198.675781 548.789062 196.179688 546.570312 196.878906 541.839844 C 197.460938 537.921875 198.265625 533.824219 198.898438 529.902344 C 200.171875 522.046875 201.472656 514.304688 202.765625 506.429688 C 203.828125 499.988281 210.824219 462.496094 210.25 459.429688 C 210.0625 457.523438 210.632812 457.472656 210.644531 455.179688 L 206.769531 455.273438 C 206.40625 463.570312 194.832031 525.84375 193.085938 539.308594 C 188.398438 538.164062 184.523438 536.152344 177.40625 534.773438 C 174.367188 534.183594 171.648438 533.910156 168.503906 533.554688 C 165.761719 533.261719 161.738281 531.742188 159.804688 531.914062 Z M 159.804688 531.914062 "/><path style=" stroke:none;fill-rule:evenodd;fill:#cb0711;fill-opacity:1;" d="M 571.28125 447.847656 C 567.964844 455.574219 541.300781 493.585938 541.457031 498.132812 C 541.910156 500.234375 539.660156 502.769531 542.878906 506.558594 L 543.367188 507.058594 C 544.539062 506.382812 545.644531 505.597656 546.667969 504.714844 L 556.726562 497.105469 C 561.167969 493.078125 567.554688 469.914062 569.699219 463.375 C 570.765625 460.148438 571.320312 457.511719 572.226562 454.117188 C 572.972656 451.304688 575.140625 447.761719 575.320312 445.261719 C 574.132812 445.714844 573.144531 446.578125 572.535156 447.695312 Z M 571.28125 447.847656 "/><path style=" stroke:none;fill-rule:evenodd;fill:#cb0711;fill-opacity:1;" d="M 489.160156 548.128906 L 521.566406 523.78125 C 522.609375 522.953125 522.292969 522.890625 523.605469 522.269531 C 516.761719 520.496094 517.117188 515.933594 510.324219 516.882812 C 504.039062 517.765625 492.035156 527.925781 488.832031 533.101562 C 484.265625 540.480469 489.011719 542.585938 489.160156 548.128906 Z M 489.160156 548.128906 "/><path style=" stroke:none;fill-rule:evenodd;fill:#cb0711;fill-opacity:1;" d="M 442.925781 437.539062 C 444.128906 440.65625 446.972656 444.953125 448.703125 448.445312 C 455.519531 462.253906 468.175781 493.949219 473.789062 508.773438 C 476.992188 517.246094 480.503906 525.183594 481.820312 534.949219 C 484.058594 535.5 483.78125 535.566406 485.941406 534.753906 C 485.988281 527.796875 480.375 513.921875 477.980469 507.925781 C 474.632812 499.554688 471.386719 491.28125 468.050781 482.933594 C 461.222656 465.851562 454.617188 449.863281 446.074219 434.808594 C 443.421875 434.632812 442.429688 434.761719 442.925781 437.539062 Z M 442.925781 437.539062 "/><path style=" stroke:none;fill-rule:evenodd;fill:#cb0711;fill-opacity:1;" d="M 114.371094 509.402344 C 115.863281 501.511719 115.019531 501.289062 111.316406 495.328125 C 106.183594 487.054688 100.988281 480.804688 95.570312 473.214844 C 93.097656 469.75 90.394531 464.664062 86.328125 463.269531 C 90.652344 476.410156 97.28125 488.671875 105.90625 499.480469 C 106.742188 500.546875 107.113281 501.003906 107.945312 502.070312 C 108.78125 503.132812 109.273438 503.4375 110.113281 504.527344 Z M 114.371094 509.402344 "/><path style=" stroke:none;fill-rule:evenodd;fill:#d01012;fill-opacity:1;" d="M 539.316406 503.03125 C 539.152344 504.175781 539.09375 505.332031 539.144531 506.488281 C 539.296875 508.492188 539.570312 507.84375 539.96875 509.410156 C 541.273438 508.914062 542.441406 508.109375 543.367188 507.066406 L 542.878906 506.5625 C 539.660156 502.773438 541.914062 500.238281 541.457031 498.136719 C 540.695312 499.1875 541.144531 499.398438 540.550781 500.707031 C 540.066406 501.792969 539.65625 501.800781 539.316406 503.03125 Z M 539.316406 503.03125 "/><path style=" stroke:none;fill-rule:evenodd;fill:#d72015;fill-opacity:1;" d="M 151.050781 535.5 L 152.339844 536.105469 L 154.222656 535.308594 C 156.625 533.714844 154.28125 533.570312 159.804688 531.917969 C 157.394531 530.125 152.21875 533.417969 151.050781 535.5 Z M 151.050781 535.5 "/><path style=" stroke:none;fill-rule:evenodd;fill:#d11313;fill-opacity:1;" d="M 571.28125 447.851562 L 572.535156 447.699219 C 573.140625 446.582031 574.128906 445.71875 575.320312 445.265625 C 575.742188 444.851562 576.074219 444.351562 576.289062 443.800781 C 576.507812 443.25 576.605469 442.660156 576.582031 442.070312 C 573.921875 443.183594 572.691406 444.960938 571.28125 447.851562 Z M 571.28125 447.851562 "/><path style=" stroke:none;fill-rule:evenodd;fill:#d92316;fill-opacity:1;" d="M 538.171875 511.09375 C 539.222656 510.179688 539.085938 510.84375 539.964844 509.410156 C 539.566406 507.84375 539.296875 508.496094 539.144531 506.488281 C 539.09375 505.332031 539.152344 504.171875 539.316406 503.027344 L 538.78125 503.496094 C 538.292969 504.164062 538.628906 503.496094 538.273438 504.328125 C 537.664062 506.539062 537.628906 508.867188 538.171875 511.09375 Z M 538.171875 511.09375 "/><path style=" stroke:none;fill-rule:evenodd;fill:#d11313;fill-opacity:1;" d="M 206.765625 455.277344 L 210.644531 455.1875 C 210.628906 457.480469 210.058594 457.53125 210.25 459.4375 L 210.597656 458.792969 C 212.609375 453.0625 208.050781 450.984375 206.765625 455.277344 Z M 206.765625 455.277344 "/><path style=" stroke:none;fill-rule:evenodd;fill:#d11313;fill-opacity:1;" d="M 485.941406 534.757812 C 483.78125 535.570312 484.058594 535.503906 481.820312 534.949219 L 482.503906 536.613281 C 484.992188 537.25 485.359375 536.949219 485.941406 534.757812 Z M 485.941406 534.757812 "/><path style=" stroke:none;fill-rule:evenodd;fill:#d41914;fill-opacity:1;" d="M 442.925781 437.535156 C 442.429688 434.761719 443.421875 434.632812 446.074219 434.808594 C 443.984375 432.527344 442.339844 434.132812 442.09375 435.386719 C 442.011719 435.734375 442.019531 436.097656 442.113281 436.445312 C 442.648438 438.335938 442.398438 437.039062 442.925781 437.535156 Z M 442.925781 437.535156 "/><path style=" stroke:none;fill-rule:evenodd;fill:#ffdbc7;fill-opacity:1;" d="M 231.386719 283.386719 L 385.273438 283.386719 C 385.800781 280.023438 387.191406 276.617188 388.046875 273.121094 C 390.8125 261.867188 393.671875 256.074219 393.671875 240.878906 C 398.910156 238.105469 403.964844 232.6875 407.839844 228.125 L 411.84375 222.871094 C 419.597656 211.207031 427.214844 196.003906 421.734375 181.644531 C 419.777344 176.519531 417.433594 174.21875 413.960938 170.90625 C 408.195312 165.394531 397.828125 163.570312 391.246094 170.265625 C 390.195312 171.332031 390.300781 171.855469 389.046875 172.699219 C 387.597656 166.207031 385.183594 159.972656 381.886719 154.195312 C 379.207031 149.585938 376.089844 145.246094 372.582031 141.226562 L 371.226562 139.859375 C 371.132812 139.789062 370.976562 139.707031 370.898438 139.648438 C 370.789062 139.574219 370.671875 139.503906 370.550781 139.449219 L 349.15625 139.402344 L 348.261719 138.609375 C 348.261719 134.894531 348.84375 124.179688 347.84375 121.351562 L 342.234375 118.546875 C 336.328125 115.675781 330.148438 113.402344 323.792969 111.757812 C 313.800781 109.199219 303.433594 108.457031 293.183594 109.566406 C 279.035156 111.140625 267.683594 115.785156 255.632812 122.480469 C 248.628906 126.625 242.082031 131.5 236.101562 137.023438 C 233.261719 139.355469 230.632812 141.933594 228.246094 144.730469 C 214.320312 161.398438 208.339844 167.40625 205.128906 190.613281 C 204.527344 195.984375 204.308594 201.386719 204.46875 206.789062 C 204.46875 217.152344 206.152344 218.777344 206.152344 222.363281 C 201.179688 221.949219 196.777344 221.246094 191.179688 224.632812 C 166.8125 239.367188 177.609375 281.050781 215.039062 285.015625 C 219.898438 285.429688 224.789062 284.933594 229.46875 283.554688 Z M 231.386719 283.386719 "/><path style=" stroke:none;fill-rule:evenodd;fill:#ffdac7;fill-opacity:1;" d="M 385.273438 283.386719 L 384.613281 246.605469 L 218.035156 261.082031 L 231.785156 283.386719 C 231.785156 283.386719 245.507812 301.511719 248.449219 304.542969 C 253.484375 309.730469 258.117188 315.695312 265.15625 320.601562 C 268.253906 322.757812 271.164062 323.742188 270.804688 331.367188 C 270.347656 340.925781 261.445312 335.476562 266.441406 345.824219 C 273.722656 360.898438 285.089844 370.402344 300.414062 377.808594 C 308.933594 382.023438 318.597656 383.34375 327.933594 381.570312 C 330.832031 381.015625 333.683594 380.210938 336.445312 379.171875 C 341.519531 377.25 346.363281 374.769531 350.890625 371.777344 C 355.570312 368.410156 359.886719 364.558594 363.765625 360.285156 C 369.628906 353.71875 375.867188 342.828125 379.964844 335.300781 C 383.738281 328.371094 388.039062 323.304688 382.109375 321.90625 C 376.648438 320.621094 368.140625 319.882812 367.667969 314.101562 L 371.804688 309.414062 C 374.238281 306.566406 376.339844 303.453125 378.070312 300.132812 C 378.84375 298.894531 379.515625 297.59375 380.070312 296.246094 Z M 385.273438 283.386719 "/><path style=" stroke:none;fill-rule:evenodd;fill:#ffdac7;fill-opacity:1;" d="M 370.558594 139.449219 C 370.53125 138.320312 370.558594 138.785156 368.5625 136.820312 C 367.613281 135.886719 367.003906 135.207031 366.046875 134.285156 C 365.023438 133.300781 364.386719 132.949219 363.300781 131.984375 C 360.539062 129.503906 357.566406 127.269531 354.410156 125.308594 C 352.296875 123.878906 350.105469 122.558594 347.851562 121.355469 C 348.851562 124.179688 348.269531 134.898438 348.269531 138.613281 L 349.167969 139.40625 Z M 370.558594 139.449219 "/><path style=" stroke:none;fill-rule:evenodd;fill:#c6948a;fill-opacity:1;" d="M 312.945312 333.84375 C 303.726562 333.84375 295.050781 333.121094 287.097656 329.972656 C 277.496094 326.167969 279.507812 325.113281 275.003906 323.257812 C 273.835938 322.773438 271.761719 321.046875 270.820312 321.046875 C 269.085938 321.046875 268.941406 322.816406 268.941406 324.058594 C 268.941406 325.125 271.523438 329.394531 272.242188 330.542969 C 273.558594 332.671875 275.386719 333.78125 276.890625 335.671875 C 279.859375 339.363281 283.394531 342.558594 287.363281 345.144531 C 301.550781 354.570312 324.113281 358.65625 339.867188 349.128906 C 344.617188 346.101562 348.992188 342.519531 352.898438 338.460938 L 358.390625 332.285156 C 364.296875 324.9375 364.695312 324.964844 368.394531 315.195312 C 368.914062 313.828125 369.015625 314.410156 369.429688 313.191406 C 370.441406 310.191406 366.414062 308.058594 363.859375 311.40625 C 361.148438 315.160156 357.980469 318.566406 354.429688 321.539062 C 353.570312 322.320312 352.652344 323.039062 351.683594 323.683594 C 349.6875 325.011719 347.59375 326.1875 345.421875 327.203125 C 338.125 330.714844 323.636719 333.84375 312.945312 333.84375 Z M 312.945312 333.84375 "/><path style=" stroke:none;fill-rule:evenodd;fill:#ff9dad;fill-opacity:1;" d="M 247.511719 267.972656 C 247.511719 274.351562 248.699219 279.496094 252.863281 283.695312 C 257.273438 288.152344 260.40625 289.429688 267.445312 289.429688 C 273.496094 289.429688 280.789062 285.710938 283.84375 280.621094 C 285.339844 278.136719 285.496094 277.394531 285.496094 273.621094 C 288.9375 273.335938 287.453125 267.765625 286.710938 264.878906 C 286.089844 261.972656 284.808594 259.246094 282.972656 256.910156 C 281.132812 254.574219 278.789062 252.6875 276.109375 251.398438 C 268.1875 247.304688 258.589844 247.144531 252.351562 255.117188 C 249.453125 258.800781 247.765625 263.289062 247.511719 267.972656 Z M 247.511719 267.972656 "/><path style=" stroke:none;fill-rule:evenodd;fill:#ff9dad;fill-opacity:1;" d="M 344.914062 247.265625 C 344.914062 253.382812 345.863281 256.902344 350.828125 261.671875 C 366.65625 276.890625 385.527344 257.492188 385.527344 246.136719 C 385.527344 240.949219 385.148438 235.742188 381.125 231.71875 C 377.972656 229.183594 374.136719 227.648438 370.109375 227.304688 C 367.785156 227.304688 370.816406 227.824219 365.378906 227.121094 C 363.6875 227.019531 361.988281 227.21875 360.363281 227.707031 C 352.253906 230.234375 344.914062 239.648438 344.914062 247.265625 Z M 344.914062 247.265625 "/><path style=" stroke:none;fill-rule:evenodd;fill:#c6948a;fill-opacity:1;" d="M 305.800781 240.480469 C 300.839844 240.480469 299.71875 240.625 296.761719 242.730469 C 291.84375 246.238281 290.8125 252.878906 296.65625 257.164062 C 300.761719 260.175781 312.566406 261.816406 312.566406 257.800781 C 312.566406 256.894531 311.960938 256.691406 311.441406 255.917969 C 307.53125 255.917969 296.773438 256.714844 296.773438 249.894531 C 296.773438 247.53125 298.859375 245.910156 300.644531 245.109375 C 305.621094 242.871094 310.3125 246.964844 310.3125 241.988281 C 310.3125 239.5 301.292969 208.480469 297.527344 208.480469 C 293.140625 208.480469 296.917969 214.003906 297.527344 215.253906 C 299.597656 219.453125 305.476562 236.589844 305.800781 240.480469 Z M 305.800781 240.480469 "/><path style=" stroke:none;fill-rule:evenodd;fill:#c6948a;fill-opacity:1;" d="M 298.277344 303.355469 C 298.277344 305.183594 298.265625 307.121094 300.535156 307.121094 C 303.449219 307.121094 301.199219 301.523438 303.917969 295.449219 C 310.335938 281.097656 324.875 292.4375 327.613281 292.4375 C 328.472656 292.4375 328.050781 292.3125 329.117188 292.0625 C 329.917969 288.628906 329.4375 288.730469 322.730469 286.035156 C 307.292969 279.839844 298.277344 290.164062 298.277344 303.355469 Z M 298.277344 303.355469 "/><path style=" stroke:none;fill-rule:evenodd;fill:#000000;fill-opacity:1;" d="M 259.539062 225.054688 C 259.539062 229.207031 261.039062 234.253906 263.277344 235.996094 C 263.972656 236.589844 264.851562 236.925781 265.765625 236.9375 C 266.675781 236.949219 267.566406 236.636719 268.273438 236.058594 C 273.324219 231.664062 267.097656 210.976562 261.171875 218.40625 C 259.972656 220.40625 259.40625 222.722656 259.539062 225.054688 Z M 259.539062 225.054688 "/><path style=" stroke:none;fill-rule:evenodd;fill:#c6948a;fill-opacity:1;" d="M 194.476562 252.914062 C 193.351562 257.761719 195.335938 256.039062 201.660156 256.644531 C 204.582031 257.023438 207.464844 257.664062 210.273438 258.5625 C 209.78125 259.296875 206.054688 261.992188 210.703125 265.285156 C 216.9375 269.699219 223.039062 263.621094 215.433594 257.160156 C 211.207031 253.570312 198.300781 251.082031 194.476562 252.914062 Z M 194.476562 252.914062 "/><path style=" stroke:none;fill-rule:evenodd;fill:#000000;fill-opacity:1;" d="M 338.515625 208.484375 C 338.515625 213.609375 338.882812 210.03125 339.703125 214.453125 C 340.441406 218.449219 343.820312 224.671875 345.664062 224.671875 C 348.855469 224.671875 349.910156 223.914062 348.945312 217.625 C 348.480469 214.90625 347.738281 212.238281 346.738281 209.667969 C 345.882812 207.386719 344.617188 202.1875 341.507812 203.527344 C 340.707031 204.113281 340.03125 204.855469 339.515625 205.707031 C 339.003906 206.558594 338.664062 207.503906 338.515625 208.484375 Z M 338.515625 208.484375 "/><path style=" stroke:none;fill-rule:evenodd;fill:#c6948a;fill-opacity:1;" d="M 395.683594 205.855469 C 395.683594 208.480469 396.351562 214.886719 399.445312 214.886719 C 404.339844 214.886719 406.214844 214.332031 406.214844 208.867188 C 406.082031 208.152344 405.714844 207.5 405.167969 207.019531 C 404.621094 206.542969 403.929688 206.261719 403.203125 206.230469 C 401.949219 206.371094 400.765625 206.898438 399.820312 207.738281 C 399.738281 204.550781 400.105469 201.371094 400.910156 198.289062 C 401.296875 196.261719 402.023438 194.3125 403.058594 192.53125 C 403.773438 191.363281 403.957031 191.804688 403.957031 190.417969 C 403.957031 189.730469 401.171875 184.144531 397.515625 195.640625 C 396.441406 198.945312 395.824219 202.382812 395.683594 205.855469 Z M 395.683594 205.855469 "/><path style=" stroke:none;fill-rule:evenodd;fill:#6c3f3e;fill-opacity:1;" d="M 191.09375 172.726562 C 190.824219 182.523438 191.9375 192.308594 194.402344 201.796875 L 199.046875 217.472656 C 199.742188 219.089844 200.351562 220.742188 200.871094 222.421875 C 196.835938 223.5 204.183594 229.992188 206.671875 233.179688 C 208.058594 234.949219 213.042969 241.242188 215.164062 241.242188 C 218.269531 241.242188 218.304688 238.535156 218.617188 235.667969 C 219.882812 223.980469 218.574219 223.824219 221.851562 211.046875 C 224.015625 203.101562 227.074219 195.429688 230.972656 188.179688 L 232.835938 185.152344 L 231.359375 198.730469 C 230.667969 207.652344 230.578125 211.765625 230.578125 220.539062 C 230.578125 221.890625 231.679688 223.925781 232.835938 223.925781 C 235.984375 223.925781 239.089844 218.867188 241.949219 215.355469 C 251.703125 203.371094 259.453125 194.257812 266.941406 180.515625 C 269.898438 175.097656 270.441406 172.769531 272.429688 168.691406 C 272.460938 168.625 272.539062 168.5 272.5625 168.449219 C 272.605469 168.367188 272.652344 168.289062 272.699219 168.210938 L 272.714844 181.777344 C 272.714844 183.957031 272.363281 184.347656 272.316406 186.269531 C 272.039062 197.582031 268.417969 201.714844 274.207031 201.714844 C 274.863281 201.714844 276.410156 200.375 276.921875 199.917969 C 283.53125 194.046875 283.460938 193.285156 288.96875 187.503906 L 299.457031 173.914062 L 308.800781 158.796875 C 310.207031 159.742188 315.238281 169.582031 316.25 171.671875 L 323.09375 185.152344 C 324.015625 187 326.503906 193.433594 328.734375 193.433594 C 332.335938 193.433594 332.09375 188.222656 332.804688 183.203125 C 334.40625 171.859375 336.671875 159.257812 343.023438 149.761719 C 346.859375 152.332031 349.96875 156.15625 353.273438 159.457031 C 355.046875 161.230469 356.539062 162.804688 358.339844 164.546875 C 359.363281 165.53125 359.960938 165.773438 360.988281 166.792969 C 367.054688 172.519531 372.832031 178.550781 378.289062 184.859375 C 379.066406 185.816406 379.699219 186.570312 380.460938 187.578125 C 385.453125 194.167969 386.402344 184.015625 387.074219 182.566406 C 388.527344 180.539062 390.1875 178.664062 392.023438 176.980469 C 392.976562 176.164062 393.964844 175.394531 394.996094 174.683594 C 405.425781 167.59375 403.835938 168.460938 401.472656 162.785156 L 395.800781 149.257812 C 394.433594 146.179688 393.40625 143.3125 392.128906 140.136719 C 387.34375 128.277344 386.539062 117.957031 377.988281 103.097656 C 366.371094 82.921875 348.824219 71.011719 326.480469 65.433594 C 303.019531 59.578125 272.742188 62.160156 252.265625 72.464844 C 246.386719 75.1875 240.882812 78.660156 235.894531 82.804688 C 224.863281 91.53125 215.785156 104.269531 208.925781 116.421875 C 200.230469 131.851562 191.09375 155.578125 191.09375 172.726562 Z M 191.09375 172.726562 "/><g clip-rule="nonzero" clip-path="url(#915f18d9bc)"><path style=" stroke:none;fill-rule:evenodd;fill:#28324a;fill-opacity:1;" d="M 493.484375 735.527344 L 493.464844 25.523438 L 601.394531 25.523438 C 600.472656 27.917969 601.023438 104.601562 601.023438 113.992188 L 601.023438 691.109375 C 601.023438 705.636719 600.40625 721.546875 601.085938 735.90625 C 597.972656 734.777344 554.425781 735.53125 547.242188 735.53125 Z M 18.894531 735.902344 C 16.613281 735.058594 6.136719 735.527344 2.289062 735.503906 C 0.0078125 735.492188 0.539062 735.53125 0.0429688 736.175781 L 0.0429688 760.472656 C 0.601562 761.628906 0.789062 761.152344 4.558594 761.128906 C 55.765625 760.824219 107.894531 761.128906 159.125 761.128906 C 317.144531 761.128906 475.359375 760.839844 633.363281 761.128906 L 637.421875 761.054688 C 637.515625 761.03125 637.625 760.992188 637.707031 760.972656 L 638.222656 760.75 C 639.199219 759.328125 638.628906 737.21875 638.628906 735.527344 L 628.140625 735.527344 L 628.105469 25.523438 L 638.257812 25.523438 C 639.238281 23.976562 638.605469 6.539062 638.640625 3.304688 C 638.824219 2.285156 638.691406 1.238281 638.257812 0.296875 L 0.0429688 0.296875 L 0.0429688 25.527344 L 18.851562 25.527344 L 18.894531 735.90625 Z M 319.683594 735.527344 L 192.972656 735.363281 L 192.972656 25.535156 C 214.015625 25.390625 235.109375 25.527344 256.15625 25.527344 C 264 25.527344 316.871094 24.804688 319.714844 25.902344 Z M 165.519531 735.363281 L 45.820312 735.691406 L 45.925781 25.523438 L 165.519531 25.53125 L 165.519531 735.367188 Z M 466.386719 25.527344 L 466.46875 735.703125 L 346.792969 735.527344 L 346.792969 25.527344 Z M 466.386719 25.527344 "/></g><path style=" stroke:none;fill-rule:evenodd;fill:#ffdbc7;fill-opacity:1;" d="M 54.371094 549.394531 C 54.371094 567.640625 67.414062 587.898438 78.394531 601.523438 L 84.320312 608.214844 C 92.246094 616.117188 96.484375 619.019531 105.660156 625.152344 L 117.355469 632.386719 C 123.09375 636.121094 121.984375 633.769531 124.160156 638.621094 C 124.839844 639.980469 125.707031 641.238281 126.738281 642.355469 C 131.753906 648.710938 143.796875 655.035156 152.75 655.035156 C 163.925781 655.035156 167.074219 652.8125 175.929688 649.617188 C 188.65625 645.023438 187.105469 643.074219 189.554688 641.371094 C 189.75 641.234375 201.109375 637.449219 201.109375 630.625 C 201.109375 628.039062 201.386719 625.980469 199.953125 623.785156 C 199.636719 623.277344 199.246094 622.816406 198.800781 622.417969 C 198.265625 621.972656 197.769531 621.480469 197.324219 620.945312 C 200 620.886719 204.109375 618.484375 205.636719 617.058594 C 213.167969 610.046875 209.691406 601.636719 204.054688 600.320312 C 205.839844 597.652344 208.679688 597.035156 208.679688 590.636719 C 208.679688 576.21875 166.632812 584.703125 166.632812 573.382812 C 166.632812 567.636719 172.472656 571.675781 166.222656 562.847656 C 162.589844 557.71875 154.667969 555.285156 148.132812 555.285156 L 155.167969 546.320312 C 157.035156 544.113281 156.121094 545.089844 156.121094 542.65625 L 156.121094 533.820312 C 156.121094 531.261719 156.539062 530.75 156.539062 528.34375 C 154.355469 526.878906 152.125 525.589844 149.890625 524.058594 L 146.636719 521.839844 C 139.574219 517.144531 133.855469 512.273438 127.285156 507.125 L 107.347656 487.519531 L 103.5625 490.886719 C 103.007812 491.449219 102.460938 492.023438 101.875 492.558594 C 96.011719 497.917969 74.25 519.578125 69.773438 524.824219 L 61.207031 534.34375 C 60.089844 535.636719 59.070312 537.003906 58.152344 538.441406 C 55.742188 541.585938 54.414062 545.429688 54.371094 549.394531 Z M 54.371094 549.394531 "/><path style=" stroke:none;fill-rule:evenodd;fill:#ffdac7;fill-opacity:1;" d="M 505.515625 519.089844 C 505.515625 522.539062 506.070312 526.429688 506.335938 529.632812 L 506.359375 540.550781 C 508.472656 542.542969 510.308594 544.808594 511.824219 547.285156 C 504.328125 547.285156 496.710938 550.34375 492.769531 556.835938 C 491.835938 558.375 491.222656 558.476562 491.222656 559.914062 C 491.222656 562.746094 493.324219 561.890625 493.324219 565.804688 C 493.324219 571.640625 476.945312 572.550781 470.960938 573.304688 C 462.753906 574.335938 451.277344 574.632812 451.277344 583.484375 C 451.277344 588.238281 454.5625 590.316406 455.902344 592.320312 C 446.109375 597.507812 449.5625 607.261719 458.136719 611.550781 C 458.890625 611.953125 459.679688 612.292969 460.492188 612.5625 C 462.085938 613.128906 461.726562 612.5625 462.632812 613.785156 C 458.210938 614.96875 455.105469 627.515625 468.585938 632.65625 C 474.015625 634.726562 468.460938 635.171875 481.84375 640.851562 L 494.492188 645.449219 C 504.664062 648.308594 513.242188 647.898438 522.472656 642.96875 C 535.585938 635.960938 535.96875 628.976562 537.445312 627.648438 L 550.84375 619.597656 C 552.722656 618.332031 554.304688 617.433594 556.230469 616.148438 C 558.070312 614.921875 559.300781 613.941406 561.1875 612.695312 L 579.425781 596.429688 C 583.507812 591.746094 587.257812 586.773438 590.636719 581.558594 C 591.261719 580.523438 591.648438 580.035156 592.308594 579.027344 L 597.003906 570.679688 C 599.882812 565.515625 605.589844 551.792969 605.589844 544.335938 C 605.589844 534.851562 604.59375 533.59375 598.574219 526.109375 L 589.003906 515.484375 C 582.234375 507.910156 568.136719 494.46875 560.078125 486.359375 C 559.382812 485.664062 559.109375 485.402344 558.339844 484.734375 C 556.535156 482.882812 554.621094 481.144531 552.609375 479.523438 C 548.355469 485.882812 530.773438 500.980469 524.859375 505.617188 L 518.644531 510.335938 C 515.957031 512.117188 507.207031 518.640625 505.515625 519.089844 Z M 505.515625 519.089844 "/><path style=" stroke:none;fill-rule:evenodd;fill:#ffdac7;fill-opacity:1;" d="M 120.382812 490.460938 C 120.011719 489.066406 119.820312 489.246094 118.808594 488.25 C 118.148438 487.503906 117.40625 486.835938 116.601562 486.253906 C 116.972656 487.648438 117.164062 487.46875 118.175781 488.464844 C 118.835938 489.210938 119.574219 489.878906 120.382812 490.460938 Z M 120.382812 490.460938 "/><path style=" stroke:none;fill-rule:evenodd;fill:#ffdbc7;fill-opacity:1;" d="M 124.589844 494.253906 C 124.34375 493.742188 123.992188 493.289062 123.554688 492.929688 C 123.121094 492.5625 122.613281 492.300781 122.066406 492.148438 C 122.3125 492.660156 122.664062 493.113281 123.097656 493.476562 C 123.535156 493.839844 124.042969 494.105469 124.589844 494.253906 Z M 124.589844 494.253906 "/><path style=" stroke:none;fill-rule:evenodd;fill:#ffdac7;fill-opacity:1;" d="M 540.84375 481.203125 L 541.683594 481.203125 L 541.683594 480.363281 Z M 540.84375 481.203125 "/><path style=" stroke:none;fill-rule:evenodd;fill:#ffdac7;fill-opacity:1;" d="M 540 482.046875 L 540.839844 482.046875 L 540.839844 481.203125 Z M 540 482.046875 "/><path style=" stroke:none;fill-rule:evenodd;fill:#ffdac7;fill-opacity:1;" d="M 539.160156 482.886719 L 540.003906 482.886719 L 540.003906 482.042969 Z M 539.160156 482.886719 "/><path style=" stroke:none;fill-rule:evenodd;fill:#ffdac7;fill-opacity:1;" d="M 538.320312 483.730469 L 539.160156 483.730469 L 539.160156 482.886719 Z M 538.320312 483.730469 "/><path style=" stroke:none;fill-rule:evenodd;fill:#ffdac7;fill-opacity:1;" d="M 537.480469 484.574219 L 538.320312 484.574219 L 538.320312 483.730469 Z M 537.480469 484.574219 "/><path style=" stroke:none;fill-rule:evenodd;fill:#ffdac7;fill-opacity:1;" d="M 121.222656 491.300781 L 121.222656 490.460938 L 120.382812 490.460938 Z M 121.222656 491.300781 "/><path style=" stroke:none;fill-rule:evenodd;fill:#ffdac7;fill-opacity:1;" d="M 122.066406 492.148438 L 122.066406 491.304688 L 121.226562 491.304688 Z M 122.066406 492.148438 "/><path style=" stroke:none;fill-rule:evenodd;fill:#ffdac7;fill-opacity:1;" d="M 544.207031 477.84375 L 544.628906 477.84375 L 544.277344 477.351562 Z M 544.207031 477.84375 "/><path style=" stroke:none;fill-rule:evenodd;fill:#ffdac7;fill-opacity:1;" d="M 115.757812 485.410156 L 115.757812 484.992188 L 115.269531 485.339844 Z M 115.757812 485.410156 "/><path style=" stroke:none;fill-rule:evenodd;fill:#ffdac7;fill-opacity:1;" d="M 533.695312 488.355469 L 533.273438 488.355469 L 533.625 488.847656 Z M 533.695312 488.355469 "/><path style=" stroke:none;fill-rule:evenodd;fill:#ffdac7;fill-opacity:1;" d="M 127.109375 496.773438 L 127.109375 497.195312 L 127.601562 496.84375 Z M 127.109375 496.773438 "/><path style=" stroke:none;fill-rule:evenodd;fill:#d6a095;fill-opacity:1;" d="M 514.523438 563.863281 C 518.03125 565.722656 519.804688 568.914062 520.605469 573.605469 C 522.3125 583.496094 510.449219 585.371094 501.949219 586.675781 C 496.871094 587.453125 490.042969 587.734375 487.4375 588.339844 C 486.144531 593.898438 488.890625 592.183594 494.585938 592.105469 C 500.273438 591.726562 505.910156 590.820312 511.433594 589.394531 C 516.835938 587.925781 516.4375 586.832031 520.90625 586.832031 C 525.246094 586.832031 527.675781 594.875 527.675781 600.761719 C 527.675781 605.429688 519.179688 607.253906 515.683594 607.957031 C 508.730469 609.351562 501.734375 608.917969 497.96875 609.796875 C 496.726562 614.992188 500.898438 614.125 505.542969 613.617188 C 506.761719 613.484375 507.976562 613.632812 509.195312 613.507812 C 513.390625 613.03125 517.550781 612.292969 521.660156 611.304688 C 522.089844 616.476562 528.429688 610.574219 528.429688 620.335938 C 528.429688 626.167969 521.234375 626.859375 516.75 627.46875 L 508.226562 628.347656 C 505.160156 628.757812 501.351562 627.722656 501.351562 631.253906 C 501.351562 632.75 502.8125 633.136719 503.984375 633.136719 C 509.0625 633.085938 514.132812 632.617188 519.136719 631.742188 C 520.707031 631.34375 522.304688 631.054688 523.914062 630.878906 C 524.289062 635.382812 527.300781 629.8125 527.300781 639.914062 C 529.035156 638.960938 530.570312 637.683594 531.816406 636.152344 C 531.933594 635.695312 530.617188 630.066406 528.058594 629.375 C 529.667969 626.96875 532.945312 627.226562 532.945312 619.589844 C 532.945312 615.328125 530.480469 610.125 526.5625 609.800781 C 527.257812 607.183594 532.203125 608.324219 532.203125 598.882812 C 532.179688 595.421875 531.324219 592.019531 529.703125 588.960938 C 528.4375 586.222656 526.265625 584.011719 523.550781 582.695312 C 523.886719 581.257812 525.433594 579.117188 525.433594 575.921875 C 525.433594 568.285156 519.898438 559.113281 513.773438 558.601562 C 514.414062 561.363281 514.523438 558.734375 514.523438 563.863281 Z M 514.523438 563.863281 "/><path style=" stroke:none;fill-rule:evenodd;fill:#d6a095;fill-opacity:1;" d="M 134.679688 583.4375 C 134.679688 587.273438 136.171875 588.90625 136.5625 590.589844 C 127.972656 595.140625 125.835938 608.488281 129.675781 613.675781 C 132.117188 616.980469 132.332031 615.652344 133.550781 617.320312 C 131.433594 618.441406 130.207031 618.710938 128.90625 620.949219 C 126.894531 624.40625 126.304688 630.140625 128.722656 633.824219 C 130.011719 635.785156 131.113281 635.871094 132.050781 637.273438 C 129.65625 637.910156 128.289062 642.351562 128.289062 643.664062 C 128.289062 644.808594 129.503906 645.308594 130.21875 645.875 C 130.980469 646.644531 131.851562 647.292969 132.804688 647.804688 C 132.804688 638.03125 135.84375 642.875 136.1875 638.769531 C 138.601562 638.824219 146.894531 641.027344 156.863281 641.027344 C 157.34375 640.976562 157.792969 640.757812 158.132812 640.417969 C 158.476562 640.074219 158.691406 639.628906 158.746094 639.148438 C 158.746094 635.105469 151.480469 636.710938 143.695312 635.382812 C 141.074219 635.042969 138.492188 634.480469 135.964844 633.710938 C 128.488281 631.140625 132.660156 622.980469 133.667969 622.332031 C 135.769531 620.984375 138.148438 622.589844 138.429688 619.195312 C 141.402344 619.445312 146.945312 621.453125 153.847656 621.453125 C 156.613281 621.675781 159.394531 621.546875 162.125 621.078125 C 163.230469 616.441406 160.628906 616.90625 154.976562 616.941406 C 150.136719 616.972656 132.417969 615.238281 132.417969 608.65625 C 132.417969 602.839844 134.761719 594.726562 139.1875 594.726562 C 144.253906 594.726562 142.820312 595.707031 148.078125 597.121094 C 153.679688 598.558594 159.394531 599.515625 165.160156 599.972656 C 168.691406 600.238281 173.035156 601.210938 173.035156 598.113281 C 173.035156 594.226562 167.4375 596.101562 159.808594 594.785156 C 153.058594 593.617188 138.078125 592.359375 139.3125 582.457031 C 139.527344 580.210938 140.160156 578.023438 141.171875 576.007812 C 141.984375 574.519531 143.929688 572.203125 145.582031 571.757812 C 145.582031 565.203125 146.101562 568.882812 146.339844 566.109375 C 142.648438 567.882812 141.03125 568.421875 138.222656 572.289062 C 136.023438 575.601562 134.792969 579.464844 134.679688 583.4375 Z M 134.679688 583.4375 "/><path style=" stroke:none;fill-rule:evenodd;fill:#d6a095;fill-opacity:1;" d="M 470.898438 609.417969 L 454.355469 608.953125 C 455.703125 611.140625 463.371094 613.9375 463.378906 613.9375 L 478.429688 613.949219 C 480.492188 613.886719 481.523438 613.535156 484.054688 613.5625 C 486.125 613.585938 493.453125 613.628906 493.453125 610.925781 C 493.453125 606.511719 487.867188 609.054688 483.3125 609.054688 C 478.882812 609.0625 475.554688 609.574219 470.898438 609.417969 Z M 470.898438 609.417969 "/><path style=" stroke:none;fill-rule:evenodd;fill:#d6a095;fill-opacity:1;" d="M 166.648438 618.074219 C 166.648438 620.652344 167.835938 620.875 171.523438 621.101562 C 177.148438 621.449219 191.746094 622.230469 196.734375 621.464844 C 198.734375 621.160156 204.570312 618.722656 205.761719 616.945312 C 202.550781 616.945312 198.339844 616.710938 195.25 616.964844 C 191.894531 617.382812 188.507812 617.484375 185.132812 617.269531 C 182.207031 616.941406 178.058594 617.261719 175.027344 616.847656 C 172.820312 616.542969 166.648438 615.261719 166.648438 618.074219 Z M 166.648438 618.074219 "/><path style=" stroke:none;fill-rule:evenodd;fill:#d6a095;fill-opacity:1;" d="M 123.398438 543.160156 C 123.398438 547.050781 128.90625 545.40625 135.867188 550.253906 L 138.785156 552.605469 L 138.988281 552.777344 L 142.164062 556 C 144.632812 558.980469 145.851562 558.597656 150.097656 558.597656 C 151.617188 558.597656 151.980469 557.226562 151.980469 555.585938 C 149.382812 555.296875 146.960938 554.144531 145.09375 552.316406 C 140.796875 547.417969 131.28125 541.277344 125.277344 541.277344 C 124.5 541.730469 123.851562 542.378906 123.398438 543.160156 Z M 123.398438 543.160156 "/><path style=" stroke:none;fill-rule:evenodd;fill:#d6a095;fill-opacity:1;" d="M 508.132812 547.679688 C 508.132812 551.347656 509.652344 550.691406 513.773438 550.691406 C 517.765625 550.691406 519.234375 544.066406 528.648438 539.984375 C 531.078125 538.925781 535.554688 538.003906 536.25 537.011719 C 536.429688 536.734375 536.542969 536.417969 536.585938 536.09375 C 536.632812 535.765625 536.605469 535.433594 536.507812 535.121094 C 536.410156 534.804688 536.242188 534.515625 536.019531 534.273438 C 535.796875 534.027344 535.523438 533.839844 535.21875 533.710938 C 531.875 532.074219 519.472656 539.21875 515.191406 544.214844 C 512.890625 546.894531 514.53125 545.363281 512.058594 546.34375 C 510.890625 547.128906 509.535156 547.589844 508.132812 547.679688 Z M 508.132812 547.679688 "/><path style=" stroke:none;fill-rule:evenodd;fill:#d6a095;fill-opacity:1;" d="M 163.261719 639.535156 C 163.261719 642.46875 167.855469 642.652344 171.3125 643.152344 C 176.636719 643.65625 181.988281 643.832031 187.332031 643.679688 C 188.269531 643.679688 188.96875 641.890625 190.699219 641.027344 C 192.191406 640.28125 193.921875 640.054688 194.855469 638.785156 L 183.195312 639.160156 C 177.640625 639.265625 172.089844 638.753906 166.644531 637.640625 C 164.453125 637.175781 163.261719 638.5 163.261719 639.535156 Z M 163.261719 639.535156 "/><path style=" stroke:none;fill-rule:evenodd;fill:#d6a095;fill-opacity:1;" d="M 477.292969 631.25 L 470.90625 631.25 C 468.40625 631.25 467.652344 630.875 465.265625 630.875 C 465.6875 631.46875 466.28125 631.925781 466.964844 632.183594 C 468.417969 632.59375 469.785156 633.265625 470.996094 634.171875 C 473.003906 636.230469 469.953125 635.765625 480.308594 635.765625 C 502.6875 635.765625 496.183594 629.746094 495.351562 629.746094 C 492.4375 629.746094 489.6875 630.734375 486.703125 630.871094 C 483.328125 631.03125 480.835938 631.25 477.292969 631.25 Z M 477.292969 631.25 "/><path style=" stroke:none;fill-rule:evenodd;fill:#d6a095;fill-opacity:1;" d="M 181.691406 599.25 C 181.691406 603.761719 191.445312 600.46875 198.128906 599.515625 C 202.730469 598.859375 205.796875 599.027344 207.402344 596.378906 C 207.855469 595.621094 208.832031 594.011719 208.507812 593.316406 C 208.160156 592.574219 204.617188 593.800781 202.210938 594.195312 C 199.542969 594.632812 197.292969 595.074219 194.78125 595.414062 C 192.242188 595.765625 190.03125 596.210938 187.636719 596.542969 C 185.3125 596.882812 181.691406 596.683594 181.691406 599.25 Z M 181.691406 599.25 "/><path style=" stroke:none;fill-rule:evenodd;fill:#d6a095;fill-opacity:1;" d="M 475.789062 593.609375 C 477.234375 593.609375 478.421875 593.050781 478.421875 591.347656 C 478.421875 589.078125 474.816406 589.015625 472.757812 588.734375 C 470.253906 588.394531 468.03125 587.929688 465.613281 587.605469 L 451.8125 585.199219 C 450.53125 585.75 453.296875 589.589844 454.105469 590.085938 C 455.453125 590.917969 473.53125 593.609375 475.789062 593.609375 Z M 475.789062 593.609375 "/><path style=" stroke:none;fill-rule:evenodd;fill:#d6a095;fill-opacity:1;" d="M 492.335938 562.734375 C 492.992188 563.980469 493.816406 565.355469 493.097656 566.875 C 495.925781 566.8125 494.769531 565.398438 499.320312 564.441406 C 502.121094 564.078125 504.949219 564.011719 507.761719 564.234375 C 512.027344 564.234375 513.785156 556.824219 498.3125 560.042969 C 497.21875 560.25 496.148438 560.570312 495.121094 560.992188 C 494.101562 561.417969 493.164062 562.003906 492.335938 562.734375 Z M 492.335938 562.734375 "/><path style=" stroke:none;fill-rule:evenodd;fill:#d6a095;fill-opacity:1;" d="M 154.621094 571.777344 C 164.949219 571.777344 163.753906 574.71875 167.03125 574.789062 C 166.347656 573.367188 167.15625 571.578125 167.78125 570.273438 C 166.050781 569.214844 164.164062 568.4375 162.191406 567.964844 C 147.738281 565 148.007812 570.765625 151.105469 571.9375 C 152.492188 572.460938 153.171875 571.777344 154.621094 571.777344 Z M 154.621094 571.777344 "/><path style=" stroke:none;fill-rule:evenodd;fill:#f3571d;fill-opacity:1;" d="M 485.941406 534.757812 C 485.359375 536.953125 484.992188 537.25 482.503906 536.617188 L 481.820312 534.953125 C 484.058594 535.503906 483.78125 535.570312 485.941406 534.757812 Z M 408.648438 314.957031 C 407.558594 314.925781 405.367188 314.554688 403.960938 314.347656 C 390.960938 312.449219 383.078125 316.957031 372.832031 323.125 C 371.453125 323.957031 370.953125 324.382812 369.4375 325.199219 L 357.949219 331.375 C 352.394531 333.933594 346.578125 335.871094 340.601562 337.160156 C 326.40625 340.15625 317.707031 340.582031 303.695312 340.640625 C 296.75 340.332031 289.839844 339.515625 283.015625 338.195312 C 279.921875 337.433594 280.933594 338.175781 279.121094 336.203125 C 276.605469 333.460938 265.609375 332.449219 261.671875 330.53125 C 259.476562 330.480469 259.433594 329.855469 257.476562 329.6875 C 226.203125 322.535156 231.34375 318.058594 196.128906 346.582031 L 169.898438 370.40625 C 168.15625 372.148438 166.640625 373.8125 164.855469 375.464844 C 163.78125 376.460938 163.203125 376.679688 162.109375 377.765625 L 142.152344 397.769531 C 141.179688 398.875 140.96875 399.382812 139.84375 400.507812 L 129.746094 410.179688 C 127.960938 411.96875 126.480469 413.4375 124.703125 415.234375 C 124.191406 415.746094 123.960938 416.003906 123.429688 416.488281 L 114.402344 424.707031 C 113.433594 425.558594 112.832031 426.355469 111.882812 427.234375 L 100.589844 437.394531 C 97.269531 440.195312 92.667969 445.5 88.757812 449.113281 C 86.804688 450.921875 84.578125 451.386719 84.609375 455.09375 C 84.859375 457.875 85.441406 460.617188 86.332031 463.265625 C 90.652344 476.40625 97.28125 488.671875 105.90625 499.484375 C 106.742188 500.546875 107.113281 501.003906 107.945312 502.070312 C 108.78125 503.136719 109.273438 503.4375 110.113281 504.527344 L 114.371094 509.394531 C 119.304688 514.910156 124.804688 519.886719 130.773438 524.25 C 134.757812 527.257812 145.976562 534.269531 151.050781 535.492188 L 152.339844 536.101562 L 161.960938 539.328125 C 165.035156 540.488281 167.261719 542.828125 171.140625 543.605469 C 175.210938 544.246094 179.3125 544.636719 183.429688 544.773438 C 187.710938 545.117188 191.019531 545.589844 196.066406 545.589844 C 196.066406 548.753906 195.644531 550.121094 195.644531 553.050781 L 193.984375 596.539062 C 193.808594 598.667969 194.082031 601.09375 193.964844 603.25 L 191.867188 659.664062 C 191.882812 662.371094 191.496094 663.300781 191.429688 665.539062 C 191.367188 667.558594 191.582031 669.859375 191.429688 671.84375 C 191.183594 673.945312 191.050781 676.058594 191.027344 678.179688 C 191.046875 686.882812 190.167969 694.726562 190.1875 703.433594 C 190.199219 707.855469 189.84375 711.347656 189.785156 716.074219 C 189.753906 718.511719 189.328125 719.246094 189.335938 721.941406 C 189.347656 724.179688 189.390625 726.464844 189.363281 728.703125 L 188.753906 741.132812 C 188.375 745.390625 188.292969 749.667969 188.511719 753.9375 C 191.269531 753.9375 192.945312 753.558594 196.097656 753.53125 C 198.679688 753.507812 200.503906 753.085938 203.648438 753.09375 C 208.765625 753.105469 214.609375 752.820312 219.628906 753.09375 C 221.453125 753.191406 221.167969 753.421875 222.988281 753.519531 C 226.609375 753.707031 230.054688 753.445312 234.648438 754.050781 L 249.042969 755.636719 C 270.28125 755.886719 291.707031 755.621094 312.96875 755.621094 L 472.742188 755.621094 C 481.875 755.621094 481.621094 757.492188 481.570312 748.46875 C 481.550781 745.261719 482.015625 743.902344 482.003906 740.902344 C 481.945312 727.226562 482.832031 714.710938 482.832031 701.753906 C 482.832031 682.605469 484.515625 658.519531 484.515625 639.460938 C 484.515625 636.792969 484.515625 634.125 484.507812 631.457031 C 484.492188 628.464844 484.960938 627.097656 484.9375 623.890625 L 485.355469 600.316406 C 485.34375 597.121094 485.789062 595.550781 485.792969 592.757812 C 485.792969 590.085938 485.777344 587.410156 485.769531 584.738281 C 485.753906 581.746094 486.222656 580.378906 486.203125 577.175781 C 486.152344 567.957031 486.710938 562.410156 486.605469 553.648438 C 486.554688 549.542969 486.925781 549.984375 489.171875 548.128906 L 521.582031 523.777344 C 522.625 522.953125 522.308594 522.886719 523.617188 522.265625 C 526.117188 520.136719 528.425781 518.6875 530.863281 516.660156 C 532.167969 515.578125 533.140625 515.03125 534.453125 513.941406 C 535.84375 512.78125 536.734375 512.421875 538.191406 511.09375 C 539.238281 510.183594 539.101562 510.84375 539.984375 509.410156 C 541.285156 508.917969 542.453125 508.113281 543.378906 507.066406 C 544.554688 506.390625 545.65625 505.605469 546.683594 504.722656 L 556.742188 497.113281 C 561.183594 493.085938 567.566406 469.921875 569.714844 463.382812 C 570.78125 460.15625 571.335938 457.519531 572.238281 454.125 C 572.988281 451.3125 575.15625 447.769531 575.335938 445.269531 C 575.757812 444.855469 576.089844 444.355469 576.304688 443.804688 C 576.523438 443.253906 576.621094 442.664062 576.597656 442.074219 C 576.652344 441.984375 576.707031 441.722656 576.726562 441.78125 C 576.742188 441.835938 576.824219 441.546875 576.847656 441.476562 C 576.957031 441.148438 577.0625 440.851562 577.144531 440.503906 L 577.886719 434.488281 C 577.726562 429.433594 574.015625 429.273438 568.601562 425.652344 C 561.894531 421.164062 545.0625 409.574219 539.304688 404.898438 C 538.332031 404.109375 537.691406 403.589844 536.71875 402.859375 C 534.867188 401.476562 533.320312 400.28125 531.515625 398.808594 L 525.113281 393.429688 C 524.738281 393.113281 525.03125 393.367188 524.660156 393.050781 C 524.257812 392.710938 524.316406 392.773438 523.976562 392.46875 L 516.710938 385.851562 L 516.480469 385.664062 L 503.902344 373 L 503.707031 372.773438 L 496.472656 365.285156 C 493.417969 361.335938 479.910156 348.5625 475.828125 345.128906 C 464.105469 335.273438 455.28125 331.027344 440.921875 324.933594 L 434.441406 322.582031 C 432.023438 321.769531 430.003906 321.09375 427.507812 320.261719 L 413.09375 316.21875 C 411.507812 315.5 410.167969 315.539062 408.671875 314.953125 Z M 442.925781 437.542969 C 442.398438 437.039062 442.648438 438.339844 442.113281 436.449219 C 442.019531 436.101562 442.011719 435.738281 442.09375 435.390625 C 442.339844 434.136719 443.984375 432.53125 446.074219 434.8125 C 443.421875 434.636719 442.425781 434.765625 442.925781 437.542969 Z M 210.25 459.4375 C 210.058594 457.53125 210.628906 457.484375 210.644531 455.1875 L 206.765625 455.28125 C 208.050781 450.984375 212.609375 453.066406 210.597656 458.792969 Z M 210.25 459.4375 "/><path style=" stroke:none;fill-rule:evenodd;fill:#cb0711;fill-opacity:1;" d="M 261.671875 330.53125 C 259.472656 330.480469 259.429688 329.855469 257.472656 329.6875 C 255.648438 342.929688 255.820312 353.367188 259.976562 365.46875 C 270.445312 395.949219 303.4375 414.699219 338.667969 405.914062 C 367.84375 398.644531 391.003906 374.449219 403.929688 348.363281 C 408.425781 339.285156 412.898438 328.613281 413.070312 316.21875 C 411.484375 315.503906 410.144531 315.539062 408.652344 314.957031 C 410.003906 323.855469 403.792969 339.203125 400.484375 345.753906 C 387.773438 370.917969 367.253906 393.722656 339.191406 401.410156 C 293.042969 414.054688 252.433594 376.320312 261.671875 330.53125 Z M 261.671875 330.53125 "/><path style=" stroke:none;fill-rule:evenodd;fill:#cb0711;fill-opacity:1;" d="M 159.804688 531.914062 C 154.285156 533.566406 156.628906 533.710938 154.226562 535.300781 L 152.339844 536.101562 L 161.960938 539.332031 C 165.035156 540.492188 167.261719 542.832031 171.140625 543.609375 C 175.210938 544.25 179.3125 544.640625 183.429688 544.777344 C 187.714844 545.117188 191.023438 545.59375 196.066406 545.59375 C 196.066406 548.757812 195.648438 550.121094 195.648438 553.050781 C 198.675781 548.789062 196.179688 546.570312 196.878906 541.839844 C 197.460938 537.921875 198.265625 533.824219 198.898438 529.902344 C 200.171875 522.046875 201.472656 514.304688 202.765625 506.429688 C 203.828125 499.988281 210.824219 462.496094 210.25 459.429688 C 210.0625 457.523438 210.632812 457.472656 210.644531 455.179688 L 206.769531 455.273438 C 206.40625 463.570312 194.832031 525.84375 193.085938 539.308594 C 188.398438 538.164062 184.523438 536.152344 177.40625 534.773438 C 174.367188 534.183594 171.648438 533.910156 168.503906 533.554688 C 165.761719 533.261719 161.738281 531.742188 159.804688 531.914062 Z M 159.804688 531.914062 "/><path style=" stroke:none;fill-rule:evenodd;fill:#cb0711;fill-opacity:1;" d="M 571.28125 447.847656 C 567.964844 455.574219 541.300781 493.585938 541.457031 498.132812 C 541.910156 500.234375 539.660156 502.769531 542.878906 506.558594 L 543.367188 507.058594 C 544.539062 506.382812 545.644531 505.597656 546.667969 504.714844 L 556.726562 497.105469 C 561.167969 493.078125 567.554688 469.914062 569.699219 463.375 C 570.765625 460.148438 571.320312 457.511719 572.226562 454.117188 C 572.972656 451.304688 575.140625 447.761719 575.320312 445.261719 C 574.132812 445.714844 573.144531 446.578125 572.535156 447.695312 Z M 571.28125 447.847656 "/><path style=" stroke:none;fill-rule:evenodd;fill:#cb0711;fill-opacity:1;" d="M 489.160156 548.128906 L 521.566406 523.78125 C 522.609375 522.953125 522.292969 522.890625 523.605469 522.269531 C 516.761719 520.496094 517.117188 515.933594 510.324219 516.882812 C 504.039062 517.765625 492.035156 527.925781 488.832031 533.101562 C 484.265625 540.480469 489.011719 542.585938 489.160156 548.128906 Z M 489.160156 548.128906 "/><path style=" stroke:none;fill-rule:evenodd;fill:#cb0711;fill-opacity:1;" d="M 442.925781 437.539062 C 444.128906 440.65625 446.972656 444.953125 448.703125 448.445312 C 455.519531 462.253906 468.175781 493.949219 473.789062 508.773438 C 476.992188 517.246094 480.503906 525.183594 481.820312 534.949219 C 484.058594 535.5 483.78125 535.566406 485.941406 534.753906 C 485.988281 527.796875 480.375 513.921875 477.980469 507.925781 C 474.632812 499.554688 471.386719 491.28125 468.050781 482.933594 C 461.222656 465.851562 454.617188 449.863281 446.074219 434.808594 C 443.421875 434.632812 442.429688 434.761719 442.925781 437.539062 Z M 442.925781 437.539062 "/><path style=" stroke:none;fill-rule:evenodd;fill:#cb0711;fill-opacity:1;" d="M 114.371094 509.402344 C 115.863281 501.511719 115.019531 501.289062 111.316406 495.328125 C 106.183594 487.054688 100.988281 480.804688 95.570312 473.214844 C 93.097656 469.75 90.394531 464.664062 86.328125 463.269531 C 90.652344 476.410156 97.28125 488.671875 105.90625 499.480469 C 106.742188 500.546875 107.113281 501.003906 107.945312 502.070312 C 108.78125 503.132812 109.273438 503.4375 110.113281 504.527344 Z M 114.371094 509.402344 "/><path style=" stroke:none;fill-rule:evenodd;fill:#d01012;fill-opacity:1;" d="M 539.316406 503.03125 C 539.152344 504.175781 539.09375 505.332031 539.144531 506.488281 C 539.296875 508.492188 539.570312 507.84375 539.96875 509.410156 C 541.273438 508.914062 542.441406 508.109375 543.367188 507.066406 L 542.878906 506.5625 C 539.660156 502.773438 541.914062 500.238281 541.457031 498.136719 C 540.695312 499.1875 541.144531 499.398438 540.550781 500.707031 C 540.066406 501.792969 539.65625 501.800781 539.316406 503.03125 Z M 539.316406 503.03125 "/><path style=" stroke:none;fill-rule:evenodd;fill:#d72015;fill-opacity:1;" d="M 151.050781 535.5 L 152.339844 536.105469 L 154.222656 535.308594 C 156.625 533.714844 154.28125 533.570312 159.804688 531.917969 C 157.394531 530.125 152.21875 533.417969 151.050781 535.5 Z M 151.050781 535.5 "/><path style=" stroke:none;fill-rule:evenodd;fill:#d11313;fill-opacity:1;" d="M 571.28125 447.851562 L 572.535156 447.699219 C 573.140625 446.582031 574.128906 445.71875 575.320312 445.265625 C 575.742188 444.851562 576.074219 444.351562 576.289062 443.800781 C 576.507812 443.25 576.605469 442.660156 576.582031 442.070312 C 573.921875 443.183594 572.691406 444.960938 571.28125 447.851562 Z M 571.28125 447.851562 "/><path style=" stroke:none;fill-rule:evenodd;fill:#d92316;fill-opacity:1;" d="M 538.171875 511.09375 C 539.222656 510.179688 539.085938 510.84375 539.964844 509.410156 C 539.566406 507.84375 539.296875 508.496094 539.144531 506.488281 C 539.09375 505.332031 539.152344 504.171875 539.316406 503.027344 L 538.78125 503.496094 C 538.292969 504.164062 538.628906 503.496094 538.273438 504.328125 C 537.664062 506.539062 537.628906 508.867188 538.171875 511.09375 Z M 538.171875 511.09375 "/><path style=" stroke:none;fill-rule:evenodd;fill:#d11313;fill-opacity:1;" d="M 206.765625 455.277344 L 210.644531 455.1875 C 210.628906 457.480469 210.058594 457.53125 210.25 459.4375 L 210.597656 458.792969 C 212.609375 453.0625 208.050781 450.984375 206.765625 455.277344 Z M 206.765625 455.277344 "/><path style=" stroke:none;fill-rule:evenodd;fill:#d11313;fill-opacity:1;" d="M 485.941406 534.757812 C 483.78125 535.570312 484.058594 535.503906 481.820312 534.949219 L 482.503906 536.613281 C 484.992188 537.25 485.359375 536.949219 485.941406 534.757812 Z M 485.941406 534.757812 "/><path style=" stroke:none;fill-rule:evenodd;fill:#d41914;fill-opacity:1;" d="M 442.925781 437.535156 C 442.429688 434.761719 443.421875 434.632812 446.074219 434.808594 C 443.984375 432.527344 442.339844 434.132812 442.09375 435.386719 C 442.011719 435.734375 442.019531 436.097656 442.113281 436.445312 C 442.648438 438.335938 442.398438 437.039062 442.925781 437.535156 Z M 442.925781 437.535156 "/><g clip-rule="nonzero" clip-path="url(#44de35ec0b)"><path style=" stroke:none;fill-rule:evenodd;fill:#ffdbc7;fill-opacity:1;" d="M 231.386719 283.386719 L 385.273438 283.386719 C 385.800781 280.023438 387.191406 276.617188 388.046875 273.121094 C 390.8125 261.867188 393.671875 256.074219 393.671875 240.878906 C 398.910156 238.105469 403.964844 232.6875 407.839844 228.125 L 411.84375 222.871094 C 419.597656 211.207031 427.214844 196.003906 421.734375 181.644531 C 419.777344 176.519531 417.433594 174.21875 413.960938 170.90625 C 408.195312 165.394531 397.828125 163.570312 391.246094 170.265625 C 390.195312 171.332031 390.300781 171.855469 389.046875 172.699219 C 387.597656 166.207031 385.183594 159.972656 381.886719 154.195312 C 379.207031 149.585938 376.089844 145.246094 372.582031 141.226562 L 371.226562 139.859375 C 371.132812 139.789062 370.976562 139.707031 370.898438 139.648438 C 370.789062 139.574219 370.671875 139.503906 370.550781 139.449219 L 349.15625 139.402344 L 348.261719 138.609375 C 348.261719 134.894531 348.84375 124.179688 347.84375 121.351562 L 342.234375 118.546875 C 336.328125 115.675781 330.148438 113.402344 323.792969 111.757812 C 313.800781 109.199219 303.433594 108.457031 293.183594 109.566406 C 279.035156 111.140625 267.683594 115.785156 255.632812 122.480469 C 248.628906 126.625 242.082031 131.5 236.101562 137.023438 C 233.261719 139.355469 230.632812 141.933594 228.246094 144.730469 C 214.320312 161.398438 208.339844 167.40625 205.128906 190.613281 C 204.527344 195.984375 204.308594 201.386719 204.46875 206.789062 C 204.46875 217.152344 206.152344 218.777344 206.152344 222.363281 C 201.179688 221.949219 196.777344 221.246094 191.179688 224.632812 C 166.8125 239.367188 177.609375 281.050781 215.039062 285.015625 C 219.898438 285.429688 224.789062 284.933594 229.46875 283.554688 Z M 231.386719 283.386719 "/></g><path style=" stroke:none;fill-rule:evenodd;fill:#ffdac7;fill-opacity:1;" d="M 385.273438 283.386719 L 384.613281 246.605469 L 218.035156 261.082031 L 231.785156 283.386719 C 231.785156 283.386719 245.507812 301.511719 248.449219 304.542969 C 253.484375 309.730469 258.117188 315.695312 265.15625 320.601562 C 268.253906 322.757812 271.164062 323.742188 270.804688 331.367188 C 270.347656 340.925781 261.445312 335.476562 266.441406 345.824219 C 273.722656 360.898438 285.089844 370.402344 300.414062 377.808594 C 308.933594 382.023438 318.597656 383.34375 327.933594 381.570312 C 330.832031 381.015625 333.683594 380.210938 336.445312 379.171875 C 341.519531 377.25 346.363281 374.769531 350.890625 371.777344 C 355.570312 368.410156 359.886719 364.558594 363.765625 360.285156 C 369.628906 353.71875 375.867188 342.828125 379.964844 335.300781 C 383.738281 328.371094 388.039062 323.304688 382.109375 321.90625 C 376.648438 320.621094 368.140625 319.882812 367.667969 314.101562 L 371.804688 309.414062 C 374.238281 306.566406 376.339844 303.453125 378.070312 300.132812 C 378.84375 298.894531 379.515625 297.59375 380.070312 296.246094 Z M 385.273438 283.386719 "/><path style=" stroke:none;fill-rule:evenodd;fill:#c6948a;fill-opacity:1;" d="M 312.945312 333.84375 C 303.726562 333.84375 295.050781 333.121094 287.097656 329.972656 C 277.496094 326.167969 279.507812 325.113281 275.003906 323.257812 C 273.835938 322.773438 271.761719 321.046875 270.820312 321.046875 C 269.085938 321.046875 268.941406 322.816406 268.941406 324.058594 C 268.941406 325.125 271.523438 329.394531 272.242188 330.542969 C 273.558594 332.671875 275.386719 333.78125 276.890625 335.671875 C 279.859375 339.363281 283.394531 342.558594 287.363281 345.144531 C 301.550781 354.570312 324.113281 358.65625 339.867188 349.128906 C 344.617188 346.101562 348.992188 342.519531 352.898438 338.460938 L 358.390625 332.285156 C 364.296875 324.9375 364.695312 324.964844 368.394531 315.195312 C 368.914062 313.828125 369.015625 314.410156 369.429688 313.191406 C 370.441406 310.191406 366.414062 308.058594 363.859375 311.40625 C 361.148438 315.160156 357.980469 318.566406 354.429688 321.539062 C 353.570312 322.320312 352.652344 323.039062 351.683594 323.683594 C 349.6875 325.011719 347.59375 326.1875 345.421875 327.203125 C 338.125 330.714844 323.636719 333.84375 312.945312 333.84375 Z M 312.945312 333.84375 "/><path style=" stroke:none;fill-rule:evenodd;fill:#ff9dad;fill-opacity:1;" d="M 247.511719 267.972656 C 247.511719 274.351562 248.699219 279.496094 252.863281 283.695312 C 257.273438 288.152344 260.40625 289.429688 267.445312 289.429688 C 273.496094 289.429688 280.789062 285.710938 283.84375 280.621094 C 285.339844 278.136719 285.496094 277.394531 285.496094 273.621094 C 288.9375 273.335938 287.453125 267.765625 286.710938 264.878906 C 286.089844 261.972656 284.808594 259.246094 282.972656 256.910156 C 281.132812 254.574219 278.789062 252.6875 276.109375 251.398438 C 268.1875 247.304688 258.589844 247.144531 252.351562 255.117188 C 249.453125 258.800781 247.765625 263.289062 247.511719 267.972656 Z M 247.511719 267.972656 "/><path style=" stroke:none;fill-rule:evenodd;fill:#ff9dad;fill-opacity:1;" d="M 344.914062 247.265625 C 344.914062 253.382812 345.863281 256.902344 350.828125 261.671875 C 366.65625 276.890625 385.527344 257.492188 385.527344 246.136719 C 385.527344 240.949219 385.148438 235.742188 381.125 231.71875 C 377.972656 229.183594 374.136719 227.648438 370.109375 227.304688 C 367.785156 227.304688 370.816406 227.824219 365.378906 227.121094 C 363.6875 227.019531 361.988281 227.21875 360.363281 227.707031 C 352.253906 230.234375 344.914062 239.648438 344.914062 247.265625 Z M 344.914062 247.265625 "/><path style=" stroke:none;fill-rule:evenodd;fill:#c6948a;fill-opacity:1;" d="M 305.800781 240.480469 C 300.839844 240.480469 299.71875 240.625 296.761719 242.730469 C 291.84375 246.238281 290.8125 252.878906 296.65625 257.164062 C 300.761719 260.175781 312.566406 261.816406 312.566406 257.800781 C 312.566406 256.894531 311.960938 256.691406 311.441406 255.917969 C 307.53125 255.917969 296.773438 256.714844 296.773438 249.894531 C 296.773438 247.53125 298.859375 245.910156 300.644531 245.109375 C 305.621094 242.871094 310.3125 246.964844 310.3125 241.988281 C 310.3125 239.5 301.292969 208.480469 297.527344 208.480469 C 293.140625 208.480469 296.917969 214.003906 297.527344 215.253906 C 299.597656 219.453125 305.476562 236.589844 305.800781 240.480469 Z M 305.800781 240.480469 "/><path style=" stroke:none;fill-rule:evenodd;fill:#c6948a;fill-opacity:1;" d="M 298.277344 303.355469 C 298.277344 305.183594 298.265625 307.121094 300.535156 307.121094 C 303.449219 307.121094 301.199219 301.523438 303.917969 295.449219 C 310.335938 281.097656 324.875 292.4375 327.613281 292.4375 C 328.472656 292.4375 328.050781 292.3125 329.117188 292.0625 C 329.917969 288.628906 329.4375 288.730469 322.730469 286.035156 C 307.292969 279.839844 298.277344 290.164062 298.277344 303.355469 Z M 298.277344 303.355469 "/><path style=" stroke:none;fill-rule:evenodd;fill:#000000;fill-opacity:1;" d="M 259.539062 225.054688 C 259.539062 229.207031 261.039062 234.253906 263.277344 235.996094 C 263.972656 236.589844 264.851562 236.925781 265.765625 236.9375 C 266.675781 236.949219 267.566406 236.636719 268.273438 236.058594 C 273.324219 231.664062 267.097656 210.976562 261.171875 218.40625 C 259.972656 220.40625 259.40625 222.722656 259.539062 225.054688 Z M 259.539062 225.054688 "/><path style=" stroke:none;fill-rule:evenodd;fill:#c6948a;fill-opacity:1;" d="M 194.476562 252.914062 C 193.351562 257.761719 195.335938 256.039062 201.660156 256.644531 C 204.582031 257.023438 207.464844 257.664062 210.273438 258.5625 C 209.78125 259.296875 206.054688 261.992188 210.703125 265.285156 C 216.9375 269.699219 223.039062 263.621094 215.433594 257.160156 C 211.207031 253.570312 198.300781 251.082031 194.476562 252.914062 Z M 194.476562 252.914062 "/><path style=" stroke:none;fill-rule:evenodd;fill:#000000;fill-opacity:1;" d="M 338.515625 208.484375 C 338.515625 213.609375 338.882812 210.03125 339.703125 214.453125 C 340.441406 218.449219 343.820312 224.671875 345.664062 224.671875 C 348.855469 224.671875 349.910156 223.914062 348.945312 217.625 C 348.480469 214.90625 347.738281 212.238281 346.738281 209.667969 C 345.882812 207.386719 344.617188 202.1875 341.507812 203.527344 C 340.707031 204.113281 340.03125 204.855469 339.515625 205.707031 C 339.003906 206.558594 338.664062 207.503906 338.515625 208.484375 Z M 338.515625 208.484375 "/><path style=" stroke:none;fill-rule:evenodd;fill:#c6948a;fill-opacity:1;" d="M 395.683594 205.855469 C 395.683594 208.480469 396.351562 214.886719 399.445312 214.886719 C 404.339844 214.886719 406.214844 214.332031 406.214844 208.867188 C 406.082031 208.152344 405.714844 207.5 405.167969 207.019531 C 404.621094 206.542969 403.929688 206.261719 403.203125 206.230469 C 401.949219 206.371094 400.765625 206.898438 399.820312 207.738281 C 399.738281 204.550781 400.105469 201.371094 400.910156 198.289062 C 401.296875 196.261719 402.023438 194.3125 403.058594 192.53125 C 403.773438 191.363281 403.957031 191.804688 403.957031 190.417969 C 403.957031 189.730469 401.171875 184.144531 397.515625 195.640625 C 396.441406 198.945312 395.824219 202.382812 395.683594 205.855469 Z M 395.683594 205.855469 "/><g clip-rule="nonzero" clip-path="url(#700b7d5e2d)"><path style=" stroke:none;fill-rule:evenodd;fill:#6c3f3e;fill-opacity:1;" d="M 191.09375 172.726562 C 190.824219 182.523438 191.9375 192.308594 194.402344 201.796875 L 199.046875 217.472656 C 199.742188 219.089844 200.351562 220.742188 200.871094 222.421875 C 196.835938 223.5 204.183594 229.992188 206.671875 233.179688 C 208.058594 234.949219 213.042969 241.242188 215.164062 241.242188 C 218.269531 241.242188 218.304688 238.535156 218.617188 235.667969 C 219.882812 223.980469 218.574219 223.824219 221.851562 211.046875 C 224.015625 203.101562 227.074219 195.429688 230.972656 188.179688 L 232.835938 185.152344 L 231.359375 198.730469 C 230.667969 207.652344 230.578125 211.765625 230.578125 220.539062 C 230.578125 221.890625 231.679688 223.925781 232.835938 223.925781 C 235.984375 223.925781 239.089844 218.867188 241.949219 215.355469 C 251.703125 203.371094 259.453125 194.257812 266.941406 180.515625 C 269.898438 175.097656 270.441406 172.769531 272.429688 168.691406 C 272.460938 168.625 272.539062 168.5 272.5625 168.449219 C 272.605469 168.367188 272.652344 168.289062 272.699219 168.210938 L 272.714844 181.777344 C 272.714844 183.957031 272.363281 184.347656 272.316406 186.269531 C 272.039062 197.582031 268.417969 201.714844 274.207031 201.714844 C 274.863281 201.714844 276.410156 200.375 276.921875 199.917969 C 283.53125 194.046875 283.460938 193.285156 288.96875 187.503906 L 299.457031 173.914062 L 308.800781 158.796875 C 310.207031 159.742188 315.238281 169.582031 316.25 171.671875 L 323.09375 185.152344 C 324.015625 187 326.503906 193.433594 328.734375 193.433594 C 332.335938 193.433594 332.09375 188.222656 332.804688 183.203125 C 334.40625 171.859375 336.671875 159.257812 343.023438 149.761719 C 346.859375 152.332031 349.96875 156.15625 353.273438 159.457031 C 355.046875 161.230469 356.539062 162.804688 358.339844 164.546875 C 359.363281 165.53125 359.960938 165.773438 360.988281 166.792969 C 367.054688 172.519531 372.832031 178.550781 378.289062 184.859375 C 379.066406 185.816406 379.699219 186.570312 380.460938 187.578125 C 385.453125 194.167969 386.402344 184.015625 387.074219 182.566406 C 388.527344 180.539062 390.1875 178.664062 392.023438 176.980469 C 392.976562 176.164062 393.964844 175.394531 394.996094 174.683594 C 405.425781 167.59375 403.835938 168.460938 401.472656 162.785156 L 395.800781 149.257812 C 394.433594 146.179688 393.40625 143.3125 392.128906 140.136719 C 387.34375 128.277344 386.539062 117.957031 377.988281 103.097656 C 366.371094 82.921875 348.824219 71.011719 326.480469 65.433594 C 303.019531 59.578125 272.742188 62.160156 252.265625 72.464844 C 246.386719 75.1875 240.882812 78.660156 235.894531 82.804688 C 224.863281 91.53125 215.785156 104.269531 208.925781 116.421875 C 200.230469 131.851562 191.09375 155.578125 191.09375 172.726562 Z M 191.09375 172.726562 "/></g><g clip-rule="nonzero" clip-path="url(#3b67b68016)"><path style=" stroke:none;fill-rule:evenodd;fill:#28324a;fill-opacity:1;" d="M 493.484375 735.527344 L 493.464844 25.523438 L 601.394531 25.523438 C 600.472656 27.917969 601.023438 104.601562 601.023438 113.992188 L 601.023438 691.109375 C 601.023438 705.636719 600.40625 721.546875 601.085938 735.90625 C 597.972656 734.777344 554.425781 735.53125 547.242188 735.53125 Z M 18.894531 735.902344 C 16.613281 735.058594 6.136719 735.527344 2.289062 735.503906 C 0.0078125 735.492188 0.539062 735.53125 0.0429688 736.175781 L 0.0429688 760.472656 C 0.601562 761.628906 0.789062 761.152344 4.558594 761.128906 C 55.765625 760.824219 107.894531 761.128906 159.125 761.128906 C 317.144531 761.128906 475.359375 760.839844 633.363281 761.128906 L 637.421875 761.054688 C 637.515625 761.03125 637.625 760.992188 637.707031 760.972656 L 638.222656 760.75 C 639.199219 759.328125 638.628906 737.21875 638.628906 735.527344 L 628.140625 735.527344 L 628.105469 25.523438 L 638.257812 25.523438 C 639.238281 23.976562 638.605469 6.539062 638.640625 3.304688 C 638.824219 2.285156 638.691406 1.238281 638.257812 0.296875 L 0.0429688 0.296875 L 0.0429688 25.527344 L 18.851562 25.527344 L 18.894531 735.90625 Z M 319.683594 735.527344 L 192.972656 735.363281 L 192.972656 25.535156 C 214.015625 25.390625 235.109375 25.527344 256.15625 25.527344 C 264 25.527344 316.871094 24.804688 319.714844 25.902344 Z M 165.519531 735.363281 L 45.820312 735.691406 L 45.925781 25.523438 L 165.519531 25.53125 L 165.519531 735.367188 Z M 466.386719 25.527344 L 466.46875 735.703125 L 346.792969 735.527344 L 346.792969 25.527344 Z M 466.386719 25.527344 "/></g><path style=" stroke:none;fill-rule:evenodd;fill:#ffdbc7;fill-opacity:1;" d="M 54.371094 549.394531 C 54.371094 567.640625 67.414062 587.898438 78.394531 601.523438 L 84.320312 608.214844 C 92.246094 616.117188 96.484375 619.019531 105.660156 625.152344 L 117.355469 632.386719 C 123.09375 636.121094 121.984375 633.769531 124.160156 638.621094 C 124.839844 639.980469 125.707031 641.238281 126.738281 642.355469 C 131.753906 648.710938 143.796875 655.035156 152.75 655.035156 C 163.925781 655.035156 167.074219 652.8125 175.929688 649.617188 C 188.65625 645.023438 187.105469 643.074219 189.554688 641.371094 C 189.75 641.234375 201.109375 637.449219 201.109375 630.625 C 201.109375 628.039062 201.386719 625.980469 199.953125 623.785156 C 199.636719 623.277344 199.246094 622.816406 198.800781 622.417969 C 198.265625 621.972656 197.769531 621.480469 197.324219 620.945312 C 200 620.886719 204.109375 618.484375 205.636719 617.058594 C 213.167969 610.046875 209.691406 601.636719 204.054688 600.320312 C 205.839844 597.652344 208.679688 597.035156 208.679688 590.636719 C 208.679688 576.21875 166.632812 584.703125 166.632812 573.382812 C 166.632812 567.636719 172.472656 571.675781 166.222656 562.847656 C 162.589844 557.71875 154.667969 555.285156 148.132812 555.285156 L 155.167969 546.320312 C 157.035156 544.113281 156.121094 545.089844 156.121094 542.65625 L 156.121094 533.820312 C 156.121094 531.261719 156.539062 530.75 156.539062 528.34375 C 154.355469 526.878906 152.125 525.589844 149.890625 524.058594 L 146.636719 521.839844 C 139.574219 517.144531 133.855469 512.273438 127.285156 507.125 L 107.347656 487.519531 L 103.5625 490.886719 C 103.007812 491.449219 102.460938 492.023438 101.875 492.558594 C 96.011719 497.917969 74.25 519.578125 69.773438 524.824219 L 61.207031 534.34375 C 60.089844 535.636719 59.070312 537.003906 58.152344 538.441406 C 55.742188 541.585938 54.414062 545.429688 54.371094 549.394531 Z M 54.371094 549.394531 "/><path style=" stroke:none;fill-rule:evenodd;fill:#ffdac7;fill-opacity:1;" d="M 505.515625 519.089844 C 505.515625 522.539062 506.070312 526.429688 506.335938 529.632812 L 506.359375 540.550781 C 508.472656 542.542969 510.308594 544.808594 511.824219 547.285156 C 504.328125 547.285156 496.710938 550.34375 492.769531 556.835938 C 491.835938 558.375 491.222656 558.476562 491.222656 559.914062 C 491.222656 562.746094 493.324219 561.890625 493.324219 565.804688 C 493.324219 571.640625 476.945312 572.550781 470.960938 573.304688 C 462.753906 574.335938 451.277344 574.632812 451.277344 583.484375 C 451.277344 588.238281 454.5625 590.316406 455.902344 592.320312 C 446.109375 597.507812 449.5625 607.261719 458.136719 611.550781 C 458.890625 611.953125 459.679688 612.292969 460.492188 612.5625 C 462.085938 613.128906 461.726562 612.5625 462.632812 613.785156 C 458.210938 614.96875 455.105469 627.515625 468.585938 632.65625 C 474.015625 634.726562 468.460938 635.171875 481.84375 640.851562 L 494.492188 645.449219 C 504.664062 648.308594 513.242188 647.898438 522.472656 642.96875 C 535.585938 635.960938 535.96875 628.976562 537.445312 627.648438 L 550.84375 619.597656 C 552.722656 618.332031 554.304688 617.433594 556.230469 616.148438 C 558.070312 614.921875 559.300781 613.941406 561.1875 612.695312 L 579.425781 596.429688 C 583.507812 591.746094 587.257812 586.773438 590.636719 581.558594 C 591.261719 580.523438 591.648438 580.035156 592.308594 579.027344 L 597.003906 570.679688 C 599.882812 565.515625 605.589844 551.792969 605.589844 544.335938 C 605.589844 534.851562 604.59375 533.59375 598.574219 526.109375 L 589.003906 515.484375 C 582.234375 507.910156 568.136719 494.46875 560.078125 486.359375 C 559.382812 485.664062 559.109375 485.402344 558.339844 484.734375 C 556.535156 482.882812 554.621094 481.144531 552.609375 479.523438 C 548.355469 485.882812 530.773438 500.980469 524.859375 505.617188 L 518.644531 510.335938 C 515.957031 512.117188 507.207031 518.640625 505.515625 519.089844 Z M 505.515625 519.089844 "/><path style=" stroke:none;fill-rule:evenodd;fill:#ffdac7;fill-opacity:1;" d="M 120.382812 490.460938 C 120.011719 489.066406 119.820312 489.246094 118.808594 488.25 C 118.148438 487.503906 117.40625 486.835938 116.601562 486.253906 C 116.972656 487.648438 117.164062 487.46875 118.175781 488.464844 C 118.835938 489.210938 119.574219 489.878906 120.382812 490.460938 Z M 120.382812 490.460938 "/><path style=" stroke:none;fill-rule:evenodd;fill:#ffdbc7;fill-opacity:1;" d="M 124.589844 494.253906 C 124.34375 493.742188 123.992188 493.289062 123.554688 492.929688 C 123.121094 492.5625 122.613281 492.300781 122.066406 492.148438 C 122.3125 492.660156 122.664062 493.113281 123.097656 493.476562 C 123.535156 493.839844 124.042969 494.105469 124.589844 494.253906 Z M 124.589844 494.253906 "/><path style=" stroke:none;fill-rule:evenodd;fill:#ffdac7;fill-opacity:1;" d="M 540.84375 481.203125 L 541.683594 481.203125 L 541.683594 480.363281 Z M 540.84375 481.203125 "/><path style=" stroke:none;fill-rule:evenodd;fill:#ffdac7;fill-opacity:1;" d="M 540 482.046875 L 540.839844 482.046875 L 540.839844 481.203125 Z M 540 482.046875 "/><path style=" stroke:none;fill-rule:evenodd;fill:#ffdac7;fill-opacity:1;" d="M 539.160156 482.886719 L 540.003906 482.886719 L 540.003906 482.042969 Z M 539.160156 482.886719 "/><path style=" stroke:none;fill-rule:evenodd;fill:#ffdac7;fill-opacity:1;" d="M 538.320312 483.730469 L 539.160156 483.730469 L 539.160156 482.886719 Z M 538.320312 483.730469 "/><path style=" stroke:none;fill-rule:evenodd;fill:#ffdac7;fill-opacity:1;" d="M 537.480469 484.574219 L 538.320312 484.574219 L 538.320312 483.730469 Z M 537.480469 484.574219 "/><path style=" stroke:none;fill-rule:evenodd;fill:#ffdac7;fill-opacity:1;" d="M 121.222656 491.300781 L 121.222656 490.460938 L 120.382812 490.460938 Z M 121.222656 491.300781 "/><path style=" stroke:none;fill-rule:evenodd;fill:#ffdac7;fill-opacity:1;" d="M 122.066406 492.148438 L 122.066406 491.304688 L 121.226562 491.304688 Z M 122.066406 492.148438 "/><path style=" stroke:none;fill-rule:evenodd;fill:#ffdac7;fill-opacity:1;" d="M 544.207031 477.84375 L 544.628906 477.84375 L 544.277344 477.351562 Z M 544.207031 477.84375 "/><path style=" stroke:none;fill-rule:evenodd;fill:#ffdac7;fill-opacity:1;" d="M 115.757812 485.410156 L 115.757812 484.992188 L 115.269531 485.339844 Z M 115.757812 485.410156 "/><path style=" stroke:none;fill-rule:evenodd;fill:#ffdac7;fill-opacity:1;" d="M 533.695312 488.355469 L 533.273438 488.355469 L 533.625 488.847656 Z M 533.695312 488.355469 "/><path style=" stroke:none;fill-rule:evenodd;fill:#ffdac7;fill-opacity:1;" d="M 127.109375 496.773438 L 127.109375 497.195312 L 127.601562 496.84375 Z M 127.109375 496.773438 "/><path style=" stroke:none;fill-rule:evenodd;fill:#d6a095;fill-opacity:1;" d="M 514.523438 563.863281 C 518.03125 565.722656 519.804688 568.914062 520.605469 573.605469 C 522.3125 583.496094 510.449219 585.371094 501.949219 586.675781 C 496.871094 587.453125 490.042969 587.734375 487.4375 588.339844 C 486.144531 593.898438 488.890625 592.183594 494.585938 592.105469 C 500.273438 591.726562 505.910156 590.820312 511.433594 589.394531 C 516.835938 587.925781 516.4375 586.832031 520.90625 586.832031 C 525.246094 586.832031 527.675781 594.875 527.675781 600.761719 C 527.675781 605.429688 519.179688 607.253906 515.683594 607.957031 C 508.730469 609.351562 501.734375 608.917969 497.96875 609.796875 C 496.726562 614.992188 500.898438 614.125 505.542969 613.617188 C 506.761719 613.484375 507.976562 613.632812 509.195312 613.507812 C 513.390625 613.03125 517.550781 612.292969 521.660156 611.304688 C 522.089844 616.476562 528.429688 610.574219 528.429688 620.335938 C 528.429688 626.167969 521.234375 626.859375 516.75 627.46875 L 508.226562 628.347656 C 505.160156 628.757812 501.351562 627.722656 501.351562 631.253906 C 501.351562 632.75 502.8125 633.136719 503.984375 633.136719 C 509.0625 633.085938 514.132812 632.617188 519.136719 631.742188 C 520.707031 631.34375 522.304688 631.054688 523.914062 630.878906 C 524.289062 635.382812 527.300781 629.8125 527.300781 639.914062 C 529.035156 638.960938 530.570312 637.683594 531.816406 636.152344 C 531.933594 635.695312 530.617188 630.066406 528.058594 629.375 C 529.667969 626.96875 532.945312 627.226562 532.945312 619.589844 C 532.945312 615.328125 530.480469 610.125 526.5625 609.800781 C 527.257812 607.183594 532.203125 608.324219 532.203125 598.882812 C 532.179688 595.421875 531.324219 592.019531 529.703125 588.960938 C 528.4375 586.222656 526.265625 584.011719 523.550781 582.695312 C 523.886719 581.257812 525.433594 579.117188 525.433594 575.921875 C 525.433594 568.285156 519.898438 559.113281 513.773438 558.601562 C 514.414062 561.363281 514.523438 558.734375 514.523438 563.863281 Z M 514.523438 563.863281 "/><path style=" stroke:none;fill-rule:evenodd;fill:#d6a095;fill-opacity:1;" d="M 134.679688 583.4375 C 134.679688 587.273438 136.171875 588.90625 136.5625 590.589844 C 127.972656 595.140625 125.835938 608.488281 129.675781 613.675781 C 132.117188 616.980469 132.332031 615.652344 133.550781 617.320312 C 131.433594 618.441406 130.207031 618.710938 128.90625 620.949219 C 126.894531 624.40625 126.304688 630.140625 128.722656 633.824219 C 130.011719 635.785156 131.113281 635.871094 132.050781 637.273438 C 129.65625 637.910156 128.289062 642.351562 128.289062 643.664062 C 128.289062 644.808594 129.503906 645.308594 130.21875 645.875 C 130.980469 646.644531 131.851562 647.292969 132.804688 647.804688 C 132.804688 638.03125 135.84375 642.875 136.1875 638.769531 C 138.601562 638.824219 146.894531 641.027344 156.863281 641.027344 C 157.34375 640.976562 157.792969 640.757812 158.132812 640.417969 C 158.476562 640.074219 158.691406 639.628906 158.746094 639.148438 C 158.746094 635.105469 151.480469 636.710938 143.695312 635.382812 C 141.074219 635.042969 138.492188 634.480469 135.964844 633.710938 C 128.488281 631.140625 132.660156 622.980469 133.667969 622.332031 C 135.769531 620.984375 138.148438 622.589844 138.429688 619.195312 C 141.402344 619.445312 146.945312 621.453125 153.847656 621.453125 C 156.613281 621.675781 159.394531 621.546875 162.125 621.078125 C 163.230469 616.441406 160.628906 616.90625 154.976562 616.941406 C 150.136719 616.972656 132.417969 615.238281 132.417969 608.65625 C 132.417969 602.839844 134.761719 594.726562 139.1875 594.726562 C 144.253906 594.726562 142.820312 595.707031 148.078125 597.121094 C 153.679688 598.558594 159.394531 599.515625 165.160156 599.972656 C 168.691406 600.238281 173.035156 601.210938 173.035156 598.113281 C 173.035156 594.226562 167.4375 596.101562 159.808594 594.785156 C 153.058594 593.617188 138.078125 592.359375 139.3125 582.457031 C 139.527344 580.210938 140.160156 578.023438 141.171875 576.007812 C 141.984375 574.519531 143.929688 572.203125 145.582031 571.757812 C 145.582031 565.203125 146.101562 568.882812 146.339844 566.109375 C 142.648438 567.882812 141.03125 568.421875 138.222656 572.289062 C 136.023438 575.601562 134.792969 579.464844 134.679688 583.4375 Z M 134.679688 583.4375 "/><path style=" stroke:none;fill-rule:evenodd;fill:#d6a095;fill-opacity:1;" d="M 470.898438 609.417969 L 454.355469 608.953125 C 455.703125 611.140625 463.371094 613.9375 463.378906 613.9375 L 478.429688 613.949219 C 480.492188 613.886719 481.523438 613.535156 484.054688 613.5625 C 486.125 613.585938 493.453125 613.628906 493.453125 610.925781 C 493.453125 606.511719 487.867188 609.054688 483.3125 609.054688 C 478.882812 609.0625 475.554688 609.574219 470.898438 609.417969 Z M 470.898438 609.417969 "/><path style=" stroke:none;fill-rule:evenodd;fill:#d6a095;fill-opacity:1;" d="M 166.648438 618.074219 C 166.648438 620.652344 167.835938 620.875 171.523438 621.101562 C 177.148438 621.449219 191.746094 622.230469 196.734375 621.464844 C 198.734375 621.160156 204.570312 618.722656 205.761719 616.945312 C 202.550781 616.945312 198.339844 616.710938 195.25 616.964844 C 191.894531 617.382812 188.507812 617.484375 185.132812 617.269531 C 182.207031 616.941406 178.058594 617.261719 175.027344 616.847656 C 172.820312 616.542969 166.648438 615.261719 166.648438 618.074219 Z M 166.648438 618.074219 "/><path style=" stroke:none;fill-rule:evenodd;fill:#d6a095;fill-opacity:1;" d="M 123.398438 543.160156 C 123.398438 547.050781 128.90625 545.40625 135.867188 550.253906 L 138.785156 552.605469 L 138.988281 552.777344 L 142.164062 556 C 144.632812 558.980469 145.851562 558.597656 150.097656 558.597656 C 151.617188 558.597656 151.980469 557.226562 151.980469 555.585938 C 149.382812 555.296875 146.960938 554.144531 145.09375 552.316406 C 140.796875 547.417969 131.28125 541.277344 125.277344 541.277344 C 124.5 541.730469 123.851562 542.378906 123.398438 543.160156 Z M 123.398438 543.160156 "/><path style=" stroke:none;fill-rule:evenodd;fill:#d6a095;fill-opacity:1;" d="M 508.132812 547.679688 C 508.132812 551.347656 509.652344 550.691406 513.773438 550.691406 C 517.765625 550.691406 519.234375 544.066406 528.648438 539.984375 C 531.078125 538.925781 535.554688 538.003906 536.25 537.011719 C 536.429688 536.734375 536.542969 536.417969 536.585938 536.09375 C 536.632812 535.765625 536.605469 535.433594 536.507812 535.121094 C 536.410156 534.804688 536.242188 534.515625 536.019531 534.273438 C 535.796875 534.027344 535.523438 533.839844 535.21875 533.710938 C 531.875 532.074219 519.472656 539.21875 515.191406 544.214844 C 512.890625 546.894531 514.53125 545.363281 512.058594 546.34375 C 510.890625 547.128906 509.535156 547.589844 508.132812 547.679688 Z M 508.132812 547.679688 "/><path style=" stroke:none;fill-rule:evenodd;fill:#d6a095;fill-opacity:1;" d="M 163.261719 639.535156 C 163.261719 642.46875 167.855469 642.652344 171.3125 643.152344 C 176.636719 643.65625 181.988281 643.832031 187.332031 643.679688 C 188.269531 643.679688 188.96875 641.890625 190.699219 641.027344 C 192.191406 640.28125 193.921875 640.054688 194.855469 638.785156 L 183.195312 639.160156 C 177.640625 639.265625 172.089844 638.753906 166.644531 637.640625 C 164.453125 637.175781 163.261719 638.5 163.261719 639.535156 Z M 163.261719 639.535156 "/><path style=" stroke:none;fill-rule:evenodd;fill:#d6a095;fill-opacity:1;" d="M 477.292969 631.25 L 470.90625 631.25 C 468.40625 631.25 467.652344 630.875 465.265625 630.875 C 465.6875 631.46875 466.28125 631.925781 466.964844 632.183594 C 468.417969 632.59375 469.785156 633.265625 470.996094 634.171875 C 473.003906 636.230469 469.953125 635.765625 480.308594 635.765625 C 502.6875 635.765625 496.183594 629.746094 495.351562 629.746094 C 492.4375 629.746094 489.6875 630.734375 486.703125 630.871094 C 483.328125 631.03125 480.835938 631.25 477.292969 631.25 Z M 477.292969 631.25 "/><path style=" stroke:none;fill-rule:evenodd;fill:#d6a095;fill-opacity:1;" d="M 181.691406 599.25 C 181.691406 603.761719 191.445312 600.46875 198.128906 599.515625 C 202.730469 598.859375 205.796875 599.027344 207.402344 596.378906 C 207.855469 595.621094 208.832031 594.011719 208.507812 593.316406 C 208.160156 592.574219 204.617188 593.800781 202.210938 594.195312 C 199.542969 594.632812 197.292969 595.074219 194.78125 595.414062 C 192.242188 595.765625 190.03125 596.210938 187.636719 596.542969 C 185.3125 596.882812 181.691406 596.683594 181.691406 599.25 Z M 181.691406 599.25 "/><path style=" stroke:none;fill-rule:evenodd;fill:#d6a095;fill-opacity:1;" d="M 475.789062 593.609375 C 477.234375 593.609375 478.421875 593.050781 478.421875 591.347656 C 478.421875 589.078125 474.816406 589.015625 472.757812 588.734375 C 470.253906 588.394531 468.03125 587.929688 465.613281 587.605469 L 451.8125 585.199219 C 450.53125 585.75 453.296875 589.589844 454.105469 590.085938 C 455.453125 590.917969 473.53125 593.609375 475.789062 593.609375 Z M 475.789062 593.609375 "/><path style=" stroke:none;fill-rule:evenodd;fill:#d6a095;fill-opacity:1;" d="M 492.335938 562.734375 C 492.992188 563.980469 493.816406 565.355469 493.097656 566.875 C 495.925781 566.8125 494.769531 565.398438 499.320312 564.441406 C 502.121094 564.078125 504.949219 564.011719 507.761719 564.234375 C 512.027344 564.234375 513.785156 556.824219 498.3125 560.042969 C 497.21875 560.25 496.148438 560.570312 495.121094 560.992188 C 494.101562 561.417969 493.164062 562.003906 492.335938 562.734375 Z M 492.335938 562.734375 "/><path style=" stroke:none;fill-rule:evenodd;fill:#d6a095;fill-opacity:1;" d="M 154.621094 571.777344 C 164.949219 571.777344 163.753906 574.71875 167.03125 574.789062 C 166.347656 573.367188 167.15625 571.578125 167.78125 570.273438 C 166.050781 569.214844 164.164062 568.4375 162.191406 567.964844 C 147.738281 565 148.007812 570.765625 151.105469 571.9375 C 152.492188 572.460938 153.171875 571.777344 154.621094 571.777344 Z M 154.621094 571.777344 "/></g></svg>