<svg xmlns="http://www.w3.org/2000/svg" xmlns:xlink="http://www.w3.org/1999/xlink" width="1250" zoomAndPan="magnify" viewBox="0 0 937.5 937.499976" height="1250" preserveAspectRatio="xMidYMid meet" version="1.2"><defs><clipPath id="f72b7466f5"><path d="M 93.230469 93.699219 L 843.582031 93.699219 L 843.582031 843.300781 L 93.230469 843.300781 Z M 93.230469 93.699219 "/></clipPath><clipPath id="99cce43cb9"><path d="M 93.230469 742 L 843 742 L 843 843.300781 L 93.230469 843.300781 Z M 93.230469 742 "/></clipPath><clipPath id="9d8968e25d"><path d="M 338 450.476562 L 356.519531 450.476562 L 356.519531 464.402344 L 338 464.402344 Z M 338 450.476562 "/></clipPath><clipPath id="ac8457eb79"><path d="M 331.664062 451.226562 C 331.664062 451.226562 339.570312 449.335938 346.328125 452.820312 C 353.085938 456.300781 356.132812 463.839844 356.132812 463.839844 C 356.132812 463.839844 348.222656 465.730469 341.464844 462.25 C 334.707031 458.765625 331.664062 451.226562 331.664062 451.226562 Z M 331.664062 451.226562 "/></clipPath><clipPath id="0b33931d2b"><path d="M 93.230469 207.269531 L 841.332031 207.269531 L 841.332031 842.929688 L 93.230469 842.929688 Z M 93.230469 207.269531 "/></clipPath><clipPath id="2db359d14c"><path d="M 158 207.269531 L 447 207.269531 L 447 451 L 158 451 Z M 158 207.269531 "/></clipPath><clipPath id="43d3d82bf5"><path d="M 146 207.269531 L 436 207.269531 L 436 445 L 146 445 Z M 146 207.269531 "/></clipPath><clipPath id="855ee2ff5a"><path d="M 182 207.269531 L 267 207.269531 L 267 253 L 182 253 Z M 182 207.269531 "/></clipPath><clipPath id="f2906c44b6"><path d="M 199 207.269531 L 257 207.269531 L 257 244 L 199 244 Z M 199 207.269531 "/></clipPath><clipPath id="1326fc06a1"><path d="M 287 207.269531 L 372 207.269531 L 372 229 L 287 229 Z M 287 207.269531 "/></clipPath><clipPath id="e799b9ec2b"><path d="M 301 207.269531 L 525 207.269531 L 525 501 L 301 501 Z M 301 207.269531 "/></clipPath><clipPath id="f754233f89"><path d="M 587 207.269531 L 656 207.269531 L 656 227 L 587 227 Z M 587 207.269531 "/></clipPath><clipPath id="86aecd1ce3"><path d="M 336 207.269531 L 625 207.269531 L 625 482 L 336 482 Z M 336 207.269531 "/></clipPath><clipPath id="7b4e4b723b"><path d="M 410 207.269531 L 579 207.269531 L 579 272 L 410 272 Z M 410 207.269531 "/></clipPath><clipPath id="3045d01cb7"><path d="M 457 207.269531 L 781 207.269531 L 781 495 L 457 495 Z M 457 207.269531 "/></clipPath><clipPath id="32fc7136f6"><path d="M 451 207.269531 L 777 207.269531 L 777 486 L 451 486 Z M 451 207.269531 "/></clipPath><clipPath id="808ca88def"><path d="M 567 207.269531 L 750 207.269531 L 750 280 L 567 280 Z M 567 207.269531 "/></clipPath><clipPath id="7e36cac63b"><path d="M 584 207.269531 L 730 207.269531 L 730 259 L 584 259 Z M 584 207.269531 "/></clipPath><clipPath id="fcef88f61e"><path d="M 93.230469 742 L 841.332031 742 L 841.332031 842.929688 L 93.230469 842.929688 Z M 93.230469 742 "/></clipPath><clipPath id="e15c86838b"><path d="M 338 450.476562 L 356.519531 450.476562 L 356.519531 464.402344 L 338 464.402344 Z M 338 450.476562 "/></clipPath><clipPath id="00744ff350"><path d="M 331.664062 451.226562 C 331.664062 451.226562 339.570312 449.335938 346.328125 452.820312 C 353.085938 456.300781 356.132812 463.839844 356.132812 463.839844 C 356.132812 463.839844 348.222656 465.730469 341.464844 462.25 C 334.707031 458.765625 331.664062 451.226562 331.664062 451.226562 Z M 331.664062 451.226562 "/></clipPath></defs><g id="fa2fa52c2c"><g clip-rule="nonzero" clip-path="url(#f72b7466f5)"><path style=" stroke:none;fill-rule:nonzero;fill:#f2e6dc;fill-opacity:1;" d="M 843.5 468.5 C 843.5 675.496094 675.628906 843.300781 468.558594 843.300781 C 261.488281 843.300781 93.621094 675.496094 93.621094 468.5 C 93.621094 261.507812 261.488281 93.703125 468.558594 93.703125 C 675.628906 93.703125 843.5 261.507812 843.5 468.5 "/></g><path style=" stroke:none;fill-rule:nonzero;fill:#e6d0be;fill-opacity:1;" d="M 203.09375 506.480469 C 204.132812 516.550781 200.765625 526.65625 193.898438 534.097656 C 170.554688 559.363281 130.261719 545.929688 126.738281 511.703125 C 125.703125 501.628906 129.066406 491.523438 135.9375 484.085938 C 159.28125 458.816406 199.570312 472.253906 203.09375 506.480469 Z M 213.792969 473.554688 L 208.542969 476.179688 C 206.789062 473.855469 204.875 471.699219 202.816406 469.722656 L 206.050781 464.828125 L 189.460938 453.878906 L 189.457031 453.878906 L 186.21875 458.785156 C 183.566406 457.660156 180.832031 456.746094 178.039062 456.054688 L 178.390625 450.1875 L 158.546875 448.992188 L 158.199219 454.847656 C 155.367188 455.195312 152.542969 455.769531 149.746094 456.578125 L 147.117188 451.324219 L 129.34375 460.210938 L 131.972656 465.460938 C 129.648438 467.210938 127.492188 469.128906 125.515625 471.179688 L 120.617188 467.945312 L 109.671875 484.523438 L 114.582031 487.765625 C 113.460938 490.414062 112.550781 493.152344 111.859375 495.945312 L 105.984375 495.585938 L 104.800781 515.425781 L 110.660156 515.777344 C 111.011719 518.609375 111.585938 521.429688 112.398438 524.230469 L 107.144531 526.851562 L 116.042969 544.628906 L 121.292969 542.003906 C 123.042969 544.328125 124.960938 546.484375 127.015625 548.457031 L 123.785156 553.355469 L 140.375 564.304688 L 143.617188 559.398438 C 146.265625 560.519531 149.003906 561.433594 151.796875 562.125 L 151.445312 567.996094 L 171.289062 569.191406 L 171.636719 563.335938 C 174.46875 562.988281 177.292969 562.414062 180.089844 561.605469 L 182.71875 566.859375 L 200.492188 557.972656 L 197.863281 552.722656 C 200.1875 550.972656 202.34375 549.054688 204.320312 547.003906 L 209.21875 550.234375 L 220.164062 533.65625 L 215.253906 530.417969 C 216.375 527.769531 217.285156 525.03125 217.976562 522.238281 L 223.851562 522.59375 L 225.03125 502.757812 L 219.175781 502.402344 C 218.824219 499.574219 218.25 496.75 217.4375 493.953125 L 222.6875 491.332031 L 213.792969 473.554688 "/><path style=" stroke:none;fill-rule:nonzero;fill:#f2e6dc;fill-opacity:1;" d="M 165.015625 553.453125 C 148.722656 553.457031 133.003906 544.460938 125.226562 528.925781 C 115.476562 509.4375 121.539062 485.316406 139.332031 472.8125 C 139.742188 472.527344 140.304688 472.625 140.589844 473.03125 C 140.878906 473.441406 140.78125 474.007812 140.371094 474.292969 C 123.304688 486.285156 117.488281 509.425781 126.84375 528.117188 C 137.351562 549.113281 162.980469 557.65625 183.972656 547.167969 C 201.320312 538.496094 210.613281 519.210938 206.574219 500.269531 C 206.46875 499.78125 206.78125 499.300781 207.269531 499.199219 C 207.761719 499.09375 208.238281 499.40625 208.34375 499.894531 C 212.550781 519.640625 202.863281 539.746094 184.78125 548.78125 C 178.433594 551.953125 171.675781 553.453125 165.015625 553.453125 "/><path style=" stroke:none;fill-rule:nonzero;fill:#f7f1eb;fill-opacity:1;" d="M 446.390625 394.640625 L 232.984375 450.769531 L 158.886719 169.265625 L 372.292969 113.136719 L 446.390625 394.640625 "/><path style=" stroke:none;fill-rule:nonzero;fill:#e6d0be;fill-opacity:1;" d="M 148.078125 162.460938 L 221.71875 442.21875 L 433.375 386.542969 L 359.734375 106.785156 Z M 221.074219 444.222656 C 220.671875 444.222656 220.304688 443.957031 220.199219 443.550781 L 146.101562 162.046875 C 146.039062 161.816406 146.074219 161.570312 146.195312 161.363281 C 146.316406 161.152344 146.511719 161.003906 146.746094 160.945312 L 360.148438 104.816406 C 360.378906 104.75 360.628906 104.78125 360.835938 104.90625 C 361.042969 105.023438 361.191406 105.222656 361.253906 105.453125 L 435.355469 386.960938 C 435.476562 387.441406 435.1875 387.9375 434.707031 388.066406 L 221.304688 444.195312 C 221.226562 444.214844 221.148438 444.222656 221.074219 444.222656 "/><path style=" stroke:none;fill-rule:nonzero;fill:#ffffff;fill-opacity:1;" d="M 224.519531 169.382812 C 221.058594 169.382812 217.578125 169.828125 214.140625 170.730469 C 203.675781 173.484375 194.910156 180.144531 189.457031 189.492188 C 184.003906 198.835938 182.515625 209.742188 185.269531 220.207031 C 190.953125 241.800781 213.15625 254.746094 234.761719 249.066406 C 256.367188 243.386719 269.320312 221.191406 263.632812 199.597656 C 260.878906 189.132812 254.214844 180.363281 244.867188 174.914062 C 238.589844 171.257812 231.601562 169.382812 224.519531 169.382812 Z M 224.460938 252.210938 C 205.703125 252.210938 188.511719 239.632812 183.519531 220.664062 C 180.644531 209.738281 182.199219 198.339844 187.894531 188.578125 C 193.589844 178.820312 202.75 171.859375 213.683594 168.988281 C 224.613281 166.109375 236.011719 167.664062 245.777344 173.355469 C 255.542969 179.050781 262.503906 188.203125 265.382812 199.132812 C 271.320312 221.695312 257.789062 244.878906 235.222656 250.8125 C 231.625 251.757812 228.015625 252.210938 224.460938 252.210938 "/><path style=" stroke:none;fill-rule:nonzero;fill:#e6d0be;fill-opacity:1;" d="M 223.863281 207.648438 C 206.617188 212.1875 197.160156 221.734375 199.945312 232.3125 C 208.011719 241.109375 220.558594 245.257812 232.90625 242.011719 C 245.253906 238.761719 254.136719 228.976562 256.828125 217.351562 C 254.1875 207.324219 239.996094 203.40625 223.863281 207.648438 "/><path style=" stroke:none;fill-rule:nonzero;fill:#e6d0be;fill-opacity:1;" d="M 232.238281 186.503906 C 234.132812 193.703125 229.832031 201.078125 222.628906 202.96875 C 215.425781 204.867188 208.050781 200.5625 206.15625 193.367188 C 204.261719 186.167969 208.5625 178.792969 215.765625 176.894531 C 222.96875 175.003906 230.34375 179.304688 232.238281 186.503906 "/><path style=" stroke:none;fill-rule:nonzero;fill:#f2e6dc;fill-opacity:1;" d="M 363.191406 178.1875 L 283.90625 199.042969 L 274.28125 162.480469 L 353.566406 141.625 L 363.191406 178.1875 "/><path style=" stroke:none;fill-rule:nonzero;fill:#f2e6dc;fill-opacity:1;" d="M 371.027344 207.960938 L 291.742188 228.8125 L 287.203125 211.570312 L 366.488281 190.714844 L 371.027344 207.960938 "/><path style=" stroke:none;fill-rule:nonzero;fill:#f2e6dc;fill-opacity:1;" d="M 340.011719 343.324219 L 237.140625 369.964844 L 236.019531 365.640625 L 338.890625 339 L 340.011719 343.324219 "/><path style=" stroke:none;fill-rule:nonzero;fill:#f2e6dc;fill-opacity:1;" d="M 382.371094 343.878906 L 255.902344 376.628906 L 254.78125 372.304688 L 381.25 339.558594 L 382.371094 343.878906 "/><path style=" stroke:none;fill-rule:nonzero;fill:#f2e6dc;fill-opacity:1;" d="M 364.421875 360.050781 L 242.738281 391.5625 L 241.617188 387.242188 L 363.300781 355.730469 L 364.421875 360.050781 "/><path style=" stroke:none;fill-rule:nonzero;fill:#f2e6dc;fill-opacity:1;" d="M 379.300781 282.402344 L 252.039062 315.359375 L 250.921875 311.035156 L 378.179688 278.078125 L 379.300781 282.402344 "/><path style=" stroke:none;fill-rule:nonzero;fill:#f2e6dc;fill-opacity:1;" d="M 345.855469 302.585938 L 224.171875 334.097656 L 223.054688 329.777344 L 344.734375 298.265625 L 345.855469 302.585938 "/><path style=" stroke:none;fill-rule:nonzero;fill:#f2e6dc;fill-opacity:1;" d="M 369.859375 307.894531 L 226.972656 344.898438 L 225.851562 340.574219 L 368.734375 303.570312 L 369.859375 307.894531 "/><path style=" stroke:none;fill-rule:nonzero;fill:#f2e6dc;fill-opacity:1;" d="M 352.679688 241.625 L 240.910156 270.570312 L 239.792969 266.25 L 351.558594 237.304688 L 352.679688 241.625 "/><path style=" stroke:none;fill-rule:nonzero;fill:#f2e6dc;fill-opacity:1;" d="M 334.277344 257.910156 L 213.046875 289.308594 L 211.925781 284.984375 L 333.15625 253.589844 L 334.277344 257.910156 "/><path style=" stroke:none;fill-rule:nonzero;fill:#f2e6dc;fill-opacity:1;" d="M 373.320312 259.328125 L 215.84375 300.105469 L 214.722656 295.785156 L 372.199219 255.003906 L 373.320312 259.328125 "/><path style=" stroke:none;fill-rule:nonzero;fill:#d3bba3;fill-opacity:1;" d="M 607.253906 381.707031 C 607.183594 381.707031 607.113281 381.699219 607.042969 381.683594 C 606.558594 381.5625 606.257812 381.074219 606.375 380.59375 L 619.832031 324.863281 C 619.953125 324.375 620.449219 324.078125 620.921875 324.195312 C 621.410156 324.308594 621.710938 324.804688 621.589844 325.285156 L 608.128906 381.015625 C 608.03125 381.425781 607.664062 381.707031 607.253906 381.707031 "/><path style=" stroke:none;fill-rule:nonzero;fill:#d3bba3;fill-opacity:1;" d="M 524.015625 500.15625 C 523.949219 500.15625 523.878906 500.148438 523.804688 500.128906 L 302.605469 446.753906 C 302.375 446.695312 302.175781 446.554688 302.046875 446.347656 C 301.925781 446.140625 301.882812 445.894531 301.941406 445.664062 L 380.566406 120.082031 C 380.621094 119.851562 380.769531 119.648438 380.96875 119.523438 C 381.175781 119.402344 381.421875 119.359375 381.65625 119.417969 L 443.121094 134.253906 C 443.609375 134.367188 443.902344 134.855469 443.789062 135.34375 C 443.667969 135.828125 443.179688 136.128906 442.699219 136.007812 L 382.109375 121.386719 L 303.910156 445.210938 L 524.226562 498.375 C 524.714844 498.488281 525.011719 498.984375 524.894531 499.464844 C 524.792969 499.878906 524.429688 500.15625 524.015625 500.15625 "/><path style=" stroke:none;fill-rule:nonzero;fill:#d3bba3;fill-opacity:1;" d="M 644.644531 226.875 C 644.570312 226.875 644.503906 226.863281 644.433594 226.851562 C 643.949219 226.730469 643.644531 226.242188 643.761719 225.761719 L 653.171875 186.804688 L 588.550781 171.210938 C 588.070312 171.09375 587.773438 170.605469 587.890625 170.121094 C 588.003906 169.632812 588.5 169.335938 588.980469 169.453125 L 654.472656 185.261719 C 654.707031 185.316406 654.90625 185.460938 655.035156 185.664062 C 655.160156 185.871094 655.199219 186.117188 655.140625 186.351562 L 645.519531 226.183594 C 645.421875 226.59375 645.054688 226.875 644.644531 226.875 "/><path style=" stroke:none;fill-rule:nonzero;fill:#ffffff;fill-opacity:1;" d="M 336.242188 429.214844 L 553.503906 481.640625 L 624.085938 189.390625 L 406.820312 136.960938 L 336.242188 429.214844 "/><path style=" stroke:none;fill-rule:nonzero;fill:#f7f1eb;fill-opacity:1;" d="M 493.394531 129.136719 C 496.535156 116.125 509.632812 108.121094 522.648438 111.265625 C 535.667969 114.402344 543.667969 127.496094 540.53125 140.511719 Z M 548.945312 142.539062 C 553.210938 124.882812 542.347656 107.113281 524.679688 102.851562 C 507.019531 98.589844 489.238281 109.449219 484.976562 127.101562 L 449.90625 118.640625 L 439.730469 160.777344 L 573.835938 193.140625 L 584.015625 151.007812 L 548.945312 142.539062 "/><path style=" stroke:none;fill-rule:nonzero;fill:#d3bba3;fill-opacity:1;" d="M 500.757812 124.648438 L 546.105469 135.59375 C 548.5625 123.378906 540.914062 111.265625 528.695312 108.316406 C 522.632812 106.855469 516.367188 107.839844 511.046875 111.089844 C 505.988281 114.183594 502.363281 118.972656 500.757812 124.648438 Z M 546.789062 137.589844 C 546.71875 137.589844 546.648438 137.582031 546.578125 137.5625 L 499.4375 126.191406 C 498.957031 126.070312 498.65625 125.582031 498.773438 125.101562 C 500.347656 118.570312 504.375 113.046875 510.105469 109.546875 C 515.835938 106.046875 522.589844 104.984375 529.117188 106.5625 C 542.597656 109.8125 550.917969 123.421875 547.660156 136.898438 C 547.609375 137.128906 547.460938 137.332031 547.261719 137.457031 C 547.113281 137.542969 546.953125 137.589844 546.789062 137.589844 Z M 447.078125 156.285156 L 579.433594 188.222656 L 589.191406 147.847656 L 554.988281 139.59375 C 554.757812 139.539062 554.554688 139.394531 554.4375 139.1875 C 554.304688 138.984375 554.269531 138.734375 554.324219 138.507812 C 556.332031 130.199219 554.980469 121.609375 550.523438 114.316406 C 546.066406 107.03125 539.035156 101.90625 530.730469 99.90625 C 522.421875 97.898438 513.828125 99.25 506.53125 103.703125 C 499.242188 108.160156 494.121094 115.1875 492.113281 123.492188 C 492.058594 123.726562 491.910156 123.925781 491.707031 124.050781 C 491.5 124.175781 491.257812 124.214844 491.023438 124.160156 L 456.832031 115.90625 Z M 580.101562 190.214844 C 580.027344 190.214844 579.960938 190.210938 579.890625 190.195312 L 445.773438 157.832031 C 445.292969 157.710938 444.992188 157.222656 445.113281 156.742188 L 455.285156 114.605469 C 455.34375 114.371094 455.484375 114.171875 455.691406 114.046875 C 455.894531 113.921875 456.140625 113.878906 456.375 113.9375 L 490.582031 122.191406 C 492.84375 113.800781 498.144531 106.710938 505.59375 102.164062 C 513.296875 97.457031 522.371094 96.03125 531.148438 98.148438 C 539.925781 100.269531 547.359375 105.671875 552.066406 113.378906 C 556.621094 120.824219 558.101562 129.550781 556.28125 138.046875 L 590.484375 146.300781 C 590.972656 146.417969 591.273438 146.910156 591.152344 147.390625 L 580.980469 189.527344 C 580.921875 189.761719 580.78125 189.960938 580.574219 190.085938 C 580.425781 190.171875 580.265625 190.214844 580.101562 190.214844 "/><path style=" stroke:none;fill-rule:nonzero;fill:#f7f1eb;fill-opacity:1;" d="M 562.960938 291.203125 L 405.617188 253.234375 L 407.296875 246.265625 L 564.640625 284.234375 L 562.960938 291.203125 "/><path style=" stroke:none;fill-rule:nonzero;fill:#f7f1eb;fill-opacity:1;" d="M 517.199219 292.53125 L 402.792969 264.925781 L 404.472656 257.957031 L 518.878906 285.5625 L 517.199219 292.53125 "/><path style=" stroke:none;fill-rule:nonzero;fill:#f7f1eb;fill-opacity:1;" d="M 485.207031 423.902344 L 371.050781 396.355469 L 372.707031 389.492188 L 486.863281 417.039062 L 485.207031 423.902344 "/><path style=" stroke:none;fill-rule:nonzero;fill:#f7f1eb;fill-opacity:1;" d="M 509.601562 326.410156 L 394.644531 298.667969 L 399.390625 279.023438 L 514.351562 306.761719 L 509.601562 326.410156 "/><path style=" stroke:none;fill-rule:nonzero;fill:#f7f1eb;fill-opacity:1;" d="M 551.984375 336.640625 L 516.414062 328.054688 L 521.15625 308.410156 L 556.730469 316.996094 L 551.984375 336.640625 "/><path style=" stroke:none;fill-rule:nonzero;fill:#f7f1eb;fill-opacity:1;" d="M 503.464844 351.816406 L 388.507812 324.078125 L 393.25 304.433594 L 508.207031 332.171875 L 503.464844 351.816406 "/><path style=" stroke:none;fill-rule:nonzero;fill:#f7f1eb;fill-opacity:1;" d="M 545.851562 362.042969 L 510.28125 353.464844 L 515.019531 333.8125 L 550.59375 342.398438 L 545.851562 362.042969 "/><path style=" stroke:none;fill-rule:nonzero;fill:#f7f1eb;fill-opacity:1;" d="M 497.332031 377.226562 L 382.371094 349.480469 L 387.117188 329.835938 L 502.078125 357.582031 L 497.332031 377.226562 "/><path style=" stroke:none;fill-rule:nonzero;fill:#f7f1eb;fill-opacity:1;" d="M 539.714844 387.453125 L 504.144531 378.867188 L 508.886719 359.222656 L 544.460938 367.808594 L 539.714844 387.453125 "/><path style=" stroke:none;fill-rule:nonzero;fill:#f7f1eb;fill-opacity:1;" d="M 491.199219 402.628906 L 376.238281 374.890625 L 380.980469 355.246094 L 495.9375 382.984375 L 491.199219 402.628906 "/><path style=" stroke:none;fill-rule:nonzero;fill:#f7f1eb;fill-opacity:1;" d="M 533.582031 412.859375 L 498.007812 404.277344 L 502.753906 384.632812 L 538.324219 393.210938 L 533.582031 412.859375 "/><path style=" stroke:none;fill-rule:nonzero;fill:#d3bba3;fill-opacity:1;" d="M 412.457031 232.542969 L 566.804688 269.789062 L 576.199219 230.886719 L 421.851562 193.644531 Z M 567.476562 271.785156 C 567.402344 271.785156 567.328125 271.773438 567.261719 271.757812 L 411.152344 234.085938 C 410.671875 233.96875 410.371094 233.480469 410.488281 232.996094 L 420.308594 192.339844 C 420.367188 192.109375 420.507812 191.90625 420.714844 191.78125 C 420.917969 191.660156 421.164062 191.613281 421.398438 191.675781 L 577.507812 229.347656 C 577.984375 229.464844 578.285156 229.953125 578.167969 230.4375 L 568.351562 271.089844 C 568.296875 271.324219 568.148438 271.527344 567.945312 271.652344 C 567.796875 271.738281 567.636719 271.785156 567.476562 271.785156 "/><path style=" stroke:none;fill-rule:nonzero;fill:#ffffff;fill-opacity:1;" d="M 457.914062 406.433594 L 661.515625 494.828125 L 780.601562 220.734375 L 577 132.339844 L 457.914062 406.433594 "/><path style=" stroke:none;fill-rule:nonzero;fill:#d3bba3;fill-opacity:1;" d="M 453.640625 395.515625 L 655.585938 483.191406 L 773.945312 210.75 L 572.003906 123.078125 Z M 656.054688 485.28125 C 655.929688 485.28125 655.808594 485.257812 655.691406 485.207031 L 452.089844 396.8125 C 451.867188 396.71875 451.695312 396.542969 451.605469 396.316406 C 451.519531 396.09375 451.523438 395.847656 451.617188 395.625 L 570.707031 121.53125 C 570.902344 121.074219 571.433594 120.859375 571.894531 121.0625 L 775.496094 209.453125 C 775.957031 209.652344 776.167969 210.1875 775.96875 210.640625 L 656.882812 484.734375 C 656.789062 484.957031 656.609375 485.128906 656.386719 485.222656 C 656.277344 485.261719 656.167969 485.28125 656.054688 485.28125 "/><path style=" stroke:none;fill-rule:nonzero;fill:#d3bba3;fill-opacity:1;" d="M 569.160156 207.527344 L 729.976562 277.34375 L 747.777344 236.367188 L 586.964844 166.546875 Z M 730.449219 279.4375 C 730.324219 279.4375 730.203125 279.410156 730.089844 279.363281 L 567.605469 208.824219 C 567.15625 208.625 566.9375 208.09375 567.140625 207.636719 L 585.660156 165 C 585.761719 164.78125 585.9375 164.609375 586.164062 164.519531 C 586.382812 164.433594 586.632812 164.4375 586.847656 164.535156 L 749.332031 235.066406 C 749.785156 235.269531 749.996094 235.800781 749.796875 236.257812 L 731.273438 278.890625 C 731.179688 279.113281 731 279.289062 730.777344 279.371094 C 730.675781 279.417969 730.558594 279.4375 730.449219 279.4375 "/><path style=" stroke:none;fill-rule:nonzero;fill:#f2e6dc;fill-opacity:1;" d="M 630.742188 362.214844 L 525.371094 316.472656 L 527.027344 312.667969 L 632.394531 358.410156 L 630.742188 362.214844 "/><path style=" stroke:none;fill-rule:nonzero;fill:#f2e6dc;fill-opacity:1;" d="M 667.132812 389.304688 L 537.601562 333.066406 L 539.25 329.269531 L 668.78125 385.503906 L 667.132812 389.304688 "/><path style=" stroke:none;fill-rule:nonzero;fill:#f2e6dc;fill-opacity:1;" d="M 641.75 389.574219 L 517.121094 335.46875 L 518.773438 331.664062 L 643.402344 385.777344 L 641.75 389.574219 "/><path style=" stroke:none;fill-rule:nonzero;fill:#f2e6dc;fill-opacity:1;" d="M 701.769531 343.34375 L 571.425781 286.757812 L 573.078125 282.953125 L 703.421875 339.539062 L 701.769531 343.34375 "/><path style=" stroke:none;fill-rule:nonzero;fill:#f2e6dc;fill-opacity:1;" d="M 660.527344 336.722656 L 535.894531 282.613281 L 537.542969 278.8125 L 662.175781 332.917969 L 660.527344 336.722656 "/><path style=" stroke:none;fill-rule:nonzero;fill:#f2e6dc;fill-opacity:1;" d="M 678.113281 355.652344 L 531.765625 292.117188 L 533.414062 288.3125 L 679.761719 351.851562 L 678.113281 355.652344 "/><path style=" stroke:none;fill-rule:nonzero;fill:#f2e6dc;fill-opacity:1;" d="M 703.4375 297.363281 L 588.960938 247.667969 L 590.609375 243.867188 L 705.085938 293.566406 L 703.4375 297.363281 "/><path style=" stroke:none;fill-rule:nonzero;fill:#f2e6dc;fill-opacity:1;" d="M 677.59375 297.4375 L 553.425781 243.53125 L 555.078125 239.730469 L 679.242188 293.632812 L 677.59375 297.4375 "/><path style=" stroke:none;fill-rule:nonzero;fill:#f2e6dc;fill-opacity:1;" d="M 710.585938 323.050781 L 549.300781 253.027344 L 550.949219 249.226562 L 712.238281 319.25 L 710.585938 323.050781 "/><path style=" stroke:none;fill-rule:nonzero;fill:#f2e6dc;fill-opacity:1;" d="M 721.765625 258.910156 L 584.332031 198.6875 L 591.917969 181.378906 L 729.359375 241.597656 L 721.765625 258.910156 "/><path style=" stroke:none;fill-rule:nonzero;fill:#f2e6dc;fill-opacity:1;" d="M 646.976562 455.242188 L 600.527344 434.316406 L 604.847656 424.738281 L 651.296875 445.667969 L 646.976562 455.242188 "/><g clip-rule="nonzero" clip-path="url(#99cce43cb9)"><path style=" stroke:none;fill-rule:nonzero;fill:#e6d0be;fill-opacity:1;" d="M 842.664062 843.300781 L 93.269531 843.300781 L 93.269531 742.195312 L 842.664062 742.195312 L 842.664062 843.300781 "/></g><path style=" stroke:none;fill-rule:nonzero;fill:#efbc73;fill-opacity:1;" d="M 694.125 736.832031 L 690.550781 736.832031 L 690.550781 495.472656 L 694.125 495.472656 L 694.125 736.832031 "/><path style=" stroke:none;fill-rule:nonzero;fill:#efbc73;fill-opacity:1;" d="M 613.011719 538.046875 L 622.429688 538.046875 L 690.988281 505.972656 C 690.976562 505.820312 691.003906 505.660156 691.074219 505.507812 C 691.285156 505.058594 691.824219 504.863281 692.269531 505.074219 L 761.820312 537.605469 L 768.96875 537.851562 L 762.449219 536.40625 C 762.382812 536.390625 762.316406 536.367188 762.253906 536.339844 L 691.746094 502.574219 L 620.933594 536.636719 C 620.859375 536.671875 620.78125 536.695312 620.695312 536.714844 Z M 778.730469 540.003906 C 778.71875 540.003906 778.710938 540.003906 778.699219 539.996094 L 761.570312 539.402344 C 761.445312 539.402344 761.324219 539.371094 761.21875 539.320312 L 692.59375 507.21875 L 623.011719 539.765625 C 622.890625 539.820312 622.757812 539.851562 622.625 539.851562 L 602.519531 539.851562 C 602.050781 539.851562 601.660156 539.496094 601.617188 539.027344 C 601.578125 538.5625 601.902344 538.136719 602.367188 538.058594 L 620.261719 534.953125 L 691.351562 500.761719 C 691.59375 500.640625 691.886719 500.640625 692.136719 500.761719 L 762.941406 534.664062 L 778.929688 538.214844 C 779.382812 538.320312 779.683594 538.75 779.628906 539.210938 C 779.570312 539.660156 779.1875 540.003906 778.730469 540.003906 "/><path style=" stroke:none;fill-rule:nonzero;fill:#efbc73;fill-opacity:1;" d="M 716.28125 646.367188 C 719.597656 660.660156 742.082031 671.316406 769.328125 671.316406 C 796.570312 671.316406 819.058594 660.660156 822.375 646.367188 L 716.28125 646.367188 "/><path style=" stroke:none;fill-rule:nonzero;fill:#efbc73;fill-opacity:1;" d="M 718.851562 648.027344 C 718.730469 648.027344 718.605469 648.003906 718.484375 647.949219 C 718.027344 647.746094 717.820312 647.214844 718.023438 646.761719 L 765.695312 538.53125 C 765.832031 538.210938 766.144531 538 766.496094 537.992188 C 766.84375 538.015625 767.167969 538.179688 767.328125 538.496094 L 820.945312 646.457031 C 821.167969 646.90625 820.992188 647.449219 820.542969 647.671875 C 820.097656 647.890625 819.550781 647.707031 819.328125 647.261719 L 766.566406 541.027344 L 719.679688 647.484375 C 719.53125 647.828125 719.199219 648.027344 718.851562 648.027344 "/><path style=" stroke:none;fill-rule:nonzero;fill:#efbc73;fill-opacity:1;" d="M 770.089844 647.632812 C 769.605469 647.632812 769.203125 647.25 769.191406 646.757812 L 765.609375 538.925781 C 765.59375 538.429688 765.984375 538.011719 766.484375 537.996094 C 766.964844 537.945312 767.40625 538.367188 767.417969 538.871094 L 770.992188 646.699219 C 771.007812 647.195312 770.617188 647.613281 770.121094 647.632812 C 770.109375 647.632812 770.097656 647.632812 770.089844 647.632812 "/><path style=" stroke:none;fill-rule:nonzero;fill:#efbc73;fill-opacity:1;" d="M 561.671875 621.136719 C 564.984375 635.433594 587.46875 646.089844 614.714844 646.089844 C 641.960938 646.089844 664.449219 635.433594 667.761719 621.136719 L 561.671875 621.136719 "/><path style=" stroke:none;fill-rule:nonzero;fill:#efbc73;fill-opacity:1;" d="M 563.042969 623.410156 C 562.894531 623.410156 562.734375 623.367188 562.589844 623.28125 C 562.160156 623.03125 562.015625 622.476562 562.269531 622.046875 L 611.125 538.4375 C 611.28125 538.167969 611.570312 538 611.886719 537.992188 C 612.195312 537.960938 612.496094 538.144531 612.660156 538.410156 L 665.992188 621.492188 C 666.257812 621.910156 666.140625 622.464844 665.71875 622.738281 C 665.300781 623.007812 664.738281 622.882812 664.46875 622.464844 L 611.941406 540.625 L 563.828125 622.957031 C 563.65625 623.246094 563.355469 623.410156 563.042969 623.410156 "/><path style=" stroke:none;fill-rule:nonzero;fill:#efbc73;fill-opacity:1;" d="M 615.476562 622.355469 C 614.996094 622.355469 614.59375 621.976562 614.578125 621.492188 L 611 538.933594 C 610.976562 538.4375 611.367188 538.015625 611.863281 537.996094 C 612.359375 537.972656 612.785156 538.359375 612.804688 538.859375 L 616.378906 621.414062 C 616.402344 621.910156 616.015625 622.332031 615.515625 622.351562 C 615.5 622.355469 615.488281 622.355469 615.476562 622.355469 "/><path style=" stroke:none;fill-rule:nonzero;fill:#efbc73;fill-opacity:1;" d="M 734.933594 760.058594 L 647.351562 760.058594 L 647.351562 754.695312 L 734.933594 754.695312 L 734.933594 760.058594 "/><path style=" stroke:none;fill-rule:nonzero;fill:#efbc73;fill-opacity:1;" d="M 651.523438 755 L 690.84375 735.046875 L 693.828125 734.746094 L 730.171875 755.296875 L 651.523438 755 "/><path style=" stroke:none;fill-rule:nonzero;fill:#efbc73;fill-opacity:1;" d="M 695.320312 496.660156 C 695.320312 498.304688 693.980469 499.640625 692.339844 499.640625 C 690.695312 499.640625 689.359375 498.304688 689.359375 496.660156 C 689.359375 495.015625 690.695312 493.683594 692.339844 493.683594 C 693.980469 493.683594 695.320312 495.015625 695.320312 496.660156 "/><path style=" stroke:none;fill-rule:nonzero;fill:#363e44;fill-opacity:1;" d="M 645.117188 830.117188 L 515.867188 830.117188 L 515.867188 801.402344 L 645.117188 801.402344 L 645.117188 830.117188 "/><path style=" stroke:none;fill-rule:nonzero;fill:#bc8271;fill-opacity:1;" d="M 648.351562 834.074219 L 513.355469 834.074219 L 513.355469 816.476562 L 648.351562 816.476562 L 648.351562 834.074219 "/><path style=" stroke:none;fill-rule:nonzero;fill:#bc8271;fill-opacity:1;" d="M 647.875 812.953125 L 512.878906 812.953125 L 512.878906 795.355469 L 647.875 795.355469 L 647.875 812.953125 "/><path style=" stroke:none;fill-rule:nonzero;fill:#bc8271;fill-opacity:1;" d="M 774.277344 834.304688 L 608.648438 763.703125 L 615.054688 748.671875 L 780.6875 819.273438 L 774.277344 834.304688 "/><path style=" stroke:none;fill-rule:nonzero;fill:#363e44;fill-opacity:1;" d="M 620.144531 769.984375 L 613.9375 767.335938 L 621.554688 749.488281 L 627.757812 752.132812 L 620.144531 769.984375 "/><path style=" stroke:none;fill-rule:nonzero;fill:#bc8271;fill-opacity:1;" d="M 603.78125 796.898438 L 559.917969 778.203125 L 591.855469 703.339844 L 635.714844 722.035156 L 603.78125 796.898438 "/><path style=" stroke:none;fill-rule:nonzero;fill:#363e44;fill-opacity:1;" d="M 635.570312 726.375 L 588.820312 706.445312 L 592.347656 698.171875 L 639.101562 718.105469 L 635.570312 726.375 "/><path style=" stroke:none;fill-rule:nonzero;fill:#363e44;fill-opacity:1;" d="M 604.488281 798.667969 L 557.730469 778.742188 L 561.257812 770.464844 L 608.019531 790.398438 L 604.488281 798.667969 "/><path style=" stroke:none;fill-rule:nonzero;fill:#d3bba3;fill-opacity:1;" d="M 636.714844 722.875 C 636.601562 722.875 636.476562 722.855469 636.371094 722.808594 L 590.144531 703.351562 C 589.683594 703.152344 589.464844 702.625 589.660156 702.167969 C 589.855469 701.703125 590.386719 701.492188 590.839844 701.683594 L 637.066406 721.144531 C 637.527344 721.335938 637.746094 721.863281 637.546875 722.324219 C 637.40625 722.671875 637.066406 722.875 636.714844 722.875 "/><path style=" stroke:none;fill-rule:nonzero;fill:#d3bba3;fill-opacity:1;" d="M 605.75 795.464844 C 605.628906 795.464844 605.507812 795.445312 605.386719 795.390625 L 559.019531 775.136719 C 558.558594 774.9375 558.351562 774.402344 558.550781 773.949219 C 558.753906 773.488281 559.285156 773.28125 559.742188 773.480469 L 606.113281 793.738281 C 606.566406 793.9375 606.777344 794.46875 606.582031 794.921875 C 606.429688 795.265625 606.097656 795.464844 605.75 795.464844 "/><path style=" stroke:none;fill-rule:nonzero;fill:#ffffff;fill-opacity:1;" d="M 94.074219 762.019531 L 94.523438 673.058594 L 144.382812 550.335938 C 150.699219 533.535156 165.59375 521.46875 183.339844 518.738281 C 225.519531 512.257812 308.125 504.085938 394.492188 520.566406 C 410.183594 523.5625 423.695312 533.460938 431.308594 547.5 L 482.238281 641.386719 L 499.492188 759.773438 L 94.074219 762.019531 "/><path style=" stroke:none;fill-rule:nonzero;fill:#363e44;fill-opacity:1;" d="M 241.125 638.230469 C 240.847656 638.230469 240.570312 638.101562 240.394531 637.859375 C 240.101562 637.460938 240.1875 636.894531 240.589844 636.597656 L 265.878906 618.082031 L 215.199219 545.785156 C 214.914062 545.378906 215.011719 544.816406 215.421875 544.527344 C 215.828125 544.242188 216.394531 544.34375 216.679688 544.75 L 267.863281 617.769531 C 268.148438 618.171875 268.054688 618.722656 267.660156 619.015625 L 241.65625 638.058594 C 241.496094 638.171875 241.308594 638.230469 241.125 638.230469 "/><path style=" stroke:none;fill-rule:nonzero;fill:#363e44;fill-opacity:1;" d="M 154.257812 694.234375 C 153.996094 694.234375 153.730469 694.117188 153.554688 693.898438 L 130.089844 664.480469 C 129.777344 664.09375 129.84375 663.523438 130.230469 663.210938 C 130.621094 662.902344 131.191406 662.964844 131.5 663.355469 L 154.964844 692.769531 C 155.277344 693.160156 155.214844 693.730469 154.824219 694.039062 C 154.65625 694.171875 154.457031 694.234375 154.257812 694.234375 "/><path style=" stroke:none;fill-rule:nonzero;fill:#363e44;fill-opacity:1;" d="M 288.347656 523.5 L 321.984375 523.5 L 305.839844 553.113281 Z M 288.347656 523.5 "/><path style=" stroke:none;fill-rule:nonzero;fill:#363e44;fill-opacity:1;" d="M 311.390625 538.855469 L 299.949219 538.855469 L 287.3125 699.242188 L 305.667969 717.824219 L 324.027344 699.242188 L 311.390625 538.855469 "/><path style=" stroke:none;fill-rule:nonzero;fill:#84524d;fill-opacity:1;" d="M 459.917969 632.734375 L 418.066406 728.625 C 409.214844 748.898438 417.839844 772.550781 437.667969 782.378906 L 441.265625 784.164062 C 468.976562 797.898438 501.4375 777.59375 501.199219 746.679688 L 500.390625 640.601562 L 459.917969 632.734375 "/><path style=" stroke:none;fill-rule:nonzero;fill:#d87355;fill-opacity:1;" d="M 476.683594 704.140625 L 357.078125 704.140625 L 411.160156 540.644531 L 530.769531 540.644531 L 476.683594 704.140625 "/><path style=" stroke:none;fill-rule:nonzero;fill:#84524d;fill-opacity:1;" d="M 385.09375 620.476562 L 392.492188 598.121094 L 280.542969 670.976562 L 254.203125 632.589844 L 162.785156 699.9375 L 226.605469 772.582031 C 245.085938 793.609375 277.753906 793.890625 296.597656 773.183594 L 366.960938 695.855469 C 372.859375 689.371094 380.992188 685.335938 389.738281 684.605469 C 403.40625 683.46875 422.789062 681.066406 423.773438 676.589844 C 425.300781 669.644531 389.109375 667.898438 389.109375 667.898438 C 389.109375 667.898438 432.28125 667.402344 432.363281 660.113281 C 432.445312 652.820312 393.351562 651.460938 393.351562 651.460938 C 393.351562 651.460938 435.992188 649.792969 436.402344 643.40625 C 436.808594 637.019531 396.003906 635.167969 396.003906 635.167969 C 396.003906 635.167969 433.941406 633.730469 433.878906 625.289062 C 433.816406 616.84375 385.09375 620.476562 385.09375 620.476562 "/><path style=" stroke:none;fill-rule:nonzero;fill:#363e44;fill-opacity:1;" d="M 251.957031 694.234375 C 251.695312 694.234375 251.433594 694.121094 251.253906 693.898438 C 250.941406 693.511719 251.003906 692.941406 251.390625 692.632812 L 279.230469 670.261719 C 279.617188 669.949219 280.1875 670.011719 280.5 670.398438 C 280.8125 670.789062 280.75 671.355469 280.359375 671.671875 L 252.523438 694.035156 C 252.359375 694.171875 252.15625 694.234375 251.957031 694.234375 "/><path style=" stroke:none;fill-rule:nonzero;fill:#84524d;fill-opacity:1;" d="M 501.039062 642.898438 C 510 645.425781 512.507812 649.964844 511.433594 654.386719 C 510.355469 658.804688 506.097656 661.433594 497.140625 658.90625 C 488.179688 656.378906 477.914062 649.652344 478.988281 645.234375 C 480.070312 640.816406 492.082031 640.371094 501.039062 642.898438 "/><path style=" stroke:none;fill-rule:nonzero;fill:#84524d;fill-opacity:1;" d="M 502.804688 627.058594 C 513.191406 629.988281 516.101562 635.246094 514.851562 640.371094 C 513.601562 645.496094 508.660156 648.542969 498.28125 645.613281 C 487.898438 642.683594 476.003906 634.886719 477.253906 629.765625 C 478.503906 624.644531 492.421875 624.128906 502.804688 627.058594 "/><path style=" stroke:none;fill-rule:nonzero;fill:#84524d;fill-opacity:1;" d="M 507.292969 617.261719 C 516.25 619.789062 520.507812 617.164062 521.585938 612.738281 C 522.667969 608.320312 520.15625 603.78125 511.199219 601.253906 C 502.242188 598.726562 490.226562 599.167969 489.148438 603.585938 C 488.070312 608.007812 498.335938 614.734375 507.292969 617.261719 "/><path style=" stroke:none;fill-rule:nonzero;fill:#84524d;fill-opacity:1;" d="M 501.601562 631.996094 C 511.984375 634.921875 516.921875 631.875 518.171875 626.75 C 519.417969 621.632812 516.507812 616.367188 506.125 613.4375 C 495.746094 610.511719 481.820312 611.023438 480.570312 616.144531 C 479.324219 621.269531 491.222656 629.066406 501.601562 631.996094 "/><path style=" stroke:none;fill-rule:nonzero;fill:#363e44;fill-opacity:1;" d="M 275.554688 546.199219 C 275.5 546.199219 275.449219 546.191406 275.394531 546.183594 C 275.152344 546.144531 274.9375 546 274.800781 545.792969 L 264.046875 529.667969 C 263.769531 529.253906 263.882812 528.691406 264.296875 528.414062 C 264.710938 528.140625 265.273438 528.25 265.550781 528.667969 L 275.785156 544.007812 L 287.3125 535.605469 C 287.714844 535.3125 288.28125 535.398438 288.574219 535.804688 C 288.867188 536.207031 288.78125 536.773438 288.378906 537.066406 L 276.085938 546.023438 C 275.929688 546.136719 275.742188 546.199219 275.554688 546.199219 "/><path style=" stroke:none;fill-rule:nonzero;fill:#363e44;fill-opacity:1;" d="M 333.171875 541.84375 C 333.054688 541.84375 332.9375 541.828125 332.828125 541.777344 L 319.765625 536.402344 C 319.304688 536.214844 319.085938 535.683594 319.273438 535.222656 C 319.464844 534.765625 319.992188 534.546875 320.453125 534.730469 L 332.738281 539.789062 L 339.789062 525.695312 C 340.011719 525.25 340.554688 525.070312 341 525.289062 C 341.449219 525.511719 341.628906 526.054688 341.40625 526.503906 L 333.980469 541.347656 C 333.820312 541.660156 333.503906 541.84375 333.171875 541.84375 "/><path style=" stroke:none;fill-rule:nonzero;fill:#84524d;fill-opacity:1;" d="M 321.824219 523.761719 L 328.046875 513.679688 L 343.535156 451.222656 C 343.484375 442.015625 319.835938 437.296875 310.621094 437.347656 C 301.410156 437.402344 299.683594 431.0625 299.738281 440.269531 L 280.765625 513.679688 L 288.515625 523.761719 L 321.824219 523.761719 "/><path style=" stroke:none;fill-rule:nonzero;fill:#84524d;fill-opacity:1;" d="M 351.6875 500.699219 C 340.566406 507.558594 313.859375 481.777344 313.859375 481.777344 L 297.023438 448.078125 C 298.21875 429.738281 314.054688 415.84375 332.398438 417.035156 C 350.738281 418.226562 364.640625 434.054688 363.449219 452.394531 C 363.449219 452.394531 363.015625 493.71875 351.6875 500.699219 "/><path style=" stroke:none;fill-rule:nonzero;fill:#84524d;fill-opacity:1;" d="M 359.066406 460.871094 C 359.066406 460.871094 367.746094 471.234375 367.082031 473.78125 C 366.292969 476.816406 355.792969 478.015625 355.792969 478.015625 C 355.792969 478.015625 359.3125 460.914062 359.066406 460.871094 "/><path style=" stroke:none;fill-rule:nonzero;fill:#ffffff;fill-opacity:1;" d="M 331.664062 451.226562 C 331.664062 451.226562 337.042969 449.941406 342.714844 451.445312 C 343.925781 451.761719 339.089844 460.816406 338.085938 459.96875 C 333.683594 456.226562 331.664062 451.226562 331.664062 451.226562 "/><g clip-rule="nonzero" clip-path="url(#9d8968e25d)"><g clip-rule="nonzero" clip-path="url(#ac8457eb79)"><path style=" stroke:none;fill-rule:nonzero;fill:#363e44;fill-opacity:1;" d="M 343.019531 451.253906 C 347.765625 448.5 353.851562 450.109375 356.613281 454.851562 C 359.375 459.597656 357.761719 465.683594 353.015625 468.4375 C 348.273438 471.199219 342.1875 469.589844 339.425781 464.84375 C 336.664062 460.097656 338.273438 454.015625 343.019531 451.253906 "/></g></g><path style=" stroke:none;fill-rule:nonzero;fill:#363e44;fill-opacity:1;" d="M 294.824219 411.40625 C 294.824219 411.40625 276.703125 445.464844 299.058594 460.816406 L 305.984375 456.285156 L 319.808594 464.351562 L 316.179688 446.066406 C 315.527344 439.097656 321.414062 433.28125 328.375 434.003906 L 358.757812 437.175781 L 359.496094 420.839844 C 340.292969 406.667969 319.070312 401.953125 294.824219 411.40625 "/><path style=" stroke:none;fill-rule:nonzero;fill:#363e44;fill-opacity:1;" d="M 329.019531 409.757812 C 325.550781 410.257812 322.332031 407.847656 321.835938 404.382812 C 321.335938 400.914062 323.484375 395.886719 326.953125 395.386719 C 330.421875 394.886719 333.898438 399.113281 334.394531 402.574219 C 334.894531 406.046875 332.484375 409.261719 329.019531 409.757812 "/><path style=" stroke:none;fill-rule:nonzero;fill:#363e44;fill-opacity:1;" d="M 333.601562 411.960938 C 330.324219 410.710938 328.683594 407.042969 329.933594 403.773438 C 331.183594 400.5 335.503906 397.144531 338.78125 398.394531 C 342.050781 399.644531 343.039062 405.023438 341.789062 408.292969 C 340.539062 411.566406 336.875 413.210938 333.601562 411.960938 "/><path style=" stroke:none;fill-rule:nonzero;fill:#363e44;fill-opacity:1;" d="M 343.394531 416.785156 C 339.316406 414.34375 337.996094 409.0625 340.4375 404.992188 C 342.878906 400.921875 349.4375 397.464844 353.511719 399.90625 C 357.585938 402.347656 357.628906 409.757812 355.1875 413.828125 C 352.746094 417.898438 347.464844 419.222656 343.394531 416.785156 "/><path style=" stroke:none;fill-rule:nonzero;fill:#363e44;fill-opacity:1;" d="M 318.949219 409.574219 C 315.5 410.1875 312.207031 407.882812 311.597656 404.4375 C 310.988281 400.988281 312.972656 395.890625 316.421875 395.28125 C 319.871094 394.671875 323.484375 398.777344 324.09375 402.226562 C 324.703125 405.675781 322.402344 408.964844 318.949219 409.574219 "/><path style=" stroke:none;fill-rule:nonzero;fill:#363e44;fill-opacity:1;" d="M 351.121094 419.070312 C 349.738281 415.078125 351.855469 410.71875 355.847656 409.335938 C 359.84375 407.957031 366.296875 409.34375 367.675781 413.335938 C 369.0625 417.328125 364.855469 422.410156 360.859375 423.792969 C 356.867188 425.179688 352.507812 423.0625 351.121094 419.070312 "/><path style=" stroke:none;fill-rule:nonzero;fill:#363e44;fill-opacity:1;" d="M 310.792969 411.1875 C 306.707031 412.722656 302.148438 410.65625 300.609375 406.570312 C 299.070312 402.484375 300.332031 395.792969 304.417969 394.257812 C 308.503906 392.722656 313.867188 396.925781 315.40625 401.007812 C 316.945312 405.089844 314.878906 409.644531 310.792969 411.1875 "/><path style=" stroke:none;fill-rule:nonzero;fill:#363e44;fill-opacity:1;" d="M 302.84375 411.648438 C 300.515625 414.136719 296.613281 414.265625 294.121094 411.941406 C 291.632812 409.613281 290.199219 404.492188 292.527344 402.007812 C 294.855469 399.515625 300.0625 400.605469 302.550781 402.929688 C 305.039062 405.253906 305.171875 409.160156 302.84375 411.648438 "/><path style=" stroke:none;fill-rule:nonzero;fill:#363e44;fill-opacity:1;" d="M 352.203125 428.730469 C 352.128906 423.582031 356.246094 419.347656 361.398438 419.273438 C 366.550781 419.199219 373.488281 423.273438 373.558594 428.421875 C 373.632812 433.574219 366.820312 437.847656 361.667969 437.921875 C 356.515625 437.996094 352.277344 433.882812 352.203125 428.730469 "/><path style=" stroke:none;fill-rule:nonzero;fill:#84524d;fill-opacity:1;" d="M 290.574219 447.789062 C 287.71875 453.445312 289.996094 460.347656 295.65625 463.199219 C 301.316406 466.054688 308.222656 463.78125 311.074219 458.121094 C 313.929688 452.460938 311.65625 445.5625 305.992188 442.707031 C 300.332031 439.855469 293.429688 442.128906 290.574219 447.789062 "/><path style=" stroke:none;fill-rule:nonzero;fill:#363e44;fill-opacity:1;" d="M 361.363281 476.980469 L 356.015625 504.398438 C 355.269531 508.21875 351.496094 510.636719 347.710938 509.730469 C 346.761719 509.503906 345.734375 509.246094 344.644531 508.957031 C 325.804688 503.957031 310.875 489.582031 305.195312 470.945312 C 303.292969 464.699219 305.441406 457.929688 310.601562 453.925781 L 312.300781 452.605469 L 317.496094 456.007812 C 317.496094 456.007812 320.394531 471.398438 325.972656 472.972656 C 331.546875 474.542969 342.40625 470.8125 361.363281 476.980469 "/><path style=" stroke:none;fill-rule:nonzero;fill:#84524d;fill-opacity:1;" d="M 347.503906 484.144531 C 346.328125 484.144531 345.15625 483.769531 344.179688 483.046875 C 342.492188 481.789062 341.652344 479.632812 342.035156 477.554688 C 342.125 477.066406 342.59375 476.738281 343.089844 476.828125 C 343.578125 476.921875 343.90625 477.394531 343.8125 477.878906 C 343.550781 479.289062 344.121094 480.746094 345.257812 481.59375 C 346.441406 482.476562 348.042969 482.578125 349.34375 481.859375 C 349.78125 481.617188 350.332031 481.777344 350.574219 482.214844 C 350.816406 482.648438 350.65625 483.195312 350.222656 483.4375 C 349.371094 483.910156 348.433594 484.144531 347.503906 484.144531 "/><path style=" stroke:none;fill-rule:nonzero;fill:#84524d;fill-opacity:1;" d="M 320.097656 435.148438 C 319.875 435.148438 319.652344 435.066406 319.480469 434.902344 L 307.214844 423.363281 C 306.851562 423.019531 306.835938 422.449219 307.175781 422.085938 C 307.519531 421.722656 308.089844 421.707031 308.453125 422.050781 L 320.71875 433.589844 C 321.082031 433.929688 321.097656 434.5 320.757812 434.867188 C 320.578125 435.054688 320.339844 435.148438 320.097656 435.148438 "/><path style=" stroke:none;fill-rule:nonzero;fill:#363e44;fill-opacity:1;" d="M 636.179688 225.265625 C 635.773438 225.265625 635.371094 225.265625 634.957031 225.269531 C 605.777344 225.589844 578.472656 237.246094 558.066406 258.09375 C 537.65625 278.941406 526.59375 306.488281 526.90625 335.65625 C 527.226562 364.824219 538.890625 392.121094 559.75 412.519531 C 580.613281 432.921875 608.203125 443.988281 637.339844 443.660156 C 666.519531 443.34375 693.828125 431.6875 714.230469 410.839844 C 734.636719 389.988281 745.703125 362.441406 745.386719 333.273438 C 745.066406 304.105469 733.40625 276.808594 712.546875 256.410156 C 691.984375 236.296875 664.902344 225.265625 636.179688 225.265625 Z M 636.113281 445.476562 C 606.914062 445.476562 579.394531 434.261719 558.488281 413.808594 C 537.285156 393.078125 525.433594 365.328125 525.105469 335.675781 C 524.78125 306.027344 536.023438 278.027344 556.773438 256.832031 C 577.515625 235.640625 605.273438 223.789062 634.9375 223.460938 L 634.949219 224.367188 L 634.9375 223.460938 C 664.601562 223.136719 692.609375 234.382812 713.8125 255.121094 C 735.011719 275.855469 746.875 303.605469 747.191406 333.253906 C 747.519531 362.90625 736.269531 390.902344 715.527344 412.101562 C 694.78125 433.296875 667.023438 445.140625 637.359375 445.46875 C 636.945312 445.472656 636.527344 445.476562 636.113281 445.476562 "/><path style=" stroke:none;fill-rule:nonzero;fill:#363e44;fill-opacity:1;" d="M 765.746094 468.253906 C 765.511719 468.253906 765.277344 468.164062 765.101562 467.992188 L 749.605469 452.453125 C 749.25 452.097656 749.25 451.523438 749.605469 451.167969 C 749.957031 450.820312 750.527344 450.820312 750.882812 451.175781 L 766.382812 466.710938 C 766.734375 467.066406 766.734375 467.636719 766.375 467.992188 C 766.203125 468.164062 765.972656 468.253906 765.746094 468.253906 "/><path style=" stroke:none;fill-rule:nonzero;fill:#363e44;fill-opacity:1;" d="M 771.121094 462.859375 C 770.882812 462.859375 770.652344 462.769531 770.476562 462.589844 L 754.976562 447.054688 C 754.625 446.699219 754.625 446.125 754.976562 445.769531 C 755.332031 445.425781 755.902344 445.425781 756.257812 445.777344 L 771.761719 461.3125 C 772.109375 461.667969 772.109375 462.238281 771.753906 462.589844 C 771.582031 462.769531 771.351562 462.859375 771.121094 462.859375 "/><path style=" stroke:none;fill-rule:nonzero;fill:#363e44;fill-opacity:1;" d="M 757 439.972656 C 756.148438 439.972656 755.296875 440.300781 754.644531 440.953125 L 745.128906 450.648438 C 744.515625 451.277344 744.175781 452.109375 744.1875 452.984375 C 744.195312 453.867188 744.546875 454.691406 745.175781 455.304688 L 792.785156 502.03125 C 796.246094 505.425781 801.808594 505.375 805.203125 501.921875 L 807.035156 500.058594 C 810.425781 496.597656 810.375 491.03125 806.921875 487.640625 L 759.304688 440.914062 C 758.671875 440.28125 757.828125 439.972656 757 439.972656 Z M 798.933594 506.351562 C 796.140625 506.351562 793.511719 505.277344 791.515625 503.320312 L 743.910156 456.59375 C 741.902344 454.625 741.871094 451.390625 743.839844 449.382812 L 753.359375 439.6875 C 754.316406 438.71875 755.59375 438.175781 756.957031 438.160156 C 756.96875 438.160156 756.984375 438.160156 757 438.160156 C 758.351562 438.160156 759.617188 438.679688 760.570312 439.625 L 808.183594 486.351562 C 812.351562 490.4375 812.414062 497.15625 808.320312 501.316406 L 806.492188 503.179688 C 804.507812 505.199219 801.859375 506.328125 799.035156 506.351562 C 799.003906 506.351562 798.972656 506.351562 798.933594 506.351562 "/><path style=" stroke:none;fill-rule:nonzero;fill:#363e44;fill-opacity:1;" d="M 717.019531 420.9375 L 744.902344 448.375 L 752.375 440.769531 L 724.496094 413.328125 Z M 744.910156 450.558594 C 744.675781 450.558594 744.445312 450.464844 744.28125 450.300781 L 715.109375 421.59375 C 714.753906 421.242188 714.75 420.675781 715.097656 420.316406 L 723.835938 411.417969 C 724.003906 411.25 724.234375 411.152344 724.476562 411.152344 C 724.480469 411.152344 724.480469 411.152344 724.480469 411.152344 C 724.71875 411.152344 724.949219 411.238281 725.117188 411.40625 L 754.28125 440.113281 C 754.640625 440.460938 754.644531 441.035156 754.296875 441.386719 L 745.558594 450.289062 C 745.386719 450.460938 745.15625 450.554688 744.921875 450.558594 C 744.917969 450.558594 744.910156 450.558594 744.910156 450.558594 "/><path style=" stroke:none;fill-rule:nonzero;fill:#363e44;fill-opacity:1;" d="M 566.898438 405.9375 C 566.667969 405.9375 566.4375 405.855469 566.265625 405.683594 C 537.570312 377.617188 528.511719 335.347656 543.195312 297.992188 C 543.375 297.527344 543.898438 297.300781 544.363281 297.480469 C 544.828125 297.667969 545.054688 298.191406 544.875 298.652344 C 530.460938 335.332031 539.351562 376.832031 567.527344 404.386719 C 567.882812 404.738281 567.886719 405.308594 567.539062 405.664062 C 567.363281 405.847656 567.128906 405.9375 566.898438 405.9375 "/><path style=" stroke:none;fill-rule:nonzero;fill:#363e44;fill-opacity:1;" d="M 706.558594 404.410156 C 706.328125 404.410156 706.105469 404.328125 705.929688 404.15625 C 705.570312 403.804688 705.5625 403.230469 705.910156 402.878906 C 718.320312 390.203125 727.046875 374.429688 731.144531 357.269531 C 731.257812 356.78125 731.746094 356.488281 732.230469 356.601562 C 732.71875 356.714844 733.019531 357.199219 732.898438 357.6875 C 728.726562 375.167969 719.839844 391.226562 707.199219 404.136719 C 707.023438 404.316406 706.789062 404.410156 706.558594 404.410156 "/><g clip-rule="nonzero" clip-path="url(#0b33931d2b)"><path style=" stroke:none;fill-rule:nonzero;fill:#f2e6dc;fill-opacity:1;" d="M 843.5 468.5 C 843.5 675.496094 675.628906 843.300781 468.558594 843.300781 C 261.488281 843.300781 93.621094 675.496094 93.621094 468.5 C 93.621094 261.507812 261.488281 93.703125 468.558594 93.703125 C 675.628906 93.703125 843.5 261.507812 843.5 468.5 "/></g><path style=" stroke:none;fill-rule:nonzero;fill:#e6d0be;fill-opacity:1;" d="M 203.09375 506.480469 C 204.132812 516.550781 200.765625 526.65625 193.898438 534.097656 C 170.554688 559.363281 130.261719 545.929688 126.738281 511.703125 C 125.703125 501.628906 129.066406 491.523438 135.9375 484.085938 C 159.28125 458.816406 199.570312 472.253906 203.09375 506.480469 Z M 213.792969 473.554688 L 208.542969 476.179688 C 206.789062 473.855469 204.875 471.699219 202.816406 469.722656 L 206.050781 464.828125 L 189.460938 453.878906 L 189.457031 453.878906 L 186.21875 458.785156 C 183.566406 457.660156 180.832031 456.746094 178.039062 456.054688 L 178.390625 450.1875 L 158.546875 448.992188 L 158.199219 454.847656 C 155.367188 455.195312 152.542969 455.769531 149.746094 456.578125 L 147.117188 451.324219 L 129.34375 460.210938 L 131.972656 465.460938 C 129.648438 467.210938 127.492188 469.128906 125.515625 471.179688 L 120.617188 467.945312 L 109.671875 484.523438 L 114.582031 487.765625 C 113.460938 490.414062 112.550781 493.152344 111.859375 495.945312 L 105.984375 495.585938 L 104.800781 515.425781 L 110.660156 515.777344 C 111.011719 518.609375 111.585938 521.429688 112.398438 524.230469 L 107.144531 526.851562 L 116.042969 544.628906 L 121.292969 542.003906 C 123.042969 544.328125 124.960938 546.484375 127.015625 548.457031 L 123.785156 553.355469 L 140.375 564.304688 L 143.617188 559.398438 C 146.265625 560.519531 149.003906 561.433594 151.796875 562.125 L 151.445312 567.996094 L 171.289062 569.191406 L 171.636719 563.335938 C 174.46875 562.988281 177.292969 562.414062 180.089844 561.605469 L 182.71875 566.859375 L 200.492188 557.972656 L 197.863281 552.722656 C 200.1875 550.972656 202.34375 549.054688 204.320312 547.003906 L 209.21875 550.234375 L 220.164062 533.65625 L 215.253906 530.417969 C 216.375 527.769531 217.285156 525.03125 217.976562 522.238281 L 223.851562 522.59375 L 225.03125 502.757812 L 219.175781 502.402344 C 218.824219 499.574219 218.25 496.75 217.4375 493.953125 L 222.6875 491.332031 L 213.792969 473.554688 "/><path style=" stroke:none;fill-rule:nonzero;fill:#f2e6dc;fill-opacity:1;" d="M 165.015625 553.453125 C 148.722656 553.457031 133.003906 544.460938 125.226562 528.925781 C 115.476562 509.4375 121.539062 485.316406 139.332031 472.8125 C 139.742188 472.527344 140.304688 472.625 140.589844 473.03125 C 140.878906 473.441406 140.78125 474.007812 140.371094 474.292969 C 123.304688 486.285156 117.488281 509.425781 126.84375 528.117188 C 137.351562 549.113281 162.980469 557.65625 183.972656 547.167969 C 201.320312 538.496094 210.613281 519.210938 206.574219 500.269531 C 206.46875 499.78125 206.78125 499.300781 207.269531 499.199219 C 207.761719 499.09375 208.238281 499.40625 208.34375 499.894531 C 212.550781 519.640625 202.863281 539.746094 184.78125 548.78125 C 178.433594 551.953125 171.675781 553.453125 165.015625 553.453125 "/><g clip-rule="nonzero" clip-path="url(#2db359d14c)"><path style=" stroke:none;fill-rule:nonzero;fill:#f7f1eb;fill-opacity:1;" d="M 446.390625 394.640625 L 232.984375 450.769531 L 158.886719 169.265625 L 372.292969 113.136719 L 446.390625 394.640625 "/></g><g clip-rule="nonzero" clip-path="url(#43d3d82bf5)"><path style=" stroke:none;fill-rule:nonzero;fill:#e6d0be;fill-opacity:1;" d="M 148.078125 162.460938 L 221.71875 442.21875 L 433.375 386.542969 L 359.734375 106.785156 Z M 221.074219 444.222656 C 220.671875 444.222656 220.304688 443.957031 220.199219 443.550781 L 146.101562 162.046875 C 146.039062 161.816406 146.074219 161.570312 146.195312 161.363281 C 146.316406 161.152344 146.511719 161.003906 146.746094 160.945312 L 360.148438 104.816406 C 360.378906 104.75 360.628906 104.78125 360.835938 104.90625 C 361.042969 105.023438 361.191406 105.222656 361.253906 105.453125 L 435.355469 386.960938 C 435.476562 387.441406 435.1875 387.9375 434.707031 388.066406 L 221.304688 444.195312 C 221.226562 444.214844 221.148438 444.222656 221.074219 444.222656 "/></g><g clip-rule="nonzero" clip-path="url(#855ee2ff5a)"><path style=" stroke:none;fill-rule:nonzero;fill:#ffffff;fill-opacity:1;" d="M 224.519531 169.382812 C 221.058594 169.382812 217.578125 169.828125 214.140625 170.730469 C 203.675781 173.484375 194.910156 180.144531 189.457031 189.492188 C 184.003906 198.835938 182.515625 209.742188 185.269531 220.207031 C 190.953125 241.800781 213.15625 254.746094 234.761719 249.066406 C 256.367188 243.386719 269.320312 221.191406 263.632812 199.597656 C 260.878906 189.132812 254.214844 180.363281 244.867188 174.914062 C 238.589844 171.257812 231.601562 169.382812 224.519531 169.382812 Z M 224.460938 252.210938 C 205.703125 252.210938 188.511719 239.632812 183.519531 220.664062 C 180.644531 209.738281 182.199219 198.339844 187.894531 188.578125 C 193.589844 178.820312 202.75 171.859375 213.683594 168.988281 C 224.613281 166.109375 236.011719 167.664062 245.777344 173.355469 C 255.542969 179.050781 262.503906 188.203125 265.382812 199.132812 C 271.320312 221.695312 257.789062 244.878906 235.222656 250.8125 C 231.625 251.757812 228.015625 252.210938 224.460938 252.210938 "/></g><g clip-rule="nonzero" clip-path="url(#f2906c44b6)"><path style=" stroke:none;fill-rule:nonzero;fill:#e6d0be;fill-opacity:1;" d="M 223.863281 207.648438 C 206.617188 212.1875 197.160156 221.734375 199.945312 232.3125 C 208.011719 241.109375 220.558594 245.257812 232.90625 242.011719 C 245.253906 238.761719 254.136719 228.976562 256.828125 217.351562 C 254.1875 207.324219 239.996094 203.40625 223.863281 207.648438 "/></g><g clip-rule="nonzero" clip-path="url(#1326fc06a1)"><path style=" stroke:none;fill-rule:nonzero;fill:#f2e6dc;fill-opacity:1;" d="M 371.027344 207.960938 L 291.742188 228.8125 L 287.203125 211.570312 L 366.488281 190.714844 L 371.027344 207.960938 "/></g><path style=" stroke:none;fill-rule:nonzero;fill:#f2e6dc;fill-opacity:1;" d="M 340.011719 343.324219 L 237.140625 369.964844 L 236.019531 365.640625 L 338.890625 339 L 340.011719 343.324219 "/><path style=" stroke:none;fill-rule:nonzero;fill:#f2e6dc;fill-opacity:1;" d="M 382.371094 343.878906 L 255.902344 376.628906 L 254.78125 372.304688 L 381.25 339.558594 L 382.371094 343.878906 "/><path style=" stroke:none;fill-rule:nonzero;fill:#f2e6dc;fill-opacity:1;" d="M 364.421875 360.050781 L 242.738281 391.5625 L 241.617188 387.242188 L 363.300781 355.730469 L 364.421875 360.050781 "/><path style=" stroke:none;fill-rule:nonzero;fill:#f2e6dc;fill-opacity:1;" d="M 379.300781 282.402344 L 252.039062 315.359375 L 250.921875 311.035156 L 378.179688 278.078125 L 379.300781 282.402344 "/><path style=" stroke:none;fill-rule:nonzero;fill:#f2e6dc;fill-opacity:1;" d="M 345.855469 302.585938 L 224.171875 334.097656 L 223.054688 329.777344 L 344.734375 298.265625 L 345.855469 302.585938 "/><path style=" stroke:none;fill-rule:nonzero;fill:#f2e6dc;fill-opacity:1;" d="M 369.859375 307.894531 L 226.972656 344.898438 L 225.851562 340.574219 L 368.734375 303.570312 L 369.859375 307.894531 "/><path style=" stroke:none;fill-rule:nonzero;fill:#f2e6dc;fill-opacity:1;" d="M 352.679688 241.625 L 240.910156 270.570312 L 239.792969 266.25 L 351.558594 237.304688 L 352.679688 241.625 "/><path style=" stroke:none;fill-rule:nonzero;fill:#f2e6dc;fill-opacity:1;" d="M 334.277344 257.910156 L 213.046875 289.308594 L 211.925781 284.984375 L 333.15625 253.589844 L 334.277344 257.910156 "/><path style=" stroke:none;fill-rule:nonzero;fill:#f2e6dc;fill-opacity:1;" d="M 373.320312 259.328125 L 215.84375 300.105469 L 214.722656 295.785156 L 372.199219 255.003906 L 373.320312 259.328125 "/><path style=" stroke:none;fill-rule:nonzero;fill:#d3bba3;fill-opacity:1;" d="M 607.253906 381.707031 C 607.183594 381.707031 607.113281 381.699219 607.042969 381.683594 C 606.558594 381.5625 606.257812 381.074219 606.375 380.59375 L 619.832031 324.863281 C 619.953125 324.375 620.449219 324.078125 620.921875 324.195312 C 621.410156 324.308594 621.710938 324.804688 621.589844 325.285156 L 608.128906 381.015625 C 608.03125 381.425781 607.664062 381.707031 607.253906 381.707031 "/><g clip-rule="nonzero" clip-path="url(#e799b9ec2b)"><path style=" stroke:none;fill-rule:nonzero;fill:#d3bba3;fill-opacity:1;" d="M 524.015625 500.15625 C 523.949219 500.15625 523.878906 500.148438 523.804688 500.128906 L 302.605469 446.753906 C 302.375 446.695312 302.175781 446.554688 302.046875 446.347656 C 301.925781 446.140625 301.882812 445.894531 301.941406 445.664062 L 380.566406 120.082031 C 380.621094 119.851562 380.769531 119.648438 380.96875 119.523438 C 381.175781 119.402344 381.421875 119.359375 381.65625 119.417969 L 443.121094 134.253906 C 443.609375 134.367188 443.902344 134.855469 443.789062 135.34375 C 443.667969 135.828125 443.179688 136.128906 442.699219 136.007812 L 382.109375 121.386719 L 303.910156 445.210938 L 524.226562 498.375 C 524.714844 498.488281 525.011719 498.984375 524.894531 499.464844 C 524.792969 499.878906 524.429688 500.15625 524.015625 500.15625 "/></g><g clip-rule="nonzero" clip-path="url(#f754233f89)"><path style=" stroke:none;fill-rule:nonzero;fill:#d3bba3;fill-opacity:1;" d="M 644.644531 226.875 C 644.570312 226.875 644.503906 226.863281 644.433594 226.851562 C 643.949219 226.730469 643.644531 226.242188 643.761719 225.761719 L 653.171875 186.804688 L 588.550781 171.210938 C 588.070312 171.09375 587.773438 170.605469 587.890625 170.121094 C 588.003906 169.632812 588.5 169.335938 588.980469 169.453125 L 654.472656 185.261719 C 654.707031 185.316406 654.90625 185.460938 655.035156 185.664062 C 655.160156 185.871094 655.199219 186.117188 655.140625 186.351562 L 645.519531 226.183594 C 645.421875 226.59375 645.054688 226.875 644.644531 226.875 "/></g><g clip-rule="nonzero" clip-path="url(#86aecd1ce3)"><path style=" stroke:none;fill-rule:nonzero;fill:#ffffff;fill-opacity:1;" d="M 336.242188 429.214844 L 553.503906 481.640625 L 624.085938 189.390625 L 406.820312 136.960938 L 336.242188 429.214844 "/></g><path style=" stroke:none;fill-rule:nonzero;fill:#f7f1eb;fill-opacity:1;" d="M 562.960938 291.203125 L 405.617188 253.234375 L 407.296875 246.265625 L 564.640625 284.234375 L 562.960938 291.203125 "/><path style=" stroke:none;fill-rule:nonzero;fill:#f7f1eb;fill-opacity:1;" d="M 517.199219 292.53125 L 402.792969 264.925781 L 404.472656 257.957031 L 518.878906 285.5625 L 517.199219 292.53125 "/><path style=" stroke:none;fill-rule:nonzero;fill:#f7f1eb;fill-opacity:1;" d="M 485.207031 423.902344 L 371.050781 396.355469 L 372.707031 389.492188 L 486.863281 417.039062 L 485.207031 423.902344 "/><path style=" stroke:none;fill-rule:nonzero;fill:#f7f1eb;fill-opacity:1;" d="M 509.601562 326.410156 L 394.644531 298.667969 L 399.390625 279.023438 L 514.351562 306.761719 L 509.601562 326.410156 "/><path style=" stroke:none;fill-rule:nonzero;fill:#f7f1eb;fill-opacity:1;" d="M 551.984375 336.640625 L 516.414062 328.054688 L 521.15625 308.410156 L 556.730469 316.996094 L 551.984375 336.640625 "/><path style=" stroke:none;fill-rule:nonzero;fill:#f7f1eb;fill-opacity:1;" d="M 503.464844 351.816406 L 388.507812 324.078125 L 393.25 304.433594 L 508.207031 332.171875 L 503.464844 351.816406 "/><path style=" stroke:none;fill-rule:nonzero;fill:#f7f1eb;fill-opacity:1;" d="M 545.851562 362.042969 L 510.28125 353.464844 L 515.019531 333.8125 L 550.59375 342.398438 L 545.851562 362.042969 "/><path style=" stroke:none;fill-rule:nonzero;fill:#f7f1eb;fill-opacity:1;" d="M 497.332031 377.226562 L 382.371094 349.480469 L 387.117188 329.835938 L 502.078125 357.582031 L 497.332031 377.226562 "/><path style=" stroke:none;fill-rule:nonzero;fill:#f7f1eb;fill-opacity:1;" d="M 539.714844 387.453125 L 504.144531 378.867188 L 508.886719 359.222656 L 544.460938 367.808594 L 539.714844 387.453125 "/><path style=" stroke:none;fill-rule:nonzero;fill:#f7f1eb;fill-opacity:1;" d="M 491.199219 402.628906 L 376.238281 374.890625 L 380.980469 355.246094 L 495.9375 382.984375 L 491.199219 402.628906 "/><path style=" stroke:none;fill-rule:nonzero;fill:#f7f1eb;fill-opacity:1;" d="M 533.582031 412.859375 L 498.007812 404.277344 L 502.753906 384.632812 L 538.324219 393.210938 L 533.582031 412.859375 "/><g clip-rule="nonzero" clip-path="url(#7b4e4b723b)"><path style=" stroke:none;fill-rule:nonzero;fill:#d3bba3;fill-opacity:1;" d="M 412.457031 232.542969 L 566.804688 269.789062 L 576.199219 230.886719 L 421.851562 193.644531 Z M 567.476562 271.785156 C 567.402344 271.785156 567.328125 271.773438 567.261719 271.757812 L 411.152344 234.085938 C 410.671875 233.96875 410.371094 233.480469 410.488281 232.996094 L 420.308594 192.339844 C 420.367188 192.109375 420.507812 191.90625 420.714844 191.78125 C 420.917969 191.660156 421.164062 191.613281 421.398438 191.675781 L 577.507812 229.347656 C 577.984375 229.464844 578.285156 229.953125 578.167969 230.4375 L 568.351562 271.089844 C 568.296875 271.324219 568.148438 271.527344 567.945312 271.652344 C 567.796875 271.738281 567.636719 271.785156 567.476562 271.785156 "/></g><g clip-rule="nonzero" clip-path="url(#3045d01cb7)"><path style=" stroke:none;fill-rule:nonzero;fill:#ffffff;fill-opacity:1;" d="M 457.914062 406.433594 L 661.515625 494.828125 L 780.601562 220.734375 L 577 132.339844 L 457.914062 406.433594 "/></g><g clip-rule="nonzero" clip-path="url(#32fc7136f6)"><path style=" stroke:none;fill-rule:nonzero;fill:#d3bba3;fill-opacity:1;" d="M 453.640625 395.515625 L 655.585938 483.191406 L 773.945312 210.75 L 572.003906 123.078125 Z M 656.054688 485.28125 C 655.929688 485.28125 655.808594 485.257812 655.691406 485.207031 L 452.089844 396.8125 C 451.867188 396.71875 451.695312 396.542969 451.605469 396.316406 C 451.519531 396.09375 451.523438 395.847656 451.617188 395.625 L 570.707031 121.53125 C 570.902344 121.074219 571.433594 120.859375 571.894531 121.0625 L 775.496094 209.453125 C 775.957031 209.652344 776.167969 210.1875 775.96875 210.640625 L 656.882812 484.734375 C 656.789062 484.957031 656.609375 485.128906 656.386719 485.222656 C 656.277344 485.261719 656.167969 485.28125 656.054688 485.28125 "/></g><g clip-rule="nonzero" clip-path="url(#808ca88def)"><path style=" stroke:none;fill-rule:nonzero;fill:#d3bba3;fill-opacity:1;" d="M 569.160156 207.527344 L 729.976562 277.34375 L 747.777344 236.367188 L 586.964844 166.546875 Z M 730.449219 279.4375 C 730.324219 279.4375 730.203125 279.410156 730.089844 279.363281 L 567.605469 208.824219 C 567.15625 208.625 566.9375 208.09375 567.140625 207.636719 L 585.660156 165 C 585.761719 164.78125 585.9375 164.609375 586.164062 164.519531 C 586.382812 164.433594 586.632812 164.4375 586.847656 164.535156 L 749.332031 235.066406 C 749.785156 235.269531 749.996094 235.800781 749.796875 236.261719 L 731.273438 278.890625 C 731.179688 279.113281 731 279.289062 730.777344 279.371094 C 730.675781 279.417969 730.558594 279.4375 730.449219 279.4375 "/></g><path style=" stroke:none;fill-rule:nonzero;fill:#f2e6dc;fill-opacity:1;" d="M 630.742188 362.214844 L 525.371094 316.472656 L 527.027344 312.667969 L 632.394531 358.410156 L 630.742188 362.214844 "/><path style=" stroke:none;fill-rule:nonzero;fill:#f2e6dc;fill-opacity:1;" d="M 667.132812 389.304688 L 537.601562 333.066406 L 539.25 329.269531 L 668.78125 385.503906 L 667.132812 389.304688 "/><path style=" stroke:none;fill-rule:nonzero;fill:#f2e6dc;fill-opacity:1;" d="M 641.75 389.574219 L 517.121094 335.46875 L 518.773438 331.664062 L 643.402344 385.777344 L 641.75 389.574219 "/><path style=" stroke:none;fill-rule:nonzero;fill:#f2e6dc;fill-opacity:1;" d="M 701.769531 343.34375 L 571.425781 286.757812 L 573.078125 282.953125 L 703.421875 339.539062 L 701.769531 343.34375 "/><path style=" stroke:none;fill-rule:nonzero;fill:#f2e6dc;fill-opacity:1;" d="M 660.527344 336.722656 L 535.894531 282.613281 L 537.542969 278.8125 L 662.175781 332.917969 L 660.527344 336.722656 "/><path style=" stroke:none;fill-rule:nonzero;fill:#f2e6dc;fill-opacity:1;" d="M 678.113281 355.652344 L 531.765625 292.117188 L 533.414062 288.3125 L 679.761719 351.851562 L 678.113281 355.652344 "/><path style=" stroke:none;fill-rule:nonzero;fill:#f2e6dc;fill-opacity:1;" d="M 703.4375 297.363281 L 588.960938 247.667969 L 590.609375 243.867188 L 705.085938 293.566406 L 703.4375 297.363281 "/><path style=" stroke:none;fill-rule:nonzero;fill:#f2e6dc;fill-opacity:1;" d="M 677.59375 297.4375 L 553.425781 243.53125 L 555.078125 239.730469 L 679.242188 293.632812 L 677.59375 297.4375 "/><path style=" stroke:none;fill-rule:nonzero;fill:#f2e6dc;fill-opacity:1;" d="M 710.585938 323.050781 L 549.300781 253.027344 L 550.949219 249.226562 L 712.238281 319.25 L 710.585938 323.050781 "/><g clip-rule="nonzero" clip-path="url(#7e36cac63b)"><path style=" stroke:none;fill-rule:nonzero;fill:#f2e6dc;fill-opacity:1;" d="M 721.765625 258.910156 L 584.332031 198.6875 L 591.917969 181.378906 L 729.359375 241.597656 L 721.765625 258.910156 "/></g><path style=" stroke:none;fill-rule:nonzero;fill:#f2e6dc;fill-opacity:1;" d="M 646.976562 455.242188 L 600.527344 434.316406 L 604.847656 424.738281 L 651.296875 445.667969 L 646.976562 455.242188 "/><g clip-rule="nonzero" clip-path="url(#fcef88f61e)"><path style=" stroke:none;fill-rule:nonzero;fill:#e6d0be;fill-opacity:1;" d="M 842.664062 843.300781 L 93.269531 843.300781 L 93.269531 742.195312 L 842.664062 742.195312 L 842.664062 843.300781 "/></g><path style=" stroke:none;fill-rule:nonzero;fill:#efbc73;fill-opacity:1;" d="M 694.125 736.832031 L 690.550781 736.832031 L 690.550781 495.472656 L 694.125 495.472656 L 694.125 736.832031 "/><path style=" stroke:none;fill-rule:nonzero;fill:#efbc73;fill-opacity:1;" d="M 613.011719 538.046875 L 622.429688 538.046875 L 690.988281 505.972656 C 690.976562 505.820312 691.003906 505.660156 691.074219 505.507812 C 691.285156 505.058594 691.824219 504.863281 692.269531 505.074219 L 761.820312 537.605469 L 768.96875 537.851562 L 762.449219 536.40625 C 762.382812 536.390625 762.316406 536.367188 762.253906 536.339844 L 691.746094 502.574219 L 620.933594 536.636719 C 620.859375 536.671875 620.78125 536.695312 620.695312 536.714844 Z M 778.730469 540.003906 C 778.71875 540.003906 778.710938 540.003906 778.699219 539.996094 L 761.570312 539.402344 C 761.445312 539.402344 761.324219 539.371094 761.21875 539.320312 L 692.59375 507.21875 L 623.011719 539.765625 C 622.890625 539.820312 622.757812 539.851562 622.625 539.851562 L 602.519531 539.851562 C 602.050781 539.851562 601.660156 539.496094 601.617188 539.027344 C 601.578125 538.5625 601.902344 538.136719 602.367188 538.058594 L 620.261719 534.953125 L 691.351562 500.761719 C 691.59375 500.640625 691.886719 500.640625 692.136719 500.761719 L 762.941406 534.664062 L 778.929688 538.214844 C 779.382812 538.320312 779.683594 538.75 779.628906 539.210938 C 779.570312 539.660156 779.1875 540.003906 778.730469 540.003906 "/><path style=" stroke:none;fill-rule:nonzero;fill:#efbc73;fill-opacity:1;" d="M 716.28125 646.367188 C 719.597656 660.660156 742.082031 671.316406 769.328125 671.316406 C 796.570312 671.316406 819.058594 660.660156 822.375 646.367188 L 716.28125 646.367188 "/><path style=" stroke:none;fill-rule:nonzero;fill:#efbc73;fill-opacity:1;" d="M 718.851562 648.027344 C 718.730469 648.027344 718.605469 648.003906 718.484375 647.949219 C 718.027344 647.746094 717.820312 647.214844 718.023438 646.761719 L 765.695312 538.53125 C 765.832031 538.210938 766.144531 538 766.496094 537.992188 C 766.84375 538.015625 767.167969 538.179688 767.328125 538.496094 L 820.945312 646.457031 C 821.167969 646.90625 820.992188 647.449219 820.542969 647.671875 C 820.097656 647.890625 819.550781 647.707031 819.328125 647.261719 L 766.566406 541.027344 L 719.679688 647.484375 C 719.53125 647.828125 719.199219 648.027344 718.851562 648.027344 "/><path style=" stroke:none;fill-rule:nonzero;fill:#efbc73;fill-opacity:1;" d="M 770.089844 647.632812 C 769.605469 647.632812 769.203125 647.25 769.191406 646.757812 L 765.609375 538.925781 C 765.59375 538.429688 765.984375 538.011719 766.484375 537.996094 C 766.964844 537.945312 767.40625 538.367188 767.417969 538.871094 L 770.992188 646.699219 C 771.007812 647.195312 770.617188 647.613281 770.121094 647.632812 C 770.109375 647.632812 770.097656 647.632812 770.089844 647.632812 "/><path style=" stroke:none;fill-rule:nonzero;fill:#efbc73;fill-opacity:1;" d="M 561.671875 621.140625 C 564.984375 635.433594 587.46875 646.089844 614.714844 646.089844 C 641.960938 646.089844 664.449219 635.433594 667.761719 621.140625 L 561.671875 621.140625 "/><path style=" stroke:none;fill-rule:nonzero;fill:#efbc73;fill-opacity:1;" d="M 563.042969 623.410156 C 562.894531 623.410156 562.734375 623.367188 562.589844 623.28125 C 562.160156 623.03125 562.015625 622.476562 562.269531 622.046875 L 611.125 538.4375 C 611.28125 538.167969 611.570312 538 611.886719 537.992188 C 612.195312 537.960938 612.496094 538.144531 612.660156 538.410156 L 665.992188 621.492188 C 666.257812 621.910156 666.140625 622.464844 665.71875 622.738281 C 665.300781 623.007812 664.738281 622.882812 664.46875 622.464844 L 611.941406 540.625 L 563.828125 622.957031 C 563.65625 623.246094 563.355469 623.410156 563.042969 623.410156 "/><path style=" stroke:none;fill-rule:nonzero;fill:#efbc73;fill-opacity:1;" d="M 615.476562 622.355469 C 614.996094 622.355469 614.59375 621.976562 614.578125 621.492188 L 611 538.933594 C 610.976562 538.4375 611.367188 538.015625 611.863281 537.996094 C 612.359375 537.972656 612.785156 538.359375 612.804688 538.859375 L 616.378906 621.414062 C 616.402344 621.910156 616.015625 622.332031 615.515625 622.351562 C 615.5 622.355469 615.488281 622.355469 615.476562 622.355469 "/><path style=" stroke:none;fill-rule:nonzero;fill:#efbc73;fill-opacity:1;" d="M 734.933594 760.058594 L 647.351562 760.058594 L 647.351562 754.695312 L 734.933594 754.695312 L 734.933594 760.058594 "/><path style=" stroke:none;fill-rule:nonzero;fill:#efbc73;fill-opacity:1;" d="M 651.523438 755 L 690.84375 735.046875 L 693.828125 734.746094 L 730.171875 755.296875 L 651.523438 755 "/><path style=" stroke:none;fill-rule:nonzero;fill:#efbc73;fill-opacity:1;" d="M 695.320312 496.660156 C 695.320312 498.304688 693.980469 499.640625 692.339844 499.640625 C 690.695312 499.640625 689.359375 498.304688 689.359375 496.660156 C 689.359375 495.015625 690.695312 493.683594 692.339844 493.683594 C 693.980469 493.683594 695.320312 495.015625 695.320312 496.660156 "/><path style=" stroke:none;fill-rule:nonzero;fill:#363e44;fill-opacity:1;" d="M 645.117188 830.117188 L 515.867188 830.117188 L 515.867188 801.402344 L 645.117188 801.402344 L 645.117188 830.117188 "/><path style=" stroke:none;fill-rule:nonzero;fill:#bc8271;fill-opacity:1;" d="M 648.351562 834.074219 L 513.355469 834.074219 L 513.355469 816.476562 L 648.351562 816.476562 L 648.351562 834.074219 "/><path style=" stroke:none;fill-rule:nonzero;fill:#bc8271;fill-opacity:1;" d="M 647.875 812.953125 L 512.878906 812.953125 L 512.878906 795.355469 L 647.875 795.355469 L 647.875 812.953125 "/><path style=" stroke:none;fill-rule:nonzero;fill:#bc8271;fill-opacity:1;" d="M 774.277344 834.304688 L 608.648438 763.703125 L 615.054688 748.671875 L 780.6875 819.273438 L 774.277344 834.304688 "/><path style=" stroke:none;fill-rule:nonzero;fill:#363e44;fill-opacity:1;" d="M 620.144531 769.984375 L 613.9375 767.335938 L 621.554688 749.488281 L 627.757812 752.132812 L 620.144531 769.984375 "/><path style=" stroke:none;fill-rule:nonzero;fill:#bc8271;fill-opacity:1;" d="M 603.78125 796.898438 L 559.917969 778.203125 L 591.855469 703.339844 L 635.714844 722.035156 L 603.78125 796.898438 "/><path style=" stroke:none;fill-rule:nonzero;fill:#363e44;fill-opacity:1;" d="M 635.570312 726.375 L 588.820312 706.445312 L 592.347656 698.171875 L 639.101562 718.105469 L 635.570312 726.375 "/><path style=" stroke:none;fill-rule:nonzero;fill:#363e44;fill-opacity:1;" d="M 604.488281 798.667969 L 557.730469 778.742188 L 561.257812 770.464844 L 608.019531 790.398438 L 604.488281 798.667969 "/><path style=" stroke:none;fill-rule:nonzero;fill:#d3bba3;fill-opacity:1;" d="M 636.714844 722.875 C 636.601562 722.875 636.476562 722.855469 636.371094 722.808594 L 590.144531 703.351562 C 589.683594 703.152344 589.464844 702.625 589.660156 702.167969 C 589.855469 701.703125 590.386719 701.492188 590.839844 701.683594 L 637.066406 721.144531 C 637.527344 721.335938 637.746094 721.863281 637.546875 722.324219 C 637.40625 722.671875 637.066406 722.875 636.714844 722.875 "/><path style=" stroke:none;fill-rule:nonzero;fill:#d3bba3;fill-opacity:1;" d="M 605.75 795.464844 C 605.628906 795.464844 605.507812 795.445312 605.386719 795.390625 L 559.019531 775.136719 C 558.558594 774.9375 558.351562 774.402344 558.550781 773.949219 C 558.753906 773.488281 559.285156 773.28125 559.742188 773.480469 L 606.113281 793.738281 C 606.566406 793.9375 606.777344 794.46875 606.582031 794.921875 C 606.429688 795.265625 606.097656 795.464844 605.75 795.464844 "/><path style=" stroke:none;fill-rule:nonzero;fill:#ffffff;fill-opacity:1;" d="M 94.074219 762.019531 L 94.523438 673.058594 L 144.382812 550.335938 C 150.699219 533.535156 165.59375 521.46875 183.339844 518.738281 C 225.519531 512.257812 308.125 504.085938 394.492188 520.566406 C 410.183594 523.5625 423.695312 533.460938 431.308594 547.5 L 482.238281 641.386719 L 499.492188 759.773438 L 94.074219 762.019531 "/><path style=" stroke:none;fill-rule:nonzero;fill:#363e44;fill-opacity:1;" d="M 241.125 638.230469 C 240.847656 638.230469 240.570312 638.101562 240.394531 637.859375 C 240.101562 637.460938 240.1875 636.894531 240.589844 636.597656 L 265.878906 618.082031 L 215.199219 545.785156 C 214.914062 545.378906 215.011719 544.816406 215.421875 544.527344 C 215.828125 544.242188 216.394531 544.34375 216.679688 544.75 L 267.863281 617.769531 C 268.148438 618.171875 268.054688 618.722656 267.660156 619.015625 L 241.65625 638.058594 C 241.496094 638.171875 241.308594 638.230469 241.125 638.230469 "/><path style=" stroke:none;fill-rule:nonzero;fill:#363e44;fill-opacity:1;" d="M 154.257812 694.234375 C 153.996094 694.234375 153.730469 694.117188 153.554688 693.898438 L 130.089844 664.480469 C 129.777344 664.09375 129.84375 663.523438 130.230469 663.210938 C 130.621094 662.902344 131.191406 662.964844 131.5 663.355469 L 154.964844 692.769531 C 155.277344 693.160156 155.214844 693.730469 154.824219 694.039062 C 154.65625 694.171875 154.457031 694.234375 154.257812 694.234375 "/><path style=" stroke:none;fill-rule:nonzero;fill:#363e44;fill-opacity:1;" d="M 288.347656 523.5 L 321.984375 523.5 L 305.839844 553.113281 Z M 288.347656 523.5 "/><path style=" stroke:none;fill-rule:nonzero;fill:#363e44;fill-opacity:1;" d="M 311.390625 538.855469 L 299.949219 538.855469 L 287.3125 699.242188 L 305.667969 717.824219 L 324.027344 699.242188 L 311.390625 538.855469 "/><path style=" stroke:none;fill-rule:nonzero;fill:#84524d;fill-opacity:1;" d="M 459.917969 632.734375 L 418.066406 728.625 C 409.214844 748.898438 417.839844 772.550781 437.667969 782.378906 L 441.265625 784.164062 C 468.976562 797.898438 501.4375 777.59375 501.199219 746.679688 L 500.390625 640.601562 L 459.917969 632.734375 "/><path style=" stroke:none;fill-rule:nonzero;fill:#d87355;fill-opacity:1;" d="M 476.683594 704.140625 L 357.078125 704.140625 L 411.160156 540.644531 L 530.769531 540.644531 L 476.683594 704.140625 "/><path style=" stroke:none;fill-rule:nonzero;fill:#84524d;fill-opacity:1;" d="M 385.09375 620.476562 L 392.492188 598.121094 L 280.542969 670.976562 L 254.203125 632.589844 L 162.785156 699.9375 L 226.605469 772.582031 C 245.085938 793.609375 277.753906 793.890625 296.597656 773.183594 L 366.960938 695.855469 C 372.859375 689.371094 380.992188 685.335938 389.738281 684.605469 C 403.40625 683.46875 422.789062 681.066406 423.773438 676.589844 C 425.300781 669.644531 389.109375 667.898438 389.109375 667.898438 C 389.109375 667.898438 432.28125 667.402344 432.363281 660.113281 C 432.445312 652.820312 393.351562 651.460938 393.351562 651.460938 C 393.351562 651.460938 435.992188 649.792969 436.402344 643.40625 C 436.808594 637.019531 396.003906 635.167969 396.003906 635.167969 C 396.003906 635.167969 433.941406 633.730469 433.878906 625.289062 C 433.816406 616.84375 385.09375 620.476562 385.09375 620.476562 "/><path style=" stroke:none;fill-rule:nonzero;fill:#363e44;fill-opacity:1;" d="M 251.957031 694.234375 C 251.695312 694.234375 251.433594 694.121094 251.253906 693.898438 C 250.941406 693.511719 251.003906 692.941406 251.390625 692.632812 L 279.230469 670.261719 C 279.617188 669.949219 280.1875 670.011719 280.5 670.398438 C 280.8125 670.789062 280.75 671.355469 280.359375 671.671875 L 252.523438 694.035156 C 252.359375 694.171875 252.15625 694.234375 251.957031 694.234375 "/><path style=" stroke:none;fill-rule:nonzero;fill:#84524d;fill-opacity:1;" d="M 501.039062 642.898438 C 510 645.425781 512.507812 649.964844 511.433594 654.386719 C 510.355469 658.804688 506.097656 661.433594 497.140625 658.90625 C 488.179688 656.378906 477.914062 649.652344 478.988281 645.234375 C 480.070312 640.816406 492.082031 640.371094 501.039062 642.898438 "/><path style=" stroke:none;fill-rule:nonzero;fill:#84524d;fill-opacity:1;" d="M 502.804688 627.058594 C 513.191406 629.988281 516.101562 635.246094 514.851562 640.371094 C 513.601562 645.496094 508.660156 648.542969 498.28125 645.613281 C 487.898438 642.683594 476.003906 634.886719 477.253906 629.765625 C 478.503906 624.644531 492.421875 624.128906 502.804688 627.058594 "/><path style=" stroke:none;fill-rule:nonzero;fill:#84524d;fill-opacity:1;" d="M 507.292969 617.261719 C 516.25 619.789062 520.507812 617.164062 521.585938 612.738281 C 522.667969 608.320312 520.15625 603.78125 511.199219 601.253906 C 502.242188 598.726562 490.226562 599.167969 489.148438 603.585938 C 488.070312 608.007812 498.335938 614.734375 507.292969 617.261719 "/><path style=" stroke:none;fill-rule:nonzero;fill:#84524d;fill-opacity:1;" d="M 501.601562 631.996094 C 511.984375 634.921875 516.921875 631.875 518.171875 626.75 C 519.417969 621.632812 516.507812 616.367188 506.125 613.4375 C 495.746094 610.511719 481.820312 611.023438 480.570312 616.144531 C 479.324219 621.273438 491.222656 629.066406 501.601562 631.996094 "/><path style=" stroke:none;fill-rule:nonzero;fill:#363e44;fill-opacity:1;" d="M 275.554688 546.199219 C 275.5 546.199219 275.449219 546.191406 275.394531 546.183594 C 275.152344 546.144531 274.9375 546 274.800781 545.792969 L 264.046875 529.667969 C 263.769531 529.253906 263.882812 528.691406 264.296875 528.414062 C 264.710938 528.140625 265.273438 528.25 265.550781 528.667969 L 275.785156 544.007812 L 287.3125 535.605469 C 287.714844 535.3125 288.28125 535.398438 288.574219 535.804688 C 288.867188 536.207031 288.78125 536.773438 288.378906 537.066406 L 276.085938 546.023438 C 275.929688 546.136719 275.742188 546.199219 275.554688 546.199219 "/><path style=" stroke:none;fill-rule:nonzero;fill:#363e44;fill-opacity:1;" d="M 333.171875 541.84375 C 333.054688 541.84375 332.9375 541.828125 332.828125 541.777344 L 319.765625 536.402344 C 319.304688 536.214844 319.085938 535.683594 319.273438 535.222656 C 319.464844 534.765625 319.992188 534.546875 320.453125 534.730469 L 332.738281 539.789062 L 339.789062 525.695312 C 340.011719 525.25 340.554688 525.070312 341 525.289062 C 341.449219 525.511719 341.628906 526.054688 341.40625 526.503906 L 333.980469 541.347656 C 333.820312 541.660156 333.503906 541.84375 333.171875 541.84375 "/><path style=" stroke:none;fill-rule:nonzero;fill:#84524d;fill-opacity:1;" d="M 321.824219 523.761719 L 328.046875 513.679688 L 343.535156 451.222656 C 343.484375 442.015625 319.835938 437.296875 310.621094 437.347656 C 301.410156 437.402344 299.683594 431.0625 299.738281 440.269531 L 280.765625 513.679688 L 288.515625 523.761719 L 321.824219 523.761719 "/><path style=" stroke:none;fill-rule:nonzero;fill:#84524d;fill-opacity:1;" d="M 351.6875 500.699219 C 340.566406 507.558594 313.859375 481.777344 313.859375 481.777344 L 297.023438 448.078125 C 298.21875 429.738281 314.054688 415.84375 332.398438 417.035156 C 350.738281 418.226562 364.640625 434.054688 363.449219 452.394531 C 363.449219 452.394531 363.015625 493.71875 351.6875 500.699219 "/><path style=" stroke:none;fill-rule:nonzero;fill:#84524d;fill-opacity:1;" d="M 359.066406 460.871094 C 359.066406 460.871094 367.746094 471.234375 367.082031 473.78125 C 366.292969 476.816406 355.792969 478.015625 355.792969 478.015625 C 355.792969 478.015625 359.3125 460.914062 359.066406 460.871094 "/><path style=" stroke:none;fill-rule:nonzero;fill:#ffffff;fill-opacity:1;" d="M 331.664062 451.226562 C 331.664062 451.226562 337.042969 449.941406 342.714844 451.445312 C 343.925781 451.761719 339.089844 460.816406 338.085938 459.96875 C 333.683594 456.226562 331.664062 451.226562 331.664062 451.226562 "/><g clip-rule="nonzero" clip-path="url(#e15c86838b)"><g clip-rule="nonzero" clip-path="url(#00744ff350)"><path style=" stroke:none;fill-rule:nonzero;fill:#363e44;fill-opacity:1;" d="M 343.019531 451.253906 C 347.765625 448.5 353.851562 450.109375 356.613281 454.851562 C 359.375 459.597656 357.761719 465.683594 353.015625 468.4375 C 348.273438 471.199219 342.1875 469.589844 339.425781 464.84375 C 336.664062 460.097656 338.273438 454.015625 343.019531 451.253906 "/></g></g><path style=" stroke:none;fill-rule:nonzero;fill:#363e44;fill-opacity:1;" d="M 294.824219 411.40625 C 294.824219 411.40625 276.703125 445.464844 299.058594 460.816406 L 305.984375 456.285156 L 319.808594 464.351562 L 316.179688 446.066406 C 315.527344 439.097656 321.414062 433.28125 328.375 434.003906 L 358.757812 437.175781 L 359.496094 420.839844 C 340.292969 406.667969 319.070312 401.953125 294.824219 411.40625 "/><path style=" stroke:none;fill-rule:nonzero;fill:#363e44;fill-opacity:1;" d="M 329.019531 409.757812 C 325.550781 410.257812 322.332031 407.847656 321.835938 404.382812 C 321.335938 400.914062 323.484375 395.886719 326.953125 395.386719 C 330.421875 394.886719 333.898438 399.113281 334.394531 402.574219 C 334.894531 406.046875 332.484375 409.261719 329.019531 409.757812 "/><path style=" stroke:none;fill-rule:nonzero;fill:#363e44;fill-opacity:1;" d="M 333.601562 411.960938 C 330.324219 410.710938 328.683594 407.042969 329.933594 403.773438 C 331.183594 400.5 335.503906 397.144531 338.78125 398.394531 C 342.050781 399.644531 343.039062 405.023438 341.789062 408.292969 C 340.539062 411.566406 336.875 413.210938 333.601562 411.960938 "/><path style=" stroke:none;fill-rule:nonzero;fill:#363e44;fill-opacity:1;" d="M 343.394531 416.785156 C 339.316406 414.34375 337.996094 409.0625 340.4375 404.992188 C 342.878906 400.921875 349.4375 397.464844 353.511719 399.90625 C 357.585938 402.347656 357.628906 409.757812 355.1875 413.828125 C 352.746094 417.898438 347.464844 419.222656 343.394531 416.785156 "/><path style=" stroke:none;fill-rule:nonzero;fill:#363e44;fill-opacity:1;" d="M 318.949219 409.574219 C 315.5 410.1875 312.207031 407.882812 311.597656 404.4375 C 310.988281 400.988281 312.972656 395.890625 316.421875 395.28125 C 319.871094 394.671875 323.484375 398.777344 324.09375 402.226562 C 324.703125 405.675781 322.402344 408.964844 318.949219 409.574219 "/><path style=" stroke:none;fill-rule:nonzero;fill:#363e44;fill-opacity:1;" d="M 351.121094 419.070312 C 349.738281 415.078125 351.855469 410.71875 355.847656 409.335938 C 359.84375 407.957031 366.296875 409.34375 367.675781 413.335938 C 369.0625 417.328125 364.855469 422.410156 360.859375 423.792969 C 356.867188 425.179688 352.507812 423.0625 351.121094 419.070312 "/><path style=" stroke:none;fill-rule:nonzero;fill:#363e44;fill-opacity:1;" d="M 310.792969 411.1875 C 306.707031 412.722656 302.148438 410.65625 300.609375 406.570312 C 299.070312 402.484375 300.332031 395.792969 304.417969 394.257812 C 308.503906 392.722656 313.867188 396.925781 315.40625 401.007812 C 316.945312 405.089844 314.878906 409.644531 310.792969 411.1875 "/><path style=" stroke:none;fill-rule:nonzero;fill:#363e44;fill-opacity:1;" d="M 302.84375 411.648438 C 300.515625 414.136719 296.613281 414.265625 294.121094 411.941406 C 291.632812 409.613281 290.199219 404.492188 292.527344 402.007812 C 294.855469 399.515625 300.0625 400.605469 302.550781 402.929688 C 305.039062 405.253906 305.171875 409.160156 302.84375 411.648438 "/><path style=" stroke:none;fill-rule:nonzero;fill:#363e44;fill-opacity:1;" d="M 352.203125 428.730469 C 352.128906 423.582031 356.246094 419.347656 361.398438 419.273438 C 366.550781 419.199219 373.488281 423.273438 373.558594 428.421875 C 373.632812 433.574219 366.820312 437.847656 361.667969 437.921875 C 356.515625 437.996094 352.277344 433.882812 352.203125 428.730469 "/><path style=" stroke:none;fill-rule:nonzero;fill:#84524d;fill-opacity:1;" d="M 290.574219 447.789062 C 287.71875 453.445312 289.996094 460.347656 295.65625 463.199219 C 301.316406 466.054688 308.222656 463.78125 311.074219 458.121094 C 313.929688 452.460938 311.65625 445.5625 305.992188 442.707031 C 300.332031 439.855469 293.429688 442.128906 290.574219 447.789062 "/><path style=" stroke:none;fill-rule:nonzero;fill:#363e44;fill-opacity:1;" d="M 361.363281 476.980469 L 356.015625 504.398438 C 355.269531 508.21875 351.496094 510.636719 347.710938 509.730469 C 346.761719 509.503906 345.734375 509.246094 344.644531 508.957031 C 325.804688 503.957031 310.875 489.582031 305.195312 470.945312 C 303.292969 464.699219 305.441406 457.929688 310.601562 453.925781 L 312.300781 452.605469 L 317.496094 456.007812 C 317.496094 456.007812 320.394531 471.398438 325.972656 472.972656 C 331.546875 474.542969 342.40625 470.8125 361.363281 476.980469 "/><path style=" stroke:none;fill-rule:nonzero;fill:#84524d;fill-opacity:1;" d="M 347.503906 484.144531 C 346.328125 484.144531 345.15625 483.769531 344.179688 483.046875 C 342.492188 481.789062 341.652344 479.632812 342.035156 477.554688 C 342.125 477.066406 342.59375 476.738281 343.089844 476.828125 C 343.578125 476.921875 343.90625 477.394531 343.8125 477.878906 C 343.550781 479.289062 344.121094 480.746094 345.257812 481.59375 C 346.441406 482.476562 348.042969 482.578125 349.34375 481.859375 C 349.78125 481.617188 350.332031 481.777344 350.574219 482.214844 C 350.816406 482.648438 350.65625 483.195312 350.222656 483.4375 C 349.371094 483.910156 348.433594 484.144531 347.503906 484.144531 "/><path style=" stroke:none;fill-rule:nonzero;fill:#84524d;fill-opacity:1;" d="M 320.097656 435.148438 C 319.875 435.148438 319.652344 435.066406 319.480469 434.902344 L 307.214844 423.363281 C 306.851562 423.019531 306.835938 422.449219 307.175781 422.085938 C 307.519531 421.722656 308.089844 421.707031 308.453125 422.050781 L 320.71875 433.589844 C 321.082031 433.929688 321.097656 434.5 320.757812 434.867188 C 320.578125 435.054688 320.339844 435.148438 320.097656 435.148438 "/><path style=" stroke:none;fill-rule:nonzero;fill:#363e44;fill-opacity:1;" d="M 636.179688 225.265625 C 635.773438 225.265625 635.371094 225.265625 634.957031 225.269531 C 605.777344 225.589844 578.472656 237.246094 558.066406 258.09375 C 537.65625 278.941406 526.59375 306.488281 526.90625 335.65625 C 527.226562 364.824219 538.890625 392.121094 559.75 412.519531 C 580.613281 432.921875 608.203125 443.988281 637.339844 443.660156 C 666.519531 443.34375 693.828125 431.6875 714.230469 410.839844 C 734.636719 389.988281 745.703125 362.441406 745.386719 333.273438 C 745.066406 304.105469 733.40625 276.808594 712.546875 256.410156 C 691.984375 236.296875 664.902344 225.265625 636.179688 225.265625 Z M 636.113281 445.476562 C 606.914062 445.476562 579.394531 434.261719 558.488281 413.808594 C 537.285156 393.078125 525.433594 365.328125 525.105469 335.675781 C 524.78125 306.027344 536.023438 278.027344 556.773438 256.832031 C 577.515625 235.640625 605.273438 223.789062 634.9375 223.460938 L 634.949219 224.367188 L 634.9375 223.460938 C 664.601562 223.136719 692.609375 234.382812 713.8125 255.121094 C 735.011719 275.855469 746.875 303.605469 747.191406 333.253906 C 747.519531 362.90625 736.269531 390.902344 715.527344 412.101562 C 694.78125 433.296875 667.023438 445.140625 637.359375 445.46875 C 636.945312 445.472656 636.527344 445.476562 636.113281 445.476562 "/><path style=" stroke:none;fill-rule:nonzero;fill:#363e44;fill-opacity:1;" d="M 765.746094 468.253906 C 765.511719 468.253906 765.277344 468.164062 765.101562 467.992188 L 749.605469 452.453125 C 749.25 452.097656 749.25 451.523438 749.605469 451.167969 C 749.957031 450.820312 750.527344 450.820312 750.882812 451.175781 L 766.382812 466.710938 C 766.734375 467.066406 766.734375 467.636719 766.375 467.992188 C 766.203125 468.164062 765.972656 468.253906 765.746094 468.253906 "/><path style=" stroke:none;fill-rule:nonzero;fill:#363e44;fill-opacity:1;" d="M 771.121094 462.859375 C 770.882812 462.859375 770.652344 462.769531 770.476562 462.589844 L 754.976562 447.054688 C 754.625 446.699219 754.625 446.125 754.976562 445.769531 C 755.332031 445.425781 755.902344 445.425781 756.257812 445.777344 L 771.761719 461.3125 C 772.109375 461.667969 772.109375 462.238281 771.753906 462.589844 C 771.582031 462.769531 771.351562 462.859375 771.121094 462.859375 "/><path style=" stroke:none;fill-rule:nonzero;fill:#363e44;fill-opacity:1;" d="M 757 439.972656 C 756.148438 439.972656 755.296875 440.300781 754.644531 440.953125 L 745.128906 450.648438 C 744.515625 451.277344 744.175781 452.109375 744.1875 452.984375 C 744.195312 453.867188 744.546875 454.691406 745.175781 455.304688 L 792.785156 502.03125 C 796.246094 505.425781 801.808594 505.375 805.203125 501.921875 L 807.035156 500.058594 C 810.425781 496.597656 810.375 491.03125 806.921875 487.640625 L 759.304688 440.914062 C 758.671875 440.28125 757.828125 439.972656 757 439.972656 Z M 798.933594 506.351562 C 796.140625 506.351562 793.511719 505.28125 791.515625 503.320312 L 743.910156 456.59375 C 741.902344 454.625 741.871094 451.390625 743.839844 449.382812 L 753.359375 439.6875 C 754.316406 438.71875 755.59375 438.175781 756.957031 438.160156 C 756.96875 438.160156 756.984375 438.160156 757 438.160156 C 758.351562 438.160156 759.617188 438.679688 760.570312 439.625 L 808.183594 486.351562 C 812.351562 490.4375 812.414062 497.15625 808.320312 501.316406 L 806.492188 503.179688 C 804.507812 505.199219 801.859375 506.328125 799.035156 506.351562 C 799.003906 506.351562 798.972656 506.351562 798.933594 506.351562 "/><path style=" stroke:none;fill-rule:nonzero;fill:#363e44;fill-opacity:1;" d="M 717.019531 420.9375 L 744.902344 448.375 L 752.375 440.769531 L 724.496094 413.328125 Z M 744.910156 450.558594 C 744.675781 450.558594 744.445312 450.464844 744.28125 450.300781 L 715.109375 421.59375 C 714.753906 421.242188 714.75 420.675781 715.097656 420.316406 L 723.835938 411.417969 C 724.003906 411.25 724.234375 411.152344 724.476562 411.152344 C 724.480469 411.152344 724.480469 411.152344 724.480469 411.152344 C 724.71875 411.152344 724.949219 411.238281 725.117188 411.40625 L 754.28125 440.113281 C 754.640625 440.460938 754.644531 441.035156 754.296875 441.386719 L 745.558594 450.289062 C 745.386719 450.460938 745.15625 450.554688 744.921875 450.558594 C 744.917969 450.558594 744.910156 450.558594 744.910156 450.558594 "/><path style=" stroke:none;fill-rule:nonzero;fill:#363e44;fill-opacity:1;" d="M 566.898438 405.9375 C 566.667969 405.9375 566.4375 405.855469 566.265625 405.683594 C 537.570312 377.617188 528.511719 335.347656 543.195312 297.992188 C 543.375 297.527344 543.898438 297.300781 544.363281 297.480469 C 544.828125 297.667969 545.054688 298.191406 544.875 298.652344 C 530.460938 335.332031 539.351562 376.832031 567.527344 404.386719 C 567.882812 404.738281 567.886719 405.308594 567.539062 405.664062 C 567.363281 405.847656 567.128906 405.9375 566.898438 405.9375 "/><path style=" stroke:none;fill-rule:nonzero;fill:#363e44;fill-opacity:1;" d="M 706.558594 404.410156 C 706.328125 404.410156 706.105469 404.328125 705.929688 404.15625 C 705.570312 403.804688 705.5625 403.230469 705.910156 402.878906 C 718.320312 390.203125 727.046875 374.429688 731.144531 357.269531 C 731.257812 356.78125 731.746094 356.488281 732.230469 356.601562 C 732.71875 356.714844 733.019531 357.199219 732.898438 357.6875 C 728.726562 375.167969 719.839844 391.226562 707.199219 404.136719 C 707.023438 404.316406 706.789062 404.410156 706.558594 404.410156 "/></g></svg>