<svg xmlns="http://www.w3.org/2000/svg" xmlns:xlink="http://www.w3.org/1999/xlink" width="1147" zoomAndPan="magnify" viewBox="0 0 860.25 863.999991" height="1152" preserveAspectRatio="xMidYMid meet" version="1.2"><defs><clipPath id="aeec1457af"><path d="M 0 0.375 L 858.75 0.375 L 858.75 862.875 L 0 862.875 Z M 0 0.375 "/></clipPath><clipPath id="98322e35e0"><path d="M 509 123.96875 L 764 123.96875 L 764 255 L 509 255 Z M 509 123.96875 "/></clipPath><clipPath id="f7c318cb11"><path d="M 526 123.96875 L 764 123.96875 L 764 243 L 526 243 Z M 526 123.96875 "/></clipPath><clipPath id="d85b64a99d"><path d="M 12 123.96875 L 399 123.96875 L 399 400 L 12 400 Z M 12 123.96875 "/></clipPath><clipPath id="16a145c1e5"><path d="M 72 123.96875 L 399 123.96875 L 399 400 L 72 400 Z M 72 123.96875 "/></clipPath><clipPath id="d8f83e911b"><path d="M 0 123.96875 L 846.011719 123.96875 L 846.011719 862.824219 L 0 862.824219 Z M 0 123.96875 "/></clipPath></defs><g id="60a6ecb06b"><path style=" stroke:none;fill-rule:evenodd;fill:#bbbfe0;fill-opacity:1;" d="M 715.304688 387.082031 L 557.574219 387.082031 C 553.359375 387.082031 480.929688 386.078125 437.972656 435.210938 L 271.628906 605.429688 C 252.148438 625.4375 252.574219 657.460938 272.574219 676.925781 C 292.632812 696.410156 324.632812 695.929688 344.113281 675.921875 L 494.300781 522.234375 L 494.300781 707.3125 L 845.640625 707.3125 L 845.640625 517.441406 C 845.660156 445.722656 787.007812 387.082031 715.304688 387.082031 Z M 715.304688 387.082031 "/><path style=" stroke:none;fill-rule:evenodd;fill:#dfe2f2;fill-opacity:1;" d="M 715.304688 387.082031 L 557.574219 387.082031 C 554.214844 387.082031 506.875 386.449219 466.035156 411.621094 C 466.035156 411.9375 466.035156 412.25 466.035156 412.566406 C 466.035156 508.449219 571.113281 597.648438 700.726562 611.800781 C 755.417969 617.800781 805.746094 609.425781 845.660156 590.589844 L 845.660156 517.441406 C 845.660156 445.722656 787.007812 387.082031 715.304688 387.082031 Z M 715.304688 387.082031 "/><path style=" stroke:none;fill-rule:evenodd;fill:#f598a2;fill-opacity:1;" d="M 698.980469 309.886719 L 573.898438 309.886719 L 573.898438 379.394531 C 573.898438 413.832031 602.074219 441.953125 636.449219 441.953125 C 670.882812 441.953125 699 413.832031 699 379.394531 L 699 309.886719 Z M 698.980469 309.886719 "/><path style=" stroke:none;fill-rule:evenodd;fill:#f598a2;fill-opacity:1;" d="M 635.59375 372.222656 C 535.160156 372.222656 532.523438 221.152344 532.523438 221.152344 C 576.945312 147.019531 738.3125 205.570312 738.40625 205.570312 C 740.5625 207.984375 740.355469 207.257812 740.355469 211.457031 C 740.355469 300.246094 693.464844 372.222656 635.59375 372.222656 Z M 635.59375 372.222656 "/><path style=" stroke:none;fill-rule:evenodd;fill:#f9b5b2;fill-opacity:1;" d="M 617.542969 183.667969 C 675.5625 182.777344 738.371094 205.570312 738.40625 205.570312 C 740.5625 207.984375 740.355469 207.257812 740.355469 211.457031 C 740.355469 285.070312 708.136719 347.089844 664.175781 366.148438 C 573.898438 332.34375 572.582031 225.984375 587.476562 209.339844 C 594.753906 197.265625 605.230469 189 617.542969 183.667969 Z M 617.542969 183.667969 "/><path style=" stroke:none;fill-rule:evenodd;fill:#fdb614;fill-opacity:1;" d="M 720.246094 470.742188 L 709.9375 385.449219 L 636.078125 436.828125 Z M 720.246094 470.742188 "/><path style=" stroke:none;fill-rule:evenodd;fill:#fdb614;fill-opacity:1;" d="M 551.890625 470.742188 L 562.3125 384.648438 L 636.078125 436.828125 Z M 551.890625 470.742188 "/><path style=" stroke:none;fill-rule:evenodd;fill:#fdb614;fill-opacity:1;" d="M 661.707031 431.253906 L 614.851562 431.253906 L 597.375 617.914062 L 597.597656 617.914062 L 617.96875 649.769531 L 638.289062 681.625 L 658.605469 649.769531 L 678.976562 617.914062 L 679.183594 617.914062 Z M 661.707031 431.253906 "/><path style=" stroke:none;fill-rule:evenodd;fill:#ffd05a;fill-opacity:1;" d="M 629.449219 431.253906 L 614.851562 431.253906 L 597.375 617.914062 L 597.597656 617.914062 L 617.96875 649.769531 L 619.957031 652.925781 L 625.808594 643.804688 L 646.125 612.007812 L 646.347656 612.007812 Z M 629.449219 431.253906 "/><path style=" stroke:none;fill-rule:evenodd;fill:#fdb614;fill-opacity:1;" d="M 648.019531 396.035156 L 628.539062 396.035156 C 619.4375 396.035156 611.953125 403.519531 611.953125 412.679688 L 611.953125 448.898438 C 611.953125 458.058594 619.4375 465.542969 628.539062 465.542969 L 648.019531 465.542969 C 657.121094 465.542969 664.605469 458.058594 664.605469 448.898438 L 664.605469 412.679688 C 664.605469 403.503906 657.136719 396.035156 648.019531 396.035156 Z M 648.019531 396.035156 "/><path style=" stroke:none;fill-rule:evenodd;fill:#724776;fill-opacity:1;" d="M 753.265625 242.753906 C 743.792969 237.128906 734.097656 224.070312 724.144531 203.582031 C 678.496094 224.011719 638.808594 220.855469 604.953125 194.109375 C 596.316406 187.308594 585.46875 185.730469 575.3125 189.890625 C 548.308594 200.851562 528.34375 225.222656 523.515625 254.867188 C 506.78125 219.054688 491.980469 83.53125 562.476562 105.023438 C 585.542969 16.347656 813.214844 52.621094 753.265625 242.753906 Z M 753.265625 242.753906 "/><path style=" stroke:none;fill-rule:evenodd;fill:#511c55;fill-opacity:1;" d="M 753.265625 242.753906 C 743.792969 237.128906 734.097656 224.070312 724.144531 203.582031 C 678.496094 224.011719 638.808594 220.855469 604.953125 194.109375 C 596.316406 187.308594 585.46875 185.730469 575.3125 189.890625 C 552.839844 198.992188 535.195312 217.476562 527.191406 240.488281 C 522.773438 190.988281 531.558594 134.332031 578.988281 148.820312 C 595.367188 85.851562 714.800781 85.945312 761.289062 159.242188 C 765.261719 182.722656 763.421875 210.527344 753.265625 242.753906 Z M 753.265625 242.753906 "/><path style=" stroke:none;fill-rule:evenodd;fill:#f9b5b2;fill-opacity:1;" d="M 537.519531 271.601562 C 490.71875 279.550781 473.816406 217.679688 507.617188 217.902344 C 514.878906 217.957031 521.507812 221.058594 524.667969 225.964844 C 525.464844 241.808594 530.3125 257.449219 537.519531 271.601562 Z M 537.519531 271.601562 "/><path style=" stroke:none;fill-rule:evenodd;fill:#f9b5b2;fill-opacity:1;" d="M 730.828125 277.714844 C 778.207031 279.777344 787.324219 216.269531 753.785156 220.6875 C 746.578125 221.691406 740.414062 225.59375 737.886719 230.847656 C 739.039062 246.65625 736.195312 262.761719 730.828125 277.714844 Z M 730.828125 277.714844 "/><path style=" stroke:none;fill-rule:evenodd;fill:#96d1a9;fill-opacity:1;" d="M 165.230469 466.640625 L 409.28125 466.640625 C 425.234375 466.640625 438.234375 479.640625 438.234375 495.542969 L 438.234375 820.621094 C 438.234375 836.578125 425.234375 849.578125 409.28125 849.578125 L 165.230469 849.578125 C 149.335938 849.578125 136.277344 836.578125 136.277344 820.621094 L 136.277344 495.542969 C 136.277344 479.640625 149.335938 466.640625 165.230469 466.640625 Z M 165.230469 466.640625 "/><path style=" stroke:none;fill-rule:evenodd;fill:#c1e2c2;fill-opacity:1;" d="M 165.230469 466.640625 L 409.28125 466.640625 C 425.234375 466.640625 438.234375 479.640625 438.234375 495.542969 L 438.234375 731.277344 C 405.269531 745.078125 365.636719 749.332031 322.941406 741.492188 C 240.652344 726.277344 169.597656 670.089844 136.261719 601.546875 L 136.261719 495.558594 C 136.277344 479.640625 149.335938 466.640625 165.230469 466.640625 Z M 165.230469 466.640625 "/><path style=" stroke:none;fill-rule:evenodd;fill:#f9b5b2;fill-opacity:1;" d="M 329.3125 522.808594 C 327.992188 550.710938 292.558594 550.710938 291.296875 522.808594 C 289.976562 550.710938 254.542969 550.710938 253.242188 522.808594 C 251.867188 551.453125 215.1875 550.300781 215.1875 521.546875 L 215.1875 462.683594 C 215.1875 413.144531 367.4375 411.601562 367.4375 461.105469 L 367.4375 505.125 C 367.4375 543.816406 330.054688 537.726562 329.3125 522.808594 Z M 329.3125 522.808594 "/><path style=" stroke:none;fill-rule:evenodd;fill:#69cad3;fill-opacity:1;" d="M 205.605469 13.707031 C 311.949219 13.707031 398.230469 99.953125 398.230469 206.367188 C 398.230469 312.78125 311.949219 399.027344 205.605469 399.027344 C 99.210938 399.027344 12.980469 312.78125 12.980469 206.367188 C 12.980469 99.953125 99.210938 13.707031 205.605469 13.707031 Z M 205.605469 13.707031 "/><path style=" stroke:none;fill-rule:evenodd;fill:#9bd9e5;fill-opacity:1;" d="M 359.695312 90.792969 C 383.855469 122.964844 398.230469 162.976562 398.230469 206.367188 C 398.230469 312.78125 311.949219 399.027344 205.605469 399.027344 C 171.027344 399.027344 138.636719 389.925781 110.574219 374.023438 C 86.414062 341.796875 72.09375 301.785156 72.09375 258.394531 C 72.09375 151.980469 158.324219 65.738281 264.71875 65.738281 C 299.261719 65.738281 331.632812 74.839844 359.695312 90.792969 Z M 359.695312 90.792969 "/><path style=" stroke:none;fill-rule:evenodd;fill:#feea3a;fill-opacity:1;" d="M 110.316406 262.296875 C 136.054688 262.296875 156.910156 241.398438 156.910156 215.65625 L 63.683594 215.65625 C 63.683594 241.382812 84.519531 262.296875 110.316406 262.296875 Z M 110.316406 262.296875 "/><path style=" stroke:none;fill-rule:evenodd;fill:#feea3a;fill-opacity:1;" d="M 300.898438 262.296875 C 326.636719 262.296875 347.53125 241.398438 347.53125 215.65625 L 254.246094 215.65625 C 254.246094 241.382812 275.101562 262.296875 300.898438 262.296875 Z M 300.898438 262.296875 "/><g clip-rule="nonzero" clip-path="url(#aeec1457af)"><path style=" stroke:none;fill-rule:nonzero;fill:#000000;fill-opacity:1;" d="M 300.898438 249.277344 C 314.640625 249.277344 326.75 240.953125 331.910156 228.636719 L 269.84375 228.636719 C 274.988281 240.953125 287.097656 249.277344 300.898438 249.277344 Z M 343.054688 257.820312 C 319.730469 281.09375 281.992188 281.09375 258.722656 257.820312 C 247.929688 247.027344 241.246094 232.128906 241.246094 215.636719 C 241.246094 208.429688 247.039062 202.632812 254.355469 202.632812 L 281.414062 137.511719 L 218.605469 137.511719 L 218.605469 303.53125 L 264.886719 303.53125 C 272.035156 303.53125 277.886719 309.328125 277.886719 316.535156 C 277.886719 323.703125 272.035156 329.480469 264.886719 329.480469 L 146.324219 329.480469 C 139.121094 329.480469 133.324219 323.6875 133.324219 316.535156 C 133.324219 309.328125 139.121094 303.53125 146.324219 303.53125 L 192.605469 303.53125 L 192.605469 137.492188 L 131.003906 137.492188 C 140.011719 157.925781 149 182.722656 156.949219 202.613281 C 164.117188 202.613281 169.894531 208.464844 169.894531 215.617188 C 169.894531 248.570312 143.207031 275.28125 110.296875 275.28125 C 77.332031 275.28125 50.644531 248.589844 50.644531 215.617188 C 50.644531 208.410156 56.4375 202.613281 63.699219 202.613281 L 97.964844 120.308594 C 99.710938 115.203125 104.539062 111.523438 110.277344 111.523438 L 300.839844 111.523438 C 306.058594 111.523438 310.574219 114.570312 312.632812 119.046875 C 324.425781 141.003906 336.964844 176.128906 347.492188 202.613281 C 354.660156 202.613281 360.4375 208.464844 360.4375 215.617188 C 360.476562 232.113281 353.84375 247.007812 343.054688 257.820312 Z M 282.417969 202.632812 L 319.320312 202.632812 L 300.898438 158.296875 Z M 110.316406 249.277344 C 124.058594 249.277344 136.167969 240.953125 141.328125 228.636719 L 79.261719 228.636719 C 84.425781 240.953125 96.535156 249.277344 110.316406 249.277344 Z M 91.835938 202.632812 L 128.738281 202.632812 L 110.316406 158.296875 Z M 316.367188 522.976562 L 316.3125 479.847656 C 316.3125 472.695312 322.160156 466.898438 329.3125 466.898438 C 336.519531 466.898438 342.3125 472.695312 342.3125 479.847656 L 342.3125 522.4375 C 342.421875 522.289062 342.628906 520.859375 342.941406 520.96875 C 350.148438 523.386719 354.421875 516.4375 354.421875 505.125 L 354.421875 461.160156 C 354.421875 451.109375 339.898438 444.050781 321.140625 440.300781 C 302.867188 436.714844 282.140625 436.828125 263.808594 440.449219 C 243.917969 444.441406 228.171875 452.039062 228.171875 462.664062 L 228.171875 521.527344 C 228.171875 533.433594 239.703125 534.066406 240.28125 522.214844 C 240.335938 520.839844 240.59375 519.523438 241.078125 518.257812 L 241.078125 479.828125 C 241.078125 472.675781 246.871094 466.878906 254.078125 466.878906 C 261.246094 466.878906 267.078125 472.675781 267.078125 479.828125 L 267.078125 522.789062 C 267.078125 523.792969 266.929688 524.796875 266.707031 525.746094 C 266.761719 527.175781 268.804688 530.796875 272.242188 530.796875 L 272.242188 530.742188 C 276.085938 530.742188 278.296875 526.691406 278.296875 522.789062 L 278.296875 479.828125 C 278.296875 472.675781 284.089844 466.878906 291.296875 466.878906 C 298.445312 466.878906 304.296875 472.675781 304.296875 479.828125 L 304.296875 522.789062 C 304.203125 532.394531 315.363281 534.511719 316.367188 522.976562 Z M 205.605469 0.707031 C 319.152344 0.707031 411.230469 92.800781 411.230469 206.367188 C 411.230469 319.988281 319.152344 412.027344 205.605469 412.027344 C 92.003906 412.027344 -0.0195312 319.988281 -0.0195312 206.367188 C -0.0195312 92.800781 92.003906 0.707031 205.605469 0.707031 Z M 332.582031 79.371094 C 262.453125 9.175781 148.703125 9.175781 78.578125 79.371094 C 8.394531 149.507812 8.394531 263.28125 78.578125 333.417969 C 148.703125 403.613281 262.453125 403.613281 332.582031 333.417969 C 402.761719 263.28125 402.761719 149.507812 332.582031 79.371094 Z M 334.324219 545.398438 C 323.535156 558.34375 304.574219 560.460938 291.3125 550.1875 C 285.78125 554.40625 279.058594 556.765625 272.261719 556.765625 L 272.261719 556.707031 C 265.40625 556.707031 258.777344 554.441406 253.261719 550.171875 C 233.519531 565.382812 202.246094 553.011719 202.246094 521.527344 L 202.246094 479.621094 L 165.230469 479.621094 C 156.484375 479.621094 149.277344 486.828125 149.277344 495.578125 L 149.277344 820.660156 C 149.277344 829.40625 156.484375 836.558594 165.230469 836.558594 L 409.28125 836.558594 C 418.027344 836.558594 425.234375 829.386719 425.234375 820.660156 L 425.234375 495.597656 C 425.234375 486.847656 418.027344 479.640625 409.28125 479.640625 L 380.441406 479.640625 L 380.441406 505.125 C 380.4375 537.667969 356.796875 553.199219 334.324219 545.398438 Z M 203.339844 453.636719 C 211.457031 421.667969 259.410156 411.878906 292.578125 411.769531 C 325.320312 411.714844 372.972656 421.039062 379.695312 453.636719 L 401.816406 453.636719 L 428.667969 426.203125 C 471.421875 377.8125 539.429688 374.394531 554.695312 374.171875 C 556.480469 372.855469 558.652344 372.019531 560.898438 371.757812 L 560.898438 350.265625 C 560.527344 349.320312 541.363281 329.628906 529.308594 285.347656 C 492.203125 285.402344 469.25 248.328125 479.148438 223.101562 C 482.472656 214.671875 488.878906 208.300781 498.574219 205.941406 C 494.894531 174.457031 494.839844 128.390625 515.472656 104.6875 C 525.484375 93.265625 538.855469 88.359375 554.15625 90.050781 C 594.328125 4.8125 800.84375 42.5 773.785156 212.3125 C 799.730469 229.640625 785.839844 284.660156 740.730469 290.289062 C 733.617188 310.980469 723.828125 329.257812 711.980469 344.101562 L 711.980469 372.632812 C 713.503906 372.835938 714.933594 373.375 716.25 374.097656 C 755.308594 374.359375 790.796875 390.425781 816.59375 416.171875 C 842.558594 442.175781 858.660156 477.988281 858.660156 517.480469 L 858.660156 707.296875 C 858.660156 714.503906 852.863281 720.296875 845.65625 720.296875 L 494.300781 720.296875 C 487.097656 720.296875 481.300781 714.503906 481.300781 707.296875 L 481.300781 554.125 L 451.234375 584.867188 L 451.234375 820.660156 C 451.234375 843.726562 432.382812 862.5625 409.28125 862.5625 L 165.230469 862.5625 C 142.128906 862.5625 123.335938 843.710938 123.335938 820.660156 L 123.335938 495.597656 C 123.335938 472.488281 142.128906 453.636719 165.230469 453.636719 Z M 186.496094 783.507812 C 181.390625 778.398438 181.390625 770.191406 186.496094 765.136719 C 191.546875 760.03125 199.8125 760.03125 204.863281 765.136719 L 217.175781 777.453125 L 247.28125 725.21875 C 250.921875 719.054688 258.8125 716.898438 265.015625 720.539062 C 271.238281 724.125 273.335938 732.019531 269.753906 738.222656 L 231.644531 804.292969 C 227.054688 812.875 216.695312 813.710938 210.75 807.765625 Z M 186.496094 644.660156 C 181.390625 639.609375 181.390625 631.34375 186.496094 626.289062 C 191.546875 621.238281 199.8125 621.238281 204.863281 626.289062 L 217.175781 638.605469 L 247.28125 586.429688 C 250.921875 580.226562 258.8125 578.105469 265.015625 581.691406 C 271.238281 585.277344 273.335938 593.226562 269.753906 599.375 L 231.644531 665.445312 C 227.054688 674.027344 216.695312 674.863281 210.75 668.917969 Z M 484.347656 513.855469 L 512.355469 485.789062 C 517.40625 480.738281 525.667969 480.738281 530.722656 485.789062 C 535.828125 490.898438 535.828125 499.109375 530.722656 504.160156 L 507.300781 527.640625 L 507.300781 694.332031 L 635.855469 694.332031 C 632.492188 693.644531 629.375 691.691406 627.386719 688.535156 L 587.847656 626.660156 C 585.433594 624.078125 584.171875 620.496094 584.484375 616.761719 L 598.601562 465.914062 L 556.738281 482.761719 C 547.527344 486.441406 537.890625 478.714844 539.003906 469.183594 L 547.324219 400.363281 C 526.375 401.738281 478.40625 408.628906 447.722656 443.699219 C 447.574219 443.847656 447.410156 444.070312 447.261719 444.21875 L 431.734375 460.121094 C 443.582031 467.640625 451.273438 480.867188 451.273438 495.558594 L 451.273438 547.738281 Z M 311.371094 800.503906 C 304.222656 800.503906 298.371094 794.710938 298.371094 787.503906 C 298.371094 780.332031 304.222656 774.5 311.371094 774.5 L 387.699219 774.5 C 394.90625 774.5 400.699219 780.351562 400.699219 787.503906 C 400.699219 794.710938 394.90625 800.503906 387.699219 800.503906 Z M 311.371094 663.03125 C 304.222656 663.03125 298.371094 657.234375 298.371094 650.027344 C 298.371094 642.878906 304.222656 637.027344 311.371094 637.027344 L 387.699219 637.027344 C 394.90625 637.027344 400.699219 642.878906 400.699219 650.027344 C 400.699219 657.234375 394.90625 663.03125 387.699219 663.03125 Z M 311.371094 611.113281 C 304.222656 611.113281 298.371094 605.320312 298.371094 598.167969 C 298.371094 590.960938 304.222656 585.164062 311.371094 585.164062 L 387.699219 585.164062 C 394.90625 585.164062 400.699219 590.960938 400.699219 598.167969 C 400.699219 605.320312 394.90625 611.113281 387.699219 611.113281 Z M 311.371094 748.644531 C 304.222656 748.644531 298.371094 742.792969 298.371094 735.640625 C 298.371094 728.433594 304.222656 722.636719 311.371094 722.636719 L 387.699219 722.636719 C 394.90625 722.636719 400.699219 728.433594 400.699219 735.640625 C 400.699219 742.8125 394.90625 748.644531 387.699219 748.644531 Z M 506.726562 247.378906 C 509.195312 251.113281 512.78125 254.4375 517.367188 256.648438 L 514.097656 244.425781 L 512.09375 231.851562 C 509.511719 230.589844 504.257812 230.21875 503.308594 232.59375 C 501.730469 236.644531 504.144531 243.441406 506.726562 247.378906 Z M 578.429688 99.636719 C 607.011719 119.585938 622.539062 153.558594 618.917969 188.351562 C 649.246094 209.042969 683.824219 207.777344 718.425781 191.933594 C 725.109375 188.777344 732.6875 191.507812 735.84375 197.933594 C 739.167969 204.824219 742.640625 211.308594 746.523438 217.105469 C 776.941406 70.417969 608.964844 42.460938 578.429688 99.636719 Z M 597.746094 204.957031 C 594.792969 202.949219 593.4375 201.425781 588.90625 200.738281 C 586.121094 200.367188 583.113281 200.738281 580.160156 201.945312 C 570.464844 205.902344 561.847656 211.902344 554.789062 219.371094 C 551.519531 222.898438 548.585938 226.6875 546.042969 230.792969 C 547.304688 246.433594 551.355469 277.65625 563.835938 305.667969 C 576.460938 334.050781 598.265625 359.277344 635.59375 359.277344 C 652.921875 359.277344 669.285156 351.269531 683.195312 337.46875 L 689.769531 330.355469 C 701.617188 316.292969 711.292969 297.867188 717.941406 276.542969 C 717.996094 275.429688 718.257812 274.386719 718.628906 273.386719 L 718.574219 273.386719 C 721.933594 263.96875 725.054688 249.273438 725.203125 239.320312 L 724.941406 231.425781 L 718.089844 220.113281 C 675.078125 236.179688 634.070312 233.171875 597.746094 204.957031 Z M 593.382812 175.199219 C 592.953125 165.726562 590.652344 156.566406 586.640625 148.191406 C 580.472656 135.28125 570.484375 124.285156 557.519531 117.078125 C 552.523438 115.703125 548.363281 115.386719 544.835938 116.019531 C 535.105469 117.710938 530.035156 127.703125 527.191406 137.195312 C 521.082031 157.199219 521.65625 185.210938 525.1875 209.375 L 528.027344 211.160156 C 538.667969 196.410156 553.339844 184.785156 570.410156 177.875 C 577.949219 174.828125 585.804688 173.933594 593.382812 175.199219 Z M 748.621094 260.605469 C 762.199219 252.136719 763.109375 234.285156 758.09375 233.542969 C 755.566406 233.226562 753.988281 232.855469 751.722656 231.332031 C 751.574219 232.128906 751.351562 232.964844 751.035156 233.746094 C 751.035156 233.746094 751.035156 246.433594 750.460938 250.335938 C 749.941406 253.601562 749.363281 257.019531 748.621094 260.605469 Z M 648.019531 409.074219 L 628.539062 409.074219 C 626.585938 409.074219 624.953125 410.710938 624.953125 412.660156 L 624.953125 448.9375 C 624.953125 450.886719 626.585938 452.523438 628.539062 452.523438 L 648.019531 452.523438 C 649.96875 452.523438 651.605469 450.886719 651.605469 448.9375 L 651.605469 412.660156 C 651.605469 410.710938 649.96875 409.074219 648.019531 409.074219 Z M 652.8125 383.441406 C 660.816406 384.761719 667.816406 389.292969 672.347656 395.8125 L 685.515625 386.65625 C 686.257812 381.027344 686.035156 374.601562 686.035156 368.804688 C 675.652344 375.976562 664.546875 380.972656 652.8125 383.441406 Z M 677.605469 423.769531 L 677.605469 439.613281 L 704.71875 450.515625 L 699.609375 408.445312 Z M 653.070312 478.117188 C 648.964844 478.804688 627.589844 478.804688 623.484375 478.117188 L 610.691406 614.441406 L 638.269531 657.570312 L 665.847656 614.441406 Z M 598.953125 437.828125 L 598.953125 426.460938 L 572.582031 407.832031 L 567.417969 450.535156 Z M 603.058594 397.652344 C 606.847656 391.167969 613.066406 386.285156 620.382812 384.167969 C 607.699219 382.382812 596.59375 378.316406 586.898438 372.632812 C 586.898438 377.683594 586.75 381.640625 587.363281 386.582031 Z M 678.140625 467.789062 L 691.996094 615.589844 C 692.683594 620.699219 691.570312 623.167969 688.636719 626.902344 L 649.355469 688.40625 C 647.40625 691.507812 644.359375 693.625 640.777344 694.347656 L 734.0625 694.347656 L 734.0625 522.269531 C 734.0625 515.0625 739.910156 509.269531 747.0625 509.269531 C 754.265625 509.269531 760.0625 515.0625 760.0625 522.269531 L 760.0625 694.347656 L 832.65625 694.347656 L 832.65625 517.480469 C 832.65625 456.347656 785.171875 405.378906 724.851562 400.476562 L 733.171875 469.183594 C 734.285156 478.710938 724.644531 486.457031 715.433594 482.761719 Z M 678.140625 467.789062 "/></g><path style=" stroke:none;fill-rule:evenodd;fill:#bbbfe0;fill-opacity:1;" d="M 715.304688 387.0625 L 557.574219 387.0625 C 553.359375 387.0625 480.929688 386.0625 437.972656 435.191406 L 271.628906 605.414062 C 252.148438 625.417969 252.574219 657.441406 272.574219 676.90625 C 292.632812 696.390625 324.632812 695.910156 344.113281 675.902344 L 494.300781 522.214844 L 494.300781 707.296875 L 845.640625 707.296875 L 845.640625 517.421875 C 845.660156 445.707031 787.007812 387.0625 715.304688 387.0625 Z M 715.304688 387.0625 "/><path style=" stroke:none;fill-rule:evenodd;fill:#dfe2f2;fill-opacity:1;" d="M 715.304688 387.0625 L 557.574219 387.0625 C 554.214844 387.0625 506.875 386.433594 466.035156 411.601562 C 466.035156 411.917969 466.035156 412.234375 466.035156 412.550781 C 466.035156 508.433594 571.113281 597.628906 700.726562 611.785156 C 755.417969 617.785156 805.746094 609.40625 845.660156 590.570312 L 845.660156 517.421875 C 845.660156 445.707031 787.007812 387.0625 715.304688 387.0625 Z M 715.304688 387.0625 "/><path style=" stroke:none;fill-rule:evenodd;fill:#f598a2;fill-opacity:1;" d="M 698.980469 309.867188 L 573.898438 309.867188 L 573.898438 379.375 C 573.898438 413.8125 602.074219 441.933594 636.449219 441.933594 C 670.882812 441.933594 699 413.8125 699 379.375 L 699 309.867188 Z M 698.980469 309.867188 "/><path style=" stroke:none;fill-rule:evenodd;fill:#f598a2;fill-opacity:1;" d="M 635.59375 372.203125 C 535.160156 372.203125 532.523438 221.132812 532.523438 221.132812 C 576.945312 147.003906 738.3125 205.550781 738.40625 205.550781 C 740.5625 207.964844 740.355469 207.242188 740.355469 211.4375 C 740.355469 300.226562 693.464844 372.203125 635.59375 372.203125 Z M 635.59375 372.203125 "/><path style=" stroke:none;fill-rule:evenodd;fill:#f9b5b2;fill-opacity:1;" d="M 617.542969 183.652344 C 675.5625 182.757812 738.371094 205.550781 738.40625 205.550781 C 740.5625 207.964844 740.355469 207.242188 740.355469 211.4375 C 740.355469 285.050781 708.136719 347.074219 664.175781 366.128906 C 573.898438 332.324219 572.582031 225.964844 587.476562 209.320312 C 594.753906 197.246094 605.230469 188.980469 617.542969 183.652344 Z M 617.542969 183.652344 "/><path style=" stroke:none;fill-rule:evenodd;fill:#fdb614;fill-opacity:1;" d="M 720.246094 470.726562 L 709.9375 385.429688 L 636.078125 436.808594 Z M 720.246094 470.726562 "/><path style=" stroke:none;fill-rule:evenodd;fill:#fdb614;fill-opacity:1;" d="M 551.890625 470.726562 L 562.3125 384.632812 L 636.078125 436.808594 Z M 551.890625 470.726562 "/><path style=" stroke:none;fill-rule:evenodd;fill:#fdb614;fill-opacity:1;" d="M 661.707031 431.234375 L 614.851562 431.234375 L 597.375 617.894531 L 597.597656 617.894531 L 617.96875 649.75 L 638.289062 681.605469 L 658.605469 649.75 L 678.976562 617.894531 L 679.183594 617.894531 Z M 661.707031 431.234375 "/><path style=" stroke:none;fill-rule:evenodd;fill:#ffd05a;fill-opacity:1;" d="M 629.449219 431.234375 L 614.851562 431.234375 L 597.375 617.894531 L 597.597656 617.894531 L 617.96875 649.75 L 619.957031 652.910156 L 625.808594 643.789062 L 646.125 611.988281 L 646.347656 611.988281 Z M 629.449219 431.234375 "/><path style=" stroke:none;fill-rule:evenodd;fill:#fdb614;fill-opacity:1;" d="M 648.019531 396.015625 L 628.539062 396.015625 C 619.4375 396.015625 611.953125 403.503906 611.953125 412.660156 L 611.953125 448.882812 C 611.953125 458.039062 619.4375 465.523438 628.539062 465.523438 L 648.019531 465.523438 C 657.121094 465.523438 664.605469 458.039062 664.605469 448.882812 L 664.605469 412.660156 C 664.605469 403.484375 657.136719 396.015625 648.019531 396.015625 Z M 648.019531 396.015625 "/><g clip-rule="nonzero" clip-path="url(#98322e35e0)"><path style=" stroke:none;fill-rule:evenodd;fill:#724776;fill-opacity:1;" d="M 753.265625 242.738281 C 743.792969 237.109375 734.097656 224.050781 724.144531 203.5625 C 678.496094 223.996094 638.808594 220.835938 604.953125 194.089844 C 596.316406 187.292969 585.46875 185.710938 575.3125 189.871094 C 548.308594 200.832031 528.34375 225.203125 523.515625 254.847656 C 506.78125 219.035156 491.980469 83.511719 562.476562 105.003906 C 585.542969 16.328125 813.214844 52.605469 753.265625 242.738281 Z M 753.265625 242.738281 "/></g><g clip-rule="nonzero" clip-path="url(#f7c318cb11)"><path style=" stroke:none;fill-rule:evenodd;fill:#511c55;fill-opacity:1;" d="M 753.265625 242.738281 C 743.792969 237.109375 734.097656 224.050781 724.144531 203.5625 C 678.496094 223.996094 638.808594 220.835938 604.953125 194.089844 C 596.316406 187.292969 585.46875 185.710938 575.3125 189.871094 C 552.839844 198.976562 535.195312 217.457031 527.191406 240.472656 C 522.773438 190.96875 531.558594 134.316406 578.988281 148.804688 C 595.367188 85.835938 714.800781 85.929688 761.289062 159.222656 C 765.261719 182.703125 763.421875 210.511719 753.265625 242.738281 Z M 753.265625 242.738281 "/></g><path style=" stroke:none;fill-rule:evenodd;fill:#f9b5b2;fill-opacity:1;" d="M 537.519531 271.585938 C 490.71875 279.535156 473.816406 217.660156 507.617188 217.882812 C 514.878906 217.941406 521.507812 221.042969 524.667969 225.945312 C 525.464844 241.789062 530.3125 257.429688 537.519531 271.585938 Z M 537.519531 271.585938 "/><path style=" stroke:none;fill-rule:evenodd;fill:#f9b5b2;fill-opacity:1;" d="M 730.828125 277.695312 C 778.207031 279.757812 787.324219 216.25 753.785156 220.671875 C 746.578125 221.671875 740.414062 225.574219 737.886719 230.832031 C 739.039062 246.636719 736.195312 262.742188 730.828125 277.695312 Z M 730.828125 277.695312 "/><path style=" stroke:none;fill-rule:evenodd;fill:#96d1a9;fill-opacity:1;" d="M 165.230469 466.621094 L 409.28125 466.621094 C 425.234375 466.621094 438.234375 479.625 438.234375 495.523438 L 438.234375 820.601562 C 438.234375 836.558594 425.234375 849.5625 409.28125 849.5625 L 165.230469 849.5625 C 149.335938 849.5625 136.277344 836.558594 136.277344 820.601562 L 136.277344 495.523438 C 136.277344 479.625 149.335938 466.621094 165.230469 466.621094 Z M 165.230469 466.621094 "/><path style=" stroke:none;fill-rule:evenodd;fill:#c1e2c2;fill-opacity:1;" d="M 165.230469 466.621094 L 409.28125 466.621094 C 425.234375 466.621094 438.234375 479.625 438.234375 495.523438 L 438.234375 731.257812 C 405.269531 745.058594 365.636719 749.3125 322.941406 741.472656 C 240.652344 726.261719 169.597656 670.070312 136.261719 601.53125 L 136.261719 495.542969 C 136.277344 479.625 149.335938 466.621094 165.230469 466.621094 Z M 165.230469 466.621094 "/><path style=" stroke:none;fill-rule:evenodd;fill:#f9b5b2;fill-opacity:1;" d="M 329.3125 522.792969 C 327.992188 550.691406 292.558594 550.691406 291.296875 522.792969 C 289.976562 550.691406 254.542969 550.691406 253.242188 522.792969 C 251.867188 551.433594 215.1875 550.28125 215.1875 521.527344 L 215.1875 462.664062 C 215.1875 413.125 367.4375 411.582031 367.4375 461.085938 L 367.4375 505.109375 C 367.4375 543.800781 330.054688 537.707031 329.3125 522.792969 Z M 329.3125 522.792969 "/><g clip-rule="nonzero" clip-path="url(#d85b64a99d)"><path style=" stroke:none;fill-rule:evenodd;fill:#69cad3;fill-opacity:1;" d="M 205.605469 13.691406 C 311.949219 13.691406 398.230469 99.933594 398.230469 206.347656 C 398.230469 312.765625 311.949219 399.007812 205.605469 399.007812 C 99.210938 399.007812 12.980469 312.765625 12.980469 206.347656 C 12.980469 99.933594 99.210938 13.691406 205.605469 13.691406 Z M 205.605469 13.691406 "/></g><g clip-rule="nonzero" clip-path="url(#16a145c1e5)"><path style=" stroke:none;fill-rule:evenodd;fill:#9bd9e5;fill-opacity:1;" d="M 359.695312 90.777344 C 383.855469 122.949219 398.230469 162.957031 398.230469 206.347656 C 398.230469 312.765625 311.949219 399.007812 205.605469 399.007812 C 171.027344 399.007812 138.636719 389.90625 110.574219 374.007812 C 86.414062 341.777344 72.09375 301.769531 72.09375 258.378906 C 72.09375 151.960938 158.324219 65.71875 264.71875 65.71875 C 299.261719 65.71875 331.632812 74.820312 359.695312 90.777344 Z M 359.695312 90.777344 "/></g><path style=" stroke:none;fill-rule:evenodd;fill:#feea3a;fill-opacity:1;" d="M 110.316406 262.277344 C 136.054688 262.277344 156.910156 241.382812 156.910156 215.636719 L 63.683594 215.636719 C 63.683594 241.363281 84.519531 262.277344 110.316406 262.277344 Z M 110.316406 262.277344 "/><path style=" stroke:none;fill-rule:evenodd;fill:#feea3a;fill-opacity:1;" d="M 300.898438 262.277344 C 326.636719 262.277344 347.53125 241.382812 347.53125 215.636719 L 254.246094 215.636719 C 254.246094 241.363281 275.101562 262.277344 300.898438 262.277344 Z M 300.898438 262.277344 "/><g clip-rule="nonzero" clip-path="url(#d8f83e911b)"><path style=" stroke:none;fill-rule:nonzero;fill:#000000;fill-opacity:1;" d="M 300.898438 249.257812 C 314.640625 249.257812 326.75 240.933594 331.910156 228.621094 L 269.84375 228.621094 C 274.988281 240.933594 287.097656 249.257812 300.898438 249.257812 Z M 343.054688 257.800781 C 319.730469 281.074219 281.992188 281.074219 258.722656 257.800781 C 247.929688 247.007812 241.246094 232.113281 241.246094 215.617188 C 241.246094 208.410156 247.039062 202.617188 254.355469 202.617188 L 281.414062 137.492188 L 218.605469 137.492188 L 218.605469 303.515625 L 264.886719 303.515625 C 272.035156 303.515625 277.886719 309.308594 277.886719 316.515625 C 277.886719 323.6875 272.035156 329.464844 264.886719 329.464844 L 146.324219 329.464844 C 139.121094 329.464844 133.324219 323.667969 133.324219 316.515625 C 133.324219 309.308594 139.121094 303.515625 146.324219 303.515625 L 192.605469 303.515625 L 192.605469 137.472656 L 131.003906 137.472656 C 140.011719 157.90625 149 182.703125 156.949219 202.597656 C 164.117188 202.597656 169.894531 208.449219 169.894531 215.597656 C 169.894531 248.550781 143.207031 275.261719 110.296875 275.261719 C 77.332031 275.261719 50.644531 248.570312 50.644531 215.597656 C 50.644531 208.390625 56.4375 202.597656 63.699219 202.597656 L 97.964844 120.292969 C 99.710938 115.183594 104.539062 111.503906 110.277344 111.503906 L 300.839844 111.503906 C 306.058594 111.503906 310.574219 114.550781 312.632812 119.027344 C 324.425781 140.984375 336.964844 176.109375 347.492188 202.597656 C 354.660156 202.597656 360.4375 208.449219 360.4375 215.597656 C 360.476562 232.09375 353.84375 246.992188 343.054688 257.800781 Z M 282.417969 202.617188 L 319.320312 202.617188 L 300.898438 158.277344 Z M 110.316406 249.257812 C 124.058594 249.257812 136.167969 240.933594 141.328125 228.621094 L 79.261719 228.621094 C 84.425781 240.933594 96.535156 249.257812 110.316406 249.257812 Z M 91.835938 202.617188 L 128.738281 202.617188 L 110.316406 158.277344 Z M 316.367188 522.957031 L 316.3125 479.828125 C 316.3125 472.675781 322.160156 466.878906 329.3125 466.878906 C 336.519531 466.878906 342.3125 472.675781 342.3125 479.828125 L 342.3125 522.417969 C 342.421875 522.269531 342.628906 520.839844 342.941406 520.953125 C 350.148438 523.367188 354.421875 516.421875 354.421875 505.109375 L 354.421875 461.140625 C 354.421875 451.09375 339.898438 444.035156 321.140625 440.28125 C 302.867188 436.695312 282.140625 436.808594 263.808594 440.429688 C 243.917969 444.421875 228.171875 452.019531 228.171875 462.644531 L 228.171875 521.507812 C 228.171875 533.417969 239.703125 534.046875 240.28125 522.195312 C 240.335938 520.820312 240.59375 519.503906 241.078125 518.242188 L 241.078125 479.808594 C 241.078125 472.65625 246.871094 466.863281 254.078125 466.863281 C 261.246094 466.863281 267.078125 472.65625 267.078125 479.808594 L 267.078125 522.773438 C 267.078125 523.777344 266.929688 524.777344 266.707031 525.726562 C 266.761719 527.15625 268.804688 530.777344 272.242188 530.777344 L 272.242188 530.722656 C 276.085938 530.722656 278.296875 526.671875 278.296875 522.773438 L 278.296875 479.808594 C 278.296875 472.65625 284.089844 466.863281 291.296875 466.863281 C 298.445312 466.863281 304.296875 472.65625 304.296875 479.808594 L 304.296875 522.773438 C 304.203125 532.375 315.363281 534.492188 316.367188 522.957031 Z M 205.605469 0.6875 C 319.152344 0.6875 411.230469 92.78125 411.230469 206.347656 C 411.230469 319.972656 319.152344 412.011719 205.605469 412.011719 C 92.003906 412.011719 -0.0195312 319.972656 -0.0195312 206.347656 C -0.0195312 92.78125 92.003906 0.6875 205.605469 0.6875 Z M 332.582031 79.351562 C 262.453125 9.15625 148.703125 9.15625 78.578125 79.351562 C 8.394531 149.492188 8.394531 263.261719 78.578125 333.402344 C 148.703125 403.597656 262.453125 403.597656 332.582031 333.402344 C 402.761719 263.261719 402.761719 149.492188 332.582031 79.351562 Z M 334.324219 545.378906 C 323.535156 558.324219 304.574219 560.441406 291.3125 550.171875 C 285.78125 554.386719 279.058594 556.746094 272.261719 556.746094 L 272.261719 556.691406 C 265.40625 556.691406 258.777344 554.425781 253.261719 550.152344 C 233.519531 565.363281 202.246094 552.992188 202.246094 521.507812 L 202.246094 479.605469 L 165.230469 479.605469 C 156.484375 479.605469 149.277344 486.8125 149.277344 495.558594 L 149.277344 820.640625 C 149.277344 829.390625 156.484375 836.539062 165.230469 836.539062 L 409.28125 836.539062 C 418.027344 836.539062 425.234375 829.371094 425.234375 820.640625 L 425.234375 495.578125 C 425.234375 486.832031 418.027344 479.625 409.28125 479.625 L 380.441406 479.625 L 380.441406 505.109375 C 380.4375 537.652344 356.796875 553.179688 334.324219 545.378906 Z M 203.339844 453.617188 C 211.457031 421.652344 259.410156 411.863281 292.578125 411.75 C 325.320312 411.695312 372.972656 421.019531 379.695312 453.617188 L 401.816406 453.617188 L 428.667969 426.183594 C 471.421875 377.796875 539.429688 374.378906 554.695312 374.15625 C 556.480469 372.835938 558.652344 372 560.898438 371.738281 L 560.898438 350.25 C 560.527344 349.300781 541.363281 329.613281 529.308594 285.328125 C 492.203125 285.386719 469.25 248.308594 479.148438 223.085938 C 482.472656 214.652344 488.878906 208.28125 498.574219 205.921875 C 494.894531 174.4375 494.839844 128.371094 515.472656 104.671875 C 525.484375 93.246094 538.855469 88.34375 554.15625 90.03125 C 594.328125 4.792969 800.84375 42.480469 773.785156 212.292969 C 799.730469 229.625 785.839844 284.640625 740.730469 290.269531 C 733.617188 310.964844 723.828125 329.242188 711.980469 344.082031 L 711.980469 372.613281 C 713.503906 372.816406 714.933594 373.355469 716.25 374.082031 C 755.308594 374.339844 790.796875 390.40625 816.59375 416.152344 C 842.558594 442.15625 858.660156 477.96875 858.660156 517.460938 L 858.660156 707.277344 C 858.660156 714.484375 852.863281 720.28125 845.65625 720.28125 L 494.300781 720.28125 C 487.097656 720.28125 481.300781 714.484375 481.300781 707.277344 L 481.300781 554.109375 L 451.234375 584.851562 L 451.234375 820.640625 C 451.234375 843.710938 432.382812 862.542969 409.28125 862.542969 L 165.230469 862.542969 C 142.128906 862.542969 123.335938 843.691406 123.335938 820.640625 L 123.335938 495.578125 C 123.335938 472.472656 142.128906 453.617188 165.230469 453.617188 Z M 186.496094 783.488281 C 181.390625 778.382812 181.390625 770.171875 186.496094 765.121094 C 191.546875 760.011719 199.8125 760.011719 204.863281 765.121094 L 217.175781 777.433594 L 247.28125 725.203125 C 250.921875 719.035156 258.8125 716.878906 265.015625 720.519531 C 271.238281 724.105469 273.335938 732 269.753906 738.203125 L 231.644531 804.277344 C 227.054688 812.855469 216.695312 813.691406 210.75 807.75 Z M 186.496094 644.644531 C 181.390625 639.589844 181.390625 631.324219 186.496094 626.273438 C 191.546875 621.21875 199.8125 621.21875 204.863281 626.273438 L 217.175781 638.585938 L 247.28125 586.410156 C 250.921875 580.207031 258.8125 578.089844 265.015625 581.671875 C 271.238281 585.257812 273.335938 593.207031 269.753906 599.355469 L 231.644531 665.429688 C 227.054688 674.007812 216.695312 674.84375 210.75 668.902344 Z M 484.347656 513.839844 L 512.355469 485.769531 C 517.40625 480.71875 525.667969 480.71875 530.722656 485.769531 C 535.828125 490.878906 535.828125 499.089844 530.722656 504.140625 L 507.300781 527.621094 L 507.300781 694.3125 L 635.855469 694.3125 C 632.492188 693.625 629.375 691.675781 627.386719 688.515625 L 587.847656 626.644531 C 585.433594 624.0625 584.171875 620.476562 584.484375 616.742188 L 598.601562 465.894531 L 556.738281 482.742188 C 547.527344 486.421875 537.890625 478.695312 539.003906 469.164062 L 547.324219 400.34375 C 526.375 401.71875 478.40625 408.613281 447.722656 443.679688 C 447.574219 443.828125 447.410156 444.050781 447.261719 444.199219 L 431.734375 460.101562 C 443.582031 467.625 451.273438 480.847656 451.273438 495.542969 L 451.273438 547.71875 Z M 311.371094 800.484375 C 304.222656 800.484375 298.371094 794.691406 298.371094 787.484375 C 298.371094 780.3125 304.222656 774.480469 311.371094 774.480469 L 387.699219 774.480469 C 394.90625 774.480469 400.699219 780.332031 400.699219 787.484375 C 400.699219 794.691406 394.90625 800.484375 387.699219 800.484375 Z M 311.371094 663.011719 C 304.222656 663.011719 298.371094 657.21875 298.371094 650.011719 C 298.371094 642.859375 304.222656 637.007812 311.371094 637.007812 L 387.699219 637.007812 C 394.90625 637.007812 400.699219 642.859375 400.699219 650.011719 C 400.699219 657.21875 394.90625 663.011719 387.699219 663.011719 Z M 311.371094 611.097656 C 304.222656 611.097656 298.371094 605.300781 298.371094 598.148438 C 298.371094 590.941406 304.222656 585.148438 311.371094 585.148438 L 387.699219 585.148438 C 394.90625 585.148438 400.699219 590.941406 400.699219 598.148438 C 400.699219 605.300781 394.90625 611.097656 387.699219 611.097656 Z M 311.371094 748.625 C 304.222656 748.625 298.371094 742.773438 298.371094 735.621094 C 298.371094 728.414062 304.222656 722.621094 311.371094 722.621094 L 387.699219 722.621094 C 394.90625 722.621094 400.699219 728.414062 400.699219 735.621094 C 400.699219 742.792969 394.90625 748.625 387.699219 748.625 Z M 506.726562 247.363281 C 509.195312 251.097656 512.78125 254.421875 517.367188 256.632812 L 514.097656 244.410156 L 512.09375 231.832031 C 509.511719 230.570312 504.257812 230.199219 503.308594 232.578125 C 501.730469 236.625 504.144531 243.425781 506.726562 247.363281 Z M 578.429688 99.617188 C 607.011719 119.566406 622.539062 153.539062 618.917969 188.332031 C 649.246094 209.023438 683.824219 207.761719 718.425781 191.917969 C 725.109375 188.757812 732.6875 191.488281 735.84375 197.914062 C 739.167969 204.808594 742.640625 211.289062 746.523438 217.085938 C 776.941406 70.398438 608.964844 42.445312 578.429688 99.617188 Z M 597.746094 204.9375 C 594.792969 202.929688 593.4375 201.40625 588.90625 200.722656 C 586.121094 200.347656 583.113281 200.722656 580.160156 201.929688 C 570.464844 205.882812 561.847656 211.882812 554.789062 219.351562 C 551.519531 222.878906 548.585938 226.671875 546.042969 230.773438 C 547.304688 246.414062 551.355469 277.640625 563.835938 305.652344 C 576.460938 334.03125 598.265625 359.257812 635.59375 359.257812 C 652.921875 359.257812 669.285156 351.25 683.195312 337.449219 L 689.769531 330.335938 C 701.617188 316.273438 711.292969 297.847656 717.941406 276.523438 C 717.996094 275.410156 718.257812 274.371094 718.628906 273.367188 L 718.574219 273.367188 C 721.933594 263.949219 725.054688 249.257812 725.203125 239.300781 L 724.941406 231.40625 L 718.089844 220.09375 C 675.078125 236.160156 634.070312 233.152344 597.746094 204.9375 Z M 593.382812 175.179688 C 592.953125 165.707031 590.652344 156.550781 586.640625 148.171875 C 580.472656 135.261719 570.484375 124.265625 557.519531 117.058594 C 552.523438 115.683594 548.363281 115.367188 544.835938 116 C 535.105469 117.691406 530.035156 127.683594 527.191406 137.175781 C 521.082031 157.179688 521.65625 185.191406 525.1875 209.359375 L 528.027344 211.140625 C 538.667969 196.394531 553.339844 184.765625 570.410156 177.855469 C 577.949219 174.808594 585.804688 173.917969 593.382812 175.179688 Z M 748.621094 260.585938 C 762.199219 252.117188 763.109375 234.265625 758.09375 233.523438 C 755.566406 233.207031 753.988281 232.835938 751.722656 231.3125 C 751.574219 232.113281 751.351562 232.949219 751.035156 233.726562 C 751.035156 233.726562 751.035156 246.414062 750.460938 250.316406 C 749.941406 253.585938 749.363281 257.003906 748.621094 260.585938 Z M 648.019531 409.058594 L 628.539062 409.058594 C 626.585938 409.058594 624.953125 410.691406 624.953125 412.640625 L 624.953125 448.917969 C 624.953125 450.867188 626.585938 452.503906 628.539062 452.503906 L 648.019531 452.503906 C 649.96875 452.503906 651.605469 450.867188 651.605469 448.917969 L 651.605469 412.640625 C 651.605469 410.691406 649.96875 409.058594 648.019531 409.058594 Z M 652.8125 383.421875 C 660.816406 384.742188 667.816406 389.273438 672.347656 395.792969 L 685.515625 386.636719 C 686.257812 381.007812 686.035156 374.582031 686.035156 368.785156 C 675.652344 375.957031 664.546875 380.953125 652.8125 383.421875 Z M 677.605469 423.75 L 677.605469 439.59375 L 704.71875 450.496094 L 699.609375 408.425781 Z M 653.070312 478.101562 C 648.964844 478.789062 627.589844 478.789062 623.484375 478.101562 L 610.691406 614.421875 L 638.269531 657.550781 L 665.847656 614.421875 Z M 598.953125 437.8125 L 598.953125 426.441406 L 572.582031 407.8125 L 567.417969 450.515625 Z M 603.058594 397.632812 C 606.847656 391.152344 613.066406 386.265625 620.382812 384.148438 C 607.699219 382.363281 596.59375 378.296875 586.898438 372.613281 C 586.898438 377.664062 586.75 381.621094 587.363281 386.5625 Z M 678.140625 467.773438 L 691.996094 615.574219 C 692.683594 620.679688 691.570312 623.152344 688.636719 626.886719 L 649.355469 688.386719 C 647.40625 691.488281 644.359375 693.605469 640.777344 694.332031 L 734.0625 694.332031 L 734.0625 522.253906 C 734.0625 515.046875 739.910156 509.25 747.0625 509.25 C 754.265625 509.25 760.0625 515.046875 760.0625 522.253906 L 760.0625 694.332031 L 832.65625 694.332031 L 832.65625 517.460938 C 832.65625 456.332031 785.171875 405.359375 724.851562 400.457031 L 733.171875 469.164062 C 734.285156 478.695312 724.644531 486.441406 715.433594 482.742188 Z M 678.140625 467.773438 "/></g></g></svg>