<svg xmlns="http://www.w3.org/2000/svg" xmlns:xlink="http://www.w3.org/1999/xlink" width="1206" zoomAndPan="magnify" viewBox="0 0 904.5 818.24998" height="1091" preserveAspectRatio="xMidYMid meet" version="1.2"><defs><clipPath id="ebedb75b3f"><path d="M 0.164062 161 L 456 161 L 456 816.75 L 0.164062 816.75 Z M 0.164062 161 "/></clipPath><clipPath id="3d7a1e9daa"><path d="M 723 670 L 762 670 L 762 816.75 L 723 816.75 Z M 723 670 "/></clipPath><clipPath id="878d712852"><path d="M 548 585 L 903 585 L 903 816.75 L 548 816.75 Z M 548 585 "/></clipPath><clipPath id="63b4bed8af"><path d="M 615 677 L 637 677 L 637 816.75 L 615 816.75 Z M 615 677 "/></clipPath><clipPath id="e5ae315dd7"><path d="M 690 670 L 728 670 L 728 816.75 L 690 816.75 Z M 690 670 "/></clipPath><clipPath id="4449210f35"><path d="M 815 677 L 836 677 L 836 816.75 L 815 816.75 Z M 815 677 "/></clipPath><clipPath id="a9eb211004"><path d="M 710 193.980469 L 868 193.980469 L 868 316 L 710 316 Z M 710 193.980469 "/></clipPath><clipPath id="68f0394374"><path d="M 667 193.980469 L 754 193.980469 L 754 203 L 667 203 Z M 667 193.980469 "/></clipPath><clipPath id="43e19ee232"><path d="M 561 193.980469 L 666 193.980469 L 666 221 L 561 221 Z M 561 193.980469 "/></clipPath><clipPath id="d2d660dd9b"><path d="M 70 193.980469 L 506 193.980469 L 506 747 L 70 747 Z M 70 193.980469 "/></clipPath><clipPath id="67d04b9fcf"><path d="M 10 193.980469 L 446 193.980469 L 446 807 L 10 807 Z M 10 193.980469 "/></clipPath><clipPath id="9ccc08a8ac"><path d="M 700 193.980469 L 878 193.980469 L 878 327 L 700 327 Z M 700 193.980469 "/></clipPath><clipPath id="0567069e0e"><path d="M 657 193.980469 L 765 193.980469 L 765 213 L 657 213 Z M 657 193.980469 "/></clipPath><clipPath id="29bcef18fa"><path d="M 643 193.980469 L 748 193.980469 L 748 197 L 643 197 Z M 643 193.980469 "/></clipPath><clipPath id="0c441c8669"><path d="M 551 193.980469 L 676 193.980469 L 676 231 L 551 231 Z M 551 193.980469 "/></clipPath><clipPath id="e837b32be5"><path d="M 0.164062 193.980469 L 456 193.980469 L 456 816.683594 L 0.164062 816.683594 Z M 0.164062 193.980469 "/></clipPath><clipPath id="4c105ad8da"><path d="M 59 193.980469 L 516 193.980469 L 516 757 L 59 757 Z M 59 193.980469 "/></clipPath><clipPath id="0d6ed55b24"><path d="M 723 670 L 762 670 L 762 816.683594 L 723 816.683594 Z M 723 670 "/></clipPath><clipPath id="8e695fe690"><path d="M 548 585 L 903 585 L 903 816.683594 L 548 816.683594 Z M 548 585 "/></clipPath><clipPath id="118ef0b317"><path d="M 615 677 L 637 677 L 637 816.683594 L 615 816.683594 Z M 615 677 "/></clipPath><clipPath id="dbf541df36"><path d="M 690 670 L 728 670 L 728 816.683594 L 690 816.683594 Z M 690 670 "/></clipPath><clipPath id="6dcd2e5646"><path d="M 815 677 L 836 677 L 836 816.683594 L 815 816.683594 Z M 815 677 "/></clipPath></defs><g id="d473b5292e"><path style=" stroke:none;fill-rule:nonzero;fill:#95d6a4;fill-opacity:1;" d="M 807.582031 596.054688 L 755.945312 671.53125 L 744.988281 660.824219 L 725.722656 642.011719 L 771.085938 595.683594 L 799.273438 595.683594 C 802.0625 595.683594 804.855469 595.808594 807.582031 596.054688 Z M 807.582031 596.054688 "/><path style=" stroke:none;fill-rule:nonzero;fill:#95d6a4;fill-opacity:1;" d="M 680.363281 595.683594 L 725.722656 642.011719 L 706.457031 660.824219 L 706.457031 660.84375 L 695.523438 671.53125 L 643.863281 596.054688 C 646.59375 595.808594 649.382812 595.683594 652.171875 595.683594 Z M 680.363281 595.683594 "/><path style=" stroke:none;fill-rule:nonzero;fill:#b3e59f;fill-opacity:1;" d="M 825.617188 806.402344 L 750.773438 806.402344 L 734.074219 681.113281 L 744.988281 660.824219 L 755.945312 671.53125 L 807.582031 596.054688 C 855.121094 600.300781 892.707031 640.511719 892.707031 689.113281 L 892.707031 806.402344 Z M 825.617188 806.402344 "/><path style=" stroke:none;fill-rule:nonzero;fill:#b3e59f;fill-opacity:1;" d="M 625.828125 806.402344 L 558.742188 806.402344 L 558.742188 689.113281 C 558.742188 640.511719 596.328125 600.300781 643.863281 596.054688 L 695.523438 671.53125 L 706.457031 660.84375 L 717.375 681.113281 L 700.671875 806.402344 Z M 625.828125 806.402344 "/><path style=" stroke:none;fill-rule:nonzero;fill:#d9c1e1;fill-opacity:1;" d="M 734.074219 681.113281 L 750.773438 806.402344 L 700.671875 806.402344 L 717.375 681.113281 Z M 734.074219 681.113281 "/><path style=" stroke:none;fill-rule:nonzero;fill:#e7daec;fill-opacity:1;" d="M 744.988281 660.824219 L 734.074219 681.113281 L 717.375 681.113281 L 706.457031 660.84375 L 706.457031 660.824219 L 725.722656 642.011719 Z M 744.988281 660.824219 "/><path style=" stroke:none;fill-rule:nonzero;fill:#fcdab4;fill-opacity:1;" d="M 771.085938 557.09375 L 771.085938 595.683594 L 725.722656 642.011719 L 680.363281 595.683594 L 680.363281 555.167969 C 706.890625 577.363281 743.960938 578 771.085938 557.09375 Z M 771.085938 557.09375 "/><path style=" stroke:none;fill-rule:nonzero;fill:#ffeac5;fill-opacity:1;" d="M 771.085938 557.09375 C 743.960938 578 706.890625 577.363281 680.363281 555.167969 C 661.488281 539.390625 647.964844 512.699219 647.167969 475.09375 C 647.167969 475.09375 662.71875 443.109375 662.101562 408.109375 C 677.898438 383.941406 720.183594 444.15625 784.625 403.574219 C 784.625 403.574219 804.792969 414.839844 806.640625 475.585938 C 806.640625 475.667969 806.640625 475.730469 806.640625 475.8125 C 805.65625 514.585938 791.066406 541.6875 771.085938 557.09375 Z M 771.085938 557.09375 "/><path style=" stroke:none;fill-rule:nonzero;fill:#1480ae;fill-opacity:1;" d="M 806.640625 475.8125 C 806.640625 475.730469 806.640625 475.667969 806.640625 475.585938 C 804.792969 414.839844 784.625 403.574219 784.625 403.574219 C 720.183594 444.15625 677.898438 383.941406 662.101562 408.109375 C 662.71875 443.109375 647.167969 475.09375 647.167969 475.09375 C 568.527344 366.605469 774.878906 256.269531 802.722656 377.929688 C 843.773438 407.515625 806.640625 475.8125 806.640625 475.8125 Z M 806.640625 475.8125 "/><path style=" stroke:none;fill-rule:nonzero;fill:#1480ae;fill-opacity:1;" d="M 710.578125 190.257812 L 741.582031 159.261719 L 867.320312 285.03125 L 836.316406 316.027344 Z M 710.578125 190.257812 "/><path style=" stroke:none;fill-rule:nonzero;fill:#f08851;fill-opacity:1;" d="M 753.953125 146.820312 L 710.5625 190.210938 L 698.167969 202.621094 L 667.765625 172.21875 L 723.570312 116.433594 Z M 753.953125 146.820312 "/><path style=" stroke:none;fill-rule:nonzero;fill:#f08851;fill-opacity:1;" d="M 771.535156 90.503906 L 748.292969 113.769531 L 679.152344 44.628906 L 668.132812 33.613281 L 691.378906 10.347656 Z M 771.535156 90.503906 "/><path style=" stroke:none;fill-rule:nonzero;fill:#f08851;fill-opacity:1;" d="M 665.097656 196.9375 L 641.851562 220.183594 L 561.695312 140.027344 L 584.941406 116.785156 L 595.976562 127.820312 L 654.082031 185.921875 Z M 665.097656 196.9375 "/><path style=" stroke:none;fill-rule:nonzero;fill:#fb9a67;fill-opacity:1;" d="M 737.253906 102.730469 L 723.570312 116.433594 L 667.765625 172.21875 L 654.082031 185.902344 L 654.082031 185.921875 L 595.976562 127.820312 L 595.976562 127.800781 L 679.152344 44.628906 Z M 737.253906 102.730469 "/><path style=" stroke:none;fill-rule:nonzero;fill:#e7daec;fill-opacity:1;" d="M 505.113281 111.859375 L 505.113281 746.683594 L 445.386719 746.683594 L 445.386719 171.582031 L 70.0625 171.582031 L 70.0625 111.859375 Z M 505.113281 111.859375 "/><path style=" stroke:none;fill-rule:nonzero;fill:#b7d8fb;fill-opacity:1;" d="M 253.644531 737.164062 C 179.640625 684.5 324.957031 677.132812 253.644531 737.164062 Z M 253.644531 737.164062 "/><path style=" stroke:none;fill-rule:nonzero;fill:#fee274;fill-opacity:1;" d="M 126.894531 429.261719 C 126.894531 430.246094 126.84375 431.226562 126.75 432.203125 C 126.652344 433.183594 126.507812 434.15625 126.316406 435.121094 C 126.125 436.085938 125.886719 437.039062 125.601562 437.980469 C 125.316406 438.921875 124.984375 439.847656 124.605469 440.753906 C 124.230469 441.664062 123.8125 442.550781 123.347656 443.417969 C 122.882812 444.285156 122.378906 445.128906 121.832031 445.949219 C 121.285156 446.765625 120.699219 447.554688 120.074219 448.316406 C 119.453125 449.074219 118.792969 449.804688 118.097656 450.5 C 117.402344 451.195312 116.671875 451.855469 115.914062 452.476562 C 115.152344 453.101562 114.363281 453.6875 113.542969 454.234375 C 112.726562 454.78125 111.882812 455.285156 111.015625 455.75 C 110.148438 456.214844 109.261719 456.632812 108.351562 457.007812 C 107.441406 457.386719 106.519531 457.71875 105.578125 458.003906 C 104.636719 458.289062 103.683594 458.527344 102.71875 458.71875 C 101.753906 458.910156 100.78125 459.054688 99.800781 459.152344 C 98.824219 459.246094 97.839844 459.296875 96.859375 459.296875 C 95.875 459.296875 94.894531 459.246094 93.914062 459.152344 C 92.933594 459.054688 91.960938 458.910156 90.996094 458.71875 C 90.03125 458.527344 89.082031 458.289062 88.140625 458.003906 C 87.199219 457.71875 86.273438 457.386719 85.363281 457.007812 C 84.453125 456.632812 83.566406 456.214844 82.699219 455.75 C 81.832031 455.285156 80.988281 454.78125 80.171875 454.234375 C 79.351562 453.6875 78.5625 453.101562 77.804688 452.476562 C 77.042969 451.855469 76.316406 451.195312 75.617188 450.5 C 74.921875 449.804688 74.265625 449.074219 73.640625 448.316406 C 73.015625 447.554688 72.429688 446.765625 71.882812 445.949219 C 71.335938 445.128906 70.832031 444.285156 70.367188 443.417969 C 69.90625 442.550781 69.484375 441.664062 69.109375 440.753906 C 68.730469 439.847656 68.402344 438.921875 68.113281 437.980469 C 67.828125 437.039062 67.589844 436.085938 67.398438 435.121094 C 67.207031 434.15625 67.0625 433.183594 66.964844 432.203125 C 66.871094 431.226562 66.820312 430.246094 66.820312 429.261719 C 66.820312 428.277344 66.871094 427.296875 66.964844 426.316406 C 67.0625 425.335938 67.207031 424.367188 67.398438 423.402344 C 67.589844 422.4375 67.828125 421.484375 68.113281 420.542969 C 68.402344 419.601562 68.730469 418.675781 69.109375 417.765625 C 69.484375 416.859375 69.90625 415.96875 70.367188 415.101562 C 70.832031 414.234375 71.335938 413.390625 71.882812 412.574219 C 72.429688 411.757812 73.015625 410.96875 73.640625 410.207031 C 74.265625 409.445312 74.921875 408.71875 75.617188 408.023438 C 76.316406 407.328125 77.042969 406.667969 77.804688 406.042969 C 78.5625 405.417969 79.351562 404.832031 80.171875 404.289062 C 80.988281 403.742188 81.832031 403.234375 82.699219 402.773438 C 83.566406 402.308594 84.453125 401.886719 85.363281 401.511719 C 86.273438 401.136719 87.199219 400.804688 88.140625 400.519531 C 89.082031 400.234375 90.03125 399.996094 90.996094 399.800781 C 91.960938 399.609375 92.933594 399.464844 93.914062 399.371094 C 94.894531 399.273438 95.875 399.226562 96.859375 399.226562 C 97.839844 399.226562 98.824219 399.273438 99.800781 399.371094 C 100.78125 399.464844 101.753906 399.609375 102.71875 399.800781 C 103.683594 399.996094 104.636719 400.234375 105.578125 400.519531 C 106.519531 400.804688 107.441406 401.136719 108.351562 401.511719 C 109.261719 401.886719 110.148438 402.308594 111.015625 402.773438 C 111.882812 403.234375 112.726562 403.742188 113.542969 404.289062 C 114.363281 404.832031 115.152344 405.417969 115.914062 406.042969 C 116.671875 406.667969 117.402344 407.328125 118.097656 408.023438 C 118.792969 408.71875 119.453125 409.445312 120.074219 410.207031 C 120.699219 410.96875 121.285156 411.757812 121.832031 412.574219 C 122.378906 413.390625 122.882812 414.234375 123.347656 415.101562 C 123.8125 415.96875 124.230469 416.859375 124.605469 417.765625 C 124.984375 418.675781 125.316406 419.601562 125.601562 420.542969 C 125.886719 421.484375 126.125 422.4375 126.316406 423.402344 C 126.507812 424.367188 126.652344 425.335938 126.75 426.316406 C 126.84375 427.296875 126.894531 428.277344 126.894531 429.261719 Z M 126.894531 429.261719 "/><path style=" stroke:none;fill-rule:nonzero;fill:#21a1ff;fill-opacity:1;" d="M 388.761719 281.445312 C 388.761719 281.445312 395.0625 370.933594 323.910156 399.921875 C 252.761719 370.933594 259.058594 281.445312 259.058594 281.445312 C 296.417969 271.351562 311.929688 221.785156 323.910156 221.785156 C 335.894531 221.785156 351.402344 271.351562 388.761719 281.445312 Z M 388.761719 281.445312 "/><path style=" stroke:none;fill-rule:nonzero;fill:#b7d8fb;fill-opacity:1;" d="M 253.644531 737.164062 C 324.957031 677.132812 179.640625 684.5 253.644531 737.164062 Z M 445.386719 746.683594 L 445.386719 806.402344 L 10.339844 806.402344 L 10.339844 171.582031 L 445.386719 171.582031 Z M 323.910156 399.921875 C 395.0625 370.933594 388.761719 281.445312 388.761719 281.445312 C 351.402344 271.351562 335.894531 221.785156 323.910156 221.785156 C 311.929688 221.785156 296.417969 271.351562 259.058594 281.445312 C 259.058594 281.445312 252.761719 370.933594 323.910156 399.921875 Z M 126.894531 429.261719 C 126.894531 412.703125 113.394531 399.226562 96.859375 399.226562 C 80.300781 399.226562 66.820312 412.703125 66.820312 429.261719 C 66.820312 445.796875 80.300781 459.296875 96.859375 459.296875 C 113.394531 459.296875 126.894531 445.796875 126.894531 429.261719 Z M 126.894531 429.261719 "/><path style=" stroke:none;fill-rule:nonzero;fill:#000000;fill-opacity:1;" d="M 836.304688 326.230469 C 833.585938 326.230469 830.972656 325.148438 829.050781 323.222656 L 703.308594 197.460938 C 699.300781 193.457031 699.300781 186.960938 703.308594 182.957031 C 707.316406 178.949219 713.808594 178.949219 717.816406 182.957031 L 836.304688 301.464844 L 852.800781 284.96875 L 734.308594 166.460938 C 730.300781 162.453125 730.300781 155.957031 734.308594 151.953125 C 738.316406 147.949219 744.808594 147.949219 748.816406 151.953125 L 874.5625 277.714844 C 878.566406 281.722656 878.566406 288.214844 874.558594 292.222656 L 843.558594 323.222656 C 841.632812 325.148438 839.027344 326.230469 836.304688 326.230469 Z M 836.304688 326.230469 "/><path style=" stroke:none;fill-rule:nonzero;fill:#000000;fill-opacity:1;" d="M 698.167969 212.878906 C 695.449219 212.878906 692.839844 211.800781 690.917969 209.875 L 660.515625 179.472656 C 656.507812 175.464844 656.507812 168.96875 660.515625 164.964844 C 664.515625 160.960938 671.015625 160.960938 675.019531 164.964844 L 698.164062 188.109375 L 739.445312 146.820312 L 716.316406 123.6875 C 712.308594 119.683594 712.308594 113.1875 716.316406 109.183594 C 720.320312 105.179688 726.816406 105.179688 730.820312 109.183594 L 761.207031 139.566406 C 763.132812 141.492188 764.214844 144.097656 764.214844 146.820312 C 764.214844 149.542969 763.136719 152.152344 761.207031 154.074219 L 705.429688 209.871094 C 703.503906 211.796875 700.898438 212.882812 698.175781 212.882812 C 698.171875 212.878906 698.171875 212.878906 698.167969 212.878906 Z M 698.167969 212.878906 "/><path style=" stroke:none;fill-rule:nonzero;fill:#000000;fill-opacity:1;" d="M 654.082031 196.160156 C 651.457031 196.160156 648.828125 195.160156 646.828125 193.15625 C 642.820312 189.148438 642.820312 182.652344 646.828125 178.648438 L 729.992188 95.484375 C 733.992188 91.472656 740.488281 91.46875 744.5 95.472656 C 748.507812 99.476562 748.511719 105.972656 744.511719 109.980469 L 661.332031 193.15625 C 659.332031 195.160156 656.707031 196.160156 654.082031 196.160156 Z M 654.082031 196.160156 "/><path style=" stroke:none;fill-rule:nonzero;fill:#000000;fill-opacity:1;" d="M 595.976562 138.058594 C 593.355469 138.058594 590.726562 137.058594 588.726562 135.054688 C 584.71875 131.046875 584.71875 124.554688 588.726562 120.546875 L 671.898438 37.378906 C 675.902344 33.371094 682.402344 33.371094 686.402344 37.378906 C 690.410156 41.382812 690.410156 47.878906 686.402344 51.882812 L 603.230469 135.054688 C 601.230469 137.058594 598.601562 138.058594 595.976562 138.058594 Z M 595.976562 138.058594 "/><path style=" stroke:none;fill-rule:nonzero;fill:#000000;fill-opacity:1;" d="M 748.292969 124.027344 C 745.570312 124.027344 742.960938 122.945312 741.039062 121.023438 L 660.882812 40.867188 C 656.875 36.863281 656.875 30.367188 660.878906 26.363281 L 684.121094 3.097656 C 686.046875 1.171875 688.65625 0.0898438 691.375 0.0898438 L 691.378906 0.0898438 C 694.097656 0.0898438 696.710938 1.171875 698.632812 3.09375 L 778.789062 83.25 C 782.792969 87.253906 782.796875 93.746094 778.792969 97.753906 L 755.546875 121.019531 C 753.625 122.941406 751.019531 124.023438 748.292969 124.027344 Z M 744.507812 95.476562 L 748.289062 99.257812 L 757.035156 90.503906 L 691.386719 24.855469 L 682.640625 33.609375 Z M 744.507812 95.476562 "/><path style=" stroke:none;fill-rule:nonzero;fill:#000000;fill-opacity:1;" d="M 641.851562 230.441406 C 639.132812 230.441406 636.523438 229.359375 634.601562 227.4375 L 554.445312 147.28125 C 550.4375 143.277344 550.4375 136.78125 554.445312 132.777344 L 577.691406 109.53125 C 581.691406 105.527344 588.191406 105.527344 592.195312 109.53125 L 672.351562 189.6875 C 676.355469 193.695312 676.355469 200.1875 672.351562 204.195312 L 649.105469 227.4375 C 647.179688 229.359375 644.574219 230.441406 641.851562 230.441406 Z M 576.203125 140.027344 L 641.851562 205.675781 L 650.589844 196.9375 L 588.726562 135.074219 L 584.941406 131.292969 Z M 576.203125 140.027344 "/><path style=" stroke:none;fill-rule:nonzero;fill:#000000;fill-opacity:1;" d="M 323.910156 410.179688 C 322.597656 410.179688 321.28125 409.929688 320.039062 409.421875 C 242.894531 377.988281 248.546875 284.679688 248.824219 280.722656 C 249.132812 276.367188 252.167969 272.683594 256.382812 271.542969 C 275.722656 266.316406 289.171875 247.03125 298.996094 232.949219 C 307.667969 220.511719 313.9375 211.527344 323.914062 211.527344 C 333.890625 211.527344 340.160156 220.511719 348.832031 232.949219 C 358.652344 247.03125 372.105469 266.316406 391.441406 271.542969 C 395.660156 272.683594 398.691406 276.367188 399 280.722656 C 399.277344 284.679688 404.933594 377.992188 327.785156 409.421875 C 326.542969 409.929688 325.226562 410.179688 323.910156 410.179688 Z M 269.144531 288.828125 C 269.300781 308.511719 274.175781 365.753906 323.90625 388.738281 C 373.132812 365.929688 378.328125 308.398438 378.625 288.808594 C 356.375 279.632812 341.90625 258.886719 332 244.6875 C 329.46875 241.050781 326.253906 236.445312 323.910156 233.707031 C 321.566406 236.445312 318.355469 241.050781 315.820312 244.683594 C 305.910156 258.894531 291.425781 279.664062 269.144531 288.828125 Z M 269.144531 288.828125 "/><path style=" stroke:none;fill-rule:nonzero;fill:#000000;fill-opacity:1;" d="M 315.292969 349.207031 C 312.574219 349.207031 309.964844 348.125 308.039062 346.203125 L 293.679688 331.84375 C 289.671875 327.835938 289.671875 321.339844 293.679688 317.335938 C 297.6875 313.332031 304.179688 313.332031 308.1875 317.335938 L 315.292969 324.441406 L 343.738281 295.996094 C 347.742188 291.992188 354.238281 291.992188 358.242188 295.996094 C 362.25 300.003906 362.25 306.5 358.242188 310.503906 L 322.546875 346.203125 C 320.625 348.125 318.015625 349.207031 315.292969 349.207031 Z M 315.292969 349.207031 "/><g clip-rule="nonzero" clip-path="url(#ebedb75b3f)"><path style=" stroke:none;fill-rule:nonzero;fill:#000000;fill-opacity:1;" d="M 445.386719 816.660156 L 10.339844 816.660156 C 4.675781 816.660156 0.0820312 812.070312 0.0820312 806.402344 L 0.0820312 171.582031 C 0.0820312 165.917969 4.675781 161.324219 10.339844 161.324219 L 445.386719 161.324219 C 451.054688 161.324219 455.648438 165.917969 455.648438 171.582031 L 455.648438 806.402344 C 455.648438 812.066406 451.054688 816.660156 445.386719 816.660156 Z M 20.597656 796.144531 L 435.128906 796.144531 L 435.128906 181.839844 L 20.597656 181.839844 Z M 20.597656 796.144531 "/></g><path style=" stroke:none;fill-rule:nonzero;fill:#000000;fill-opacity:1;" d="M 212.386719 232.042969 L 66.820312 232.042969 C 61.15625 232.042969 56.5625 227.449219 56.5625 221.785156 C 56.5625 216.121094 61.15625 211.527344 66.820312 211.527344 L 212.386719 211.527344 C 218.050781 211.527344 222.644531 216.121094 222.644531 221.785156 C 222.644531 227.449219 218.050781 232.042969 212.386719 232.042969 Z M 212.386719 232.042969 "/><path style=" stroke:none;fill-rule:nonzero;fill:#000000;fill-opacity:1;" d="M 212.386719 291.414062 L 66.820312 291.414062 C 61.15625 291.414062 56.5625 286.820312 56.5625 281.15625 C 56.5625 275.492188 61.15625 270.898438 66.820312 270.898438 L 212.386719 270.898438 C 218.050781 270.898438 222.644531 275.492188 222.644531 281.15625 C 222.644531 286.820312 218.050781 291.414062 212.386719 291.414062 Z M 212.386719 291.414062 "/><path style=" stroke:none;fill-rule:nonzero;fill:#000000;fill-opacity:1;" d="M 212.386719 350.789062 L 66.820312 350.789062 C 61.15625 350.789062 56.5625 346.195312 56.5625 340.53125 C 56.5625 334.867188 61.15625 330.273438 66.820312 330.273438 L 212.386719 330.273438 C 218.050781 330.273438 222.644531 334.867188 222.644531 340.53125 C 222.644531 346.195312 218.050781 350.789062 212.386719 350.789062 Z M 212.386719 350.789062 "/><path style=" stroke:none;fill-rule:nonzero;fill:#000000;fill-opacity:1;" d="M 245.417969 410.179688 L 162.980469 410.179688 C 157.316406 410.179688 152.722656 405.585938 152.722656 399.921875 C 152.722656 394.257812 157.316406 389.664062 162.980469 389.664062 L 245.417969 389.664062 C 251.082031 389.664062 255.675781 394.257812 255.675781 399.921875 C 255.675781 405.585938 251.082031 410.179688 245.417969 410.179688 Z M 245.417969 410.179688 "/><path style=" stroke:none;fill-rule:nonzero;fill:#000000;fill-opacity:1;" d="M 388.90625 469.554688 L 162.980469 469.554688 C 157.316406 469.554688 152.722656 464.960938 152.722656 459.296875 C 152.722656 453.628906 157.316406 449.039062 162.980469 449.039062 L 388.90625 449.039062 C 394.570312 449.039062 399.164062 453.628906 399.164062 459.296875 C 399.164062 464.960938 394.570312 469.554688 388.90625 469.554688 Z M 388.90625 469.554688 "/><path style=" stroke:none;fill-rule:nonzero;fill:#000000;fill-opacity:1;" d="M 388.90625 528.925781 L 66.820312 528.925781 C 61.15625 528.925781 56.5625 524.335938 56.5625 518.667969 C 56.5625 513.003906 61.15625 508.410156 66.820312 508.410156 L 388.90625 508.410156 C 394.570312 508.410156 399.164062 513.003906 399.164062 518.667969 C 399.164062 524.335938 394.570312 528.925781 388.90625 528.925781 Z M 388.90625 528.925781 "/><path style=" stroke:none;fill-rule:nonzero;fill:#000000;fill-opacity:1;" d="M 388.90625 588.320312 L 66.820312 588.320312 C 61.15625 588.320312 56.5625 583.730469 56.5625 578.0625 C 56.5625 572.394531 61.15625 567.804688 66.820312 567.804688 L 388.90625 567.804688 C 394.570312 567.804688 399.164062 572.394531 399.164062 578.0625 C 399.164062 583.730469 394.570312 588.320312 388.90625 588.320312 Z M 388.90625 588.320312 "/><path style=" stroke:none;fill-rule:nonzero;fill:#000000;fill-opacity:1;" d="M 388.90625 647.691406 L 66.820312 647.691406 C 61.15625 647.691406 56.5625 643.101562 56.5625 637.433594 C 56.5625 631.769531 61.15625 627.175781 66.820312 627.175781 L 388.90625 627.175781 C 394.570312 627.175781 399.164062 631.769531 399.164062 637.433594 C 399.164062 643.101562 394.570312 647.691406 388.90625 647.691406 Z M 388.90625 647.691406 "/><path style=" stroke:none;fill-rule:nonzero;fill:#000000;fill-opacity:1;" d="M 183.332031 707.066406 L 66.820312 707.066406 C 61.15625 707.066406 56.5625 702.476562 56.5625 696.808594 C 56.5625 691.140625 61.15625 686.550781 66.820312 686.550781 L 183.332031 686.550781 C 189 686.550781 193.59375 691.140625 193.59375 696.808594 C 193.59375 702.476562 189 707.066406 183.332031 707.066406 Z M 183.332031 707.066406 "/><path style=" stroke:none;fill-rule:nonzero;fill:#000000;fill-opacity:1;" d="M 183.332031 766.460938 L 66.820312 766.460938 C 61.15625 766.460938 56.5625 761.867188 56.5625 756.203125 C 56.5625 750.535156 61.15625 745.945312 66.820312 745.945312 L 183.332031 745.945312 C 189 745.945312 193.59375 750.535156 193.59375 756.203125 C 193.59375 761.867188 189 766.460938 183.332031 766.460938 Z M 183.332031 766.460938 "/><path style=" stroke:none;fill-rule:nonzero;fill:#000000;fill-opacity:1;" d="M 280.226562 763.21875 C 278.636719 763.21875 277.03125 762.847656 275.539062 762.082031 C 264.582031 756.449219 255.210938 750.875 247.6875 745.515625 C 243.074219 742.226562 242 735.824219 245.285156 731.210938 C 248.574219 726.59375 254.980469 725.523438 259.59375 728.808594 C 264.578125 732.355469 270.546875 736.054688 277.410156 739.839844 L 305.746094 703.210938 C 308.046875 700.234375 311.796875 698.765625 315.507812 699.359375 C 319.21875 699.964844 322.304688 702.554688 323.542969 706.105469 L 332.46875 731.667969 L 388.65625 730.292969 C 388.742188 730.289062 388.828125 730.289062 388.914062 730.289062 C 394.464844 730.289062 399.027344 734.71875 399.164062 740.296875 C 399.300781 745.960938 394.820312 750.664062 389.160156 750.800781 L 325.496094 752.359375 C 321.082031 752.457031 317.03125 749.695312 315.5625 745.484375 L 310.40625 730.714844 L 288.347656 759.234375 C 286.347656 761.820312 283.320312 763.21875 280.226562 763.21875 Z M 280.226562 763.21875 "/><path style=" stroke:none;fill-rule:nonzero;fill:#000000;fill-opacity:1;" d="M 253.640625 747.421875 C 251.5625 747.421875 249.480469 746.789062 247.695312 745.519531 C 227.132812 730.886719 218.699219 716.765625 222.628906 703.546875 C 225.863281 692.667969 237.617188 685.242188 252.574219 684.636719 C 266.960938 684.042969 278.824219 690.242188 282.769531 700.40625 C 287.746094 713.234375 280.167969 728.242188 260.246094 745.011719 C 258.347656 746.609375 256 747.421875 253.640625 747.421875 Z M 254.4375 705.113281 C 254.101562 705.113281 253.757812 705.125 253.40625 705.136719 C 246.863281 705.402344 242.695312 708.046875 242.292969 709.394531 C 241.914062 710.671875 243.410156 715.695312 253.117188 723.832031 C 263.039062 714.175781 264.035156 708.84375 263.640625 707.828125 C 263.332031 707.03125 260.074219 705.113281 254.4375 705.113281 Z M 254.4375 705.113281 "/><path style=" stroke:none;fill-rule:nonzero;fill:#000000;fill-opacity:1;" d="M 223.824219 768.410156 C 220.371094 768.410156 217.003906 766.667969 215.066406 763.511719 C 212.105469 758.683594 213.621094 752.363281 218.449219 749.40625 C 230 742.324219 239.613281 735.566406 247.03125 729.316406 C 251.367188 725.664062 257.835938 726.21875 261.488281 730.550781 C 265.136719 734.886719 264.585938 741.355469 260.25 745.007812 C 252.050781 751.914062 241.59375 759.28125 229.171875 766.898438 C 227.5 767.921875 225.652344 768.410156 223.824219 768.410156 Z M 223.824219 768.410156 "/><path style=" stroke:none;fill-rule:nonzero;fill:#000000;fill-opacity:1;" d="M 505.113281 756.941406 L 445.386719 756.941406 C 439.722656 756.941406 435.128906 752.347656 435.128906 746.683594 C 435.128906 741.015625 439.722656 736.425781 445.386719 736.425781 L 494.851562 736.425781 L 494.851562 122.117188 L 80.320312 122.117188 L 80.320312 171.582031 C 80.320312 177.246094 75.726562 181.839844 70.0625 181.839844 C 64.398438 181.839844 59.804688 177.246094 59.804688 171.582031 L 59.804688 111.859375 C 59.804688 106.195312 64.398438 101.601562 70.0625 101.601562 L 505.113281 101.601562 C 510.777344 101.601562 515.371094 106.195312 515.371094 111.859375 L 515.371094 746.683594 C 515.371094 752.347656 510.777344 756.941406 505.113281 756.941406 Z M 505.113281 756.941406 "/><path style=" stroke:none;fill-rule:nonzero;fill:#000000;fill-opacity:1;" d="M 96.859375 469.554688 C 74.640625 469.554688 56.5625 451.476562 56.5625 429.257812 C 56.5625 407.042969 74.640625 388.964844 96.859375 388.964844 C 119.078125 388.964844 137.152344 407.042969 137.152344 429.257812 C 137.152344 451.480469 119.074219 469.554688 96.859375 469.554688 Z M 96.859375 409.484375 C 85.953125 409.484375 77.078125 418.355469 77.078125 429.261719 C 77.078125 440.167969 85.953125 449.039062 96.859375 449.039062 C 107.765625 449.039062 116.636719 440.167969 116.636719 429.261719 C 116.636719 418.355469 107.761719 409.484375 96.859375 409.484375 Z M 96.859375 409.484375 "/><path style=" stroke:none;fill-rule:nonzero;fill:#000000;fill-opacity:1;" d="M 680.363281 605.945312 C 674.695312 605.945312 670.105469 601.351562 670.105469 595.683594 L 670.105469 554.796875 C 670.105469 549.132812 674.695312 544.539062 680.363281 544.539062 C 686.027344 544.539062 690.621094 549.132812 690.621094 554.796875 L 690.621094 595.683594 C 690.621094 601.351562 686.027344 605.945312 680.363281 605.945312 Z M 680.363281 605.945312 "/><path style=" stroke:none;fill-rule:nonzero;fill:#000000;fill-opacity:1;" d="M 726.949219 582.515625 C 708.101562 582.515625 689.269531 575.996094 673.777344 563.03125 C 650.800781 543.828125 637.707031 512.675781 636.910156 475.3125 C 636.789062 469.644531 641.285156 464.957031 646.949219 464.835938 C 652.582031 464.675781 657.304688 469.210938 657.421875 474.875 C 658.085938 506.226562 668.574219 531.945312 686.9375 547.296875 C 709.542969 566.214844 741.566406 566.898438 764.820312 548.972656 C 784.355469 533.914062 795.566406 507.835938 796.386719 475.554688 C 796.527344 469.890625 801.289062 465.433594 806.898438 465.558594 C 812.566406 465.699219 817.039062 470.410156 816.894531 476.074219 C 815.914062 514.65625 801.871094 546.3125 777.347656 565.222656 C 762.363281 576.769531 744.648438 582.515625 726.949219 582.515625 Z M 726.949219 582.515625 "/><path style=" stroke:none;fill-rule:nonzero;fill:#000000;fill-opacity:1;" d="M 806.640625 486.070312 C 805.800781 486.070312 804.953125 485.964844 804.113281 485.753906 C 799.566406 484.597656 796.382812 480.503906 796.382812 475.8125 L 796.382812 475.742188 C 795.269531 439.9375 787.449219 423.222656 782.894531 416.460938 C 743.582031 437.648438 711.851562 425.664062 690.441406 417.574219 C 679.609375 413.480469 674.757812 412.054688 672.355469 412.585938 C 671.699219 447.703125 657.046875 478.242188 656.398438 479.578125 C 654.820312 482.820312 651.65625 485 648.066406 485.308594 C 644.472656 485.640625 640.980469 484.03125 638.867188 481.113281 C 614.265625 447.175781 612.484375 409.472656 633.847656 374.941406 C 658.757812 334.6875 711.160156 308.621094 753.144531 315.589844 C 782.746094 320.507812 803.46875 340.476562 811.824219 371.996094 C 854.8125 407.355469 817.3125 477.667969 815.65625 480.710938 C 813.828125 484.070312 810.332031 486.070312 806.640625 486.070312 Z M 738.980469 334.96875 C 707.074219 334.96875 669.671875 356.035156 651.292969 385.738281 C 641.589844 401.421875 633.875 424.433594 645.210938 451.164062 C 648.71875 439.636719 652.125 424.203125 651.84375 408.292969 C 651.808594 406.234375 652.390625 404.21875 653.511719 402.496094 C 664.417969 385.808594 682.09375 392.488281 697.691406 398.378906 C 718.832031 406.371094 745.144531 416.3125 779.15625 394.898438 C 782.335938 392.894531 786.347656 392.792969 789.628906 394.621094 C 792.578125 396.269531 803.84375 404.109375 810.976562 430.46875 C 813.304688 414.144531 811.261719 396.730469 796.722656 386.253906 C 794.699219 384.796875 793.273438 382.652344 792.71875 380.222656 C 786.921875 354.882812 772.074219 339.535156 749.777344 335.832031 C 746.277344 335.25 742.664062 334.96875 738.980469 334.96875 Z M 738.980469 334.96875 "/><path style=" stroke:none;fill-rule:nonzero;fill:#000000;fill-opacity:1;" d="M 755.945312 681.789062 C 753.277344 681.789062 750.699219 680.75 748.773438 678.867188 L 718.558594 649.347656 C 714.503906 645.390625 714.425781 638.894531 718.382812 634.84375 C 722.34375 630.792969 728.839844 630.710938 732.890625 634.671875 L 754.375 655.65625 L 799.117188 590.265625 C 802.316406 585.589844 808.699219 584.390625 813.375 587.589844 C 818.050781 590.789062 819.246094 597.171875 816.050781 601.847656 L 764.410156 677.324219 C 762.699219 679.828125 759.96875 681.445312 756.949219 681.738281 C 756.613281 681.773438 756.277344 681.789062 755.945312 681.789062 Z M 755.945312 681.789062 "/><g clip-rule="nonzero" clip-path="url(#3d7a1e9daa)"><path style=" stroke:none;fill-rule:nonzero;fill:#000000;fill-opacity:1;" d="M 750.761719 816.664062 C 745.695312 816.664062 741.292969 812.914062 740.605469 807.761719 L 723.902344 682.472656 C 723.15625 676.855469 727.101562 671.695312 732.714844 670.949219 C 738.351562 670.183594 743.492188 674.144531 744.238281 679.757812 L 760.941406 805.046875 C 761.691406 810.664062 757.742188 815.824219 752.128906 816.570312 C 751.671875 816.632812 751.210938 816.664062 750.761719 816.664062 Z M 750.761719 816.664062 "/></g><g clip-rule="nonzero" clip-path="url(#878d712852)"><path style=" stroke:none;fill-rule:nonzero;fill:#000000;fill-opacity:1;" d="M 892.707031 816.660156 L 558.742188 816.660156 C 553.074219 816.660156 548.484375 812.070312 548.484375 806.402344 L 548.484375 689.113281 C 548.484375 635.933594 589.980469 590.570312 642.953125 585.839844 C 645.96875 585.566406 649.074219 585.425781 652.171875 585.425781 L 680.363281 585.425781 C 683.121094 585.425781 685.761719 586.539062 687.691406 588.507812 L 725.722656 627.351562 L 763.753906 588.507812 C 765.683594 586.539062 768.324219 585.425781 771.082031 585.425781 L 799.273438 585.425781 C 802.371094 585.425781 805.472656 585.566406 808.503906 585.839844 C 861.464844 590.570312 902.960938 635.933594 902.960938 689.113281 L 902.960938 806.402344 C 902.964844 812.066406 898.371094 816.660156 892.707031 816.660156 Z M 569 796.144531 L 882.449219 796.144531 L 882.449219 689.113281 C 882.449219 646.457031 849.160156 610.070312 806.671875 606.273438 C 804.242188 606.054688 801.753906 605.945312 799.273438 605.945312 L 775.394531 605.945312 L 733.050781 649.1875 C 731.125 651.160156 728.480469 652.269531 725.722656 652.269531 C 722.964844 652.269531 720.324219 651.160156 718.394531 649.1875 L 676.050781 605.945312 L 652.171875 605.945312 C 649.691406 605.945312 647.203125 606.054688 644.785156 606.273438 C 602.28125 610.070312 569 646.457031 569 689.113281 Z M 569 796.144531 "/></g><g clip-rule="nonzero" clip-path="url(#63b4bed8af)"><path style=" stroke:none;fill-rule:nonzero;fill:#000000;fill-opacity:1;" d="M 625.828125 816.660156 C 620.164062 816.660156 615.570312 812.070312 615.570312 806.402344 L 615.570312 688.128906 C 615.570312 682.464844 620.164062 677.871094 625.828125 677.871094 C 631.496094 677.871094 636.085938 682.464844 636.085938 688.128906 L 636.085938 806.402344 C 636.085938 812.066406 631.496094 816.660156 625.828125 816.660156 Z M 625.828125 816.660156 "/></g><path style=" stroke:none;fill-rule:nonzero;fill:#000000;fill-opacity:1;" d="M 695.523438 681.789062 C 695.1875 681.789062 694.855469 681.773438 694.519531 681.742188 C 691.5 681.445312 688.769531 679.828125 687.058594 677.328125 L 635.398438 601.851562 C 632.199219 597.175781 633.394531 590.792969 638.070312 587.59375 C 642.746094 584.394531 649.132812 585.589844 652.328125 590.265625 L 697.085938 655.660156 L 699.285156 653.511719 C 703.339844 649.550781 709.832031 649.625 713.792969 653.675781 C 717.753906 657.726562 717.679688 664.222656 713.628906 668.179688 L 702.691406 678.867188 C 700.765625 680.75 698.1875 681.789062 695.523438 681.789062 Z M 695.523438 681.789062 "/><path style=" stroke:none;fill-rule:nonzero;fill:#000000;fill-opacity:1;" d="M 706.457031 671.082031 C 703.792969 671.082031 701.128906 670.046875 699.121094 667.988281 C 695.160156 663.9375 695.238281 657.441406 699.292969 653.484375 L 718.558594 634.671875 C 722.613281 630.710938 729.105469 630.789062 733.0625 634.84375 C 737.023438 638.898438 736.945312 645.394531 732.890625 649.347656 L 713.625 668.160156 C 711.628906 670.109375 709.042969 671.082031 706.457031 671.082031 Z M 706.457031 671.082031 "/><path style=" stroke:none;fill-rule:nonzero;fill:#000000;fill-opacity:1;" d="M 734.074219 691.371094 L 717.375 691.371094 C 713.597656 691.371094 710.128906 689.300781 708.34375 685.976562 L 697.425781 665.703125 C 696.621094 664.207031 696.199219 662.539062 696.199219 660.84375 C 696.199219 655.175781 700.792969 650.574219 706.457031 650.574219 C 710.53125 650.574219 714.050781 652.941406 715.707031 656.382812 L 723.5 670.855469 L 727.941406 670.855469 L 735.953125 655.964844 C 738.640625 650.96875 744.863281 649.105469 749.847656 651.789062 C 754.839844 654.472656 756.707031 660.691406 754.019531 665.679688 L 743.105469 685.972656 C 741.316406 689.300781 737.847656 691.371094 734.074219 691.371094 Z M 734.074219 691.371094 "/><g clip-rule="nonzero" clip-path="url(#e5ae315dd7)"><path style=" stroke:none;fill-rule:nonzero;fill:#000000;fill-opacity:1;" d="M 700.683594 816.664062 C 700.234375 816.664062 699.777344 816.632812 699.320312 816.570312 C 693.703125 815.824219 689.757812 810.664062 690.503906 805.050781 L 707.207031 679.761719 C 707.953125 674.144531 713.121094 670.199219 718.726562 670.949219 C 724.34375 671.695312 728.289062 676.855469 727.542969 682.46875 L 710.839844 807.757812 C 710.15625 812.914062 705.75 816.664062 700.683594 816.664062 Z M 700.683594 816.664062 "/></g><path style=" stroke:none;fill-rule:nonzero;fill:#000000;fill-opacity:1;" d="M 771.085938 605.945312 C 765.417969 605.945312 760.828125 601.351562 760.828125 595.683594 L 760.828125 556.789062 C 760.828125 551.121094 765.417969 546.53125 771.085938 546.53125 C 776.75 546.53125 781.34375 551.121094 781.34375 556.789062 L 781.34375 595.683594 C 781.34375 601.351562 776.75 605.945312 771.085938 605.945312 Z M 771.085938 605.945312 "/><g clip-rule="nonzero" clip-path="url(#4449210f35)"><path style=" stroke:none;fill-rule:nonzero;fill:#000000;fill-opacity:1;" d="M 825.617188 816.660156 C 819.949219 816.660156 815.359375 812.070312 815.359375 806.402344 L 815.359375 688.128906 C 815.359375 682.464844 819.949219 677.871094 825.617188 677.871094 C 831.285156 677.871094 835.875 682.464844 835.875 688.128906 L 835.875 806.402344 C 835.875 812.066406 831.285156 816.660156 825.617188 816.660156 Z M 825.617188 816.660156 "/></g><path style=" stroke:none;fill-rule:nonzero;fill:#95d6a4;fill-opacity:1;" d="M 807.582031 595.984375 L 755.945312 671.464844 L 744.988281 660.753906 L 725.722656 641.941406 L 771.085938 595.617188 L 799.273438 595.617188 C 802.0625 595.617188 804.855469 595.738281 807.582031 595.984375 Z M 807.582031 595.984375 "/><path style=" stroke:none;fill-rule:nonzero;fill:#95d6a4;fill-opacity:1;" d="M 680.363281 595.617188 L 725.722656 641.941406 L 706.457031 660.753906 L 706.457031 660.773438 L 695.523438 671.464844 L 643.863281 595.984375 C 646.59375 595.738281 649.382812 595.617188 652.171875 595.617188 Z M 680.363281 595.617188 "/><path style=" stroke:none;fill-rule:nonzero;fill:#b3e59f;fill-opacity:1;" d="M 825.617188 806.335938 L 750.773438 806.335938 L 734.074219 681.042969 L 744.988281 660.753906 L 755.945312 671.464844 L 807.582031 595.984375 C 855.121094 600.230469 892.707031 640.445312 892.707031 689.046875 L 892.707031 806.335938 Z M 825.617188 806.335938 "/><path style=" stroke:none;fill-rule:nonzero;fill:#b3e59f;fill-opacity:1;" d="M 625.828125 806.335938 L 558.742188 806.335938 L 558.742188 689.046875 C 558.742188 640.445312 596.328125 600.230469 643.863281 595.984375 L 695.523438 671.464844 L 706.457031 660.773438 L 717.375 681.042969 L 700.671875 806.335938 Z M 625.828125 806.335938 "/><path style=" stroke:none;fill-rule:nonzero;fill:#d9c1e1;fill-opacity:1;" d="M 734.074219 681.042969 L 750.773438 806.335938 L 700.671875 806.335938 L 717.375 681.042969 Z M 734.074219 681.042969 "/><path style=" stroke:none;fill-rule:nonzero;fill:#e7daec;fill-opacity:1;" d="M 744.988281 660.753906 L 734.074219 681.042969 L 717.375 681.042969 L 706.457031 660.773438 L 706.457031 660.753906 L 725.722656 641.941406 Z M 744.988281 660.753906 "/><path style=" stroke:none;fill-rule:nonzero;fill:#fcdab4;fill-opacity:1;" d="M 771.085938 557.027344 L 771.085938 595.617188 L 725.722656 641.941406 L 680.363281 595.617188 L 680.363281 555.097656 C 706.890625 577.296875 743.960938 577.929688 771.085938 557.027344 Z M 771.085938 557.027344 "/><path style=" stroke:none;fill-rule:nonzero;fill:#ffeac5;fill-opacity:1;" d="M 771.085938 557.027344 C 743.960938 577.929688 706.890625 577.296875 680.363281 555.097656 C 661.488281 539.320312 647.964844 512.628906 647.167969 475.023438 C 647.167969 475.023438 662.71875 443.039062 662.101562 408.039062 C 677.898438 383.871094 720.183594 444.085938 784.625 403.503906 C 784.625 403.503906 804.792969 414.769531 806.640625 475.515625 C 806.640625 475.597656 806.640625 475.660156 806.640625 475.742188 C 805.65625 514.515625 791.066406 541.617188 771.085938 557.027344 Z M 771.085938 557.027344 "/><path style=" stroke:none;fill-rule:nonzero;fill:#1480ae;fill-opacity:1;" d="M 806.640625 475.742188 C 806.640625 475.660156 806.640625 475.597656 806.640625 475.515625 C 804.792969 414.769531 784.625 403.503906 784.625 403.503906 C 720.183594 444.085938 677.898438 383.871094 662.101562 408.039062 C 662.71875 443.039062 647.167969 475.023438 647.167969 475.023438 C 568.527344 366.535156 774.878906 256.203125 802.722656 377.859375 C 843.773438 407.445312 806.640625 475.742188 806.640625 475.742188 Z M 806.640625 475.742188 "/><g clip-rule="nonzero" clip-path="url(#a9eb211004)"><path style=" stroke:none;fill-rule:nonzero;fill:#1480ae;fill-opacity:1;" d="M 710.578125 190.191406 L 741.582031 159.195312 L 867.320312 284.964844 L 836.316406 315.957031 Z M 710.578125 190.191406 "/></g><g clip-rule="nonzero" clip-path="url(#68f0394374)"><path style=" stroke:none;fill-rule:nonzero;fill:#f08851;fill-opacity:1;" d="M 753.953125 146.75 L 710.5625 190.140625 L 698.167969 202.554688 L 667.765625 172.148438 L 723.570312 116.367188 Z M 753.953125 146.75 "/></g><g clip-rule="nonzero" clip-path="url(#43e19ee232)"><path style=" stroke:none;fill-rule:nonzero;fill:#f08851;fill-opacity:1;" d="M 665.097656 196.871094 L 641.851562 220.113281 L 561.695312 139.957031 L 584.941406 116.714844 L 595.976562 127.753906 L 654.082031 185.851562 Z M 665.097656 196.871094 "/></g><g clip-rule="nonzero" clip-path="url(#d2d660dd9b)"><path style=" stroke:none;fill-rule:nonzero;fill:#e7daec;fill-opacity:1;" d="M 505.113281 111.789062 L 505.113281 746.613281 L 445.386719 746.613281 L 445.386719 171.511719 L 70.0625 171.511719 L 70.0625 111.789062 Z M 505.113281 111.789062 "/></g><path style=" stroke:none;fill-rule:nonzero;fill:#b7d8fb;fill-opacity:1;" d="M 253.644531 737.09375 C 179.640625 684.429688 324.957031 677.0625 253.644531 737.09375 Z M 253.644531 737.09375 "/><path style=" stroke:none;fill-rule:nonzero;fill:#fee274;fill-opacity:1;" d="M 126.894531 429.191406 C 126.894531 430.175781 126.84375 431.15625 126.75 432.136719 C 126.652344 433.113281 126.507812 434.085938 126.316406 435.050781 C 126.125 436.015625 125.886719 436.96875 125.601562 437.910156 C 125.316406 438.851562 124.984375 439.777344 124.605469 440.683594 C 124.230469 441.59375 123.8125 442.484375 123.347656 443.351562 C 122.882812 444.21875 122.378906 445.058594 121.832031 445.878906 C 121.285156 446.695312 120.699219 447.484375 120.074219 448.246094 C 119.453125 449.007812 118.792969 449.734375 118.097656 450.429688 C 117.402344 451.125 116.671875 451.785156 115.914062 452.410156 C 115.152344 453.03125 114.363281 453.617188 113.542969 454.164062 C 112.726562 454.710938 111.882812 455.214844 111.015625 455.679688 C 110.148438 456.144531 109.261719 456.5625 108.351562 456.941406 C 107.441406 457.316406 106.519531 457.648438 105.578125 457.933594 C 104.636719 458.21875 103.683594 458.457031 102.71875 458.648438 C 101.753906 458.839844 100.78125 458.984375 99.800781 459.082031 C 98.824219 459.179688 97.839844 459.226562 96.859375 459.226562 C 95.875 459.226562 94.894531 459.179688 93.914062 459.082031 C 92.933594 458.984375 91.960938 458.839844 90.996094 458.648438 C 90.03125 458.457031 89.082031 458.21875 88.140625 457.933594 C 87.199219 457.648438 86.273438 457.316406 85.363281 456.941406 C 84.453125 456.5625 83.566406 456.144531 82.699219 455.679688 C 81.832031 455.214844 80.988281 454.710938 80.171875 454.164062 C 79.351562 453.617188 78.5625 453.03125 77.804688 452.410156 C 77.042969 451.785156 76.316406 451.125 75.617188 450.429688 C 74.921875 449.734375 74.265625 449.007812 73.640625 448.246094 C 73.015625 447.484375 72.429688 446.695312 71.882812 445.878906 C 71.335938 445.058594 70.832031 444.21875 70.367188 443.351562 C 69.90625 442.484375 69.484375 441.59375 69.109375 440.683594 C 68.730469 439.777344 68.402344 438.851562 68.113281 437.910156 C 67.828125 436.96875 67.589844 436.015625 67.398438 435.050781 C 67.207031 434.085938 67.0625 433.113281 66.964844 432.136719 C 66.871094 431.15625 66.820312 430.175781 66.820312 429.191406 C 66.820312 428.207031 66.871094 427.226562 66.964844 426.246094 C 67.0625 425.269531 67.207031 424.296875 67.398438 423.332031 C 67.589844 422.367188 67.828125 421.414062 68.113281 420.472656 C 68.402344 419.53125 68.730469 418.605469 69.109375 417.699219 C 69.484375 416.789062 69.90625 415.902344 70.367188 415.03125 C 70.832031 414.164062 71.335938 413.324219 71.882812 412.503906 C 72.429688 411.6875 73.015625 410.898438 73.640625 410.136719 C 74.265625 409.375 74.921875 408.648438 75.617188 407.953125 C 76.316406 407.257812 77.042969 406.597656 77.804688 405.972656 C 78.5625 405.351562 79.351562 404.765625 80.171875 404.21875 C 80.988281 403.671875 81.832031 403.167969 82.699219 402.703125 C 83.566406 402.238281 84.453125 401.820312 85.363281 401.441406 C 86.273438 401.066406 87.199219 400.734375 88.140625 400.449219 C 89.082031 400.164062 90.03125 399.925781 90.996094 399.734375 C 91.960938 399.542969 92.933594 399.398438 93.914062 399.300781 C 94.894531 399.203125 95.875 399.15625 96.859375 399.15625 C 97.839844 399.15625 98.824219 399.203125 99.800781 399.300781 C 100.78125 399.398438 101.753906 399.542969 102.71875 399.734375 C 103.683594 399.925781 104.636719 400.164062 105.578125 400.449219 C 106.519531 400.734375 107.441406 401.066406 108.351562 401.441406 C 109.261719 401.820312 110.148438 402.238281 111.015625 402.703125 C 111.882812 403.167969 112.726562 403.671875 113.542969 404.21875 C 114.363281 404.765625 115.152344 405.351562 115.914062 405.972656 C 116.671875 406.597656 117.402344 407.257812 118.097656 407.953125 C 118.792969 408.648438 119.453125 409.375 120.074219 410.136719 C 120.699219 410.898438 121.285156 411.6875 121.832031 412.503906 C 122.378906 413.324219 122.882812 414.164062 123.347656 415.03125 C 123.8125 415.902344 124.230469 416.789062 124.605469 417.699219 C 124.984375 418.605469 125.316406 419.53125 125.601562 420.472656 C 125.886719 421.414062 126.125 422.367188 126.316406 423.332031 C 126.507812 424.296875 126.652344 425.269531 126.75 426.246094 C 126.84375 427.226562 126.894531 428.207031 126.894531 429.191406 Z M 126.894531 429.191406 "/><path style=" stroke:none;fill-rule:nonzero;fill:#21a1ff;fill-opacity:1;" d="M 388.761719 281.375 C 388.761719 281.375 395.0625 370.863281 323.910156 399.855469 C 252.761719 370.863281 259.058594 281.375 259.058594 281.375 C 296.417969 271.28125 311.929688 221.714844 323.910156 221.714844 C 335.894531 221.714844 351.402344 271.28125 388.761719 281.375 Z M 388.761719 281.375 "/><g clip-rule="nonzero" clip-path="url(#67d04b9fcf)"><path style=" stroke:none;fill-rule:nonzero;fill:#b7d8fb;fill-opacity:1;" d="M 253.644531 737.09375 C 324.957031 677.0625 179.640625 684.429688 253.644531 737.09375 Z M 445.386719 746.613281 L 445.386719 806.335938 L 10.339844 806.335938 L 10.339844 171.511719 L 445.386719 171.511719 Z M 323.910156 399.855469 C 395.0625 370.863281 388.761719 281.375 388.761719 281.375 C 351.402344 271.28125 335.894531 221.714844 323.910156 221.714844 C 311.929688 221.714844 296.417969 271.28125 259.058594 281.375 C 259.058594 281.375 252.761719 370.863281 323.910156 399.855469 Z M 126.894531 429.191406 C 126.894531 412.636719 113.394531 399.15625 96.859375 399.15625 C 80.300781 399.15625 66.820312 412.636719 66.820312 429.191406 C 66.820312 445.726562 80.300781 459.226562 96.859375 459.226562 C 113.394531 459.226562 126.894531 445.726562 126.894531 429.191406 Z M 126.894531 429.191406 "/></g><g clip-rule="nonzero" clip-path="url(#9ccc08a8ac)"><path style=" stroke:none;fill-rule:nonzero;fill:#000000;fill-opacity:1;" d="M 836.304688 326.160156 C 833.585938 326.160156 830.972656 325.078125 829.050781 323.15625 L 703.308594 197.394531 C 699.300781 193.386719 699.300781 186.890625 703.308594 182.886719 C 707.316406 178.882812 713.808594 178.878906 717.816406 182.886719 L 836.304688 301.394531 L 852.800781 284.902344 L 734.308594 166.390625 C 730.300781 162.386719 730.300781 155.890625 734.308594 151.886719 C 738.316406 147.878906 744.808594 147.878906 748.816406 151.886719 L 874.5625 277.648438 C 878.566406 281.652344 878.566406 288.148438 874.558594 292.152344 L 843.558594 323.152344 C 841.632812 325.078125 839.027344 326.160156 836.304688 326.160156 Z M 836.304688 326.160156 "/></g><g clip-rule="nonzero" clip-path="url(#0567069e0e)"><path style=" stroke:none;fill-rule:nonzero;fill:#000000;fill-opacity:1;" d="M 698.167969 212.8125 C 695.449219 212.8125 692.839844 211.730469 690.917969 209.808594 L 660.515625 179.402344 C 656.507812 175.394531 656.507812 168.902344 660.515625 164.894531 C 664.515625 160.890625 671.015625 160.890625 675.019531 164.894531 L 698.164062 188.039062 L 739.445312 146.75 L 716.316406 123.621094 C 712.308594 119.613281 712.308594 113.121094 716.316406 109.113281 C 720.320312 105.109375 726.816406 105.109375 730.820312 109.113281 L 761.207031 139.496094 C 763.132812 141.421875 764.214844 144.027344 764.214844 146.75 C 764.214844 149.472656 763.136719 152.082031 761.207031 154.007812 L 705.429688 209.804688 C 703.503906 211.730469 700.898438 212.8125 698.175781 212.8125 C 698.171875 212.8125 698.171875 212.8125 698.167969 212.8125 Z M 698.167969 212.8125 "/></g><g clip-rule="nonzero" clip-path="url(#29bcef18fa)"><path style=" stroke:none;fill-rule:nonzero;fill:#000000;fill-opacity:1;" d="M 654.082031 196.089844 C 651.457031 196.089844 648.828125 195.089844 646.828125 193.085938 C 642.820312 189.078125 642.820312 182.585938 646.828125 178.578125 L 729.992188 95.414062 C 733.992188 91.402344 740.488281 91.398438 744.5 95.40625 C 748.507812 99.40625 748.511719 105.902344 744.511719 109.910156 L 661.332031 193.089844 C 659.332031 195.089844 656.707031 196.089844 654.082031 196.089844 Z M 654.082031 196.089844 "/></g><g clip-rule="nonzero" clip-path="url(#0c441c8669)"><path style=" stroke:none;fill-rule:nonzero;fill:#000000;fill-opacity:1;" d="M 641.851562 230.371094 C 639.132812 230.371094 636.523438 229.292969 634.601562 227.367188 L 554.445312 147.214844 C 550.4375 143.207031 550.4375 136.710938 554.445312 132.707031 L 577.691406 109.460938 C 581.691406 105.457031 588.191406 105.457031 592.195312 109.460938 L 672.351562 189.617188 C 676.355469 193.625 676.355469 200.117188 672.351562 204.125 L 649.105469 227.367188 C 647.179688 229.292969 644.574219 230.371094 641.851562 230.371094 Z M 576.203125 139.957031 L 641.851562 205.609375 L 650.589844 196.871094 L 584.941406 131.222656 Z M 576.203125 139.957031 "/></g><path style=" stroke:none;fill-rule:nonzero;fill:#000000;fill-opacity:1;" d="M 323.910156 410.113281 C 322.597656 410.113281 321.28125 409.859375 320.039062 409.351562 C 242.894531 377.921875 248.546875 284.609375 248.824219 280.65625 C 249.132812 276.296875 252.167969 272.613281 256.382812 271.472656 C 275.722656 266.25 289.171875 246.960938 298.996094 232.878906 C 307.667969 220.441406 313.9375 211.457031 323.914062 211.457031 C 333.890625 211.457031 340.160156 220.441406 348.832031 232.878906 C 358.652344 246.960938 372.105469 266.246094 391.441406 271.472656 C 395.660156 272.613281 398.691406 276.296875 399 280.65625 C 399.277344 284.613281 404.933594 377.921875 327.785156 409.351562 C 326.542969 409.859375 325.226562 410.113281 323.910156 410.113281 Z M 269.144531 288.757812 C 269.300781 308.441406 274.175781 365.683594 323.90625 388.671875 C 373.132812 365.859375 378.328125 308.328125 378.625 288.738281 C 356.375 279.5625 341.90625 258.816406 332 244.617188 C 329.46875 240.984375 326.253906 236.378906 323.910156 233.636719 C 321.566406 236.378906 318.355469 240.984375 315.820312 244.613281 C 305.910156 258.824219 291.425781 279.59375 269.144531 288.757812 Z M 269.144531 288.757812 "/><path style=" stroke:none;fill-rule:nonzero;fill:#000000;fill-opacity:1;" d="M 315.292969 349.136719 C 312.574219 349.136719 309.964844 348.058594 308.039062 346.136719 L 293.679688 331.773438 C 289.671875 327.765625 289.671875 321.273438 293.679688 317.265625 C 297.6875 313.261719 304.179688 313.261719 308.1875 317.265625 L 315.292969 324.375 L 343.738281 295.929688 C 347.742188 291.925781 354.238281 291.925781 358.242188 295.929688 C 362.25 299.933594 362.25 306.429688 358.242188 310.433594 L 322.546875 346.132812 C 320.625 348.058594 318.015625 349.136719 315.292969 349.136719 Z M 315.292969 349.136719 "/><g clip-rule="nonzero" clip-path="url(#e837b32be5)"><path style=" stroke:none;fill-rule:nonzero;fill:#000000;fill-opacity:1;" d="M 445.386719 816.59375 L 10.339844 816.59375 C 4.675781 816.59375 0.0820312 812 0.0820312 806.335938 L 0.0820312 171.511719 C 0.0820312 165.847656 4.675781 161.253906 10.339844 161.253906 L 445.386719 161.253906 C 451.054688 161.253906 455.648438 165.847656 455.648438 171.511719 L 455.648438 806.335938 C 455.648438 812 451.054688 816.59375 445.386719 816.59375 Z M 20.597656 796.078125 L 435.128906 796.078125 L 435.128906 181.769531 L 20.597656 181.769531 Z M 20.597656 796.078125 "/></g><path style=" stroke:none;fill-rule:nonzero;fill:#000000;fill-opacity:1;" d="M 212.386719 231.972656 L 66.820312 231.972656 C 61.15625 231.972656 56.5625 227.378906 56.5625 221.714844 C 56.5625 216.050781 61.15625 211.457031 66.820312 211.457031 L 212.386719 211.457031 C 218.050781 211.457031 222.644531 216.050781 222.644531 221.714844 C 222.644531 227.378906 218.050781 231.972656 212.386719 231.972656 Z M 212.386719 231.972656 "/><path style=" stroke:none;fill-rule:nonzero;fill:#000000;fill-opacity:1;" d="M 212.386719 291.34375 L 66.820312 291.34375 C 61.15625 291.34375 56.5625 286.753906 56.5625 281.085938 C 56.5625 275.421875 61.15625 270.828125 66.820312 270.828125 L 212.386719 270.828125 C 218.050781 270.828125 222.644531 275.421875 222.644531 281.085938 C 222.644531 286.753906 218.050781 291.34375 212.386719 291.34375 Z M 212.386719 291.34375 "/><path style=" stroke:none;fill-rule:nonzero;fill:#000000;fill-opacity:1;" d="M 212.386719 350.71875 L 66.820312 350.71875 C 61.15625 350.71875 56.5625 346.125 56.5625 340.460938 C 56.5625 334.796875 61.15625 330.203125 66.820312 330.203125 L 212.386719 330.203125 C 218.050781 330.203125 222.644531 334.796875 222.644531 340.460938 C 222.644531 346.125 218.050781 350.71875 212.386719 350.71875 Z M 212.386719 350.71875 "/><path style=" stroke:none;fill-rule:nonzero;fill:#000000;fill-opacity:1;" d="M 245.417969 410.113281 L 162.980469 410.113281 C 157.316406 410.113281 152.722656 405.519531 152.722656 399.855469 C 152.722656 394.1875 157.316406 389.597656 162.980469 389.597656 L 245.417969 389.597656 C 251.082031 389.597656 255.675781 394.1875 255.675781 399.855469 C 255.675781 405.519531 251.082031 410.113281 245.417969 410.113281 Z M 245.417969 410.113281 "/><path style=" stroke:none;fill-rule:nonzero;fill:#000000;fill-opacity:1;" d="M 388.90625 469.484375 L 162.980469 469.484375 C 157.316406 469.484375 152.722656 464.894531 152.722656 459.226562 C 152.722656 453.558594 157.316406 448.96875 162.980469 448.96875 L 388.90625 448.96875 C 394.570312 448.96875 399.164062 453.558594 399.164062 459.226562 C 399.164062 464.894531 394.570312 469.484375 388.90625 469.484375 Z M 388.90625 469.484375 "/><path style=" stroke:none;fill-rule:nonzero;fill:#000000;fill-opacity:1;" d="M 388.90625 528.859375 L 66.820312 528.859375 C 61.15625 528.859375 56.5625 524.265625 56.5625 518.601562 C 56.5625 512.933594 61.15625 508.339844 66.820312 508.339844 L 388.90625 508.339844 C 394.570312 508.339844 399.164062 512.933594 399.164062 518.601562 C 399.164062 524.265625 394.570312 528.859375 388.90625 528.859375 Z M 388.90625 528.859375 "/><path style=" stroke:none;fill-rule:nonzero;fill:#000000;fill-opacity:1;" d="M 388.90625 588.25 L 66.820312 588.25 C 61.15625 588.25 56.5625 583.660156 56.5625 577.992188 C 56.5625 572.328125 61.15625 567.734375 66.820312 567.734375 L 388.90625 567.734375 C 394.570312 567.734375 399.164062 572.328125 399.164062 577.992188 C 399.164062 583.660156 394.570312 588.25 388.90625 588.25 Z M 388.90625 588.25 "/><path style=" stroke:none;fill-rule:nonzero;fill:#000000;fill-opacity:1;" d="M 388.90625 647.625 L 66.820312 647.625 C 61.15625 647.625 56.5625 643.03125 56.5625 637.367188 C 56.5625 631.699219 61.15625 627.109375 66.820312 627.109375 L 388.90625 627.109375 C 394.570312 627.109375 399.164062 631.699219 399.164062 637.367188 C 399.164062 643.03125 394.570312 647.625 388.90625 647.625 Z M 388.90625 647.625 "/><path style=" stroke:none;fill-rule:nonzero;fill:#000000;fill-opacity:1;" d="M 183.332031 706.996094 L 66.820312 706.996094 C 61.15625 706.996094 56.5625 702.40625 56.5625 696.738281 C 56.5625 691.074219 61.15625 686.480469 66.820312 686.480469 L 183.332031 686.480469 C 189 686.480469 193.59375 691.074219 193.59375 696.738281 C 193.59375 702.40625 189 706.996094 183.332031 706.996094 Z M 183.332031 706.996094 "/><path style=" stroke:none;fill-rule:nonzero;fill:#000000;fill-opacity:1;" d="M 183.332031 766.390625 L 66.820312 766.390625 C 61.15625 766.390625 56.5625 761.796875 56.5625 756.132812 C 56.5625 750.464844 61.15625 745.875 66.820312 745.875 L 183.332031 745.875 C 189 745.875 193.59375 750.464844 193.59375 756.132812 C 193.59375 761.796875 189 766.390625 183.332031 766.390625 Z M 183.332031 766.390625 "/><path style=" stroke:none;fill-rule:nonzero;fill:#000000;fill-opacity:1;" d="M 280.226562 763.148438 C 278.636719 763.148438 277.03125 762.78125 275.539062 762.015625 C 264.582031 756.378906 255.210938 750.804688 247.6875 745.449219 C 243.074219 742.160156 242 735.753906 245.285156 731.140625 C 248.574219 726.527344 254.980469 725.453125 259.59375 728.738281 C 264.578125 732.285156 270.546875 735.984375 277.410156 739.769531 L 305.746094 703.140625 C 308.046875 700.164062 311.796875 698.695312 315.507812 699.289062 C 319.21875 699.894531 322.304688 702.484375 323.542969 706.035156 L 332.46875 731.597656 L 388.65625 730.226562 C 388.742188 730.21875 388.828125 730.21875 388.914062 730.21875 C 394.464844 730.21875 399.027344 734.648438 399.164062 740.226562 C 399.300781 745.894531 394.820312 750.59375 389.160156 750.730469 L 325.496094 752.292969 C 321.082031 752.386719 317.03125 749.625 315.5625 745.417969 L 310.40625 730.648438 L 288.347656 759.164062 C 286.347656 761.75 283.320312 763.148438 280.226562 763.148438 Z M 280.226562 763.148438 "/><path style=" stroke:none;fill-rule:nonzero;fill:#000000;fill-opacity:1;" d="M 253.640625 747.351562 C 251.5625 747.351562 249.480469 746.722656 247.695312 745.449219 C 227.132812 730.816406 218.699219 716.695312 222.628906 703.476562 C 225.863281 692.597656 237.617188 685.175781 252.574219 684.566406 C 266.960938 683.972656 278.824219 690.171875 282.769531 700.335938 C 287.746094 713.164062 280.167969 728.171875 260.246094 744.941406 C 258.347656 746.542969 256 747.351562 253.640625 747.351562 Z M 254.4375 705.046875 C 254.101562 705.046875 253.757812 705.054688 253.40625 705.066406 C 246.863281 705.332031 242.695312 707.980469 242.292969 709.324219 C 241.914062 710.601562 243.410156 715.628906 253.117188 723.765625 C 263.039062 714.105469 264.035156 708.777344 263.640625 707.757812 C 263.332031 706.960938 260.074219 705.046875 254.4375 705.046875 Z M 254.4375 705.046875 "/><path style=" stroke:none;fill-rule:nonzero;fill:#000000;fill-opacity:1;" d="M 223.824219 768.339844 C 220.371094 768.339844 217.003906 766.597656 215.066406 763.441406 C 212.105469 758.613281 213.621094 752.296875 218.449219 749.335938 C 230 742.253906 239.613281 735.496094 247.03125 729.25 C 251.367188 725.597656 257.835938 726.148438 261.488281 730.484375 C 265.136719 734.816406 264.585938 741.285156 260.25 744.9375 C 252.050781 751.847656 241.59375 759.210938 229.171875 766.828125 C 227.5 767.851562 225.652344 768.339844 223.824219 768.339844 Z M 223.824219 768.339844 "/><g clip-rule="nonzero" clip-path="url(#4c105ad8da)"><path style=" stroke:none;fill-rule:nonzero;fill:#000000;fill-opacity:1;" d="M 505.113281 756.871094 L 445.386719 756.871094 C 439.722656 756.871094 435.128906 752.28125 435.128906 746.613281 C 435.128906 740.945312 439.722656 736.355469 445.386719 736.355469 L 494.851562 736.355469 L 494.851562 122.046875 L 80.320312 122.046875 L 80.320312 171.511719 C 80.320312 177.175781 75.726562 181.769531 70.0625 181.769531 C 64.398438 181.769531 59.804688 177.175781 59.804688 171.511719 L 59.804688 111.789062 C 59.804688 106.125 64.398438 101.53125 70.0625 101.53125 L 505.113281 101.53125 C 510.777344 101.53125 515.371094 106.125 515.371094 111.789062 L 515.371094 746.613281 C 515.371094 752.28125 510.777344 756.871094 505.113281 756.871094 Z M 505.113281 756.871094 "/></g><path style=" stroke:none;fill-rule:nonzero;fill:#000000;fill-opacity:1;" d="M 96.859375 469.484375 C 74.640625 469.484375 56.5625 451.40625 56.5625 429.191406 C 56.5625 406.972656 74.640625 388.894531 96.859375 388.894531 C 119.078125 388.894531 137.152344 406.972656 137.152344 429.191406 C 137.152344 451.410156 119.074219 469.484375 96.859375 469.484375 Z M 96.859375 409.414062 C 85.953125 409.414062 77.078125 418.285156 77.078125 429.191406 C 77.078125 440.097656 85.953125 448.972656 96.859375 448.972656 C 107.765625 448.972656 116.636719 440.097656 116.636719 429.191406 C 116.636719 418.285156 107.761719 409.414062 96.859375 409.414062 Z M 96.859375 409.414062 "/><path style=" stroke:none;fill-rule:nonzero;fill:#000000;fill-opacity:1;" d="M 680.363281 605.875 C 674.695312 605.875 670.105469 601.28125 670.105469 595.617188 L 670.105469 554.726562 C 670.105469 549.0625 674.695312 544.46875 680.363281 544.46875 C 686.027344 544.46875 690.621094 549.0625 690.621094 554.726562 L 690.621094 595.617188 C 690.621094 601.28125 686.027344 605.875 680.363281 605.875 Z M 680.363281 605.875 "/><path style=" stroke:none;fill-rule:nonzero;fill:#000000;fill-opacity:1;" d="M 726.949219 582.445312 C 708.101562 582.445312 689.269531 575.925781 673.777344 562.964844 C 650.800781 543.761719 637.707031 512.605469 636.910156 475.242188 C 636.789062 469.578125 641.285156 464.886719 646.949219 464.769531 C 652.582031 464.609375 657.304688 469.140625 657.421875 474.804688 C 658.085938 506.15625 668.574219 531.875 686.9375 547.226562 C 709.542969 566.148438 741.566406 566.828125 764.820312 548.902344 C 784.355469 533.84375 795.566406 507.765625 796.386719 475.484375 C 796.527344 469.820312 801.289062 465.363281 806.898438 465.492188 C 812.566406 465.632812 817.039062 470.339844 816.894531 476.003906 C 815.914062 514.585938 801.871094 546.246094 777.347656 565.152344 C 762.363281 576.699219 744.648438 582.445312 726.949219 582.445312 Z M 726.949219 582.445312 "/><path style=" stroke:none;fill-rule:nonzero;fill:#000000;fill-opacity:1;" d="M 806.640625 486 C 805.800781 486 804.953125 485.898438 804.113281 485.683594 C 799.566406 484.527344 796.382812 480.433594 796.382812 475.742188 L 796.382812 475.675781 C 795.269531 439.871094 787.449219 423.152344 782.894531 416.390625 C 743.582031 437.582031 711.851562 425.59375 690.441406 417.503906 C 679.609375 413.410156 674.757812 411.988281 672.355469 412.519531 C 671.699219 447.632812 657.046875 478.171875 656.398438 479.507812 C 654.820312 482.75 651.65625 484.929688 648.066406 485.242188 C 644.472656 485.574219 640.980469 483.960938 638.867188 481.042969 C 614.265625 447.109375 612.484375 409.402344 633.847656 374.875 C 658.757812 334.621094 711.160156 308.550781 753.144531 315.519531 C 782.746094 320.4375 803.46875 340.410156 811.824219 371.925781 C 854.8125 407.285156 817.3125 477.597656 815.65625 480.644531 C 813.828125 484 810.332031 486 806.640625 486 Z M 738.980469 334.898438 C 707.074219 334.898438 669.671875 355.964844 651.292969 385.667969 C 641.589844 401.355469 633.875 424.367188 645.210938 451.09375 C 648.71875 439.570312 652.125 424.132812 651.84375 408.222656 C 651.808594 406.167969 652.390625 404.148438 653.511719 402.429688 C 664.417969 385.742188 682.09375 392.421875 697.691406 398.3125 C 718.832031 406.300781 745.144531 416.242188 779.15625 394.828125 C 782.335938 392.828125 786.347656 392.722656 789.628906 394.550781 C 792.578125 396.203125 803.84375 404.042969 810.976562 430.398438 C 813.304688 414.074219 811.261719 396.660156 796.722656 386.1875 C 794.699219 384.726562 793.273438 382.582031 792.71875 380.152344 C 786.921875 354.816406 772.074219 339.464844 749.777344 335.765625 C 746.277344 335.179688 742.664062 334.898438 738.980469 334.898438 Z M 738.980469 334.898438 "/><path style=" stroke:none;fill-rule:nonzero;fill:#000000;fill-opacity:1;" d="M 755.945312 681.722656 C 753.277344 681.722656 750.699219 680.679688 748.773438 678.796875 L 718.558594 649.28125 C 714.503906 645.320312 714.425781 638.828125 718.382812 634.773438 C 722.34375 630.722656 728.839844 630.644531 732.890625 634.601562 L 754.375 655.589844 L 799.117188 590.195312 C 802.316406 585.519531 808.699219 584.320312 813.375 587.519531 C 818.050781 590.722656 819.246094 597.105469 816.050781 601.777344 L 764.410156 677.253906 C 762.699219 679.757812 759.96875 681.375 756.949219 681.671875 C 756.613281 681.703125 756.277344 681.722656 755.945312 681.722656 Z M 755.945312 681.722656 "/><g clip-rule="nonzero" clip-path="url(#0d6ed55b24)"><path style=" stroke:none;fill-rule:nonzero;fill:#000000;fill-opacity:1;" d="M 750.761719 816.59375 C 745.695312 816.59375 741.292969 812.847656 740.605469 807.691406 L 723.902344 682.402344 C 723.15625 676.789062 727.101562 671.628906 732.714844 670.878906 C 738.351562 670.117188 743.492188 674.078125 744.238281 679.691406 L 760.941406 804.980469 C 761.691406 810.59375 757.742188 815.753906 752.128906 816.503906 C 751.671875 816.5625 751.210938 816.59375 750.761719 816.59375 Z M 750.761719 816.59375 "/></g><g clip-rule="nonzero" clip-path="url(#8e695fe690)"><path style=" stroke:none;fill-rule:nonzero;fill:#000000;fill-opacity:1;" d="M 892.707031 816.59375 L 558.742188 816.59375 C 553.074219 816.59375 548.484375 812 548.484375 806.335938 L 548.484375 689.046875 C 548.484375 635.863281 589.980469 590.5 642.953125 585.769531 C 645.96875 585.496094 649.074219 585.359375 652.171875 585.359375 L 680.363281 585.359375 C 683.121094 585.359375 685.761719 586.46875 687.691406 588.441406 L 725.722656 627.28125 L 763.753906 588.441406 C 765.683594 586.46875 768.324219 585.359375 771.082031 585.359375 L 799.273438 585.359375 C 802.371094 585.359375 805.472656 585.496094 808.503906 585.769531 C 861.464844 590.5 902.960938 635.863281 902.960938 689.046875 L 902.960938 806.335938 C 902.964844 812 898.371094 816.59375 892.707031 816.59375 Z M 569 796.078125 L 882.449219 796.078125 L 882.449219 689.046875 C 882.449219 646.386719 849.160156 610 806.671875 606.203125 C 804.242188 605.984375 801.753906 605.875 799.273438 605.875 L 775.394531 605.875 L 733.050781 649.117188 C 731.125 651.089844 728.480469 652.199219 725.722656 652.199219 C 722.964844 652.199219 720.324219 651.089844 718.394531 649.117188 L 676.050781 605.875 L 652.171875 605.875 C 649.691406 605.875 647.203125 605.984375 644.785156 606.203125 C 602.28125 610 569 646.386719 569 689.046875 Z M 569 796.078125 "/></g><g clip-rule="nonzero" clip-path="url(#118ef0b317)"><path style=" stroke:none;fill-rule:nonzero;fill:#000000;fill-opacity:1;" d="M 625.828125 816.59375 C 620.164062 816.59375 615.570312 812 615.570312 806.335938 L 615.570312 688.0625 C 615.570312 682.394531 620.164062 677.804688 625.828125 677.804688 C 631.496094 677.804688 636.085938 682.394531 636.085938 688.0625 L 636.085938 806.332031 C 636.085938 812 631.496094 816.59375 625.828125 816.59375 Z M 625.828125 816.59375 "/></g><path style=" stroke:none;fill-rule:nonzero;fill:#000000;fill-opacity:1;" d="M 695.523438 681.722656 C 695.1875 681.722656 694.855469 681.703125 694.519531 681.671875 C 691.5 681.375 688.769531 679.757812 687.058594 677.257812 L 635.398438 601.785156 C 632.199219 597.109375 633.394531 590.722656 638.070312 587.523438 C 642.746094 584.324219 649.132812 585.523438 652.328125 590.195312 L 697.085938 655.59375 L 699.285156 653.441406 C 703.339844 649.480469 709.832031 649.554688 713.792969 653.605469 C 717.753906 657.660156 717.679688 664.152344 713.628906 668.109375 L 702.691406 678.800781 C 700.765625 680.679688 698.1875 681.722656 695.523438 681.722656 Z M 695.523438 681.722656 "/><path style=" stroke:none;fill-rule:nonzero;fill:#000000;fill-opacity:1;" d="M 706.457031 671.011719 C 703.792969 671.011719 701.128906 669.976562 699.121094 667.921875 C 695.160156 663.867188 695.238281 657.371094 699.292969 653.414062 L 718.558594 634.601562 C 722.613281 630.644531 729.105469 630.722656 733.0625 634.773438 C 737.023438 638.828125 736.945312 645.324219 732.890625 649.28125 L 713.625 668.09375 C 711.628906 670.042969 709.042969 671.011719 706.457031 671.011719 Z M 706.457031 671.011719 "/><path style=" stroke:none;fill-rule:nonzero;fill:#000000;fill-opacity:1;" d="M 734.074219 691.300781 L 717.375 691.300781 C 713.597656 691.300781 710.128906 689.230469 708.34375 685.90625 L 697.425781 665.636719 C 696.621094 664.140625 696.199219 662.46875 696.199219 660.773438 C 696.199219 655.105469 700.792969 650.503906 706.457031 650.503906 C 710.53125 650.503906 714.050781 652.875 715.707031 656.3125 L 723.5 670.785156 L 727.941406 670.785156 L 735.953125 655.894531 C 738.640625 650.898438 744.863281 649.039062 749.847656 651.71875 C 754.839844 654.40625 756.707031 660.621094 754.019531 665.609375 L 743.105469 685.902344 C 741.316406 689.230469 737.847656 691.300781 734.074219 691.300781 Z M 734.074219 691.300781 "/><g clip-rule="nonzero" clip-path="url(#dbf541df36)"><path style=" stroke:none;fill-rule:nonzero;fill:#000000;fill-opacity:1;" d="M 700.683594 816.59375 C 700.234375 816.59375 699.777344 816.5625 699.320312 816.503906 C 693.703125 815.753906 689.757812 810.59375 690.503906 804.980469 L 707.207031 679.691406 C 707.953125 674.078125 713.121094 670.132812 718.726562 670.878906 C 724.34375 671.625 728.289062 676.789062 727.542969 682.398438 L 710.839844 807.6875 C 710.15625 812.847656 705.75 816.59375 700.683594 816.59375 Z M 700.683594 816.59375 "/></g><path style=" stroke:none;fill-rule:nonzero;fill:#000000;fill-opacity:1;" d="M 771.085938 605.875 C 765.417969 605.875 760.828125 601.28125 760.828125 595.617188 L 760.828125 556.71875 C 760.828125 551.050781 765.417969 546.460938 771.085938 546.460938 C 776.75 546.460938 781.34375 551.050781 781.34375 556.71875 L 781.34375 595.617188 C 781.34375 601.28125 776.75 605.875 771.085938 605.875 Z M 771.085938 605.875 "/><g clip-rule="nonzero" clip-path="url(#6dcd2e5646)"><path style=" stroke:none;fill-rule:nonzero;fill:#000000;fill-opacity:1;" d="M 825.617188 816.59375 C 819.949219 816.59375 815.359375 812 815.359375 806.335938 L 815.359375 688.0625 C 815.359375 682.394531 819.949219 677.804688 825.617188 677.804688 C 831.285156 677.804688 835.875 682.394531 835.875 688.0625 L 835.875 806.332031 C 835.875 812 831.285156 816.59375 825.617188 816.59375 Z M 825.617188 816.59375 "/></g></g></svg>