<svg xmlns="http://www.w3.org/2000/svg" xmlns:xlink="http://www.w3.org/1999/xlink" width="340" zoomAndPan="magnify" viewBox="0 0 255 50.999998" height="68" preserveAspectRatio="xMidYMid meet" version="1.2"><defs/><g id="758d26188a"><g style="fill:#000000;fill-opacity:1;"><g transform="translate(54.108874, 43.148333)"><path style="stroke:none" d="M 1.640625 -37.25 L 13.09375 -37.25 C 14.914062 -37.25 16.320312 -36.835938 17.3125 -36.015625 C 18.3125 -35.191406 18.984375 -34.035156 19.328125 -32.546875 C 19.679688 -31.054688 19.859375 -29.15625 19.859375 -26.84375 C 19.859375 -24.726562 19.582031 -23.078125 19.03125 -21.890625 C 18.476562 -20.710938 17.523438 -19.890625 16.171875 -19.421875 C 17.296875 -19.191406 18.109375 -18.628906 18.609375 -17.734375 C 19.117188 -16.835938 19.375 -15.625 19.375 -14.09375 L 19.296875 0 L 12.015625 0 L 12.015625 -14.5625 C 12.015625 -15.601562 11.8125 -16.269531 11.40625 -16.5625 C 11 -16.851562 10.257812 -17 9.1875 -17 L 9.1875 0 L 1.640625 0 Z M 11.015625 -23.453125 C 12.054688 -23.453125 12.578125 -24.582031 12.578125 -26.84375 C 12.578125 -27.820312 12.53125 -28.554688 12.4375 -29.046875 C 12.351562 -29.535156 12.195312 -29.875 11.96875 -30.0625 C 11.738281 -30.25 11.40625 -30.34375 10.96875 -30.34375 L 9.234375 -30.34375 L 9.234375 -23.453125 Z M 11.015625 -23.453125 "/></g></g><g style="fill:#000000;fill-opacity:1;"><g transform="translate(74.789134, 43.148333)"><path style="stroke:none" d="M 1.640625 0 L 1.640625 -37.25 L 16.5625 -37.25 L 16.5625 -30.046875 L 9.234375 -30.046875 L 9.234375 -22.8125 L 16.265625 -22.8125 L 16.265625 -15.78125 L 9.234375 -15.78125 L 9.234375 -7.234375 L 17.046875 -7.234375 L 17.046875 0 Z M 1.640625 0 "/></g></g><g style="fill:#000000;fill-opacity:1;"><g transform="translate(92.651322, 43.148333)"><path style="stroke:none" d="M 1.640625 -37.25 L 11.921875 -37.25 C 14.578125 -37.25 16.570312 -36.507812 17.90625 -35.03125 C 19.238281 -33.5625 19.914062 -31.378906 19.9375 -28.484375 L 20.03125 -11.0625 C 20.0625 -7.382812 19.425781 -4.617188 18.125 -2.765625 C 16.820312 -0.921875 14.664062 0 11.65625 0 L 1.640625 0 Z M 10.453125 -6.59375 C 11.804688 -6.59375 12.484375 -7.253906 12.484375 -8.578125 L 12.484375 -27.796875 C 12.484375 -28.628906 12.414062 -29.253906 12.28125 -29.671875 C 12.15625 -30.097656 11.921875 -30.378906 11.578125 -30.515625 C 11.234375 -30.660156 10.695312 -30.734375 9.96875 -30.734375 L 9.15625 -30.734375 L 9.15625 -6.59375 Z M 10.453125 -6.59375 "/></g></g><g style="fill:#000000;fill-opacity:1;"><g transform="translate(114.025255, 43.148333)"><path style="stroke:none" d="M 1.640625 0 L 1.640625 -37.25 L 16.5625 -37.25 L 16.5625 -30.046875 L 9.234375 -30.046875 L 9.234375 -22.8125 L 16.265625 -22.8125 L 16.265625 -15.78125 L 9.234375 -15.78125 L 9.234375 -7.234375 L 17.046875 -7.234375 L 17.046875 0 Z M 1.640625 0 "/></g></g><g style="fill:#000000;fill-opacity:1;"><g transform="translate(131.887443, 43.148333)"><path style="stroke:none" d="M 1.640625 0 L 1.640625 -37.25 L 13 -37.25 L 16.125 -14.53125 L 19.25 -37.25 L 30.703125 -37.25 L 30.703125 0 L 23.890625 0 L 23.890625 -26.84375 L 19.59375 0 L 12.921875 0 L 8.375 -26.84375 L 8.375 0 Z M 1.640625 0 "/></g></g><g style="fill:#000000;fill-opacity:1;"><g transform="translate(164.23016, 43.148333)"><path style="stroke:none" d="M 1.640625 -37.25 L 11.484375 -37.25 C 14.460938 -37.25 16.585938 -36.285156 17.859375 -34.359375 C 19.128906 -32.441406 19.765625 -29.628906 19.765625 -25.921875 C 19.765625 -22.222656 19.203125 -19.429688 18.078125 -17.546875 C 16.953125 -15.671875 14.929688 -14.734375 12.015625 -14.734375 L 8.96875 -14.734375 L 8.96875 0 L 1.640625 0 Z M 9.40625 -21.46875 C 10.300781 -21.46875 10.957031 -21.628906 11.375 -21.953125 C 11.800781 -22.285156 12.078125 -22.765625 12.203125 -23.390625 C 12.335938 -24.015625 12.40625 -24.90625 12.40625 -26.0625 C 12.40625 -27.625 12.226562 -28.75 11.875 -29.4375 C 11.53125 -30.132812 10.835938 -30.484375 9.796875 -30.484375 L 8.96875 -30.484375 L 8.96875 -21.46875 Z M 9.40625 -21.46875 "/></g></g><g style="fill:#000000;fill-opacity:1;"><g transform="translate(184.693639, 43.148333)"><path style="stroke:none" d="M 4.859375 0 L 4.859375 -30.09375 L 0.4375 -30.09375 L 0.4375 -37.25 L 16.734375 -37.25 L 16.734375 -30.09375 L 12.3125 -30.09375 L 12.3125 0 Z M 4.859375 0 "/></g></g><g style="fill:#000000;fill-opacity:1;"><g transform="translate(201.862153, 43.148333)"><path style="stroke:none" d="M 1.296875 0 L 1.296875 -37.25 L 8.5 -37.25 L 8.5 0 Z M 1.296875 0 "/></g></g><g style="fill:#000000;fill-opacity:1;"><g transform="translate(211.703701, 43.148333)"><path style="stroke:none" d="M 10.53125 0.34375 C 7.53125 0.34375 5.25 -0.570312 3.6875 -2.40625 C 2.125 -4.238281 1.34375 -6.816406 1.34375 -10.140625 L 1.34375 -27.875 C 1.34375 -31.082031 2.125 -33.503906 3.6875 -35.140625 C 5.25 -36.773438 7.53125 -37.59375 10.53125 -37.59375 C 13.539062 -37.59375 15.828125 -36.773438 17.390625 -35.140625 C 18.953125 -33.503906 19.734375 -31.082031 19.734375 -27.875 L 19.734375 -10.140625 C 19.734375 -6.785156 18.953125 -4.195312 17.390625 -2.375 C 15.828125 -0.5625 13.539062 0.34375 10.53125 0.34375 Z M 10.53125 -6.5 C 11.195312 -6.5 11.644531 -6.785156 11.875 -7.359375 C 12.113281 -7.941406 12.234375 -8.753906 12.234375 -9.796875 L 12.234375 -28.015625 C 12.234375 -28.816406 12.125 -29.46875 11.90625 -29.96875 C 11.6875 -30.476562 11.242188 -30.734375 10.578125 -30.734375 C 9.335938 -30.734375 8.71875 -29.796875 8.71875 -27.921875 L 8.71875 -9.75 C 8.71875 -8.6875 8.847656 -7.878906 9.109375 -7.328125 C 9.367188 -6.773438 9.84375 -6.5 10.53125 -6.5 Z M 10.53125 -6.5 "/></g></g><g style="fill:#000000;fill-opacity:1;"><g transform="translate(232.77416, 43.148333)"><path style="stroke:none" d="M 1.640625 0 L 1.640625 -37.25 L 9.328125 -37.25 L 12.75 -19.421875 L 12.75 -37.25 L 19.9375 -37.25 L 19.9375 0 L 12.65625 0 L 8.9375 -18.640625 L 8.9375 0 Z M 1.640625 0 "/></g></g><path style=" stroke:none;fill-rule:evenodd;fill:#008000;fill-opacity:1;" d="M 12.265625 0 C 5.703125 0 0.378906 5.320312 0.378906 11.886719 L 0.378906 39.054688 C 0.378906 45.617188 5.703125 50.941406 12.265625 50.941406 L 39.433594 50.941406 C 46 50.941406 51.320312 45.617188 51.320312 39.054688 L 51.320312 11.886719 C 51.320312 5.320312 46 0 39.433594 0 Z M 10.699219 17.828125 L 10.699219 10.1875 L 25.984375 17.828125 L 25.984375 25.46875 Z M 25.984375 33.113281 L 25.984375 25.46875 L 10.699219 33.113281 L 10.699219 40.753906 Z M 41.265625 25.46875 L 25.984375 17.828125 L 25.984375 10.1875 L 41.265625 17.828125 Z M 41.265625 25.46875 L 25.984375 33.113281 L 25.984375 40.753906 L 41.265625 33.113281 Z M 41.265625 25.46875 "/></g></svg>