<svg xmlns="http://www.w3.org/2000/svg" xmlns:xlink="http://www.w3.org/1999/xlink" width="367" zoomAndPan="magnify" viewBox="0 0 275.25 92.249997" height="123" preserveAspectRatio="xMidYMid meet" version="1.0"><defs><g/><clipPath id="ec0672d63d"><path d="M 1 20.195312 L 52 20.195312 L 52 70.785156 L 1 70.785156 Z M 1 20.195312 " clip-rule="nonzero"/></clipPath></defs><g fill="#ffffff" fill-opacity="1"><g transform="translate(54.410415, 62.797756)"><g><path d="M 1.640625 -36.9375 L 12.984375 -36.9375 C 14.785156 -36.9375 16.179688 -36.523438 17.171875 -35.703125 C 18.160156 -34.890625 18.828125 -33.742188 19.171875 -32.265625 C 19.515625 -30.796875 19.6875 -28.910156 19.6875 -26.609375 C 19.6875 -24.523438 19.414062 -22.894531 18.875 -21.71875 C 18.332031 -20.539062 17.382812 -19.722656 16.03125 -19.265625 C 17.15625 -19.035156 17.96875 -18.472656 18.46875 -17.578125 C 18.96875 -16.691406 19.21875 -15.488281 19.21875 -13.96875 L 19.140625 0 L 11.90625 0 L 11.90625 -14.453125 C 11.90625 -15.484375 11.703125 -16.140625 11.296875 -16.421875 C 10.898438 -16.710938 10.171875 -16.859375 9.109375 -16.859375 L 9.109375 0 L 1.640625 0 Z M 10.921875 -23.265625 C 11.953125 -23.265625 12.46875 -24.378906 12.46875 -26.609375 C 12.46875 -27.585938 12.425781 -28.320312 12.34375 -28.8125 C 12.257812 -29.300781 12.101562 -29.632812 11.875 -29.8125 C 11.644531 -30 11.3125 -30.09375 10.875 -30.09375 L 9.15625 -30.09375 L 9.15625 -23.265625 Z M 10.921875 -23.265625 "/></g></g></g><g fill="#ffffff" fill-opacity="1"><g transform="translate(74.923899, 62.797756)"><g><path d="M 1.640625 0 L 1.640625 -36.9375 L 16.421875 -36.9375 L 16.421875 -29.796875 L 9.15625 -29.796875 L 9.15625 -22.625 L 16.125 -22.625 L 16.125 -15.65625 L 9.15625 -15.65625 L 9.15625 -7.1875 L 16.90625 -7.1875 L 16.90625 0 Z M 1.640625 0 "/></g></g></g><g fill="#ffffff" fill-opacity="1"><g transform="translate(92.642037, 62.797756)"><g><path d="M 1.640625 -36.9375 L 11.828125 -36.9375 C 14.460938 -36.9375 16.4375 -36.203125 17.75 -34.734375 C 19.070312 -33.273438 19.75 -31.113281 19.78125 -28.25 L 19.859375 -10.96875 C 19.890625 -7.320312 19.257812 -4.582031 17.96875 -2.75 C 16.675781 -0.914062 14.539062 0 11.5625 0 L 1.640625 0 Z M 10.359375 -6.53125 C 11.710938 -6.53125 12.390625 -7.191406 12.390625 -8.515625 L 12.390625 -27.5625 C 12.390625 -28.394531 12.320312 -29.019531 12.1875 -29.4375 C 12.0625 -29.851562 11.828125 -30.128906 11.484375 -30.265625 C 11.140625 -30.410156 10.609375 -30.484375 9.890625 -30.484375 L 9.078125 -30.484375 L 9.078125 -6.53125 Z M 10.359375 -6.53125 "/></g></g></g><g fill="#ffffff" fill-opacity="1"><g transform="translate(113.8436, 62.797756)"><g><path d="M 1.640625 0 L 1.640625 -36.9375 L 16.421875 -36.9375 L 16.421875 -29.796875 L 9.15625 -29.796875 L 9.15625 -22.625 L 16.125 -22.625 L 16.125 -15.65625 L 9.15625 -15.65625 L 9.15625 -7.1875 L 16.90625 -7.1875 L 16.90625 0 Z M 1.640625 0 "/></g></g></g><g fill="#ffffff" fill-opacity="1"><g transform="translate(131.561738, 62.797756)"><g><path d="M 1.640625 0 L 1.640625 -36.9375 L 12.90625 -36.9375 L 16 -14.40625 L 19.09375 -36.9375 L 30.4375 -36.9375 L 30.4375 0 L 23.6875 0 L 23.6875 -26.609375 L 19.4375 0 L 12.8125 0 L 8.296875 -26.609375 L 8.296875 0 Z M 1.640625 0 "/></g></g></g><g fill="#ffffff" fill-opacity="1"><g transform="translate(163.643627, 62.797756)"><g><path d="M 1.640625 -36.9375 L 11.390625 -36.9375 C 14.347656 -36.9375 16.457031 -35.984375 17.71875 -34.078125 C 18.976562 -32.171875 19.609375 -29.382812 19.609375 -25.71875 C 19.609375 -22.039062 19.046875 -19.269531 17.921875 -17.40625 C 16.804688 -15.550781 14.800781 -14.625 11.90625 -14.625 L 8.90625 -14.625 L 8.90625 0 L 1.640625 0 Z M 9.328125 -21.28125 C 10.210938 -21.28125 10.863281 -21.445312 11.28125 -21.78125 C 11.695312 -22.113281 11.96875 -22.585938 12.09375 -23.203125 C 12.226562 -23.816406 12.296875 -24.695312 12.296875 -25.84375 C 12.296875 -27.394531 12.125 -28.515625 11.78125 -29.203125 C 11.4375 -29.890625 10.75 -30.234375 9.71875 -30.234375 L 8.90625 -30.234375 L 8.90625 -21.28125 Z M 9.328125 -21.28125 "/></g></g></g><g fill="#ffffff" fill-opacity="1"><g transform="translate(183.942078, 62.797756)"><g><path d="M 4.8125 0 L 4.8125 -29.84375 L 0.4375 -29.84375 L 0.4375 -36.9375 L 16.59375 -36.9375 L 16.59375 -29.84375 L 12.21875 -29.84375 L 12.21875 0 Z M 4.8125 0 "/></g></g></g><g fill="#ffffff" fill-opacity="1"><g transform="translate(200.972136, 62.797756)"><g><path d="M 1.296875 0 L 1.296875 -36.9375 L 8.421875 -36.9375 L 8.421875 0 Z M 1.296875 0 "/></g></g></g><g fill="#ffffff" fill-opacity="1"><g transform="translate(210.734317, 62.797756)"><g><path d="M 10.453125 0.34375 C 7.472656 0.34375 5.207031 -0.5625 3.65625 -2.375 C 2.101562 -4.195312 1.328125 -6.757812 1.328125 -10.0625 L 1.328125 -27.65625 C 1.328125 -30.832031 2.101562 -33.226562 3.65625 -34.84375 C 5.207031 -36.46875 7.472656 -37.28125 10.453125 -37.28125 C 13.429688 -37.28125 15.691406 -36.46875 17.234375 -34.84375 C 18.785156 -33.226562 19.5625 -30.832031 19.5625 -27.65625 L 19.5625 -10.0625 C 19.5625 -6.738281 18.785156 -4.171875 17.234375 -2.359375 C 15.691406 -0.554688 13.429688 0.34375 10.453125 0.34375 Z M 10.453125 -6.453125 C 11.109375 -6.453125 11.550781 -6.738281 11.78125 -7.3125 C 12.007812 -7.882812 12.125 -8.6875 12.125 -9.71875 L 12.125 -27.78125 C 12.125 -28.582031 12.015625 -29.234375 11.796875 -29.734375 C 11.585938 -30.234375 11.148438 -30.484375 10.484375 -30.484375 C 9.253906 -30.484375 8.640625 -29.550781 8.640625 -27.6875 L 8.640625 -9.671875 C 8.640625 -8.609375 8.769531 -7.804688 9.03125 -7.265625 C 9.289062 -6.722656 9.765625 -6.453125 10.453125 -6.453125 Z M 10.453125 -6.453125 "/></g></g></g><g fill="#ffffff" fill-opacity="1"><g transform="translate(231.634854, 62.797756)"><g><path d="M 1.640625 0 L 1.640625 -36.9375 L 9.25 -36.9375 L 12.640625 -19.265625 L 12.640625 -36.9375 L 19.78125 -36.9375 L 19.78125 0 L 12.5625 0 L 8.859375 -18.484375 L 8.859375 0 Z M 1.640625 0 "/></g></g></g><g clip-path="url(#ec0672d63d)"><path fill="#ffffff" d="M 12.917969 20.195312 C 6.398438 20.195312 1.117188 25.480469 1.117188 32 L 1.117188 58.980469 C 1.117188 65.5 6.398438 70.785156 12.917969 70.785156 L 39.898438 70.785156 C 46.417969 70.785156 51.703125 65.5 51.703125 58.980469 L 51.703125 32 C 51.703125 25.480469 46.417969 20.195312 39.898438 20.195312 Z M 11.363281 37.902344 L 11.363281 30.3125 L 26.542969 37.902344 L 26.542969 45.488281 Z M 26.542969 53.078125 L 26.542969 45.488281 L 11.363281 53.078125 L 11.363281 60.667969 Z M 41.71875 45.488281 L 26.542969 37.902344 L 26.542969 30.3125 L 41.71875 37.902344 Z M 41.71875 45.488281 L 26.542969 53.078125 L 26.542969 60.667969 L 41.71875 53.078125 Z M 41.71875 45.488281 " fill-opacity="1" fill-rule="evenodd"/></g></svg>