
        <svg xmlns="http://www.w3.org/2000/svg" xmlns:xlink="http://www.w3.org/1999/xlink" version="1.1" width="3162.1621621621625" height="814.7309740405871" viewBox="0 0 3162.1621621621625 814.7309740405871">
			
			<g transform="scale(8.108108108108109) translate(10, 10)">
				<defs id="SvgjsDefs1686"/><g id="SvgjsG1687" featureKey="4yrtKO-0" transform="matrix(1.3086754750007703,0,0,1.3086754750007703,293.1215985283563,-1.6358443437509629)" fill="#000"><g xmlns="http://www.w3.org/2000/svg"><path d="M58.085,45.145c-1.916-3.499-5.489-1.131-5.489-1.131l-9.499,5.33c-0.264,0.148-0.51,0.337-0.729,0.546   c-9.537,9.1-18.342,2.018-18.342,2.018c5.96,2.093,11.71,0.399,14.29-1.728c2.359-1.867,2.278-4.111-2.296-4.419   c-6.796-0.459-9.061-1.659-9.815-2.436c-0.793-0.818-1.642-1.593-2.657-2.113c-9.277-4.75-18.292,3.305-18.292,3.305l0.534,0.991   l6.028,11.197l0.929,1.728c0.029,0.054,0.094,0.082,0.151,0.06l0.001,0c0.796-0.302,1.526-0.844,2.201-1.387   c1.571-1.262,3.096-1.201,4.827-0.245c3.004,1.662,6.11,3.138,9.137,4.761c0.663,0.356,1.32,0.641,1.969,0.851   c0.004,0.001,0.008,0.002,0.013,0.003c2.498,0.559,4.693,0.179,6.335-0.393c1.863-0.648,3.014-1.543,3.086-1.601   c0.003-0.002,0.005-0.004,0.008-0.006l16.029-10.546c0.754-0.523,1.3-1.037,1.674-1.526C59.204,47.062,58.629,46.14,58.085,45.145z   "/><g><path d="M47.768,17.058c-3.713,2.027-7.215,3.773-10.153,6.415c-1.812,1.629-3.078,3.613-3.651,5.992    c-0.564,2.34-0.486,4.707-0.139,7.07c0.064,0.439,0.155,0.876,0.262,1.422c0.812-2.238,2.07-5.064,3.995-7.933    c3.026-4.51,6.202-6.893,7.893-7.99l-10.908,15.93c2.007-0.908,3.92-1.744,5.79-2.67c4.562-2.259,7.127-5.848,7.089-11.062    C47.928,21.913,47.833,19.594,47.768,17.058z"/><path d="M37.325,11.744C36.443,7.85,34.04,4.722,31.96,1.25c-1.917,3.053-3.957,5.834-5.166,9.09    c-0.739,1.99-0.708,3.988,0.062,5.97c1.08,2.78,2.769,5.199,4.406,7.647c-0.333-1.574-0.599-3.326-0.714-5.21    c-0.331-5.421,0.747-9.242,1.426-11.14l0.844,16.338c1.359-2.423,2.743-4.832,4.023-7.296    C37.632,15.124,37.698,13.395,37.325,11.744z"/><path d="M25.336,33.866c-3.117-4.014-4.79-8.038-5.594-10.285l10.432,13.178c0.102-1.583,0.21-3.076,0.203-4.569    c-0.016-3.219-1.211-5.993-3.519-8.259c-2.982-2.929-6.71-4.699-10.375-6.751c-0.117,0.273-0.21,0.392-0.214,0.515    c-0.081,2.406-0.287,4.818-0.188,7.217c0.108,2.606,0.796,5.098,2.654,7.084c2.808,3.003,6.506,4.413,10.412,5.979    C27.939,36.892,26.637,35.543,25.336,33.866z"/></g></g></g><g id="SvgjsG1688" featureKey="Gem1BN-0" transform="matrix(1.8362823799717005,0,0,1.8362823799717005,-1.4322997660376302,-3.9358363454237253)" fill="#000"><path d="M0.78 20 l0 -2.32 l1.44 0 l0 -8.58 l-1.44 0 l0 -2.32 l6.62 0 c3.66 0 4.96 1.64 4.96 3.76 c0 1.98 -1.12 3.04 -2.34 3.62 c0.52 0.28 0.9 0.8 1.24 1.74 c0.28 0.78 0.4 1.5 1.7 1.5 l0.16 0 l-0.58 2.72 c-0.28 0.04 -0.54 0.06 -0.78 0.06 c-2.52 0 -3.16 -1.82 -3.66 -3.16 c-0.58 -1.82 -0.78 -1.98 -1.9 -1.98 l-0.62 0 l0 2.64 l1.44 0 l0 2.32 l-6.24 0 z M5.58 12.52 l1.74 0 c1.22 0 1.68 -0.76 1.68 -1.54 c0 -1.22 -0.56 -1.68 -1.68 -1.68 l-1.74 0 l0 3.22 z M16.198 20 l0 -2.32 l1.48 0 l0 -8.58 l-1.48 0 l0 -2.32 l10.56 0 l0 4.26 l-2.52 0 l0 -1.74 l-3.22 0 l0 2.78 l3.78 0 l0 2.52 l-3.78 0 l0 2.88 l3.34 0 l0 -1.94 l2.52 0 l0 4.46 l-10.68 0 z M30.436000000000003 20 l0 -2.32 l1.44 0 l0 -8.58 l-1.44 0 l0 -2.32 l6.86 0 c4.34 0 6.46 2.66 6.46 6.36 c0 3.56 -1.98 6.86 -6.44 6.86 l-6.88 0 z M35.236000000000004 17.48 l2 0 c1.98 0 2.98 -1.42 2.98 -4.2 c0 -2.72 -0.96 -3.98 -3.1 -3.98 l-1.88 0 l0 8.18 z M47.074000000000005 20 l0 -2.32 l1.48 0 l0 -8.58 l-1.48 0 l0 -2.32 l10.56 0 l0 4.26 l-2.52 0 l0 -1.74 l-3.22 0 l0 2.78 l3.78 0 l0 2.52 l-3.78 0 l0 2.88 l3.34 0 l0 -1.94 l2.52 0 l0 4.46 l-10.68 0 z M61.31200000000001 20 l0 -2.32 l1.44 0 l0 -8.58 l-1.44 0 l0 -2.32 l6.34 0 l2.64 7.68 l2.62 -7.68 l6.22 0 l0 2.32 l-1.44 0 l0 8.58 l1.44 0 l0 2.32 l-6.04 0 l0 -2.32 l1.34 0 l0 -7.28 l-3.32 9.6 l-1.8 0 l-3.3 -9.54 l0 7.22 l1.34 0 l0 2.32 l-6.04 0 z M82.63000000000001 20 l0 -2.32 l1.44 0 l0 -8.58 l-1.44 0 l0 -2.32 l6.24 0 c3.88 0 5.42 1.62 5.42 4.52 c0 2.7 -1.5 4.48 -5.7 4.48 l-1.16 0 l0 1.9 l1.64 0 l0 2.32 l-6.44 0 z M87.43 13.26 l1.14 0 c1.48 0 2.22 -0.58 2.22 -2 c0 -1.52 -0.84 -1.98 -2.04 -1.98 l-1.32 0 l0 3.98 z M100.00800000000001 20 l0 -2.32 l1.44 0 l0 -8.38 l-2.02 0 l0 2.04 l-2.52 0 l0 -4.56 l12.44 0 l0 4.56 l-2.52 0 l0 -2.04 l-2.02 0 l0 8.38 l1.44 0 l0 2.32 l-6.24 0 z M112.38600000000001 20 l0 -2.32 l1.44 0 l0 -8.58 l-1.44 0 l0 -2.32 l6.24 0 l0 2.32 l-1.44 0 l0 8.58 l1.44 0 l0 2.32 l-6.24 0 z M128.484 20.28 c-4.3 0 -6.52 -2.92 -6.52 -6.92 c0 -4.1 2.32 -6.86 6.64 -6.86 c4.08 0 6.54 2.46 6.54 6.7 c0 4.1 -2.32 7.08 -6.66 7.08 z M128.544 17.5 c1.88 0 3.06 -1.24 3.06 -4.16 c0 -2.88 -1.14 -4.06 -3.02 -4.06 c-1.94 0 -3.08 1.26 -3.08 4.1 c0 2.88 1.16 4.12 3.04 4.12 z M138.482 20 l0 -2.32 l1.44 0 l0 -8.58 l-1.44 0 l0 -2.32 l4.7 0 l5.44 8.04 l0 -5.72 l-1.44 0 l0 -2.32 l6.08 0 l0 2.32 l-1.44 0 l0 10.9 l-3.28 0 l-5.42 -7.92 l0 5.6 l1.44 0 l0 2.32 l-6.08 0 z"/></g><g id="SvgjsG1689" featureKey="Gem1BN-1" transform="matrix(2.0804850558899752,0,0,2.0804850558899752,-1.5811686226353296,29.47684614466258)" fill="#000"><path d="M0.76 20 l0 -2.32 l1.48 0 l0 -8.58 l-1.44 0 l0 -2.32 l6.24 0 l0 2.32 l-1.44 0 l0 8.38 l3.46 0 l0 -2.04 l2.52 0 l0 4.56 l-10.82 0 z M14.118000000000002 20 l0 -2.32 l1.02 0 l3.92 -10.9 l3.08 0 l4.34 10.9 l1.04 0 l0 2.32 l-5.52 0 l0 -2.32 l1.24 0 l-0.5 -1.32 l-4.24 0 l-0.44 1.32 l1.26 0 l0 2.32 l-5.2 0 z M19.238 14.04 l2.66 0 l-1.42 -4.02 z M34.71600000000001 20 l-3.94 -10.9 l-1.02 0 l0 -2.32 l5.84 0 l0 2.32 l-1.34 0 l2.12 6.3 l2.22 -6.3 l-1.38 0 l0 -2.32 l5.42 0 l0 2.32 l-1.32 0 l2.28 6.3 l2.02 -6.3 l-1.32 0 l0 -2.32 l5.72 0 l0 2.32 l-1.12 0 l-3.72 10.9 l-2.8 0 l-2.48 -6.76 l-2.38 6.76 l-2.8 0 z M68.572 20 l-0.3 -1.22 c-0.74 0.94 -1.82 1.5 -3.5 1.5 c-4.02 0 -6.2 -2.8 -6.2 -6.96 c0 -4.18 2.22 -6.82 6.68 -6.82 c3.6 0 5.36 1.78 5.36 3.56 c0 0.12 0 0.26 -0.02 0.38 l-3.3 0.68 l0 -0.22 c0 -1.04 -0.7 -1.62 -2.1 -1.62 c-2.78 0 -3.08 2 -3.08 3.96 c0 2.66 0.68 4.26 3.14 4.26 c0.92 0 2.18 -0.28 2.18 -1.1 l0 -0.98 l-2.2 0 l0 -2.32 l6.34 0 l0 2.32 l-0.98 0 l0 4.58 l-2.02 0 z M74.73 20 l0 -2.32 l1.44 0 l0 -8.58 l-1.44 0 l0 -2.32 l6.62 0 c3.66 0 4.96 1.64 4.96 3.76 c0 1.98 -1.12 3.04 -2.34 3.62 c0.52 0.28 0.9 0.8 1.24 1.74 c0.28 0.78 0.4 1.5 1.7 1.5 l0.16 0 l-0.58 2.72 c-0.28 0.04 -0.54 0.06 -0.78 0.06 c-2.52 0 -3.16 -1.82 -3.66 -3.16 c-0.58 -1.82 -0.78 -1.98 -1.9 -1.98 l-0.62 0 l0 2.64 l1.44 0 l0 2.32 l-6.24 0 z M79.53 12.52 l1.74 0 c1.22 0 1.68 -0.76 1.68 -1.54 c0 -1.22 -0.56 -1.68 -1.68 -1.68 l-1.74 0 l0 3.22 z M96.528 20.28 c-4.3 0 -6.52 -2.92 -6.52 -6.92 c0 -4.1 2.32 -6.86 6.64 -6.86 c4.08 0 6.54 2.46 6.54 6.7 c0 4.1 -2.32 7.08 -6.66 7.08 z M96.58800000000001 17.5 c1.88 0 3.06 -1.24 3.06 -4.16 c0 -2.88 -1.14 -4.06 -3.02 -4.06 c-1.94 0 -3.08 1.26 -3.08 4.1 c0 2.88 1.16 4.12 3.04 4.12 z M107.46600000000001 14.84 l0 -5.74 l-1.44 0 l0 -2.32 l6.24 0 l0 2.32 l-1.44 0 l0 5.74 c0 1.28 0.4 2.6 2.54 2.6 s2.64 -1.32 2.64 -2.78 l0 -5.56 l-1.44 0 l0 -2.32 l6.12 0 l0 2.32 l-1.44 0 l0 5.56 c0 3.4 -1.68 5.62 -5.86 5.62 c-4.06 0 -5.92 -2.1 -5.92 -5.44 z M123.68400000000001 20 l0 -2.32 l1.44 0 l0 -8.58 l-1.44 0 l0 -2.32 l6.24 0 c3.88 0 5.42 1.62 5.42 4.52 c0 2.7 -1.5 4.48 -5.7 4.48 l-1.16 0 l0 1.9 l1.64 0 l0 2.32 l-6.44 0 z M128.484 13.26 l1.14 0 c1.48 0 2.22 -0.58 2.22 -2 c0 -1.52 -0.84 -1.98 -2.04 -1.98 l-1.32 0 l0 3.98 z"/></g>
			</g>
		</svg>
	