<svg xmlns="http://www.w3.org/2000/svg" xmlns:xlink="http://www.w3.org/1999/xlink" width="333" zoomAndPan="magnify" viewBox="0 0 249.75 97.5" height="130" preserveAspectRatio="xMidYMid meet" version="1.0"><defs><g/><clipPath id="5a5c78695e"><path d="M 0.511719 14.476562 L 69.160156 14.476562 L 69.160156 83.125 L 0.511719 83.125 Z M 0.511719 14.476562 " clip-rule="nonzero"/></clipPath></defs><g clip-path="url(#5a5c78695e)"><path fill="#000000" d="M 69.160156 48.800781 C 69.160156 39.535156 63.691406 31.527344 55.820312 27.816406 C 52.109375 19.9375 44.09375 14.476562 34.835938 14.476562 C 25.578125 14.476562 17.554688 19.9375 13.84375 27.816406 C 5.972656 31.527344 0.511719 39.535156 0.511719 48.800781 C 0.511719 58.066406 5.972656 66.074219 13.84375 69.785156 C 17.554688 77.664062 25.570312 83.125 34.835938 83.125 C 44.101562 83.125 52.109375 77.664062 55.820312 69.785156 C 63.691406 66.074219 69.160156 58.066406 69.160156 48.800781 Z M 34.835938 18.53125 C 36.296875 18.53125 37.734375 18.699219 39.15625 19.03125 C 40.578125 19.359375 41.941406 19.847656 43.25 20.492188 C 44.5625 21.132812 45.78125 21.917969 46.910156 22.839844 C 48.039062 23.761719 49.050781 24.800781 49.945312 25.957031 C 48.628906 25.722656 47.300781 25.609375 45.964844 25.613281 C 42.007812 25.605469 38.300781 26.554688 34.835938 28.464844 C 31.371094 26.558594 27.65625 25.605469 23.699219 25.613281 C 22.363281 25.609375 21.035156 25.722656 19.71875 25.957031 C 20.613281 24.800781 21.625 23.761719 22.753906 22.839844 C 23.886719 21.914062 25.105469 21.132812 26.417969 20.488281 C 27.726562 19.84375 29.09375 19.359375 30.515625 19.027344 C 31.9375 18.699219 33.378906 18.53125 34.835938 18.53125 Z M 53.960938 37.664062 C 53.964844 40.1875 53.488281 42.617188 52.527344 44.949219 C 50.34375 42.386719 47.730469 40.382812 44.6875 38.945312 C 43.25 35.898438 41.25 33.285156 38.679688 31.113281 C 41.011719 30.148438 43.441406 29.667969 45.964844 29.667969 C 48.296875 29.664062 50.550781 30.078125 52.730469 30.910156 C 53.554688 33.085938 53.964844 35.339844 53.960938 37.664062 Z M 53.960938 59.9375 C 53.964844 62.265625 53.554688 64.519531 52.730469 66.695312 C 50.550781 67.527344 48.296875 67.941406 45.964844 67.933594 C 43.441406 67.933594 41.011719 67.453125 38.679688 66.492188 C 41.25 64.316406 43.25 61.707031 44.6875 58.660156 C 47.730469 57.21875 50.34375 55.21875 52.527344 52.652344 C 53.488281 54.984375 53.964844 57.414062 53.960938 59.9375 Z M 15.703125 59.9375 C 15.699219 57.414062 16.175781 54.984375 17.136719 52.652344 C 19.320312 55.21875 21.933594 57.21875 24.976562 58.660156 C 26.414062 61.707031 28.414062 64.316406 30.984375 66.492188 C 28.652344 67.453125 26.222656 67.933594 23.699219 67.933594 C 21.367188 67.941406 19.113281 67.527344 16.933594 66.695312 C 16.109375 64.519531 15.699219 62.265625 15.703125 59.9375 Z M 15.703125 37.664062 C 15.699219 35.339844 16.109375 33.085938 16.933594 30.910156 C 19.113281 30.078125 21.367188 29.664062 23.699219 29.667969 C 26.222656 29.667969 28.652344 30.148438 30.984375 31.113281 C 28.414062 33.285156 26.414062 35.898438 24.976562 38.945312 C 21.933594 40.382812 19.320312 42.386719 17.136719 44.949219 C 16.175781 42.617188 15.699219 40.1875 15.703125 37.664062 Z M 38.816406 37.082031 C 36.160156 36.621094 33.503906 36.621094 30.847656 37.082031 C 31.992188 35.613281 33.320312 34.335938 34.835938 33.25 C 36.347656 34.339844 37.671875 35.617188 38.816406 37.082031 Z M 42.835938 48.800781 C 42.839844 51.132812 42.425781 53.390625 41.59375 55.570312 C 39.414062 56.390625 37.160156 56.800781 34.832031 56.800781 C 32.503906 56.800781 30.25 56.390625 28.070312 55.570312 C 27.242188 53.390625 26.828125 51.132812 26.828125 48.800781 C 26.828125 46.46875 27.242188 44.214844 28.070312 42.035156 C 30.25 41.214844 32.503906 40.804688 34.832031 40.804688 C 37.160156 40.804688 39.414062 41.214844 41.59375 42.035156 C 42.425781 44.214844 42.839844 46.46875 42.835938 48.800781 Z M 23.117188 44.820312 C 22.65625 47.476562 22.65625 50.128906 23.117188 52.78125 C 21.644531 51.644531 20.363281 50.316406 19.277344 48.800781 C 20.363281 47.289062 21.644531 45.960938 23.117188 44.820312 Z M 30.847656 60.519531 C 33.503906 60.980469 36.160156 60.980469 38.816406 60.519531 C 37.671875 61.988281 36.347656 63.265625 34.835938 64.351562 C 33.320312 63.269531 31.992188 61.992188 30.847656 60.519531 Z M 46.546875 52.78125 C 47.007812 50.128906 47.007812 47.476562 46.546875 44.820312 C 48.019531 45.960938 49.300781 47.289062 50.386719 48.800781 C 49.300781 50.316406 48.019531 51.644531 46.546875 52.78125 Z M 4.566406 48.800781 C 4.566406 47.34375 4.734375 45.902344 5.0625 44.480469 C 5.394531 43.058594 5.878906 41.695312 6.523438 40.382812 C 7.164062 39.074219 7.945312 37.851562 8.867188 36.722656 C 9.789062 35.589844 10.828125 34.578125 11.980469 33.6875 C 11.753906 35.003906 11.640625 36.328125 11.640625 37.664062 C 11.636719 41.621094 12.585938 45.335938 14.492188 48.800781 C 12.585938 52.269531 11.636719 55.980469 11.640625 59.9375 C 11.640625 61.273438 11.753906 62.601562 11.980469 63.917969 C 10.828125 63.023438 9.789062 62.011719 8.867188 60.882812 C 7.945312 59.75 7.164062 58.53125 6.523438 57.21875 C 5.878906 55.910156 5.394531 54.542969 5.0625 53.121094 C 4.734375 51.703125 4.566406 50.261719 4.566406 48.800781 Z M 34.835938 79.070312 C 33.378906 79.070312 31.9375 78.90625 30.515625 78.574219 C 29.09375 78.246094 27.726562 77.757812 26.417969 77.113281 C 25.105469 76.472656 23.886719 75.6875 22.753906 74.765625 C 21.625 73.839844 20.613281 72.800781 19.71875 71.648438 C 21.035156 71.878906 22.363281 71.992188 23.699219 71.988281 C 27.65625 71.996094 31.371094 71.046875 34.835938 69.140625 C 38.300781 71.046875 42.007812 71.996094 45.964844 71.988281 C 47.300781 71.992188 48.628906 71.878906 49.945312 71.648438 C 49.050781 72.800781 48.039062 73.839844 46.910156 74.761719 C 45.78125 75.6875 44.5625 76.46875 43.25 77.113281 C 41.941406 77.757812 40.578125 78.242188 39.15625 78.574219 C 37.734375 78.90625 36.296875 79.070312 34.835938 79.070312 Z M 57.683594 63.917969 C 57.910156 62.601562 58.023438 61.273438 58.023438 59.9375 C 58.027344 55.980469 57.078125 52.269531 55.171875 48.800781 C 57.078125 45.335938 58.027344 41.621094 58.023438 37.664062 C 58.023438 36.328125 57.910156 35.003906 57.683594 33.6875 C 58.257812 34.128906 58.804688 34.605469 59.324219 35.113281 C 59.847656 35.621094 60.335938 36.15625 60.796875 36.722656 C 61.257812 37.285156 61.683594 37.875 62.074219 38.484375 C 62.46875 39.097656 62.824219 39.730469 63.144531 40.382812 C 63.464844 41.035156 63.746094 41.707031 63.992188 42.390625 C 64.234375 43.074219 64.4375 43.773438 64.601562 44.480469 C 64.765625 45.1875 64.890625 45.90625 64.972656 46.628906 C 65.054688 47.351562 65.097656 48.074219 65.097656 48.800781 C 65.097656 49.527344 65.054688 50.253906 64.972656 50.976562 C 64.890625 51.699219 64.765625 52.414062 64.601562 53.121094 C 64.4375 53.832031 64.234375 54.527344 63.992188 55.214844 C 63.746094 55.898438 63.464844 56.566406 63.144531 57.21875 C 62.824219 57.875 62.46875 58.507812 62.074219 59.117188 C 61.683594 59.730469 61.257812 60.316406 60.796875 60.882812 C 60.335938 61.445312 59.847656 61.980469 59.324219 62.488281 C 58.804688 62.996094 58.257812 63.472656 57.683594 63.917969 Z M 57.683594 63.917969 " fill-opacity="1" fill-rule="nonzero"/></g><g fill="#000000" fill-opacity="1"><g transform="translate(83.030137, 44.271466)"><g><path d="M 1.1875 -26.734375 L 9.40625 -26.734375 C 10.707031 -26.734375 11.71875 -26.4375 12.4375 -25.84375 C 13.15625 -25.257812 13.632812 -24.429688 13.875 -23.359375 C 14.125 -22.285156 14.25 -20.921875 14.25 -19.265625 C 14.25 -17.753906 14.050781 -16.570312 13.65625 -15.71875 C 13.269531 -14.863281 12.585938 -14.269531 11.609375 -13.9375 C 12.421875 -13.769531 13.003906 -13.363281 13.359375 -12.71875 C 13.722656 -12.082031 13.90625 -11.210938 13.90625 -10.109375 L 13.84375 0 L 8.625 0 L 8.625 -10.453125 C 8.625 -11.203125 8.476562 -11.679688 8.1875 -11.890625 C 7.894531 -12.097656 7.363281 -12.203125 6.59375 -12.203125 L 6.59375 0 L 1.1875 0 Z M 7.90625 -16.84375 C 8.65625 -16.84375 9.03125 -17.648438 9.03125 -19.265625 C 9.03125 -19.972656 9 -20.503906 8.9375 -20.859375 C 8.875 -21.210938 8.757812 -21.453125 8.59375 -21.578125 C 8.425781 -21.710938 8.1875 -21.78125 7.875 -21.78125 L 6.625 -21.78125 L 6.625 -16.84375 Z M 7.90625 -16.84375 "/></g></g></g><g fill="#000000" fill-opacity="1"><g transform="translate(97.875601, 44.271466)"><g><path d="M 1.1875 0 L 1.1875 -26.734375 L 11.890625 -26.734375 L 11.890625 -21.5625 L 6.625 -21.5625 L 6.625 -16.375 L 11.671875 -16.375 L 11.671875 -11.328125 L 6.625 -11.328125 L 6.625 -5.203125 L 12.234375 -5.203125 L 12.234375 0 Z M 1.1875 0 "/></g></g></g><g fill="#000000" fill-opacity="1"><g transform="translate(110.698103, 44.271466)"><g><path d="M 1.1875 -26.734375 L 8.5625 -26.734375 C 10.46875 -26.734375 11.894531 -26.203125 12.84375 -25.140625 C 13.800781 -24.085938 14.289062 -22.523438 14.3125 -20.453125 L 14.375 -7.9375 C 14.394531 -5.300781 13.9375 -3.316406 13 -1.984375 C 12.070312 -0.660156 10.53125 0 8.375 0 L 1.1875 0 Z M 7.5 -4.734375 C 8.476562 -4.734375 8.96875 -5.207031 8.96875 -6.15625 L 8.96875 -19.953125 C 8.96875 -20.554688 8.921875 -21.003906 8.828125 -21.296875 C 8.734375 -21.597656 8.5625 -21.800781 8.3125 -21.90625 C 8.0625 -22.007812 7.675781 -22.0625 7.15625 -22.0625 L 6.5625 -22.0625 L 6.5625 -4.734375 Z M 7.5 -4.734375 "/></g></g></g><g fill="#000000" fill-opacity="1"><g transform="translate(126.041521, 44.271466)"><g><path d="M 1.1875 0 L 1.1875 -26.734375 L 11.890625 -26.734375 L 11.890625 -21.5625 L 6.625 -21.5625 L 6.625 -16.375 L 11.671875 -16.375 L 11.671875 -11.328125 L 6.625 -11.328125 L 6.625 -5.203125 L 12.234375 -5.203125 L 12.234375 0 Z M 1.1875 0 "/></g></g></g><g fill="#000000" fill-opacity="1"><g transform="translate(138.864023, 44.271466)"><g><path d="M 1.1875 0 L 1.1875 -26.734375 L 9.34375 -26.734375 L 11.578125 -10.421875 L 13.8125 -26.734375 L 22.03125 -26.734375 L 22.03125 0 L 17.15625 0 L 17.15625 -19.265625 L 14.0625 0 L 9.28125 0 L 6 -19.265625 L 6 0 Z M 1.1875 0 "/></g></g></g><g fill="#000000" fill-opacity="1"><g transform="translate(162.081451, 44.271466)"><g><path d="M 1.1875 -26.734375 L 8.25 -26.734375 C 10.382812 -26.734375 11.90625 -26.039062 12.8125 -24.65625 C 13.726562 -23.28125 14.1875 -21.265625 14.1875 -18.609375 C 14.1875 -15.953125 13.78125 -13.945312 12.96875 -12.59375 C 12.164062 -11.25 10.71875 -10.578125 8.625 -10.578125 L 6.4375 -10.578125 L 6.4375 0 L 1.1875 0 Z M 6.75 -15.40625 C 7.394531 -15.40625 7.867188 -15.523438 8.171875 -15.765625 C 8.472656 -16.003906 8.671875 -16.347656 8.765625 -16.796875 C 8.859375 -17.242188 8.90625 -17.878906 8.90625 -18.703125 C 8.90625 -19.828125 8.78125 -20.632812 8.53125 -21.125 C 8.28125 -21.625 7.78125 -21.875 7.03125 -21.875 L 6.4375 -21.875 L 6.4375 -15.40625 Z M 6.75 -15.40625 "/></g></g></g><g fill="#000000" fill-opacity="1"><g transform="translate(176.771298, 44.271466)"><g><path d="M 3.484375 0 L 3.484375 -21.59375 L 0.3125 -21.59375 L 0.3125 -26.734375 L 12.015625 -26.734375 L 12.015625 -21.59375 L 8.84375 -21.59375 L 8.84375 0 Z M 3.484375 0 "/></g></g></g><g fill="#000000" fill-opacity="1"><g transform="translate(189.095833, 44.271466)"><g><path d="M 0.9375 0 L 0.9375 -26.734375 L 6.09375 -26.734375 L 6.09375 0 Z M 0.9375 0 "/></g></g></g><g fill="#000000" fill-opacity="1"><g transform="translate(196.160654, 44.271466)"><g><path d="M 7.5625 0.25 C 5.40625 0.25 3.765625 -0.40625 2.640625 -1.71875 C 1.523438 -3.039062 0.96875 -4.894531 0.96875 -7.28125 L 0.96875 -20.015625 C 0.96875 -22.316406 1.523438 -24.050781 2.640625 -25.21875 C 3.765625 -26.394531 5.40625 -26.984375 7.5625 -26.984375 C 9.71875 -26.984375 11.351562 -26.394531 12.46875 -25.21875 C 13.59375 -24.050781 14.15625 -22.316406 14.15625 -20.015625 L 14.15625 -7.28125 C 14.15625 -4.875 13.59375 -3.015625 12.46875 -1.703125 C 11.351562 -0.398438 9.71875 0.25 7.5625 0.25 Z M 7.5625 -4.671875 C 8.039062 -4.671875 8.363281 -4.875 8.53125 -5.28125 C 8.695312 -5.695312 8.78125 -6.28125 8.78125 -7.03125 L 8.78125 -20.109375 C 8.78125 -20.691406 8.703125 -21.160156 8.546875 -21.515625 C 8.390625 -21.878906 8.070312 -22.0625 7.59375 -22.0625 C 6.695312 -22.0625 6.25 -21.390625 6.25 -20.046875 L 6.25 -7 C 6.25 -6.226562 6.34375 -5.644531 6.53125 -5.25 C 6.71875 -4.863281 7.0625 -4.671875 7.5625 -4.671875 Z M 7.5625 -4.671875 "/></g></g></g><g fill="#000000" fill-opacity="1"><g transform="translate(211.28622, 44.271466)"><g><path d="M 1.1875 0 L 1.1875 -26.734375 L 6.6875 -26.734375 L 9.15625 -13.9375 L 9.15625 -26.734375 L 14.3125 -26.734375 L 14.3125 0 L 9.09375 0 L 6.40625 -13.390625 L 6.40625 0 Z M 1.1875 0 "/></g></g></g><g fill="#000000" fill-opacity="1"><g transform="translate(83.030137, 75.120357)"><g><path d="M 1.1875 0 L 1.1875 -26.734375 L 6.53125 -26.734375 L 6.53125 -4.546875 L 12.046875 -4.546875 L 12.046875 0 Z M 1.1875 0 "/></g></g></g><g fill="#000000" fill-opacity="1"><g transform="translate(95.385789, 75.120357)"><g><path d="M 0.46875 0 L 3.046875 -26.734375 L 12.109375 -26.734375 L 14.65625 0 L 9.59375 0 L 9.21875 -4.328125 L 5.96875 -4.328125 L 5.671875 0 Z M 6.375 -8.59375 L 8.8125 -8.59375 L 7.625 -22.1875 L 7.375 -22.1875 Z M 6.375 -8.59375 "/></g></g></g><g fill="#000000" fill-opacity="1"><g transform="translate(110.480236, 75.120357)"><g><path d="M 3.265625 0 L 0.40625 -26.734375 L 5.640625 -26.734375 L 7.125 -9.859375 L 8.625 -26.734375 L 13.609375 -26.734375 L 15.03125 -9.859375 L 16.46875 -26.734375 L 21.75 -26.734375 L 18.828125 0 L 12.421875 0 L 11.078125 -12.890625 L 9.796875 0 Z M 3.265625 0 "/></g></g></g><g fill="#000000" fill-opacity="1"><g transform="translate(132.639506, 75.120357)"><g/></g></g><g fill="#000000" fill-opacity="1"><g transform="translate(139.922181, 75.120357)"><g><path d="M 6.6875 0.25 C 4.757812 0.25 3.320312 -0.425781 2.375 -1.78125 C 1.4375 -3.144531 0.96875 -5.207031 0.96875 -7.96875 L 0.96875 -19.484375 C 0.96875 -21.953125 1.515625 -23.816406 2.609375 -25.078125 C 3.710938 -26.347656 5.351562 -26.984375 7.53125 -26.984375 C 9.289062 -26.984375 10.660156 -26.628906 11.640625 -25.921875 C 12.617188 -25.222656 13.289062 -24.195312 13.65625 -22.84375 C 14.03125 -21.5 14.21875 -19.765625 14.21875 -17.640625 L 9 -17.640625 L 9 -20.046875 C 9 -20.691406 8.910156 -21.1875 8.734375 -21.53125 C 8.554688 -21.882812 8.238281 -22.0625 7.78125 -22.0625 C 6.757812 -22.0625 6.25 -21.398438 6.25 -20.078125 L 6.25 -7.125 C 6.25 -6.3125 6.351562 -5.695312 6.5625 -5.28125 C 6.769531 -4.875 7.132812 -4.671875 7.65625 -4.671875 C 8.175781 -4.671875 8.539062 -4.875 8.75 -5.28125 C 8.957031 -5.695312 9.0625 -6.3125 9.0625 -7.125 L 9.0625 -10.953125 L 7.625 -10.953125 L 7.625 -15.5625 L 14.15625 -15.5625 L 14.15625 0 L 12.015625 0 L 11.109375 -2.234375 C 10.160156 -0.578125 8.6875 0.25 6.6875 0.25 Z M 6.6875 0.25 "/></g></g></g><g fill="#000000" fill-opacity="1"><g transform="translate(155.016628, 75.120357)"><g><path d="M 1.1875 -26.734375 L 9.40625 -26.734375 C 10.707031 -26.734375 11.71875 -26.4375 12.4375 -25.84375 C 13.15625 -25.257812 13.632812 -24.429688 13.875 -23.359375 C 14.125 -22.285156 14.25 -20.921875 14.25 -19.265625 C 14.25 -17.753906 14.050781 -16.570312 13.65625 -15.71875 C 13.269531 -14.863281 12.585938 -14.269531 11.609375 -13.9375 C 12.421875 -13.769531 13.003906 -13.363281 13.359375 -12.71875 C 13.722656 -12.082031 13.90625 -11.210938 13.90625 -10.109375 L 13.84375 0 L 8.625 0 L 8.625 -10.453125 C 8.625 -11.203125 8.476562 -11.679688 8.1875 -11.890625 C 7.894531 -12.097656 7.363281 -12.203125 6.59375 -12.203125 L 6.59375 0 L 1.1875 0 Z M 7.90625 -16.84375 C 8.65625 -16.84375 9.03125 -17.648438 9.03125 -19.265625 C 9.03125 -19.972656 9 -20.503906 8.9375 -20.859375 C 8.875 -21.210938 8.757812 -21.453125 8.59375 -21.578125 C 8.425781 -21.710938 8.1875 -21.78125 7.875 -21.78125 L 6.625 -21.78125 L 6.625 -16.84375 Z M 7.90625 -16.84375 "/></g></g></g><g fill="#000000" fill-opacity="1"><g transform="translate(169.862092, 75.120357)"><g><path d="M 7.5625 0.25 C 5.40625 0.25 3.765625 -0.40625 2.640625 -1.71875 C 1.523438 -3.039062 0.96875 -4.894531 0.96875 -7.28125 L 0.96875 -20.015625 C 0.96875 -22.316406 1.523438 -24.050781 2.640625 -25.21875 C 3.765625 -26.394531 5.40625 -26.984375 7.5625 -26.984375 C 9.71875 -26.984375 11.351562 -26.394531 12.46875 -25.21875 C 13.59375 -24.050781 14.15625 -22.316406 14.15625 -20.015625 L 14.15625 -7.28125 C 14.15625 -4.875 13.59375 -3.015625 12.46875 -1.703125 C 11.351562 -0.398438 9.71875 0.25 7.5625 0.25 Z M 7.5625 -4.671875 C 8.039062 -4.671875 8.363281 -4.875 8.53125 -5.28125 C 8.695312 -5.695312 8.78125 -6.28125 8.78125 -7.03125 L 8.78125 -20.109375 C 8.78125 -20.691406 8.703125 -21.160156 8.546875 -21.515625 C 8.390625 -21.878906 8.070312 -22.0625 7.59375 -22.0625 C 6.695312 -22.0625 6.25 -21.390625 6.25 -20.046875 L 6.25 -7 C 6.25 -6.226562 6.34375 -5.644531 6.53125 -5.25 C 6.71875 -4.863281 7.0625 -4.671875 7.5625 -4.671875 Z M 7.5625 -4.671875 "/></g></g></g><g fill="#000000" fill-opacity="1"><g transform="translate(184.987658, 75.120357)"><g><path d="M 7.375 0.25 C 5.175781 0.25 3.539062 -0.367188 2.46875 -1.609375 C 1.40625 -2.859375 0.875 -4.707031 0.875 -7.15625 L 0.875 -26.734375 L 6.0625 -26.734375 L 6.0625 -7.375 C 6.0625 -6.519531 6.144531 -5.851562 6.3125 -5.375 C 6.476562 -4.90625 6.832031 -4.671875 7.375 -4.671875 C 7.914062 -4.671875 8.269531 -4.898438 8.4375 -5.359375 C 8.601562 -5.828125 8.6875 -6.5 8.6875 -7.375 L 8.6875 -26.734375 L 13.875 -26.734375 L 13.875 -7.15625 C 13.875 -4.707031 13.335938 -2.859375 12.265625 -1.609375 C 11.203125 -0.367188 9.570312 0.25 7.375 0.25 Z M 7.375 0.25 "/></g></g></g><g fill="#000000" fill-opacity="1"><g transform="translate(199.739754, 75.120357)"><g><path d="M 1.1875 -26.734375 L 8.25 -26.734375 C 10.382812 -26.734375 11.90625 -26.039062 12.8125 -24.65625 C 13.726562 -23.28125 14.1875 -21.265625 14.1875 -18.609375 C 14.1875 -15.953125 13.78125 -13.945312 12.96875 -12.59375 C 12.164062 -11.25 10.71875 -10.578125 8.625 -10.578125 L 6.4375 -10.578125 L 6.4375 0 L 1.1875 0 Z M 6.75 -15.40625 C 7.394531 -15.40625 7.867188 -15.523438 8.171875 -15.765625 C 8.472656 -16.003906 8.671875 -16.347656 8.765625 -16.796875 C 8.859375 -17.242188 8.90625 -17.878906 8.90625 -18.703125 C 8.90625 -19.828125 8.78125 -20.632812 8.53125 -21.125 C 8.28125 -21.625 7.78125 -21.875 7.03125 -21.875 L 6.4375 -21.875 L 6.4375 -15.40625 Z M 6.75 -15.40625 "/></g></g></g></svg>