<svg xmlns="http://www.w3.org/2000/svg" xmlns:xlink="http://www.w3.org/1999/xlink" width="420" zoomAndPan="magnify" viewBox="0 0 315 97.5" height="130" preserveAspectRatio="xMidYMid meet" version="1.0"><defs><g/><clipPath id="f9be9dbe9d"><path d="M 0.804688 22.722656 L 61.242188 22.722656 L 61.242188 83.164062 L 0.804688 83.164062 Z M 0.804688 22.722656 " clip-rule="nonzero"/></clipPath></defs><g clip-path="url(#f9be9dbe9d)"><path fill="#ffffff" d="M 61.230469 52.9375 C 61.230469 44.78125 56.417969 37.734375 49.488281 34.464844 C 46.222656 27.53125 39.167969 22.722656 31.019531 22.722656 C 22.871094 22.722656 15.804688 27.53125 12.539062 34.464844 C 5.609375 37.734375 0.804688 44.78125 0.804688 52.9375 C 0.804688 61.09375 5.609375 68.144531 12.539062 71.410156 C 15.804688 78.34375 22.859375 83.152344 31.019531 83.152344 C 39.175781 83.152344 46.222656 78.34375 49.488281 71.410156 C 56.417969 68.144531 61.230469 61.09375 61.230469 52.9375 Z M 31.019531 26.292969 C 32.300781 26.292969 33.570312 26.441406 34.820312 26.730469 C 36.070312 27.023438 37.273438 27.453125 38.425781 28.019531 C 39.578125 28.585938 40.652344 29.273438 41.644531 30.085938 C 42.640625 30.898438 43.53125 31.8125 44.316406 32.828125 C 43.15625 32.625 41.988281 32.523438 40.8125 32.527344 C 37.332031 32.519531 34.066406 33.355469 31.019531 35.035156 C 27.964844 33.359375 24.699219 32.519531 21.214844 32.527344 C 20.039062 32.523438 18.871094 32.625 17.710938 32.828125 C 18.496094 31.8125 19.386719 30.898438 20.382812 30.085938 C 21.378906 29.273438 22.453125 28.582031 23.605469 28.015625 C 24.757812 27.449219 25.960938 27.019531 27.214844 26.730469 C 28.464844 26.4375 29.734375 26.292969 31.019531 26.292969 Z M 47.851562 43.136719 C 47.855469 45.359375 47.433594 47.496094 46.589844 49.550781 C 44.667969 47.289062 42.367188 45.527344 39.6875 44.261719 C 38.425781 41.578125 36.660156 39.28125 34.398438 37.367188 C 36.453125 36.519531 38.589844 36.097656 40.8125 36.097656 C 42.863281 36.09375 44.851562 36.457031 46.769531 37.1875 C 47.492188 39.105469 47.855469 41.085938 47.851562 43.136719 Z M 47.851562 62.742188 C 47.855469 64.789062 47.492188 66.773438 46.769531 68.691406 C 44.851562 69.421875 42.863281 69.785156 40.8125 69.78125 C 38.589844 69.78125 36.453125 69.355469 34.398438 68.511719 C 36.660156 66.597656 38.425781 64.296875 39.6875 61.617188 C 42.367188 60.347656 44.667969 58.585938 46.589844 56.328125 C 47.433594 58.382812 47.855469 60.519531 47.851562 62.742188 Z M 14.175781 62.742188 C 14.171875 60.519531 14.59375 58.382812 15.4375 56.328125 C 17.359375 58.585938 19.660156 60.347656 22.339844 61.617188 C 23.601562 64.296875 25.367188 66.597656 27.628906 68.511719 C 25.574219 69.355469 23.4375 69.78125 21.214844 69.78125 C 19.164062 69.785156 17.175781 69.421875 15.257812 68.691406 C 14.535156 66.773438 14.171875 64.789062 14.175781 62.742188 Z M 14.175781 43.136719 C 14.171875 41.085938 14.535156 39.105469 15.257812 37.1875 C 17.175781 36.457031 19.164062 36.09375 21.214844 36.097656 C 23.4375 36.097656 25.574219 36.519531 27.628906 37.367188 C 25.367188 39.28125 23.601562 41.578125 22.339844 44.261719 C 19.660156 45.527344 17.359375 47.289062 15.4375 49.550781 C 14.59375 47.496094 14.171875 45.359375 14.175781 43.136719 Z M 34.523438 42.621094 C 32.183594 42.21875 29.84375 42.21875 27.503906 42.621094 C 28.515625 41.328125 29.683594 40.203125 31.019531 39.25 C 32.347656 40.207031 33.515625 41.332031 34.523438 42.621094 Z M 38.058594 52.9375 C 38.0625 54.992188 37.695312 56.976562 36.964844 58.894531 C 35.046875 59.617188 33.0625 59.980469 31.015625 59.980469 C 28.964844 59.980469 26.980469 59.617188 25.0625 58.894531 C 24.332031 56.976562 23.96875 54.992188 23.96875 52.9375 C 23.96875 50.886719 24.332031 48.902344 25.0625 46.980469 C 26.980469 46.261719 28.964844 45.898438 31.015625 45.898438 C 33.0625 45.898438 35.046875 46.261719 36.964844 46.980469 C 37.695312 48.902344 38.0625 50.886719 38.058594 52.9375 Z M 20.703125 49.433594 C 20.296875 51.769531 20.296875 54.105469 20.703125 56.441406 C 19.402344 55.441406 18.277344 54.273438 17.320312 52.9375 C 18.277344 51.605469 19.402344 50.4375 20.703125 49.433594 Z M 27.503906 63.253906 C 29.84375 63.660156 32.183594 63.660156 34.523438 63.253906 C 33.515625 64.546875 32.347656 65.671875 31.019531 66.628906 C 29.683594 65.671875 28.515625 64.546875 27.503906 63.253906 Z M 41.324219 56.441406 C 41.730469 54.105469 41.730469 51.769531 41.324219 49.433594 C 42.625 50.4375 43.75 51.605469 44.707031 52.9375 C 43.75 54.273438 42.625 55.441406 41.324219 56.441406 Z M 4.371094 52.9375 C 4.371094 51.652344 4.519531 50.386719 4.808594 49.136719 C 5.097656 47.882812 5.527344 46.683594 6.09375 45.527344 C 6.660156 44.375 7.347656 43.300781 8.160156 42.304688 C 8.96875 41.308594 9.882812 40.417969 10.898438 39.632812 C 10.699219 40.792969 10.597656 41.960938 10.597656 43.136719 C 10.59375 46.617188 11.429688 49.886719 13.109375 52.9375 C 11.429688 55.992188 10.59375 59.257812 10.597656 62.742188 C 10.597656 63.917969 10.699219 65.085938 10.898438 66.246094 C 9.882812 65.457031 8.96875 64.566406 8.160156 63.570312 C 7.347656 62.578125 6.660156 61.503906 6.09375 60.347656 C 5.527344 59.195312 5.097656 57.992188 4.808594 56.742188 C 4.519531 55.492188 4.371094 54.222656 4.371094 52.9375 Z M 31.019531 79.582031 C 29.734375 79.582031 28.464844 79.4375 27.214844 79.148438 C 25.960938 78.855469 24.757812 78.429688 23.605469 77.863281 C 22.453125 77.296875 21.378906 76.605469 20.382812 75.792969 C 19.386719 74.980469 18.496094 74.066406 17.710938 73.050781 C 18.871094 73.253906 20.039062 73.355469 21.214844 73.351562 C 24.699219 73.355469 27.964844 72.519531 31.019531 70.839844 C 34.066406 72.519531 37.332031 73.359375 40.8125 73.351562 C 41.988281 73.355469 43.15625 73.253906 44.316406 73.050781 C 43.53125 74.066406 42.640625 74.980469 41.644531 75.792969 C 40.652344 76.605469 39.578125 77.292969 38.425781 77.859375 C 37.273438 78.425781 36.070312 78.855469 34.820312 79.144531 C 33.570312 79.4375 32.300781 79.582031 31.019531 79.582031 Z M 51.128906 66.246094 C 51.328125 65.085938 51.429688 63.917969 51.429688 62.742188 C 51.433594 59.257812 50.597656 55.992188 48.917969 52.9375 C 50.597656 49.886719 51.433594 46.617188 51.429688 43.136719 C 51.429688 41.960938 51.328125 40.792969 51.128906 39.632812 C 51.632812 40.023438 52.117188 40.445312 52.574219 40.890625 C 53.035156 41.335938 53.464844 41.808594 53.871094 42.304688 C 54.273438 42.800781 54.648438 43.320312 54.996094 43.859375 C 55.339844 44.398438 55.652344 44.953125 55.9375 45.527344 C 56.21875 46.101562 56.464844 46.691406 56.679688 47.296875 C 56.894531 47.898438 57.074219 48.511719 57.21875 49.136719 C 57.363281 49.757812 57.472656 50.386719 57.546875 51.023438 C 57.617188 51.660156 57.65625 52.296875 57.65625 52.9375 C 57.65625 53.578125 57.617188 54.21875 57.546875 54.851562 C 57.472656 55.488281 57.363281 56.117188 57.21875 56.742188 C 57.074219 57.367188 56.894531 57.980469 56.679688 58.582031 C 56.464844 59.1875 56.21875 59.773438 55.9375 60.347656 C 55.652344 60.925781 55.339844 61.480469 54.996094 62.019531 C 54.648438 62.558594 54.273438 63.078125 53.871094 63.574219 C 53.464844 64.070312 53.035156 64.539062 52.574219 64.988281 C 52.117188 65.433594 51.632812 65.851562 51.128906 66.246094 Z M 51.128906 66.246094 " fill-opacity="1" fill-rule="nonzero"/></g><g fill="#ffffff" fill-opacity="1"><g transform="translate(75.074237, 44.271466)"><g><path d="M 1.1875 -26.734375 L 9.40625 -26.734375 C 10.707031 -26.734375 11.71875 -26.4375 12.4375 -25.84375 C 13.15625 -25.257812 13.632812 -24.429688 13.875 -23.359375 C 14.125 -22.285156 14.25 -20.921875 14.25 -19.265625 C 14.25 -17.753906 14.050781 -16.570312 13.65625 -15.71875 C 13.269531 -14.863281 12.585938 -14.269531 11.609375 -13.9375 C 12.421875 -13.769531 13.003906 -13.363281 13.359375 -12.71875 C 13.722656 -12.082031 13.90625 -11.210938 13.90625 -10.109375 L 13.84375 0 L 8.625 0 L 8.625 -10.453125 C 8.625 -11.203125 8.476562 -11.679688 8.1875 -11.890625 C 7.894531 -12.097656 7.363281 -12.203125 6.59375 -12.203125 L 6.59375 0 L 1.1875 0 Z M 7.90625 -16.84375 C 8.65625 -16.84375 9.03125 -17.648438 9.03125 -19.265625 C 9.03125 -19.972656 9 -20.503906 8.9375 -20.859375 C 8.875 -21.210938 8.757812 -21.453125 8.59375 -21.578125 C 8.425781 -21.710938 8.1875 -21.78125 7.875 -21.78125 L 6.625 -21.78125 L 6.625 -16.84375 Z M 7.90625 -16.84375 "/></g></g></g><g fill="#ffffff" fill-opacity="1"><g transform="translate(89.919701, 44.271466)"><g><path d="M 1.1875 0 L 1.1875 -26.734375 L 11.890625 -26.734375 L 11.890625 -21.5625 L 6.625 -21.5625 L 6.625 -16.375 L 11.671875 -16.375 L 11.671875 -11.328125 L 6.625 -11.328125 L 6.625 -5.203125 L 12.234375 -5.203125 L 12.234375 0 Z M 1.1875 0 "/></g></g></g><g fill="#ffffff" fill-opacity="1"><g transform="translate(102.742203, 44.271466)"><g><path d="M 1.1875 -26.734375 L 8.5625 -26.734375 C 10.46875 -26.734375 11.894531 -26.203125 12.84375 -25.140625 C 13.800781 -24.085938 14.289062 -22.523438 14.3125 -20.453125 L 14.375 -7.9375 C 14.394531 -5.300781 13.9375 -3.316406 13 -1.984375 C 12.070312 -0.660156 10.53125 0 8.375 0 L 1.1875 0 Z M 7.5 -4.734375 C 8.476562 -4.734375 8.96875 -5.207031 8.96875 -6.15625 L 8.96875 -19.953125 C 8.96875 -20.554688 8.921875 -21.003906 8.828125 -21.296875 C 8.734375 -21.597656 8.5625 -21.800781 8.3125 -21.90625 C 8.0625 -22.007812 7.675781 -22.0625 7.15625 -22.0625 L 6.5625 -22.0625 L 6.5625 -4.734375 Z M 7.5 -4.734375 "/></g></g></g><g fill="#ffffff" fill-opacity="1"><g transform="translate(118.085622, 44.271466)"><g><path d="M 1.1875 0 L 1.1875 -26.734375 L 11.890625 -26.734375 L 11.890625 -21.5625 L 6.625 -21.5625 L 6.625 -16.375 L 11.671875 -16.375 L 11.671875 -11.328125 L 6.625 -11.328125 L 6.625 -5.203125 L 12.234375 -5.203125 L 12.234375 0 Z M 1.1875 0 "/></g></g></g><g fill="#ffffff" fill-opacity="1"><g transform="translate(130.908123, 44.271466)"><g><path d="M 1.1875 0 L 1.1875 -26.734375 L 9.34375 -26.734375 L 11.578125 -10.421875 L 13.8125 -26.734375 L 22.03125 -26.734375 L 22.03125 0 L 17.15625 0 L 17.15625 -19.265625 L 14.0625 0 L 9.28125 0 L 6 -19.265625 L 6 0 Z M 1.1875 0 "/></g></g></g><g fill="#ffffff" fill-opacity="1"><g transform="translate(154.125551, 44.271466)"><g><path d="M 1.1875 -26.734375 L 8.25 -26.734375 C 10.382812 -26.734375 11.90625 -26.039062 12.8125 -24.65625 C 13.726562 -23.28125 14.1875 -21.265625 14.1875 -18.609375 C 14.1875 -15.953125 13.78125 -13.945312 12.96875 -12.59375 C 12.164062 -11.25 10.71875 -10.578125 8.625 -10.578125 L 6.4375 -10.578125 L 6.4375 0 L 1.1875 0 Z M 6.75 -15.40625 C 7.394531 -15.40625 7.867188 -15.523438 8.171875 -15.765625 C 8.472656 -16.003906 8.671875 -16.347656 8.765625 -16.796875 C 8.859375 -17.242188 8.90625 -17.878906 8.90625 -18.703125 C 8.90625 -19.828125 8.78125 -20.632812 8.53125 -21.125 C 8.28125 -21.625 7.78125 -21.875 7.03125 -21.875 L 6.4375 -21.875 L 6.4375 -15.40625 Z M 6.75 -15.40625 "/></g></g></g><g fill="#ffffff" fill-opacity="1"><g transform="translate(168.815399, 44.271466)"><g><path d="M 3.484375 0 L 3.484375 -21.59375 L 0.3125 -21.59375 L 0.3125 -26.734375 L 12.015625 -26.734375 L 12.015625 -21.59375 L 8.84375 -21.59375 L 8.84375 0 Z M 3.484375 0 "/></g></g></g><g fill="#ffffff" fill-opacity="1"><g transform="translate(181.139933, 44.271466)"><g><path d="M 0.9375 0 L 0.9375 -26.734375 L 6.09375 -26.734375 L 6.09375 0 Z M 0.9375 0 "/></g></g></g><g fill="#ffffff" fill-opacity="1"><g transform="translate(188.204755, 44.271466)"><g><path d="M 7.5625 0.25 C 5.40625 0.25 3.765625 -0.40625 2.640625 -1.71875 C 1.523438 -3.039062 0.96875 -4.894531 0.96875 -7.28125 L 0.96875 -20.015625 C 0.96875 -22.316406 1.523438 -24.050781 2.640625 -25.21875 C 3.765625 -26.394531 5.40625 -26.984375 7.5625 -26.984375 C 9.71875 -26.984375 11.351562 -26.394531 12.46875 -25.21875 C 13.59375 -24.050781 14.15625 -22.316406 14.15625 -20.015625 L 14.15625 -7.28125 C 14.15625 -4.875 13.59375 -3.015625 12.46875 -1.703125 C 11.351562 -0.398438 9.71875 0.25 7.5625 0.25 Z M 7.5625 -4.671875 C 8.039062 -4.671875 8.363281 -4.875 8.53125 -5.28125 C 8.695312 -5.695312 8.78125 -6.28125 8.78125 -7.03125 L 8.78125 -20.109375 C 8.78125 -20.691406 8.703125 -21.160156 8.546875 -21.515625 C 8.390625 -21.878906 8.070312 -22.0625 7.59375 -22.0625 C 6.695312 -22.0625 6.25 -21.390625 6.25 -20.046875 L 6.25 -7 C 6.25 -6.226562 6.34375 -5.644531 6.53125 -5.25 C 6.71875 -4.863281 7.0625 -4.671875 7.5625 -4.671875 Z M 7.5625 -4.671875 "/></g></g></g><g fill="#ffffff" fill-opacity="1"><g transform="translate(203.33032, 44.271466)"><g><path d="M 1.1875 0 L 1.1875 -26.734375 L 6.6875 -26.734375 L 9.15625 -13.9375 L 9.15625 -26.734375 L 14.3125 -26.734375 L 14.3125 0 L 9.09375 0 L 6.40625 -13.390625 L 6.40625 0 Z M 1.1875 0 "/></g></g></g><g fill="#ffffff" fill-opacity="1"><g transform="translate(75.074237, 75.120357)"><g><path d="M 1.1875 0 L 1.1875 -26.734375 L 6.53125 -26.734375 L 6.53125 -4.546875 L 12.046875 -4.546875 L 12.046875 0 Z M 1.1875 0 "/></g></g></g><g fill="#ffffff" fill-opacity="1"><g transform="translate(87.429889, 75.120357)"><g><path d="M 0.46875 0 L 3.046875 -26.734375 L 12.109375 -26.734375 L 14.65625 0 L 9.59375 0 L 9.21875 -4.328125 L 5.96875 -4.328125 L 5.671875 0 Z M 6.375 -8.59375 L 8.8125 -8.59375 L 7.625 -22.1875 L 7.375 -22.1875 Z M 6.375 -8.59375 "/></g></g></g><g fill="#ffffff" fill-opacity="1"><g transform="translate(102.524337, 75.120357)"><g><path d="M 3.265625 0 L 0.40625 -26.734375 L 5.640625 -26.734375 L 7.125 -9.859375 L 8.625 -26.734375 L 13.609375 -26.734375 L 15.03125 -9.859375 L 16.46875 -26.734375 L 21.75 -26.734375 L 18.828125 0 L 12.421875 0 L 11.078125 -12.890625 L 9.796875 0 Z M 3.265625 0 "/></g></g></g><g fill="#ffffff" fill-opacity="1"><g transform="translate(124.683606, 75.120357)"><g/></g></g><g fill="#ffffff" fill-opacity="1"><g transform="translate(131.966281, 75.120357)"><g><path d="M 6.6875 0.25 C 4.757812 0.25 3.320312 -0.425781 2.375 -1.78125 C 1.4375 -3.144531 0.96875 -5.207031 0.96875 -7.96875 L 0.96875 -19.484375 C 0.96875 -21.953125 1.515625 -23.816406 2.609375 -25.078125 C 3.710938 -26.347656 5.351562 -26.984375 7.53125 -26.984375 C 9.289062 -26.984375 10.660156 -26.628906 11.640625 -25.921875 C 12.617188 -25.222656 13.289062 -24.195312 13.65625 -22.84375 C 14.03125 -21.5 14.21875 -19.765625 14.21875 -17.640625 L 9 -17.640625 L 9 -20.046875 C 9 -20.691406 8.910156 -21.1875 8.734375 -21.53125 C 8.554688 -21.882812 8.238281 -22.0625 7.78125 -22.0625 C 6.757812 -22.0625 6.25 -21.398438 6.25 -20.078125 L 6.25 -7.125 C 6.25 -6.3125 6.351562 -5.695312 6.5625 -5.28125 C 6.769531 -4.875 7.132812 -4.671875 7.65625 -4.671875 C 8.175781 -4.671875 8.539062 -4.875 8.75 -5.28125 C 8.957031 -5.695312 9.0625 -6.3125 9.0625 -7.125 L 9.0625 -10.953125 L 7.625 -10.953125 L 7.625 -15.5625 L 14.15625 -15.5625 L 14.15625 0 L 12.015625 0 L 11.109375 -2.234375 C 10.160156 -0.578125 8.6875 0.25 6.6875 0.25 Z M 6.6875 0.25 "/></g></g></g><g fill="#ffffff" fill-opacity="1"><g transform="translate(147.060728, 75.120357)"><g><path d="M 1.1875 -26.734375 L 9.40625 -26.734375 C 10.707031 -26.734375 11.71875 -26.4375 12.4375 -25.84375 C 13.15625 -25.257812 13.632812 -24.429688 13.875 -23.359375 C 14.125 -22.285156 14.25 -20.921875 14.25 -19.265625 C 14.25 -17.753906 14.050781 -16.570312 13.65625 -15.71875 C 13.269531 -14.863281 12.585938 -14.269531 11.609375 -13.9375 C 12.421875 -13.769531 13.003906 -13.363281 13.359375 -12.71875 C 13.722656 -12.082031 13.90625 -11.210938 13.90625 -10.109375 L 13.84375 0 L 8.625 0 L 8.625 -10.453125 C 8.625 -11.203125 8.476562 -11.679688 8.1875 -11.890625 C 7.894531 -12.097656 7.363281 -12.203125 6.59375 -12.203125 L 6.59375 0 L 1.1875 0 Z M 7.90625 -16.84375 C 8.65625 -16.84375 9.03125 -17.648438 9.03125 -19.265625 C 9.03125 -19.972656 9 -20.503906 8.9375 -20.859375 C 8.875 -21.210938 8.757812 -21.453125 8.59375 -21.578125 C 8.425781 -21.710938 8.1875 -21.78125 7.875 -21.78125 L 6.625 -21.78125 L 6.625 -16.84375 Z M 7.90625 -16.84375 "/></g></g></g><g fill="#ffffff" fill-opacity="1"><g transform="translate(161.906193, 75.120357)"><g><path d="M 7.5625 0.25 C 5.40625 0.25 3.765625 -0.40625 2.640625 -1.71875 C 1.523438 -3.039062 0.96875 -4.894531 0.96875 -7.28125 L 0.96875 -20.015625 C 0.96875 -22.316406 1.523438 -24.050781 2.640625 -25.21875 C 3.765625 -26.394531 5.40625 -26.984375 7.5625 -26.984375 C 9.71875 -26.984375 11.351562 -26.394531 12.46875 -25.21875 C 13.59375 -24.050781 14.15625 -22.316406 14.15625 -20.015625 L 14.15625 -7.28125 C 14.15625 -4.875 13.59375 -3.015625 12.46875 -1.703125 C 11.351562 -0.398438 9.71875 0.25 7.5625 0.25 Z M 7.5625 -4.671875 C 8.039062 -4.671875 8.363281 -4.875 8.53125 -5.28125 C 8.695312 -5.695312 8.78125 -6.28125 8.78125 -7.03125 L 8.78125 -20.109375 C 8.78125 -20.691406 8.703125 -21.160156 8.546875 -21.515625 C 8.390625 -21.878906 8.070312 -22.0625 7.59375 -22.0625 C 6.695312 -22.0625 6.25 -21.390625 6.25 -20.046875 L 6.25 -7 C 6.25 -6.226562 6.34375 -5.644531 6.53125 -5.25 C 6.71875 -4.863281 7.0625 -4.671875 7.5625 -4.671875 Z M 7.5625 -4.671875 "/></g></g></g><g fill="#ffffff" fill-opacity="1"><g transform="translate(177.031758, 75.120357)"><g><path d="M 7.375 0.25 C 5.175781 0.25 3.539062 -0.367188 2.46875 -1.609375 C 1.40625 -2.859375 0.875 -4.707031 0.875 -7.15625 L 0.875 -26.734375 L 6.0625 -26.734375 L 6.0625 -7.375 C 6.0625 -6.519531 6.144531 -5.851562 6.3125 -5.375 C 6.476562 -4.90625 6.832031 -4.671875 7.375 -4.671875 C 7.914062 -4.671875 8.269531 -4.898438 8.4375 -5.359375 C 8.601562 -5.828125 8.6875 -6.5 8.6875 -7.375 L 8.6875 -26.734375 L 13.875 -26.734375 L 13.875 -7.15625 C 13.875 -4.707031 13.335938 -2.859375 12.265625 -1.609375 C 11.203125 -0.367188 9.570312 0.25 7.375 0.25 Z M 7.375 0.25 "/></g></g></g><g fill="#ffffff" fill-opacity="1"><g transform="translate(191.783854, 75.120357)"><g><path d="M 1.1875 -26.734375 L 8.25 -26.734375 C 10.382812 -26.734375 11.90625 -26.039062 12.8125 -24.65625 C 13.726562 -23.28125 14.1875 -21.265625 14.1875 -18.609375 C 14.1875 -15.953125 13.78125 -13.945312 12.96875 -12.59375 C 12.164062 -11.25 10.71875 -10.578125 8.625 -10.578125 L 6.4375 -10.578125 L 6.4375 0 L 1.1875 0 Z M 6.75 -15.40625 C 7.394531 -15.40625 7.867188 -15.523438 8.171875 -15.765625 C 8.472656 -16.003906 8.671875 -16.347656 8.765625 -16.796875 C 8.859375 -17.242188 8.90625 -17.878906 8.90625 -18.703125 C 8.90625 -19.828125 8.78125 -20.632812 8.53125 -21.125 C 8.28125 -21.625 7.78125 -21.875 7.03125 -21.875 L 6.4375 -21.875 L 6.4375 -15.40625 Z M 6.75 -15.40625 "/></g></g></g></svg>