<svg xmlns="http://www.w3.org/2000/svg" xmlns:xlink="http://www.w3.org/1999/xlink" width="487" zoomAndPan="magnify" viewBox="0 0 365.25 780.749981" height="1041" preserveAspectRatio="xMidYMid meet" version="1.2"><defs><clipPath id="9f01a64985"><path d="M 2.832031 724.042969 L 331.605469 724.042969 L 331.605469 778.8125 L 2.832031 778.8125 Z M 2.832031 724.042969 "/></clipPath><clipPath id="3bcb696b60"><path d="M 294.164062 196 L 363.753906 196 L 363.753906 255.820312 L 294.164062 255.820312 Z M 294.164062 196 "/></clipPath><clipPath id="06a556afc0"><path d="M 2.832031 724.070312 L 329.324219 724.070312 L 329.324219 778.839844 L 2.832031 778.839844 Z M 2.832031 724.070312 "/></clipPath><clipPath id="9551841951"><path d="M 297 198 L 329.324219 198 L 329.324219 253 L 297 253 Z M 297 198 "/></clipPath><clipPath id="a4bf0d2a3b"><path d="M 301 204 L 329.324219 204 L 329.324219 253 L 301 253 Z M 301 204 "/></clipPath><clipPath id="fea8bb161e"><path d="M 294.164062 196 L 329.324219 196 L 329.324219 255.847656 L 294.164062 255.847656 Z M 294.164062 196 "/></clipPath><clipPath id="1dce507d97"><path d="M 325 206 L 329.324219 206 L 329.324219 229 L 325 229 Z M 325 206 "/></clipPath><clipPath id="152f1dc087"><path d="M 300 215 L 329.324219 215 L 329.324219 258 L 300 258 Z M 300 215 "/></clipPath><clipPath id="5353604b50"><path d="M 298 213 L 329.324219 213 L 329.324219 261 L 298 261 Z M 298 213 "/></clipPath><clipPath id="ab60d360b0"><path d="M 315 269 L 329.324219 269 L 329.324219 297 L 315 297 Z M 315 269 "/></clipPath><clipPath id="06952dedd4"><path d="M 315 307 L 329.324219 307 L 329.324219 334 L 315 334 Z M 315 307 "/></clipPath><clipPath id="ef16b2d561"><path d="M 69 62.640625 L 144 62.640625 L 144 98 L 69 98 Z M 69 62.640625 "/></clipPath><clipPath id="253894f46a"><path d="M 75 62.640625 L 145 62.640625 L 145 96 L 75 96 Z M 75 62.640625 "/></clipPath><clipPath id="8faf121742"><path d="M 66 62.640625 L 146 62.640625 L 146 101 L 66 101 Z M 66 62.640625 "/></clipPath><clipPath id="9bbd33a7b1"><path d="M 79 62.640625 L 147 62.640625 L 147 107 L 79 107 Z M 79 62.640625 "/></clipPath><clipPath id="e8c5b12615"><path d="M 84 62.640625 L 147 62.640625 L 147 104 L 84 104 Z M 84 62.640625 "/></clipPath><clipPath id="9c9099984e"><path d="M 77 62.640625 L 149 62.640625 L 149 109 L 77 109 Z M 77 62.640625 "/></clipPath><clipPath id="b60a59838b"><path d="M 128 62.640625 L 137 62.640625 L 137 63 L 128 63 Z M 128 62.640625 "/></clipPath><clipPath id="db86cbd8d8"><path d="M 110 62.640625 L 120 62.640625 L 120 71 L 110 71 Z M 110 62.640625 "/></clipPath></defs><g id="801c565d38"><g clip-rule="nonzero" clip-path="url(#9f01a64985)"><path style=" stroke:none;fill-rule:nonzero;fill:#eaf2f4;fill-opacity:1;" d="M 331.183594 751.875 C 331.183594 766.75 257.6875 778.8125 167.03125 778.8125 C 76.371094 778.8125 2.878906 766.75 2.878906 751.875 C 2.878906 736.992188 76.371094 724.929688 167.03125 724.929688 C 257.6875 724.929688 331.183594 736.992188 331.183594 751.875 "/></g><path style=" stroke:none;fill-rule:nonzero;fill:#262262;fill-opacity:1;" d="M 231.355469 725.386719 L 213.753906 725.390625 C 205.320312 725.398438 197.035156 723.15625 189.75 718.898438 L 155.285156 718.917969 C 147.523438 718.921875 141.230469 725.226562 141.238281 733.003906 L 141.242188 751.875 L 189.769531 751.84375 L 189.765625 745.660156 L 200.886719 751.839844 L 257.769531 751.808594 C 257.765625 737.207031 245.933594 725.375 231.355469 725.386719 "/><path style=" stroke:none;fill-rule:nonzero;fill:#ffffff;fill-opacity:1;" d="M 87.816406 347.160156 L 164.046875 336.800781 L 183.628906 540.675781 L 193.335938 721.042969 L 136.066406 725.832031 L 124.191406 534.101562 L 87.65625 347.183594 L 87.816406 347.160156 "/><path style=" stroke:none;fill-rule:nonzero;fill:#24325b;fill-opacity:1;" d="M 163.066406 336.671875 L 185.117188 540.546875 L 194.824219 720.914062 L 144.078125 725.964844 L 132.199219 534.230469 L 95.667969 347.3125 L 163.066406 336.671875 "/><path style=" stroke:none;fill-rule:nonzero;fill:#262262;fill-opacity:1;" d="M 136.066406 728.175781 C 135.507812 728.175781 134.960938 727.976562 134.539062 727.605469 C 134.058594 727.191406 133.769531 726.605469 133.730469 725.976562 L 121.867188 534.402344 L 85.359375 347.632812 C 85.234375 347 85.375 346.347656 85.75 345.820312 C 86.125 345.296875 86.695312 344.949219 87.332031 344.859375 L 163.730469 334.476562 C 164.355469 334.398438 164.992188 334.5625 165.492188 334.957031 C 165.992188 335.347656 166.308594 335.925781 166.375 336.558594 L 187.4375 540.433594 L 189.703125 582.242188 C 189.777344 583.535156 188.785156 584.640625 187.492188 584.710938 C 186.210938 584.832031 185.097656 583.789062 185.027344 582.496094 L 182.769531 540.804688 L 161.964844 339.449219 L 90.429688 349.171875 L 126.488281 533.652344 C 126.511719 533.75 126.523438 533.855469 126.527344 533.953125 L 138.253906 723.300781 L 194.625 718.703125 C 195.90625 718.589844 197.042969 719.5625 197.148438 720.855469 C 197.253906 722.140625 196.292969 723.273438 195.003906 723.382812 L 136.257812 728.167969 C 136.191406 728.175781 136.132812 728.175781 136.066406 728.175781 "/><path style=" stroke:none;fill-rule:nonzero;fill:#262262;fill-opacity:1;" d="M 92.996094 725.386719 L 75.394531 725.390625 C 66.960938 725.398438 58.675781 723.15625 51.390625 718.898438 L 16.929688 718.917969 C 9.164062 718.921875 2.875 725.226562 2.878906 733.003906 L 2.886719 751.875 L 51.410156 751.84375 L 51.410156 745.660156 L 62.527344 751.839844 L 119.410156 751.808594 C 119.402344 737.207031 107.578125 725.375 92.996094 725.386719 "/><path style=" stroke:none;fill-rule:nonzero;fill:#ffffff;fill-opacity:1;" d="M 30.976562 534.101562 L 43.152344 358.476562 C 44.390625 348.410156 42.230469 338.71875 47.203125 329.984375 L 119.890625 343.996094 L 87.902344 546.839844 L 59.4375 721.042969 L 2.429688 721.042969 L 30.976562 534.101562 "/><path style=" stroke:none;fill-rule:nonzero;fill:#24325b;fill-opacity:1;" d="M 39.695312 534.101562 L 51.867188 358.476562 C 53.105469 348.410156 50.945312 338.71875 55.917969 329.984375 L 120.722656 343.996094 L 88.394531 546.839844 L 59.882812 721.042969 L 11.148438 721.042969 L 39.695312 534.101562 "/><path style=" stroke:none;fill-rule:nonzero;fill:#262262;fill-opacity:1;" d="M 60.671875 723.386719 L 2.429688 723.386719 C 1.75 723.386719 1.101562 723.089844 0.65625 722.570312 C 0.210938 722.050781 0.015625 721.367188 0.121094 720.691406 L 28.648438 533.84375 L 40.816406 358.3125 C 41.214844 355.070312 41.257812 351.910156 41.300781 348.851562 C 41.398438 342.175781 41.5 335.265625 45.167969 328.824219 C 45.808594 327.695312 47.242188 327.3125 48.363281 327.945312 C 49.484375 328.589844 49.878906 330.023438 49.238281 331.144531 C 46.164062 336.542969 46.074219 342.554688 45.988281 348.917969 C 45.941406 352.101562 45.890625 355.390625 45.476562 358.761719 L 33.316406 534.261719 C 33.308594 534.332031 33.300781 534.390625 33.292969 534.457031 L 5.160156 718.699219 L 60.671875 718.699219 C 61.964844 718.699219 63.011719 719.75 63.011719 721.042969 C 63.011719 722.339844 61.964844 723.386719 60.671875 723.386719 "/><path style=" stroke:none;fill-rule:nonzero;fill:#262262;fill-opacity:1;" d="M 80.503906 598.796875 C 80.378906 598.796875 80.257812 598.789062 80.128906 598.769531 C 78.855469 598.566406 77.988281 597.367188 78.191406 596.082031 L 86.085938 546.472656 L 113.066406 372.691406 C 113.265625 371.414062 114.464844 370.542969 115.742188 370.738281 C 117.019531 370.9375 117.890625 372.136719 117.691406 373.414062 L 90.710938 547.203125 L 82.8125 596.824219 C 82.628906 597.976562 81.636719 598.796875 80.503906 598.796875 "/><path style=" stroke:none;fill-rule:nonzero;fill:#ffffff;fill-opacity:1;" d="M 297.261719 234.234375 C 297.261719 234.234375 310.125 224.824219 313.535156 221.621094 C 316.945312 218.414062 327.75 206.445312 332.664062 202.6875 C 337.582031 198.929688 348.292969 197.457031 350.109375 198.753906 C 354.175781 201.679688 360.503906 219.648438 361.835938 225.367188 C 362.492188 228.175781 354.800781 235.792969 351.304688 238.65625 C 348.484375 240.964844 338.503906 244.410156 317.621094 252.726562 L 297.261719 234.234375 "/><path style=" stroke:none;fill-rule:nonzero;fill:#ea5444;fill-opacity:1;" d="M 301.914062 238.457031 C 301.914062 238.457031 313.867188 230.636719 317.277344 227.429688 C 320.683594 224.222656 333.699219 211.648438 338.617188 207.890625 C 343.53125 204.136719 354.910156 204.988281 354.910156 204.988281 C 354.910156 204.988281 361 219.558594 361.835938 225.367188 C 362.492188 229.921875 357.3125 231.894531 350.96875 238.53125 C 348.449219 241.164062 338.167969 244.285156 317.285156 252.605469 L 301.914062 238.457031 "/><g clip-rule="nonzero" clip-path="url(#3bcb696b60)"><path style=" stroke:none;fill-rule:nonzero;fill:#262262;fill-opacity:1;" d="M 359.117188 226.503906 Z M 300.375 233.890625 L 318.109375 250.011719 L 346.789062 238.585938 C 350.65625 236.949219 358.527344 228.957031 359.097656 226.609375 C 356.609375 216.03125 352.289062 203.664062 348.988281 200.851562 C 346.964844 200.582031 337.972656 201.582031 334.085938 204.554688 C 330.964844 206.941406 325.007812 213.15625 320.65625 217.691406 C 318.335938 220.117188 316.328125 222.210938 315.136719 223.328125 C 312.515625 225.792969 304.527344 231.15625 300.375 233.890625 Z M 317.617188 255.074219 C 317.046875 255.074219 316.484375 254.863281 316.046875 254.460938 L 294.980469 235.324219 C 294.441406 234.835938 294.160156 234.125 294.21875 233.398438 C 294.28125 232.671875 294.671875 232.011719 295.285156 231.621094 C 299.011719 229.210938 309.257812 222.421875 311.933594 219.910156 C 313.03125 218.878906 315 216.824219 317.28125 214.445312 C 321.984375 209.535156 327.835938 203.433594 331.246094 200.824219 C 336.265625 196.992188 348.808594 194.9375 351.472656 196.851562 C 357.878906 201.453125 363.128906 223.273438 363.707031 225.746094 C 364.832031 230.570312 353.050781 241.027344 348.566406 242.921875 L 318.484375 254.90625 C 318.203125 255.019531 317.910156 255.074219 317.617188 255.074219 "/></g><path style=" stroke:none;fill-rule:nonzero;fill:#262262;fill-opacity:1;" d="M 327.859375 228.667969 C 326.785156 228.667969 325.820312 227.921875 325.578125 226.832031 C 325.296875 225.574219 326.089844 224.320312 327.347656 224.035156 C 327.890625 223.910156 340.703125 220.851562 341.980469 208.675781 C 342.085938 207.628906 342.878906 206.785156 343.910156 206.609375 C 344.949219 206.425781 345.972656 206.964844 346.421875 207.914062 C 347.746094 210.695312 350.898438 215.304688 353.738281 215.835938 C 354.390625 215.953125 355.417969 215.964844 356.839844 214.621094 C 357.777344 213.734375 359.257812 213.773438 360.144531 214.714844 C 361.039062 215.65625 360.996094 217.140625 360.054688 218.03125 C 357.3125 220.625 354.628906 220.773438 352.871094 220.441406 C 349.71875 219.851562 347.085938 217.304688 345.21875 214.859375 C 341.734375 223.40625 333.15625 227.542969 328.371094 228.613281 C 328.199219 228.648438 328.027344 228.667969 327.859375 228.667969 "/><path style=" stroke:none;fill-rule:nonzero;fill:#c8d4de;fill-opacity:1;" d="M 329.695312 252.230469 L 312.644531 257.859375 L 300.519531 221.035156 L 317.566406 215.40625 L 329.695312 252.230469 "/><path style=" stroke:none;fill-rule:nonzero;fill:#ffffff;fill-opacity:1;" d="M 319.996094 222.785156 L 302.949219 228.414062 L 300.519531 221.035156 L 317.566406 215.40625 L 319.996094 222.785156 "/><path style=" stroke:none;fill-rule:nonzero;fill:#262262;fill-opacity:1;" d="M 303.476562 222.527344 L 314.136719 254.898438 L 326.738281 250.734375 L 316.078125 218.367188 Z M 312.644531 260.203125 C 311.660156 260.203125 310.746094 259.578125 310.421875 258.589844 L 298.296875 221.773438 C 297.890625 220.542969 298.558594 219.214844 299.785156 218.808594 L 316.832031 213.179688 C 317.425781 212.988281 318.0625 213.035156 318.621094 213.3125 C 319.175781 213.589844 319.597656 214.085938 319.789062 214.671875 L 331.917969 251.492188 C 332.113281 252.085938 332.0625 252.730469 331.785156 253.28125 C 331.507812 253.839844 331.015625 254.261719 330.425781 254.453125 L 313.375 260.085938 C 313.132812 260.164062 312.886719 260.203125 312.644531 260.203125 "/><path style=" stroke:none;fill-rule:nonzero;fill:#ffffff;fill-opacity:1;" d="M 114.402344 156.230469 C 118.976562 174.980469 123.726562 189.269531 134.535156 206.023438 C 144.269531 221.117188 152.589844 232.761719 167.15625 243.304688 C 206.203125 271.574219 253.496094 280.429688 298.191406 265.550781 C 300.3125 264.84375 306.722656 263.054688 309.058594 262.25 C 306.667969 246.363281 305.601562 233.203125 301.207031 218.164062 C 290.421875 221.757812 280.398438 225.453125 268.882812 226.554688 C 230.132812 230.261719 192.578125 216.890625 174.160156 181.085938 C 165.132812 163.535156 168.015625 142.007812 151.613281 129.539062 C 132.648438 115.113281 108.847656 133.457031 114.402344 156.230469 "/><path style=" stroke:none;fill-rule:nonzero;fill:#d9ab39;fill-opacity:1;" d="M 124.785156 159.824219 C 129.359375 178.574219 134.246094 193.863281 145.050781 210.617188 C 154.789062 225.710938 166.132812 243.1875 182.367188 252.945312 C 247.101562 291.871094 306.722656 263.054688 309.058594 262.25 C 306.667969 246.363281 307.488281 241.359375 303.09375 226.320312 C 292.308594 229.914062 281.078125 233.734375 269.5625 234.839844 C 230.808594 238.546875 196.910156 224.121094 172.96875 181.164062 C 163.359375 163.929688 169.078125 143.722656 152.679688 131.25 C 133.714844 116.824219 119.230469 137.054688 124.785156 159.824219 "/><path style=" stroke:none;fill-rule:nonzero;fill:#262262;fill-opacity:1;" d="M 309.054688 264.597656 C 307.851562 264.597656 306.824219 263.664062 306.726562 262.4375 C 305.867188 251.707031 303.507812 238.195312 299.519531 221.199219 L 298.617188 221.503906 C 288.886719 224.78125 279.695312 227.875 269.109375 228.886719 C 225.542969 233.054688 189.273438 215.585938 172.078125 182.160156 C 168.5625 175.328125 166.808594 167.996094 165.105469 160.902344 C 163.09375 152.503906 161.191406 144.574219 156.609375 138.054688 C 155.863281 136.996094 156.117188 135.535156 157.171875 134.789062 C 158.230469 134.039062 159.691406 134.292969 160.433594 135.351562 C 165.539062 142.609375 167.632812 151.351562 169.664062 159.8125 C 171.296875 166.628906 172.984375 173.6875 176.242188 180.011719 C 192.773438 212.144531 226.457031 228.25 268.664062 224.21875 C 278.714844 223.257812 287.660156 220.246094 297.125 217.058594 L 300.46875 215.9375 C 301.09375 215.730469 301.773438 215.796875 302.347656 216.113281 C 302.921875 216.429688 303.335938 216.976562 303.488281 217.617188 C 307.886719 236.027344 310.472656 250.566406 311.394531 262.0625 C 311.496094 263.351562 310.535156 264.484375 309.25 264.589844 C 309.183594 264.59375 309.121094 264.597656 309.054688 264.597656 "/><path style=" stroke:none;fill-rule:nonzero;fill:#262262;fill-opacity:1;" d="M 248.269531 274.507812 C 248.246094 274.507812 248.21875 274.507812 248.191406 274.507812 C 230.824219 273.925781 214.207031 270.308594 197.386719 263.449219 C 163.554688 249.652344 136.464844 213.734375 132.53125 207.234375 C 121.230469 188.558594 116.347656 174.085938 112.128906 156.785156 C 111.824219 155.527344 112.589844 154.257812 113.847656 153.953125 C 115.109375 153.644531 116.371094 154.417969 116.675781 155.675781 C 120.898438 172.976562 125.5 186.5625 136.535156 204.804688 C 140.128906 210.738281 166.925781 245.964844 199.15625 259.105469 C 215.453125 265.753906 231.546875 269.257812 248.347656 269.824219 C 249.640625 269.863281 250.652344 270.949219 250.609375 272.246094 C 250.566406 273.511719 249.527344 274.507812 248.269531 274.507812 "/><path style=" stroke:none;fill-rule:nonzero;fill:#ffffff;fill-opacity:1;" d="M 160.835938 138.074219 C 148.996094 120.402344 119.214844 118.816406 91.902344 122.078125 C 64.101562 125.394531 49.007812 135.332031 43.71875 157.976562 C 39.9375 174.164062 53.03125 232.917969 49.320312 265.921875 C 45.398438 300.746094 41.515625 340.71875 41.515625 340.71875 C 41.515625 340.71875 54.152344 350.6875 92.625 352.316406 C 141.78125 354.398438 171.992188 341.886719 171.992188 341.886719 L 166.964844 287.429688 C 171.46875 262.710938 174.855469 216.257812 176.382812 203.421875 C 178.410156 186.390625 175.835938 160.46875 160.835938 138.074219 "/><path style=" stroke:none;fill-rule:nonzero;fill:#d9ab39;fill-opacity:1;" d="M 111.835938 125.351562 C 139.144531 122.089844 151.664062 125.5 162.179688 140.554688 C 177.601562 162.65625 178.1875 186.101562 176.164062 203.132812 C 174.636719 215.96875 171.246094 262.421875 166.742188 287.140625 L 171.992188 341.886719 C 171.992188 341.886719 148.023438 354.511719 98.863281 352.425781 C 60.390625 350.796875 50.3125 345.070312 50.3125 345.070312 C 50.3125 345.070312 54.46875 297.359375 58.386719 262.535156 C 62.105469 229.53125 52.5625 173.984375 52.515625 157.324219 C 52.445312 134.070312 84.03125 128.671875 111.835938 125.351562 "/><path style=" stroke:none;fill-rule:nonzero;fill:#262262;fill-opacity:1;" d="M 103.757812 354.898438 C 100.132812 354.898438 96.386719 354.824219 92.523438 354.660156 C 53.742188 353.015625 40.609375 342.984375 40.066406 342.558594 C 39.441406 342.058594 39.109375 341.277344 39.1875 340.484375 L 43.425781 297.816406 L 46.992188 265.660156 C 49.703125 241.574219 45.824219 203.746094 43.253906 178.714844 C 42.328125 169.664062 41.589844 162.511719 41.378906 158.089844 C 40.171875 133.136719 52.835938 126.636719 91.496094 119.769531 C 129.734375 112.976562 156.066406 125.035156 164.339844 139.121094 C 180.773438 167.101562 180.410156 189.378906 178.710938 203.699219 C 178.28125 207.300781 177.710938 213.503906 176.988281 221.355469 C 175.207031 240.738281 172.515625 270.023438 169.265625 287.851562 C 169.035156 289.125 167.8125 289.960938 166.542969 289.738281 C 165.269531 289.503906 164.429688 288.28125 164.660156 287.007812 C 167.871094 269.390625 170.554688 240.222656 172.328125 220.925781 C 173.050781 213.039062 173.621094 206.808594 174.058594 203.144531 C 175.683594 189.496094 176.023438 168.257812 160.300781 141.496094 C 150.109375 124.148438 118.386719 119.75 92.3125 124.386719 C 53.273438 131.320312 45.058594 137.261719 46.054688 157.863281 C 46.265625 162.160156 46.992188 169.257812 47.914062 178.238281 C 50.5 203.46875 54.414062 241.59375 51.644531 266.183594 L 48.082031 298.308594 L 43.988281 339.539062 C 47.640625 341.726562 61.535156 348.65625 92.722656 349.972656 C 134.46875 351.734375 162.671875 342.769531 169.5 340.320312 L 166.710938 310.167969 C 166.59375 308.878906 167.539062 307.738281 168.828125 307.617188 C 170.113281 307.519531 171.257812 308.445312 171.375 309.738281 L 174.324219 341.671875 C 174.417969 342.691406 173.835938 343.660156 172.886719 344.054688 C 171.734375 344.53125 146.179688 354.898438 103.757812 354.898438 "/><path style=" stroke:none;fill-rule:nonzero;fill:#ffffff;fill-opacity:1;" d="M 257.550781 210.644531 C 257.550781 210.644531 275.199219 210.066406 279.601562 208.480469 C 284.003906 206.894531 296.765625 201.289062 302.339844 198.605469 C 307.914062 195.925781 314.363281 190.191406 314.03125 187.976562 C 313.277344 183.027344 309.101562 168.128906 304.621094 164.347656 C 302.421875 162.488281 285.730469 165.230469 281.59375 167.046875 C 278.253906 168.515625 270.660156 175.859375 253.777344 190.710938 L 257.550781 210.644531 "/><path style=" stroke:none;fill-rule:nonzero;fill:#ea5444;fill-opacity:1;" d="M 257.550781 210.644531 C 257.550781 210.644531 277.929688 209.425781 282.332031 207.839844 C 286.730469 206.253906 298.714844 199.933594 304.285156 197.253906 C 309.863281 194.574219 314.871094 189.394531 314.535156 187.183594 C 313.785156 182.230469 308.445312 176.808594 306.304688 171.347656 C 304.925781 167.824219 291.605469 171.714844 285.429688 173.722656 C 281.957031 174.847656 272.125 183.609375 255.246094 198.460938 L 257.550781 210.644531 "/><path style=" stroke:none;fill-rule:nonzero;fill:#262262;fill-opacity:1;" d="M 311.757812 187.628906 Z M 256.324219 191.589844 L 259.476562 208.226562 C 266.433594 207.9375 276.105469 207.25 278.808594 206.277344 C 283.015625 204.757812 295.625 199.238281 301.328125 196.496094 C 305.835938 194.328125 310.691406 189.511719 311.636719 187.871094 C 310.460938 181.707031 303.703125 168.660156 299.992188 165.523438 C 299.222656 164.878906 295.472656 165.875 293.457031 166.417969 C 292.363281 166.703125 291.265625 166.996094 290.214844 167.21875 C 287.914062 167.714844 286.496094 167.878906 285.558594 167.980469 C 283.816406 168.175781 283.769531 168.179688 279.511719 171.191406 Z M 257.550781 212.988281 C 256.429688 212.988281 255.460938 212.1875 255.253906 211.082031 L 251.476562 191.152344 C 251.324219 190.335938 251.609375 189.5 252.230469 188.949219 L 276.515625 167.585938 C 276.574219 167.535156 276.644531 167.480469 276.710938 167.433594 C 281.703125 163.90625 282.246094 163.632812 285.035156 163.324219 C 285.933594 163.222656 287.15625 163.082031 289.230469 162.636719 C 290.214844 162.425781 291.238281 162.152344 292.253906 161.882812 C 296.25 160.820312 300.382812 159.722656 303.007812 161.941406 C 308.027344 166.175781 315.347656 181.089844 316.339844 187.625 C 316.894531 191.25 308.011719 198.480469 303.355469 200.71875 C 297.492188 203.539062 284.828125 209.085938 280.390625 210.6875 C 275.777344 212.351562 259.472656 212.925781 257.628906 212.984375 C 257.601562 212.988281 257.578125 212.988281 257.550781 212.988281 "/><path style=" stroke:none;fill-rule:nonzero;fill:#c8d4de;fill-opacity:1;" d="M 273.292969 215.277344 L 256.160156 220.644531 L 244.605469 183.636719 L 261.738281 178.273438 L 273.292969 215.277344 "/><path style=" stroke:none;fill-rule:nonzero;fill:#ffffff;fill-opacity:1;" d="M 264.054688 185.6875 L 246.921875 191.050781 L 244.605469 183.636719 L 261.738281 178.273438 L 264.054688 185.6875 "/><path style=" stroke:none;fill-rule:nonzero;fill:#262262;fill-opacity:1;" d="M 247.539062 185.175781 L 257.695312 217.703125 L 270.359375 213.742188 L 260.203125 181.210938 Z M 256.160156 222.988281 C 255.164062 222.988281 254.238281 222.34375 253.925781 221.34375 L 242.371094 184.339844 C 241.984375 183.101562 242.671875 181.789062 243.90625 181.402344 L 261.039062 176.035156 C 261.632812 175.855469 262.273438 175.90625 262.824219 176.195312 C 263.375 176.488281 263.785156 176.980469 263.972656 177.574219 L 275.527344 214.582031 C 275.714844 215.175781 275.65625 215.816406 275.367188 216.367188 C 275.082031 216.917969 274.585938 217.332031 273.992188 217.515625 L 256.859375 222.878906 C 256.625 222.953125 256.390625 222.988281 256.160156 222.988281 "/><path style=" stroke:none;fill-rule:nonzero;fill:#ffffff;fill-opacity:1;" d="M 43.816406 166.964844 C 52.539062 184.175781 60.425781 197 74.761719 210.84375 C 87.683594 223.320312 98.433594 232.757812 115.019531 239.695312 C 159.476562 258.292969 207.542969 256.113281 247.667969 231.414062 C 249.574219 230.242188 255.410156 227.039062 257.5 225.71875 C 251.550781 210.796875 247.515625 198.226562 239.808594 184.589844 C 230.125 190.554688 221.207031 196.441406 210.25 200.140625 C 173.367188 212.605469 133.757812 208.167969 107.660156 177.515625 C 94.871094 162.488281 92.773438 140.871094 73.96875 132.476562 C 52.214844 122.765625 33.222656 146.066406 43.816406 166.964844 "/><path style=" stroke:none;fill-rule:nonzero;fill:#d9ab39;fill-opacity:1;" d="M 49.808594 162.675781 C 58.53125 179.882812 68.238281 194.867188 82.574219 208.707031 C 95.496094 221.183594 112.355469 235.667969 129.019531 242.414062 C 199.015625 270.777344 255.410156 227.039062 257.5 225.71875 C 251.550781 210.796875 250.636719 205.910156 242.929688 192.273438 C 233.246094 198.234375 224.328125 204.121094 213.371094 207.824219 C 176.484375 220.289062 133.757812 208.167969 107.660156 177.515625 C 94.871094 162.488281 92.773438 140.871094 73.96875 132.476562 C 52.214844 122.765625 39.210938 141.773438 49.808594 162.675781 "/><path style=" stroke:none;fill-rule:nonzero;fill:#262262;fill-opacity:1;" d="M 63.742188 132.546875 C 58.355469 132.546875 53.304688 134.707031 49.34375 138.875 C 42.554688 146.023438 41.207031 156.632812 45.90625 165.90625 C 53.957031 181.792969 61.535156 193.964844 76.433594 209.199219 C 88.5 221.539062 99.3125 230.585938 115.921875 237.53125 C 152.613281 252.882812 192.648438 253.761719 225.757812 239.949219 C 235.230469 236 249.863281 227.511719 254.6875 224.660156 C 251.367188 214.738281 246.167969 202.679688 238.859375 187.933594 L 238.058594 188.429688 C 229.324219 193.84375 221.078125 198.960938 211 202.367188 C 169.535156 216.375 130.238281 207.652344 105.878906 179.035156 C 100.902344 173.1875 97.523438 166.449219 94.25 159.9375 C 88.980469 149.4375 84.007812 139.523438 73.015625 134.621094 C 69.910156 133.230469 66.769531 132.546875 63.742188 132.546875 Z M 175.355469 254.398438 C 155.003906 254.398438 134.074219 250.207031 114.117188 241.859375 C 96.777344 234.601562 85.5625 225.242188 73.089844 212.484375 C 57.832031 196.882812 49.777344 183.910156 41.730469 168.027344 C 36.121094 156.964844 37.777344 144.253906 45.949219 135.644531 C 53.453125 127.738281 64.558594 125.710938 74.921875 130.335938 C 87.441406 135.921875 93.03125 147.058594 98.433594 157.828125 C 101.582031 164.097656 104.832031 170.578125 109.445312 175.996094 C 132.859375 203.503906 169.332031 211.496094 209.5 197.921875 C 219.070312 194.6875 227.09375 189.710938 235.59375 184.441406 L 238.582031 182.589844 C 239.140625 182.246094 239.816406 182.152344 240.449219 182.335938 C 241.082031 182.511719 241.605469 182.949219 241.902344 183.539062 C 250.378906 200.457031 256.210938 214.019531 259.730469 225.003906 C 260.058594 226.039062 259.636719 227.167969 258.707031 227.730469 C 257.917969 228.207031 239.296875 239.382812 227.558594 244.28125 C 211.371094 251.03125 193.597656 254.398438 175.355469 254.398438 "/><path style=" stroke:none;fill-rule:nonzero;fill:#262262;fill-opacity:1;" d="M 260.464844 276.097656 C 260.382812 276.097656 260.316406 276.167969 260.316406 276.25 L 260.316406 290.039062 C 260.316406 290.125 260.382812 290.1875 260.464844 290.1875 L 263.558594 290.1875 C 263.640625 290.1875 263.707031 290.125 263.707031 290.039062 L 263.707031 276.25 C 263.707031 276.167969 263.640625 276.097656 263.558594 276.097656 Z M 263.558594 296.355469 L 260.464844 296.355469 C 256.984375 296.355469 254.152344 293.523438 254.152344 290.039062 L 254.152344 276.25 C 254.152344 272.761719 256.984375 269.929688 260.464844 269.929688 L 263.558594 269.929688 C 267.039062 269.929688 269.867188 272.761719 269.867188 276.25 L 269.867188 290.039062 C 269.867188 293.523438 267.039062 296.355469 263.558594 296.355469 "/><path style=" stroke:none;fill-rule:nonzero;fill:#262262;fill-opacity:1;" d="M 262.886719 313.488281 C 262.882812 313.488281 262.878906 313.488281 262.878906 313.488281 L 259.792969 313.691406 C 259.722656 313.691406 259.652344 313.777344 259.65625 313.847656 L 260.550781 327.609375 C 260.554688 327.679688 260.601562 327.761719 260.707031 327.75 L 263.792969 327.546875 C 263.863281 327.542969 263.9375 327.460938 263.933594 327.390625 L 263.039062 313.632812 C 263.035156 313.5625 262.953125 313.488281 262.886719 313.488281 Z M 260.6875 333.917969 C 259.160156 333.917969 257.695312 333.371094 256.535156 332.351562 C 255.265625 331.238281 254.511719 329.691406 254.398438 328.011719 L 253.507812 314.25 C 253.398438 312.566406 253.949219 310.9375 255.0625 309.671875 C 256.175781 308.398438 257.714844 307.640625 259.398438 307.53125 L 262.480469 307.332031 C 264.167969 307.242188 265.789062 307.777344 267.054688 308.886719 C 268.320312 310.003906 269.078125 311.546875 269.191406 313.230469 L 270.082031 326.984375 C 270.191406 328.671875 269.640625 330.300781 268.527344 331.570312 C 267.414062 332.835938 265.875 333.597656 264.191406 333.703125 L 261.109375 333.910156 C 260.96875 333.914062 260.828125 333.917969 260.6875 333.917969 "/><path style=" stroke:none;fill-rule:nonzero;fill:#262262;fill-opacity:1;" d="M 261.796875 277.996094 C 261.769531 277.996094 261.738281 277.996094 261.714844 277.996094 C 260.011719 277.949219 258.667969 276.53125 258.714844 274.828125 L 259.257812 254.742188 C 259.308594 253.042969 260.765625 251.683594 262.421875 251.746094 C 264.125 251.789062 265.464844 253.207031 265.417969 254.910156 L 264.875 274.996094 C 264.832031 276.671875 263.457031 277.996094 261.796875 277.996094 "/><path style=" stroke:none;fill-rule:nonzero;fill:#262262;fill-opacity:1;" d="M 260.796875 238.890625 C 260.710938 238.890625 260.644531 238.957031 260.644531 239.042969 L 260.644531 252.832031 C 260.644531 252.914062 260.710938 252.984375 260.796875 252.984375 L 263.886719 252.984375 C 263.96875 252.984375 264.035156 252.914062 264.035156 252.832031 L 264.035156 239.042969 C 264.035156 238.957031 263.96875 238.890625 263.886719 238.890625 Z M 263.886719 259.152344 L 260.796875 259.152344 C 257.3125 259.152344 254.480469 256.316406 254.480469 252.832031 L 254.480469 239.042969 C 254.480469 235.558594 257.3125 232.722656 260.796875 232.722656 L 263.886719 232.722656 C 267.363281 232.722656 270.195312 235.558594 270.195312 239.042969 L 270.195312 252.832031 C 270.195312 256.316406 267.363281 259.152344 263.886719 259.152344 "/><path style=" stroke:none;fill-rule:nonzero;fill:#262262;fill-opacity:1;" d="M 262.125 240.789062 C 262.097656 240.789062 262.070312 240.789062 262.042969 240.785156 C 260.339844 240.742188 259 239.324219 259.042969 237.621094 L 259.589844 217.539062 C 259.636719 215.835938 261.09375 214.433594 262.753906 214.539062 C 264.453125 214.582031 265.792969 216.003906 265.746094 217.703125 L 265.203125 237.789062 C 265.15625 239.460938 263.785156 240.789062 262.125 240.789062 "/><path style=" stroke:none;fill-rule:nonzero;fill:#262262;fill-opacity:1;" d="M 261.636719 314.933594 C 261.621094 314.933594 261.601562 314.933594 261.585938 314.933594 C 259.886719 314.902344 258.527344 313.5 258.554688 311.800781 L 258.875 291.542969 C 258.902344 289.835938 260.265625 288.414062 262 288.503906 C 263.703125 288.535156 265.0625 289.933594 265.035156 291.636719 L 264.714844 311.894531 C 264.6875 313.582031 263.316406 314.933594 261.636719 314.933594 "/><path style=" stroke:none;fill-rule:nonzero;fill:#262262;fill-opacity:1;" d="M 272.15625 345.582031 C 272.089844 345.582031 272.035156 345.621094 272.007812 345.6875 L 270.992188 348.605469 C 270.96875 348.671875 271.011719 348.773438 271.082031 348.796875 L 284.078125 353.355469 C 284.144531 353.378906 284.246094 353.332031 284.265625 353.261719 L 285.289062 350.34375 C 285.320312 350.265625 285.277344 350.179688 285.199219 350.152344 L 272.203125 345.59375 C 272.1875 345.585938 272.167969 345.582031 272.15625 345.582031 Z M 284.128906 359.539062 C 283.429688 359.539062 282.722656 359.417969 282.035156 359.179688 L 269.042969 354.621094 C 267.453125 354.0625 266.175781 352.917969 265.445312 351.394531 C 264.714844 349.875 264.617188 348.160156 265.171875 346.570312 L 266.195312 343.648438 C 267.347656 340.359375 270.953125 338.625 274.238281 339.769531 L 287.234375 344.328125 C 290.515625 345.484375 292.253906 349.09375 291.105469 352.382812 L 290.085938 355.304688 C 289.527344 356.894531 288.382812 358.179688 286.863281 358.910156 C 285.996094 359.328125 285.066406 359.539062 284.128906 359.539062 "/><path style=" stroke:none;fill-rule:nonzero;fill:#262262;fill-opacity:1;" d="M 269.554688 350.261719 C 268.316406 350.261719 267.152344 349.511719 266.679688 348.285156 L 259.390625 329.390625 C 258.777344 327.800781 259.566406 326.015625 261.152344 325.398438 C 262.742188 324.785156 264.523438 325.578125 265.136719 327.167969 L 272.425781 346.070312 C 273.039062 347.65625 272.25 349.445312 270.664062 350.054688 C 270.296875 350.199219 269.921875 350.261719 269.554688 350.261719 "/><path style=" stroke:none;fill-rule:nonzero;fill:#262262;fill-opacity:1;" d="M 322.023438 276.097656 C 321.9375 276.097656 321.875 276.167969 321.875 276.25 L 321.875 290.039062 C 321.875 290.125 321.9375 290.1875 322.023438 290.1875 L 325.113281 290.1875 C 325.199219 290.1875 325.265625 290.125 325.265625 290.039062 L 325.265625 276.25 C 325.265625 276.167969 325.199219 276.097656 325.113281 276.097656 Z M 325.113281 296.355469 L 322.023438 296.355469 C 318.542969 296.355469 315.714844 293.523438 315.714844 290.039062 L 315.714844 276.25 C 315.714844 272.761719 318.542969 269.929688 322.023438 269.929688 L 325.113281 269.929688 C 328.59375 269.929688 331.429688 272.761719 331.429688 276.25 L 331.429688 290.039062 C 331.429688 293.523438 328.59375 296.355469 325.113281 296.355469 "/><path style=" stroke:none;fill-rule:nonzero;fill:#262262;fill-opacity:1;" d="M 322.6875 313.488281 C 322.613281 313.488281 322.542969 313.550781 322.539062 313.632812 L 321.644531 327.390625 C 321.640625 327.457031 321.714844 327.542969 321.785156 327.546875 L 324.871094 327.75 C 324.996094 327.765625 325.027344 327.679688 325.03125 327.609375 L 325.921875 313.847656 C 325.929688 313.777344 325.855469 313.691406 325.785156 313.691406 L 322.699219 313.488281 C 322.695312 313.488281 322.691406 313.488281 322.6875 313.488281 Z M 324.890625 333.917969 C 324.75 333.917969 324.609375 333.914062 324.472656 333.910156 L 321.386719 333.703125 C 319.707031 333.597656 318.164062 332.835938 317.054688 331.570312 C 315.941406 330.300781 315.386719 328.671875 315.496094 326.988281 L 316.390625 313.230469 C 316.617188 309.753906 319.617188 307.121094 323.097656 307.332031 L 326.183594 307.53125 C 327.863281 307.640625 329.40625 308.398438 330.519531 309.671875 C 331.628906 310.9375 332.179688 312.5625 332.074219 314.25 L 331.179688 328.011719 C 331.066406 329.691406 330.3125 331.238281 329.042969 332.351562 C 327.882812 333.371094 326.421875 333.917969 324.890625 333.917969 "/><path style=" stroke:none;fill-rule:nonzero;fill:#262262;fill-opacity:1;" d="M 323.78125 277.996094 C 322.257812 277.996094 320.9375 276.871094 320.734375 275.316406 L 318.078125 255.234375 C 317.855469 253.542969 319.039062 251.992188 320.726562 251.769531 C 322.421875 251.566406 323.960938 252.734375 324.183594 254.421875 L 326.839844 274.503906 C 327.0625 276.195312 325.875 277.75 324.191406 277.96875 C 324.050781 277.988281 323.914062 277.996094 323.78125 277.996094 "/><path style=" stroke:none;fill-rule:nonzero;fill:#262262;fill-opacity:1;" d="M 323.941406 314.933594 C 322.261719 314.933594 320.890625 313.582031 320.863281 311.894531 L 320.542969 291.636719 C 320.519531 289.933594 321.878906 288.535156 323.574219 288.503906 C 325.265625 288.425781 326.679688 289.835938 326.703125 291.542969 L 327.027344 311.800781 C 327.050781 313.5 325.695312 314.902344 323.992188 314.933594 C 323.976562 314.933594 323.960938 314.933594 323.941406 314.933594 "/><path style=" stroke:none;fill-rule:nonzero;fill:#262262;fill-opacity:1;" d="M 301.3125 353.261719 C 301.335938 353.332031 301.4375 353.386719 301.5 353.355469 L 314.496094 348.796875 C 314.566406 348.773438 314.609375 348.671875 314.589844 348.609375 L 313.570312 345.683594 C 313.539062 345.605469 313.457031 345.570312 313.375 345.59375 L 300.382812 350.152344 C 300.304688 350.179688 300.261719 350.265625 300.292969 350.34375 Z M 301.445312 359.539062 C 300.511719 359.539062 299.585938 359.328125 298.714844 358.910156 C 297.199219 358.179688 296.054688 356.894531 295.496094 355.304688 L 294.476562 352.382812 C 293.324219 349.097656 295.0625 345.484375 298.34375 344.332031 L 311.339844 339.769531 C 314.625 338.625 318.234375 340.355469 319.382812 343.648438 L 320.40625 346.570312 C 320.960938 348.160156 320.863281 349.875 320.136719 351.394531 C 319.40625 352.917969 318.125 354.0625 316.535156 354.621094 L 303.542969 359.179688 C 302.855469 359.417969 302.148438 359.539062 301.445312 359.539062 "/><path style=" stroke:none;fill-rule:nonzero;fill:#262262;fill-opacity:1;" d="M 316.027344 350.261719 C 315.65625 350.261719 315.28125 350.199219 314.917969 350.054688 C 313.332031 349.445312 312.539062 347.65625 313.152344 346.070312 L 320.445312 327.167969 C 321.054688 325.578125 322.835938 324.78125 324.425781 325.398438 C 326.011719 326.015625 326.800781 327.800781 326.1875 329.390625 L 318.898438 348.285156 C 318.429688 349.511719 317.261719 350.261719 316.027344 350.261719 "/><path style=" stroke:none;fill-rule:nonzero;fill:#262262;fill-opacity:1;" d="M 285.863281 354.894531 C 284.175781 354.894531 282.804688 353.535156 282.78125 351.839844 C 282.765625 350.136719 284.128906 348.746094 285.832031 348.722656 L 300.738281 348.5625 C 300.746094 348.5625 300.757812 348.5625 300.769531 348.5625 C 302.457031 348.5625 303.832031 349.921875 303.851562 351.617188 C 303.871094 353.320312 302.503906 354.714844 300.800781 354.730469 L 285.898438 354.894531 C 285.886719 354.894531 285.875 354.894531 285.863281 354.894531 "/><path style=" stroke:none;fill-rule:nonzero;fill:#ffffff;fill-opacity:1;" d="M 94.125 84.207031 L 88.675781 122.457031 C 87.609375 125.910156 114.550781 142.523438 131.097656 143.179688 C 133.15625 141.746094 128.015625 131.964844 127.90625 129.460938 L 132.5 98.398438 L 94.125 84.207031 "/><path style=" stroke:none;fill-rule:nonzero;fill:#ea5444;fill-opacity:1;" d="M 100.429688 93.519531 L 95.5 128.453125 C 102.046875 135.007812 113.808594 143.300781 130.359375 143.949219 C 132.328125 142.582031 127.277344 132.742188 127.167969 130.234375 L 131.761719 99.167969 L 100.429688 93.519531 "/><path style=" stroke:none;fill-rule:nonzero;fill:#262262;fill-opacity:1;" d="M 88.675781 122.457031 L 88.691406 122.457031 Z M 90.914062 123.140625 C 90.910156 123.140625 90.910156 123.144531 90.910156 123.144531 C 90.910156 123.144531 90.910156 123.140625 90.914062 123.140625 Z M 91.035156 122.484375 C 93.257812 126.101562 114.101562 138.910156 128.953125 140.65625 C 128.632812 138.847656 127.628906 136.167969 127.0625 134.667969 C 126.257812 132.53125 125.621094 130.84375 125.566406 129.566406 C 125.5625 129.414062 125.570312 129.265625 125.589844 129.117188 L 129.902344 99.9375 L 96.035156 87.410156 Z M 131.101562 145.523438 C 131.070312 145.523438 131.042969 145.523438 131.007812 145.519531 C 115.394531 144.90625 91.460938 131.167969 87.226562 125.1875 C 86.4375 124.070312 86.152344 123.003906 86.375 122.003906 L 91.804688 83.878906 C 91.90625 83.179688 92.320312 82.558594 92.925781 82.195312 C 93.535156 81.832031 94.273438 81.769531 94.933594 82.011719 L 133.308594 96.195312 C 134.347656 96.578125 134.976562 97.644531 134.816406 98.738281 L 130.261719 129.519531 C 130.382812 130.195312 130.992188 131.8125 131.445312 133.019531 C 132.886719 136.855469 134.519531 141.203125 133.246094 144.117188 C 132.871094 144.972656 132.03125 145.523438 131.101562 145.523438 "/><path style=" stroke:none;fill-rule:nonzero;fill:#ffffff;fill-opacity:1;" d="M 139.171875 37.820312 C 147.652344 55.644531 143.875 87.097656 126.066406 95.589844 C 108.261719 104.082031 83.171875 86.40625 74.695312 68.582031 C 66.214844 50.757812 65.320312 27.21875 90.738281 16.46875 C 119.207031 4.4375 130.691406 19.996094 139.171875 37.820312 "/><path style=" stroke:none;fill-rule:nonzero;fill:#24325b;fill-opacity:1;" d="M 139.398438 38.300781 C 147.785156 55.921875 145.3125 86.410156 129.179688 94.105469 C 113.050781 101.800781 89.371094 83.789062 80.988281 66.167969 C 72.601562 48.546875 71.03125 25.609375 94.101562 15.96875 C 119.9375 5.167969 131.015625 20.683594 139.398438 38.300781 "/><path style=" stroke:none;fill-rule:nonzero;fill:#262262;fill-opacity:1;" d="M 108.964844 14.492188 C 104.039062 14.492188 98.351562 15.800781 91.652344 18.632812 C 82.539062 22.484375 76.460938 28.277344 73.585938 35.84375 C 69 47.921875 73.636719 60.90625 76.808594 67.570312 C 80.847656 76.058594 88.992188 84.625 98.0625 89.929688 C 103.84375 93.308594 115.039062 98.261719 125.0625 93.472656 C 132.484375 89.933594 137.996094 81.292969 140.175781 69.769531 C 142.210938 59.003906 141.015625 47.152344 137.054688 38.828125 C 130.023438 24.046875 122.285156 14.492188 108.964844 14.492188 Z M 115.960938 100.140625 C 109.613281 100.140625 102.699219 98.066406 95.707031 93.976562 C 85.714844 88.140625 77.070312 79.023438 72.582031 69.585938 C 69.089844 62.246094 64.003906 47.886719 69.210938 34.179688 C 72.558594 25.367188 79.492188 18.683594 89.832031 14.308594 C 119.644531 1.703125 132.179688 17.675781 141.285156 36.816406 C 145.71875 46.128906 147.023438 58.773438 144.777344 70.640625 C 142.316406 83.652344 135.863281 93.511719 127.078125 97.707031 C 123.667969 99.332031 119.925781 100.140625 115.960938 100.140625 "/><path style=" stroke:none;fill-rule:nonzero;fill:#ffffff;fill-opacity:1;" d="M 145.160156 61.402344 C 140.851562 39.410156 131.300781 20.75 111.222656 25.378906 C 99.722656 28.03125 82.234375 34.667969 87.453125 49.816406 C 86.632812 55.292969 84.957031 59.421875 90.351562 68.972656 C 88.105469 68.191406 85.824219 68.21875 83.882812 69.261719 C 79.261719 71.746094 78.3125 78.96875 81.753906 85.394531 C 84.792969 91.066406 90.238281 94.21875 94.644531 93.175781 C 104.160156 103.035156 117.847656 108.160156 128.191406 106.128906 C 144.125 102.996094 149.46875 83.390625 145.160156 61.402344 "/><path style=" stroke:none;fill-rule:nonzero;fill:#ea5444;fill-opacity:1;" d="M 145.160156 61.402344 C 140.851562 39.410156 131.300781 20.75 111.222656 25.378906 C 99.722656 28.03125 82.234375 34.667969 87.453125 49.816406 C 86.632812 55.292969 84.957031 59.421875 90.351562 68.972656 C 88.105469 68.191406 88.667969 67.765625 86.722656 68.808594 C 82.105469 71.289062 84.425781 79.472656 89.285156 85.089844 C 93.492188 89.957031 95.554688 90.152344 99.96875 89.117188 C 109.484375 98.972656 120.929688 105.046875 131.300781 103.152344 C 144.921875 100.660156 149.46875 83.390625 145.160156 61.402344 "/><path style=" stroke:none;fill-rule:nonzero;fill:#262262;fill-opacity:1;" d="M 94.648438 90.835938 C 95.273438 90.835938 95.886719 91.085938 96.332031 91.546875 C 105.144531 100.679688 118.0625 105.722656 127.738281 103.828125 C 143.273438 100.773438 146.527344 80.546875 142.863281 61.851562 C 139.640625 45.410156 134.261719 34.644531 126.878906 29.847656 C 122.542969 27.035156 117.59375 26.320312 111.753906 27.667969 C 100.636719 30.226562 92.957031 34.441406 90.144531 39.527344 C 88.585938 42.34375 88.429688 45.460938 89.667969 49.058594 C 89.789062 49.414062 89.828125 49.796875 89.769531 50.167969 C 89.667969 50.84375 89.554688 51.496094 89.441406 52.148438 C 88.667969 56.617188 88.054688 60.144531 92.386719 67.816406 C 92.871094 68.667969 92.773438 69.726562 92.148438 70.472656 C 91.519531 71.226562 90.5 71.503906 89.582031 71.1875 C 88.382812 70.773438 86.617188 70.453125 84.988281 71.328125 C 81.574219 73.164062 81.035156 79.097656 83.820312 84.285156 C 86.265625 88.863281 90.679688 91.714844 94.109375 90.894531 C 94.289062 90.851562 94.472656 90.835938 94.648438 90.835938 Z M 123.414062 108.917969 C 113.488281 108.917969 102.265625 103.984375 93.828125 95.683594 C 88.597656 96.152344 82.941406 92.566406 79.691406 86.503906 C 75.640625 78.945312 77.027344 70.285156 82.773438 67.195312 C 83.867188 66.613281 85.0625 66.257812 86.308594 66.136719 C 83.417969 59.460938 84.132812 55.34375 84.828125 51.34375 C 84.902344 50.90625 84.980469 50.464844 85.054688 50.019531 C 83.589844 45.382812 83.925781 41.085938 86.046875 37.253906 C 90.492188 29.222656 101.910156 25.121094 110.699219 23.097656 C 117.742188 21.472656 124.046875 22.417969 129.429688 25.914062 C 137.914062 31.425781 143.980469 43.210938 147.457031 60.949219 C 152.402344 86.160156 144.839844 105.242188 128.644531 108.425781 C 126.957031 108.757812 125.207031 108.917969 123.414062 108.917969 "/><path style=" stroke:none;fill-rule:nonzero;fill:#262262;fill-opacity:1;" d="M 92.988281 95.707031 C 88.085938 95.707031 82.757812 92.230469 79.691406 86.503906 C 75.640625 78.945312 77.027344 70.285156 82.773438 67.195312 C 86.902344 64.976562 92.339844 66.148438 96.636719 70.171875 C 97.582031 71.054688 97.632812 72.539062 96.746094 73.484375 C 95.867188 74.429688 94.386719 74.484375 93.441406 73.59375 C 90.632812 70.96875 87.316406 70.074219 84.988281 71.328125 C 81.574219 73.164062 81.035156 79.097656 83.820312 84.285156 C 86.597656 89.476562 91.839844 92.316406 95.246094 90.472656 C 95.9375 90.101562 96.523438 89.5625 96.988281 88.863281 C 97.707031 87.789062 99.160156 87.496094 100.238281 88.210938 C 101.308594 88.933594 101.601562 90.386719 100.882812 91.464844 C 99.988281 92.808594 98.835938 93.867188 97.460938 94.605469 C 96.070312 95.351562 94.550781 95.707031 92.988281 95.707031 "/><path style=" stroke:none;fill-rule:nonzero;fill:#ffffff;fill-opacity:1;" d="M 122.679688 90.203125 C 126.1875 88.164062 131.917969 85.265625 138.277344 83.765625 C 140.089844 83.335938 140.507812 80.972656 138.960938 79.933594 C 136.515625 78.304688 132.738281 77.019531 127.789062 79.078125 C 122.613281 81.226562 120.433594 84.511719 119.582031 87.804688 C 119.109375 89.640625 121.039062 91.15625 122.679688 90.203125 "/><path style=" stroke:none;fill-rule:nonzero;fill:#262262;fill-opacity:1;" d="M 98.019531 60.160156 C 97.496094 60.160156 96.96875 59.980469 96.535156 59.621094 C 95.535156 58.792969 95.394531 57.316406 96.21875 56.320312 C 101.8125 49.546875 108.707031 43.25 108.996094 42.980469 C 109.949219 42.105469 111.429688 42.179688 112.300781 43.136719 C 113.171875 44.09375 113.105469 45.578125 112.148438 46.449219 C 112.078125 46.511719 105.207031 52.796875 99.828125 59.304688 C 99.367188 59.867188 98.695312 60.160156 98.019531 60.160156 "/><path style=" stroke:none;fill-rule:nonzero;fill:#262262;fill-opacity:1;" d="M 125 47.058594 C 123.925781 47.058594 122.953125 46.308594 122.714844 45.214844 C 122.445312 43.945312 123.242188 42.699219 124.503906 42.421875 C 124.792969 42.363281 131.496094 40.914062 136.621094 41.660156 C 137.902344 41.84375 138.789062 43.03125 138.609375 44.3125 C 138.421875 45.59375 137.25 46.5 135.953125 46.300781 C 131.671875 45.6875 125.5625 46.996094 125.5 47.007812 C 125.332031 47.042969 125.164062 47.058594 125 47.058594 "/><path style=" stroke:none;fill-rule:nonzero;fill:#262262;fill-opacity:1;" d="M 128.953125 59.109375 C 129.988281 61.839844 132.523438 63.40625 134.605469 62.613281 C 136.6875 61.820312 137.542969 58.960938 136.503906 56.238281 C 135.46875 53.507812 132.9375 51.9375 130.851562 52.734375 C 128.769531 53.527344 127.917969 56.378906 128.953125 59.109375 "/><path style=" stroke:none;fill-rule:nonzero;fill:#262262;fill-opacity:1;" d="M 110.625 66.085938 C 111.710938 68.949219 114.371094 70.597656 116.558594 69.765625 C 118.746094 68.933594 119.636719 65.9375 118.550781 63.070312 C 117.464844 60.207031 114.804688 58.558594 112.617188 59.394531 C 110.433594 60.226562 109.539062 63.222656 110.625 66.085938 "/><g clip-rule="nonzero" clip-path="url(#06a556afc0)"><path style=" stroke:none;fill-rule:nonzero;fill:#eaf2f4;fill-opacity:1;" d="M 331.183594 751.902344 C 331.183594 766.777344 257.6875 778.839844 167.03125 778.839844 C 76.371094 778.839844 2.878906 766.777344 2.878906 751.902344 C 2.878906 737.019531 76.371094 724.960938 167.03125 724.960938 C 257.6875 724.960938 331.183594 737.019531 331.183594 751.902344 "/></g><path style=" stroke:none;fill-rule:nonzero;fill:#262262;fill-opacity:1;" d="M 231.355469 725.414062 L 213.753906 725.417969 C 205.320312 725.425781 197.035156 723.183594 189.75 718.925781 L 155.285156 718.945312 C 147.523438 718.949219 141.230469 725.253906 141.238281 733.03125 L 141.246094 751.902344 L 189.769531 751.871094 L 189.765625 745.6875 L 200.886719 751.867188 L 257.769531 751.835938 C 257.765625 737.234375 245.933594 725.402344 231.355469 725.414062 "/><path style=" stroke:none;fill-rule:nonzero;fill:#ffffff;fill-opacity:1;" d="M 87.816406 347.1875 L 164.046875 336.828125 L 183.628906 540.703125 L 193.335938 721.074219 L 136.066406 725.859375 L 124.191406 534.128906 L 87.65625 347.210938 L 87.816406 347.1875 "/><path style=" stroke:none;fill-rule:nonzero;fill:#24325b;fill-opacity:1;" d="M 163.066406 336.699219 L 185.117188 540.574219 L 194.824219 720.941406 L 144.078125 725.992188 L 132.199219 534.257812 L 95.667969 347.339844 L 163.066406 336.699219 "/><path style=" stroke:none;fill-rule:nonzero;fill:#262262;fill-opacity:1;" d="M 136.066406 728.203125 C 135.507812 728.203125 134.960938 728.003906 134.539062 727.632812 C 134.058594 727.21875 133.769531 726.632812 133.730469 726.003906 L 121.867188 534.429688 L 85.359375 347.660156 C 85.234375 347.027344 85.375 346.375 85.75 345.851562 C 86.125 345.324219 86.695312 344.976562 87.332031 344.890625 L 163.730469 334.503906 C 164.355469 334.425781 164.992188 334.589844 165.492188 334.988281 C 165.992188 335.375 166.308594 335.953125 166.375 336.585938 L 187.4375 540.460938 L 189.703125 582.269531 C 189.777344 583.5625 188.785156 584.667969 187.492188 584.738281 C 186.210938 584.859375 185.097656 583.816406 185.027344 582.523438 L 182.769531 540.832031 L 161.964844 339.476562 L 90.429688 349.199219 L 126.488281 533.679688 C 126.511719 533.777344 126.523438 533.882812 126.527344 533.984375 L 138.253906 723.332031 L 194.625 718.734375 C 195.90625 718.617188 197.042969 719.589844 197.148438 720.882812 C 197.253906 722.167969 196.292969 723.300781 195.003906 723.410156 L 136.257812 728.195312 C 136.191406 728.203125 136.132812 728.203125 136.066406 728.203125 "/><path style=" stroke:none;fill-rule:nonzero;fill:#262262;fill-opacity:1;" d="M 92.996094 725.414062 L 75.394531 725.417969 C 66.960938 725.425781 58.675781 723.183594 51.390625 718.925781 L 16.929688 718.945312 C 9.164062 718.949219 2.875 725.253906 2.878906 733.03125 L 2.886719 751.902344 L 51.410156 751.871094 L 51.410156 745.6875 L 62.527344 751.867188 L 119.410156 751.835938 C 119.40625 737.234375 107.578125 725.402344 92.996094 725.414062 "/><path style=" stroke:none;fill-rule:nonzero;fill:#ffffff;fill-opacity:1;" d="M 30.976562 534.128906 L 43.152344 358.503906 C 44.390625 348.441406 42.230469 338.746094 47.203125 330.015625 L 119.890625 344.023438 L 87.902344 546.867188 L 59.4375 721.074219 L 2.429688 721.074219 L 30.976562 534.128906 "/><path style=" stroke:none;fill-rule:nonzero;fill:#24325b;fill-opacity:1;" d="M 39.695312 534.128906 L 51.867188 358.503906 C 53.105469 348.441406 50.945312 338.746094 55.917969 330.015625 L 120.722656 344.023438 L 88.394531 546.867188 L 59.882812 721.074219 L 11.148438 721.074219 L 39.695312 534.128906 "/><path style=" stroke:none;fill-rule:nonzero;fill:#262262;fill-opacity:1;" d="M 60.671875 723.414062 L 2.429688 723.414062 C 1.75 723.414062 1.101562 723.121094 0.65625 722.597656 C 0.210938 722.078125 0.015625 721.394531 0.121094 720.71875 L 28.648438 533.871094 L 40.816406 358.34375 C 41.214844 355.097656 41.257812 351.9375 41.300781 348.878906 C 41.398438 342.203125 41.5 335.292969 45.167969 328.851562 C 45.808594 327.722656 47.242188 327.339844 48.363281 327.972656 C 49.484375 328.617188 49.878906 330.050781 49.238281 331.171875 C 46.164062 336.570312 46.074219 342.582031 45.988281 348.945312 C 45.941406 352.128906 45.890625 355.417969 45.476562 358.789062 L 33.316406 534.289062 C 33.308594 534.359375 33.300781 534.417969 33.292969 534.484375 L 5.160156 718.726562 L 60.671875 718.726562 C 61.964844 718.726562 63.011719 719.777344 63.011719 721.074219 C 63.011719 722.367188 61.964844 723.414062 60.671875 723.414062 "/><path style=" stroke:none;fill-rule:nonzero;fill:#262262;fill-opacity:1;" d="M 80.503906 598.828125 C 80.378906 598.828125 80.257812 598.816406 80.128906 598.796875 C 78.855469 598.59375 77.988281 597.394531 78.191406 596.109375 L 86.085938 546.5 L 113.066406 372.71875 C 113.265625 371.441406 114.464844 370.570312 115.742188 370.765625 C 117.019531 370.964844 117.890625 372.164062 117.691406 373.441406 L 90.710938 547.230469 L 82.8125 596.851562 C 82.628906 598.003906 81.636719 598.828125 80.503906 598.828125 "/><g clip-rule="nonzero" clip-path="url(#9551841951)"><path style=" stroke:none;fill-rule:nonzero;fill:#ffffff;fill-opacity:1;" d="M 297.261719 234.261719 C 297.261719 234.261719 310.125 224.855469 313.535156 221.648438 C 316.945312 218.441406 327.75 206.472656 332.664062 202.714844 C 337.582031 198.957031 348.292969 197.484375 350.109375 198.785156 C 354.175781 201.707031 360.503906 219.675781 361.835938 225.394531 C 362.492188 228.203125 354.800781 235.820312 351.304688 238.683594 C 348.484375 240.992188 338.503906 244.4375 317.621094 252.753906 L 297.261719 234.261719 "/></g><g clip-rule="nonzero" clip-path="url(#a4bf0d2a3b)"><path style=" stroke:none;fill-rule:nonzero;fill:#ea5444;fill-opacity:1;" d="M 301.914062 238.484375 C 301.914062 238.484375 313.867188 230.664062 317.277344 227.457031 C 320.683594 224.25 333.699219 211.675781 338.617188 207.917969 C 343.53125 204.164062 354.910156 205.015625 354.910156 205.015625 C 354.910156 205.015625 361 219.585938 361.835938 225.394531 C 362.492188 229.953125 357.3125 231.921875 350.96875 238.558594 C 348.449219 241.191406 338.167969 244.3125 317.285156 252.632812 L 301.914062 238.484375 "/></g><g clip-rule="nonzero" clip-path="url(#fea8bb161e)"><path style=" stroke:none;fill-rule:nonzero;fill:#262262;fill-opacity:1;" d="M 359.117188 226.53125 Z M 300.375 233.921875 L 318.109375 250.039062 L 346.789062 238.613281 C 350.65625 236.976562 358.527344 228.984375 359.097656 226.636719 C 356.609375 216.058594 352.289062 203.691406 348.988281 200.878906 C 346.964844 200.609375 337.972656 201.609375 334.085938 204.582031 C 330.964844 206.96875 325.007812 213.183594 320.65625 217.71875 C 318.335938 220.144531 316.328125 222.238281 315.136719 223.355469 C 312.515625 225.820312 304.527344 231.183594 300.375 233.921875 Z M 317.617188 255.101562 C 317.046875 255.101562 316.484375 254.890625 316.046875 254.488281 L 294.980469 235.351562 C 294.441406 234.863281 294.160156 234.152344 294.21875 233.425781 C 294.28125 232.699219 294.671875 232.042969 295.285156 231.648438 C 299.011719 229.242188 309.261719 222.449219 311.933594 219.9375 C 313.03125 218.90625 315 216.851562 317.28125 214.472656 C 321.984375 209.566406 327.835938 203.460938 331.246094 200.851562 C 336.265625 197.019531 348.808594 194.964844 351.472656 196.878906 C 357.878906 201.480469 363.128906 223.300781 363.707031 225.773438 C 364.832031 230.597656 353.050781 241.054688 348.566406 242.949219 L 318.484375 254.9375 C 318.203125 255.046875 317.910156 255.101562 317.617188 255.101562 "/></g><g clip-rule="nonzero" clip-path="url(#1dce507d97)"><path style=" stroke:none;fill-rule:nonzero;fill:#262262;fill-opacity:1;" d="M 327.859375 228.695312 C 326.785156 228.695312 325.820312 227.949219 325.578125 226.863281 C 325.296875 225.601562 326.089844 224.347656 327.347656 224.0625 C 327.890625 223.9375 340.703125 220.878906 341.980469 208.703125 C 342.085938 207.65625 342.878906 206.8125 343.910156 206.640625 C 344.949219 206.453125 345.972656 206.992188 346.421875 207.941406 C 347.746094 210.722656 350.898438 215.332031 353.738281 215.863281 C 354.390625 215.980469 355.417969 215.992188 356.839844 214.648438 C 357.777344 213.761719 359.257812 213.800781 360.144531 214.746094 C 361.039062 215.683594 360.996094 217.167969 360.054688 218.058594 C 357.3125 220.652344 354.628906 220.800781 352.871094 220.46875 C 349.71875 219.878906 347.085938 217.335938 345.21875 214.886719 C 341.734375 223.433594 333.15625 227.570312 328.371094 228.640625 C 328.199219 228.675781 328.027344 228.695312 327.859375 228.695312 "/></g><g clip-rule="nonzero" clip-path="url(#152f1dc087)"><path style=" stroke:none;fill-rule:nonzero;fill:#c8d4de;fill-opacity:1;" d="M 329.695312 252.257812 L 312.644531 257.886719 L 300.519531 221.0625 L 317.570312 215.433594 L 329.695312 252.257812 "/></g><path style=" stroke:none;fill-rule:nonzero;fill:#ffffff;fill-opacity:1;" d="M 319.996094 222.8125 L 302.949219 228.441406 L 300.519531 221.0625 L 317.570312 215.433594 L 319.996094 222.8125 "/><g clip-rule="nonzero" clip-path="url(#5353604b50)"><path style=" stroke:none;fill-rule:nonzero;fill:#262262;fill-opacity:1;" d="M 303.476562 222.558594 L 314.136719 254.925781 L 326.738281 250.761719 L 316.078125 218.394531 Z M 312.644531 260.230469 C 311.660156 260.230469 310.746094 259.605469 310.421875 258.617188 L 298.296875 221.800781 C 297.890625 220.570312 298.558594 219.242188 299.785156 218.839844 L 316.832031 213.207031 C 317.425781 213.015625 318.0625 213.0625 318.621094 213.339844 C 319.175781 213.617188 319.597656 214.113281 319.789062 214.703125 L 331.917969 251.519531 C 332.113281 252.113281 332.0625 252.757812 331.785156 253.308594 C 331.507812 253.867188 331.019531 254.289062 330.425781 254.480469 L 313.375 260.113281 C 313.132812 260.191406 312.886719 260.230469 312.644531 260.230469 "/></g><path style=" stroke:none;fill-rule:nonzero;fill:#ffffff;fill-opacity:1;" d="M 114.402344 156.257812 C 118.976562 175.007812 123.726562 189.296875 134.535156 206.050781 C 144.269531 221.144531 152.589844 232.789062 167.15625 243.332031 C 206.203125 271.601562 253.496094 280.457031 298.191406 265.578125 C 300.3125 264.871094 306.722656 263.082031 309.058594 262.277344 C 306.667969 246.390625 305.601562 233.230469 301.207031 218.191406 C 290.421875 221.785156 280.398438 225.484375 268.882812 226.582031 C 230.132812 230.289062 192.578125 216.917969 174.160156 181.113281 C 165.132812 163.566406 168.015625 142.035156 151.613281 129.566406 C 132.648438 115.144531 108.847656 133.484375 114.402344 156.257812 "/><path style=" stroke:none;fill-rule:nonzero;fill:#d9ab39;fill-opacity:1;" d="M 124.785156 159.851562 C 129.359375 178.605469 134.246094 193.890625 145.050781 210.644531 C 154.789062 225.738281 166.132812 243.214844 182.367188 252.972656 C 247.101562 291.898438 306.722656 263.082031 309.058594 262.277344 C 306.667969 246.390625 307.488281 241.386719 303.09375 226.347656 C 292.308594 229.941406 281.078125 233.761719 269.5625 234.867188 C 230.808594 238.574219 196.910156 224.148438 172.96875 181.195312 C 163.359375 163.957031 169.078125 143.75 152.679688 131.277344 C 133.714844 116.855469 119.230469 137.082031 124.785156 159.851562 "/><path style=" stroke:none;fill-rule:nonzero;fill:#262262;fill-opacity:1;" d="M 309.054688 264.625 C 307.851562 264.625 306.824219 263.691406 306.726562 262.464844 C 305.867188 251.734375 303.507812 238.222656 299.519531 221.226562 L 298.617188 221.53125 C 288.886719 224.808594 279.695312 227.902344 269.109375 228.914062 C 225.542969 233.082031 189.273438 215.613281 172.078125 182.1875 C 168.5625 175.355469 166.808594 168.023438 165.105469 160.933594 C 163.09375 152.535156 161.191406 144.601562 156.609375 138.082031 C 155.863281 137.023438 156.117188 135.5625 157.171875 134.816406 C 158.230469 134.070312 159.691406 134.320312 160.433594 135.378906 C 165.539062 142.636719 167.632812 151.378906 169.664062 159.839844 C 171.296875 166.65625 172.984375 173.714844 176.242188 180.039062 C 192.773438 212.171875 226.457031 228.28125 268.664062 224.246094 C 278.714844 223.285156 287.660156 220.273438 297.125 217.085938 L 300.46875 215.964844 C 301.09375 215.757812 301.773438 215.824219 302.347656 216.140625 C 302.921875 216.457031 303.335938 217.003906 303.488281 217.644531 C 307.886719 236.054688 310.472656 250.59375 311.394531 262.089844 C 311.496094 263.378906 310.535156 264.511719 309.25 264.617188 C 309.183594 264.621094 309.121094 264.625 309.054688 264.625 "/><path style=" stroke:none;fill-rule:nonzero;fill:#262262;fill-opacity:1;" d="M 248.269531 274.535156 C 248.246094 274.535156 248.21875 274.535156 248.191406 274.535156 C 230.824219 273.953125 214.210938 270.335938 197.386719 263.476562 C 163.554688 249.679688 136.464844 213.761719 132.53125 207.261719 C 121.230469 188.585938 116.347656 174.113281 112.128906 156.8125 C 111.824219 155.554688 112.589844 154.289062 113.847656 153.980469 C 115.109375 153.671875 116.371094 154.445312 116.675781 155.703125 C 120.898438 173.003906 125.5 186.589844 136.535156 204.832031 C 140.128906 210.765625 166.925781 245.992188 199.15625 259.132812 C 215.453125 265.78125 231.546875 269.285156 248.347656 269.851562 C 249.640625 269.894531 250.652344 270.980469 250.609375 272.273438 C 250.566406 273.539062 249.527344 274.535156 248.269531 274.535156 "/><path style=" stroke:none;fill-rule:nonzero;fill:#ffffff;fill-opacity:1;" d="M 160.835938 138.101562 C 148.996094 120.429688 119.214844 118.84375 91.902344 122.105469 C 64.101562 125.421875 49.007812 135.359375 43.71875 158.007812 C 39.9375 174.191406 53.03125 232.945312 49.320312 265.949219 C 45.398438 300.773438 41.515625 340.746094 41.515625 340.746094 C 41.515625 340.746094 54.152344 350.714844 92.625 352.34375 C 141.78125 354.425781 171.992188 341.914062 171.992188 341.914062 L 166.964844 287.457031 C 171.46875 262.738281 174.855469 216.285156 176.382812 203.449219 C 178.410156 186.417969 175.835938 160.496094 160.835938 138.101562 "/><path style=" stroke:none;fill-rule:nonzero;fill:#d9ab39;fill-opacity:1;" d="M 111.835938 125.378906 C 139.144531 122.121094 151.664062 125.527344 162.179688 140.585938 C 177.601562 162.6875 178.1875 186.128906 176.164062 203.160156 C 174.636719 215.996094 171.246094 262.449219 166.742188 287.167969 L 171.992188 341.914062 C 171.992188 341.914062 148.023438 354.539062 98.863281 352.453125 C 60.390625 350.824219 50.3125 345.097656 50.3125 345.097656 C 50.3125 345.097656 54.46875 297.386719 58.386719 262.5625 C 62.105469 229.558594 52.5625 174.011719 52.515625 157.351562 C 52.445312 134.097656 84.03125 128.699219 111.835938 125.378906 "/><path style=" stroke:none;fill-rule:nonzero;fill:#262262;fill-opacity:1;" d="M 103.757812 354.925781 C 100.132812 354.925781 96.386719 354.851562 92.523438 354.6875 C 53.742188 353.042969 40.609375 343.011719 40.066406 342.585938 C 39.441406 342.089844 39.109375 341.304688 39.1875 340.511719 L 43.425781 297.84375 L 46.992188 265.6875 C 49.703125 241.601562 45.824219 203.773438 43.253906 178.742188 C 42.328125 169.691406 41.589844 162.539062 41.378906 158.117188 C 40.171875 133.164062 52.835938 126.664062 91.496094 119.796875 C 129.734375 113.003906 156.066406 125.0625 164.339844 139.148438 C 180.773438 167.128906 180.410156 189.40625 178.710938 203.726562 C 178.28125 207.328125 177.710938 213.53125 176.988281 221.382812 C 175.207031 240.765625 172.515625 270.050781 169.265625 287.878906 C 169.035156 289.152344 167.8125 289.992188 166.542969 289.765625 C 165.269531 289.53125 164.429688 288.308594 164.660156 287.035156 C 167.871094 269.417969 170.554688 240.25 172.328125 220.953125 C 173.050781 213.066406 173.621094 206.835938 174.058594 203.171875 C 175.683594 189.523438 176.023438 168.285156 160.300781 141.523438 C 150.109375 124.175781 118.386719 119.78125 92.3125 124.414062 C 53.273438 131.347656 45.058594 137.289062 46.054688 157.890625 C 46.265625 162.1875 46.992188 169.285156 47.914062 178.265625 C 50.5 203.496094 54.414062 241.621094 51.644531 266.210938 L 48.082031 298.335938 L 43.988281 339.566406 C 47.640625 341.753906 61.535156 348.683594 92.722656 350 C 134.46875 351.761719 162.671875 342.796875 169.5 340.347656 L 166.710938 310.195312 C 166.59375 308.90625 167.539062 307.765625 168.828125 307.644531 C 170.113281 307.546875 171.257812 308.472656 171.375 309.765625 L 174.324219 341.699219 C 174.417969 342.71875 173.835938 343.6875 172.886719 344.082031 C 171.734375 344.558594 146.179688 354.925781 103.757812 354.925781 "/><path style=" stroke:none;fill-rule:nonzero;fill:#ffffff;fill-opacity:1;" d="M 257.550781 210.671875 C 257.550781 210.671875 275.199219 210.09375 279.601562 208.507812 C 284.003906 206.921875 296.765625 201.316406 302.339844 198.632812 C 307.914062 195.953125 314.363281 190.21875 314.03125 188.007812 C 313.277344 183.054688 309.101562 168.160156 304.621094 164.375 C 302.421875 162.515625 285.730469 165.257812 281.59375 167.074219 C 278.253906 168.542969 270.660156 175.886719 253.777344 190.738281 L 257.550781 210.671875 "/><path style=" stroke:none;fill-rule:nonzero;fill:#ea5444;fill-opacity:1;" d="M 257.550781 210.671875 C 257.550781 210.671875 277.929688 209.453125 282.332031 207.867188 C 286.730469 206.28125 298.714844 199.960938 304.285156 197.28125 C 309.863281 194.601562 314.871094 189.425781 314.535156 187.210938 C 313.785156 182.257812 308.445312 176.835938 306.304688 171.375 C 304.925781 167.851562 291.605469 171.742188 285.429688 173.75 C 281.957031 174.875 272.125 183.636719 255.246094 198.492188 L 257.550781 210.671875 "/><path style=" stroke:none;fill-rule:nonzero;fill:#262262;fill-opacity:1;" d="M 311.757812 187.65625 Z M 256.324219 191.617188 L 259.476562 208.253906 C 266.433594 207.964844 276.105469 207.277344 278.808594 206.304688 C 283.015625 204.785156 295.625 199.265625 301.328125 196.523438 C 305.835938 194.355469 310.691406 189.539062 311.636719 187.898438 C 310.460938 181.734375 303.703125 168.6875 299.992188 165.550781 C 299.222656 164.90625 295.472656 165.90625 293.457031 166.445312 C 292.363281 166.730469 291.265625 167.023438 290.214844 167.246094 C 287.914062 167.742188 286.496094 167.90625 285.558594 168.007812 C 283.816406 168.203125 283.769531 168.207031 279.511719 171.21875 Z M 257.550781 213.015625 C 256.429688 213.015625 255.460938 212.214844 255.253906 211.109375 L 251.476562 191.179688 C 251.324219 190.363281 251.609375 189.527344 252.230469 188.976562 L 276.515625 167.617188 C 276.574219 167.5625 276.644531 167.507812 276.710938 167.460938 C 281.703125 163.933594 282.246094 163.660156 285.035156 163.351562 C 285.933594 163.25 287.15625 163.109375 289.230469 162.664062 C 290.214844 162.453125 291.238281 162.179688 292.253906 161.910156 C 296.25 160.847656 300.382812 159.75 303.007812 161.96875 C 308.027344 166.203125 315.347656 181.117188 316.339844 187.652344 C 316.894531 191.277344 308.011719 198.507812 303.355469 200.75 C 297.492188 203.566406 284.828125 209.113281 280.390625 210.714844 C 275.777344 212.378906 259.472656 212.953125 257.628906 213.011719 C 257.601562 213.015625 257.578125 213.015625 257.550781 213.015625 "/><path style=" stroke:none;fill-rule:nonzero;fill:#c8d4de;fill-opacity:1;" d="M 273.292969 215.304688 L 256.160156 220.671875 L 244.605469 183.664062 L 261.738281 178.300781 L 273.292969 215.304688 "/><path style=" stroke:none;fill-rule:nonzero;fill:#ffffff;fill-opacity:1;" d="M 264.054688 185.714844 L 246.921875 191.078125 L 244.605469 183.664062 L 261.738281 178.300781 L 264.054688 185.714844 "/><path style=" stroke:none;fill-rule:nonzero;fill:#262262;fill-opacity:1;" d="M 247.539062 185.207031 L 257.695312 217.730469 L 270.359375 213.769531 L 260.203125 181.238281 Z M 256.160156 223.015625 C 255.164062 223.015625 254.238281 222.371094 253.925781 221.371094 L 242.371094 184.367188 C 241.984375 183.128906 242.671875 181.816406 243.90625 181.429688 L 261.039062 176.0625 C 261.632812 175.882812 262.273438 175.933594 262.824219 176.226562 C 263.375 176.515625 263.785156 177.007812 263.972656 177.601562 L 275.527344 214.609375 C 275.714844 215.203125 275.65625 215.84375 275.371094 216.394531 C 275.082031 216.945312 274.585938 217.359375 273.992188 217.542969 L 256.859375 222.90625 C 256.625 222.980469 256.390625 223.015625 256.160156 223.015625 "/><path style=" stroke:none;fill-rule:nonzero;fill:#ffffff;fill-opacity:1;" d="M 43.816406 166.992188 C 52.539062 184.203125 60.425781 197.03125 74.761719 210.871094 C 87.683594 223.347656 98.433594 232.785156 115.019531 239.722656 C 159.476562 258.320312 207.542969 256.140625 247.667969 231.441406 C 249.574219 230.269531 255.410156 227.066406 257.5 225.746094 C 251.550781 210.824219 247.515625 198.253906 239.808594 184.617188 C 230.125 190.582031 221.207031 196.46875 210.25 200.167969 C 173.367188 212.632812 133.757812 208.195312 107.660156 177.542969 C 94.871094 162.519531 92.773438 140.898438 73.96875 132.503906 C 52.214844 122.792969 33.222656 146.09375 43.816406 166.992188 "/><path style=" stroke:none;fill-rule:nonzero;fill:#d9ab39;fill-opacity:1;" d="M 49.808594 162.703125 C 58.53125 179.910156 68.238281 194.894531 82.574219 208.734375 C 95.496094 221.210938 112.355469 235.695312 129.019531 242.445312 C 199.015625 270.804688 255.410156 227.066406 257.5 225.746094 C 251.550781 210.824219 250.636719 205.9375 242.929688 192.300781 C 233.246094 198.261719 224.328125 204.148438 213.371094 207.851562 C 176.484375 220.316406 133.757812 208.195312 107.660156 177.542969 C 94.871094 162.519531 92.773438 140.898438 73.96875 132.503906 C 52.214844 122.792969 39.210938 141.800781 49.808594 162.703125 "/><path style=" stroke:none;fill-rule:nonzero;fill:#262262;fill-opacity:1;" d="M 63.742188 132.574219 C 58.355469 132.574219 53.304688 134.734375 49.34375 138.902344 C 42.554688 146.050781 41.207031 156.660156 45.90625 165.933594 C 53.957031 181.820312 61.535156 193.992188 76.433594 209.230469 C 88.5 221.566406 99.3125 230.613281 115.921875 237.558594 C 152.613281 252.910156 192.648438 253.789062 225.757812 239.980469 C 235.230469 236.027344 249.863281 227.539062 254.6875 224.6875 C 251.367188 214.765625 246.167969 202.707031 238.859375 187.960938 L 238.058594 188.457031 C 229.324219 193.871094 221.078125 198.988281 211 202.394531 C 169.535156 216.402344 130.238281 207.683594 105.878906 179.066406 C 100.902344 173.214844 97.523438 166.476562 94.25 159.964844 C 88.980469 149.464844 84.007812 139.550781 73.015625 134.648438 C 69.910156 133.257812 66.769531 132.574219 63.742188 132.574219 Z M 175.355469 254.425781 C 155.003906 254.425781 134.074219 250.234375 114.117188 241.886719 C 96.777344 234.632812 85.5625 225.269531 73.089844 212.511719 C 57.832031 196.910156 49.777344 183.9375 41.730469 168.054688 C 36.121094 156.992188 37.777344 144.28125 45.949219 135.671875 C 53.453125 127.765625 64.558594 125.738281 74.921875 130.363281 C 87.441406 135.949219 93.03125 147.085938 98.433594 157.855469 C 101.582031 164.125 104.832031 170.605469 109.445312 176.023438 C 132.859375 203.53125 169.332031 211.527344 209.5 197.949219 C 219.070312 194.714844 227.09375 189.738281 235.59375 184.46875 L 238.582031 182.617188 C 239.140625 182.273438 239.816406 182.179688 240.449219 182.363281 C 241.082031 182.539062 241.605469 182.976562 241.902344 183.566406 C 250.378906 200.484375 256.210938 214.046875 259.730469 225.03125 C 260.058594 226.066406 259.636719 227.195312 258.707031 227.757812 C 257.917969 228.234375 239.296875 239.410156 227.558594 244.308594 C 211.371094 251.058594 193.597656 254.425781 175.355469 254.425781 "/><path style=" stroke:none;fill-rule:nonzero;fill:#262262;fill-opacity:1;" d="M 260.464844 276.125 C 260.382812 276.125 260.316406 276.195312 260.316406 276.277344 L 260.316406 290.066406 C 260.316406 290.152344 260.382812 290.214844 260.464844 290.214844 L 263.558594 290.214844 C 263.640625 290.214844 263.707031 290.152344 263.707031 290.066406 L 263.707031 276.277344 C 263.707031 276.195312 263.640625 276.125 263.558594 276.125 Z M 263.558594 296.382812 L 260.464844 296.382812 C 256.984375 296.382812 254.152344 293.550781 254.152344 290.066406 L 254.152344 276.277344 C 254.152344 272.789062 256.984375 269.957031 260.464844 269.957031 L 263.558594 269.957031 C 267.039062 269.957031 269.867188 272.789062 269.867188 276.277344 L 269.867188 290.066406 C 269.867188 293.550781 267.039062 296.382812 263.558594 296.382812 "/><path style=" stroke:none;fill-rule:nonzero;fill:#262262;fill-opacity:1;" d="M 262.886719 313.515625 C 262.882812 313.515625 262.878906 313.515625 262.878906 313.515625 L 259.792969 313.71875 C 259.722656 313.722656 259.652344 313.804688 259.65625 313.875 L 260.550781 327.636719 C 260.554688 327.707031 260.601562 327.789062 260.707031 327.777344 L 263.792969 327.574219 C 263.863281 327.570312 263.9375 327.488281 263.933594 327.417969 L 263.039062 313.660156 C 263.035156 313.589844 262.953125 313.515625 262.886719 313.515625 Z M 260.6875 333.945312 C 259.160156 333.945312 257.695312 333.398438 256.535156 332.378906 C 255.265625 331.265625 254.511719 329.722656 254.398438 328.039062 L 253.507812 314.277344 C 253.398438 312.59375 253.949219 310.964844 255.0625 309.699219 C 256.175781 308.425781 257.714844 307.667969 259.398438 307.558594 L 262.480469 307.359375 C 264.167969 307.269531 265.789062 307.804688 267.054688 308.917969 C 268.320312 310.03125 269.078125 311.574219 269.191406 313.261719 L 270.082031 327.011719 C 270.191406 328.699219 269.640625 330.328125 268.527344 331.597656 C 267.414062 332.863281 265.875 333.625 264.191406 333.734375 L 261.109375 333.9375 C 260.96875 333.941406 260.828125 333.945312 260.6875 333.945312 "/><path style=" stroke:none;fill-rule:nonzero;fill:#262262;fill-opacity:1;" d="M 261.796875 278.023438 C 261.769531 278.023438 261.738281 278.023438 261.714844 278.023438 C 260.011719 277.976562 258.671875 276.558594 258.714844 274.855469 L 259.257812 254.769531 C 259.308594 253.070312 260.765625 251.710938 262.421875 251.773438 C 264.125 251.816406 265.464844 253.234375 265.417969 254.9375 L 264.875 275.023438 C 264.832031 276.699219 263.457031 278.023438 261.796875 278.023438 "/><path style=" stroke:none;fill-rule:nonzero;fill:#262262;fill-opacity:1;" d="M 260.796875 238.917969 C 260.710938 238.917969 260.644531 238.984375 260.644531 239.070312 L 260.644531 252.859375 C 260.644531 252.941406 260.710938 253.011719 260.796875 253.011719 L 263.886719 253.011719 C 263.96875 253.011719 264.035156 252.941406 264.035156 252.859375 L 264.035156 239.070312 C 264.035156 238.984375 263.96875 238.917969 263.886719 238.917969 Z M 263.886719 259.179688 L 260.796875 259.179688 C 257.3125 259.179688 254.480469 256.34375 254.480469 252.859375 L 254.480469 239.070312 C 254.480469 235.585938 257.3125 232.75 260.796875 232.75 L 263.886719 232.75 C 267.363281 232.75 270.195312 235.585938 270.195312 239.070312 L 270.195312 252.859375 C 270.195312 256.34375 267.363281 259.179688 263.886719 259.179688 "/><path style=" stroke:none;fill-rule:nonzero;fill:#262262;fill-opacity:1;" d="M 262.125 240.816406 C 262.097656 240.816406 262.070312 240.816406 262.042969 240.816406 C 260.339844 240.773438 259 239.355469 259.042969 237.648438 L 259.589844 217.566406 C 259.636719 215.863281 261.09375 214.460938 262.753906 214.566406 C 264.453125 214.609375 265.792969 216.03125 265.746094 217.730469 L 265.203125 237.816406 C 265.15625 239.488281 263.785156 240.816406 262.125 240.816406 "/><path style=" stroke:none;fill-rule:nonzero;fill:#262262;fill-opacity:1;" d="M 261.636719 314.960938 C 261.621094 314.960938 261.601562 314.960938 261.585938 314.960938 C 259.886719 314.933594 258.527344 313.527344 258.554688 311.828125 L 258.875 291.570312 C 258.902344 289.867188 260.265625 288.441406 262.003906 288.53125 C 263.703125 288.5625 265.0625 289.960938 265.035156 291.664062 L 264.714844 311.925781 C 264.6875 313.609375 263.316406 314.960938 261.636719 314.960938 "/><path style=" stroke:none;fill-rule:nonzero;fill:#262262;fill-opacity:1;" d="M 272.15625 345.609375 C 272.089844 345.609375 272.035156 345.648438 272.007812 345.714844 L 270.992188 348.632812 C 270.96875 348.699219 271.011719 348.800781 271.082031 348.824219 L 284.078125 353.382812 C 284.144531 353.40625 284.246094 353.359375 284.265625 353.289062 L 285.289062 350.371094 C 285.320312 350.292969 285.277344 350.207031 285.199219 350.179688 L 272.203125 345.621094 C 272.1875 345.613281 272.167969 345.609375 272.15625 345.609375 Z M 284.128906 359.566406 C 283.429688 359.566406 282.722656 359.445312 282.035156 359.207031 L 269.042969 354.648438 C 267.453125 354.089844 266.175781 352.945312 265.445312 351.421875 C 264.714844 349.902344 264.617188 348.191406 265.171875 346.597656 L 266.195312 343.675781 C 267.347656 340.386719 270.953125 338.652344 274.238281 339.796875 L 287.234375 344.355469 C 290.515625 345.515625 292.253906 349.121094 291.105469 352.410156 L 290.085938 355.332031 C 289.527344 356.921875 288.382812 358.207031 286.863281 358.9375 C 285.996094 359.355469 285.066406 359.566406 284.128906 359.566406 "/><path style=" stroke:none;fill-rule:nonzero;fill:#262262;fill-opacity:1;" d="M 269.554688 350.289062 C 268.316406 350.289062 267.152344 349.539062 266.679688 348.316406 L 259.390625 329.417969 C 258.777344 327.828125 259.566406 326.042969 261.152344 325.425781 C 262.742188 324.8125 264.523438 325.605469 265.136719 327.195312 L 272.425781 346.097656 C 273.039062 347.6875 272.25 349.472656 270.664062 350.082031 C 270.296875 350.226562 269.921875 350.289062 269.554688 350.289062 "/><g clip-rule="nonzero" clip-path="url(#ab60d360b0)"><path style=" stroke:none;fill-rule:nonzero;fill:#262262;fill-opacity:1;" d="M 322.023438 276.125 C 321.9375 276.125 321.875 276.195312 321.875 276.277344 L 321.875 290.066406 C 321.875 290.152344 321.9375 290.214844 322.023438 290.214844 L 325.113281 290.214844 C 325.199219 290.214844 325.265625 290.152344 325.265625 290.066406 L 325.265625 276.277344 C 325.265625 276.195312 325.199219 276.125 325.113281 276.125 Z M 325.113281 296.382812 L 322.023438 296.382812 C 318.542969 296.382812 315.714844 293.550781 315.714844 290.066406 L 315.714844 276.277344 C 315.714844 272.789062 318.542969 269.957031 322.023438 269.957031 L 325.113281 269.957031 C 328.59375 269.957031 331.429688 272.789062 331.429688 276.277344 L 331.429688 290.066406 C 331.429688 293.550781 328.59375 296.382812 325.113281 296.382812 "/></g><g clip-rule="nonzero" clip-path="url(#06952dedd4)"><path style=" stroke:none;fill-rule:nonzero;fill:#262262;fill-opacity:1;" d="M 322.6875 313.515625 C 322.613281 313.515625 322.546875 313.578125 322.539062 313.660156 L 321.644531 327.417969 C 321.640625 327.484375 321.714844 327.570312 321.785156 327.574219 L 324.871094 327.777344 C 324.996094 327.792969 325.027344 327.707031 325.03125 327.636719 L 325.921875 313.875 C 325.929688 313.804688 325.855469 313.722656 325.785156 313.71875 L 322.699219 313.515625 C 322.695312 313.515625 322.691406 313.515625 322.6875 313.515625 Z M 324.890625 333.945312 C 324.75 333.945312 324.609375 333.941406 324.472656 333.9375 L 321.386719 333.734375 C 319.707031 333.625 318.164062 332.863281 317.054688 331.597656 C 315.941406 330.328125 315.386719 328.699219 315.496094 327.015625 L 316.390625 313.257812 C 316.617188 309.78125 319.617188 307.148438 323.097656 307.359375 L 326.183594 307.558594 C 327.863281 307.667969 329.40625 308.425781 330.519531 309.699219 C 331.628906 310.964844 332.179688 312.59375 332.074219 314.277344 L 331.179688 328.039062 C 331.066406 329.722656 330.3125 331.265625 329.042969 332.378906 C 327.882812 333.398438 326.421875 333.945312 324.890625 333.945312 "/></g><path style=" stroke:none;fill-rule:nonzero;fill:#262262;fill-opacity:1;" d="M 323.78125 278.023438 C 322.257812 278.023438 320.9375 276.898438 320.734375 275.34375 L 318.078125 255.261719 C 317.855469 253.570312 319.039062 252.019531 320.726562 251.796875 C 322.421875 251.59375 323.960938 252.765625 324.183594 254.449219 L 326.839844 274.53125 C 327.0625 276.222656 325.875 277.777344 324.191406 278 C 324.050781 278.015625 323.914062 278.023438 323.78125 278.023438 "/><path style=" stroke:none;fill-rule:nonzero;fill:#262262;fill-opacity:1;" d="M 323.945312 314.960938 C 322.261719 314.960938 320.890625 313.609375 320.863281 311.925781 L 320.542969 291.664062 C 320.519531 289.960938 321.878906 288.5625 323.574219 288.53125 C 325.265625 288.453125 326.679688 289.867188 326.703125 291.570312 L 327.027344 311.828125 C 327.050781 313.527344 325.695312 314.933594 323.992188 314.960938 C 323.976562 314.960938 323.960938 314.960938 323.945312 314.960938 "/><path style=" stroke:none;fill-rule:nonzero;fill:#262262;fill-opacity:1;" d="M 301.3125 353.289062 C 301.335938 353.359375 301.4375 353.414062 301.5 353.382812 L 314.496094 348.824219 C 314.566406 348.800781 314.609375 348.699219 314.589844 348.636719 L 313.570312 345.710938 C 313.539062 345.632812 313.457031 345.597656 313.375 345.621094 L 300.382812 350.179688 C 300.304688 350.207031 300.261719 350.292969 300.292969 350.371094 Z M 301.445312 359.566406 C 300.511719 359.566406 299.585938 359.355469 298.714844 358.9375 C 297.199219 358.207031 296.054688 356.921875 295.496094 355.332031 L 294.476562 352.410156 C 293.324219 349.125 295.0625 345.515625 298.34375 344.359375 L 311.339844 339.796875 C 314.625 338.652344 318.234375 340.382812 319.382812 343.675781 L 320.40625 346.597656 C 320.960938 348.191406 320.863281 349.902344 320.136719 351.421875 C 319.40625 352.945312 318.125 354.089844 316.535156 354.648438 L 303.542969 359.207031 C 302.855469 359.445312 302.148438 359.566406 301.445312 359.566406 "/><path style=" stroke:none;fill-rule:nonzero;fill:#262262;fill-opacity:1;" d="M 316.027344 350.289062 C 315.65625 350.289062 315.28125 350.226562 314.917969 350.082031 C 313.332031 349.472656 312.539062 347.6875 313.152344 346.097656 L 320.445312 327.195312 C 321.054688 325.605469 322.835938 324.808594 324.425781 325.425781 C 326.011719 326.042969 326.800781 327.828125 326.1875 329.417969 L 318.898438 348.316406 C 318.429688 349.539062 317.261719 350.289062 316.027344 350.289062 "/><path style=" stroke:none;fill-rule:nonzero;fill:#262262;fill-opacity:1;" d="M 285.863281 354.921875 C 284.175781 354.921875 282.804688 353.5625 282.78125 351.867188 C 282.765625 350.164062 284.128906 348.773438 285.832031 348.75 L 300.738281 348.589844 C 300.746094 348.589844 300.757812 348.589844 300.769531 348.589844 C 302.457031 348.589844 303.832031 349.949219 303.851562 351.644531 C 303.871094 353.347656 302.503906 354.742188 300.800781 354.757812 L 285.898438 354.921875 C 285.886719 354.921875 285.875 354.921875 285.863281 354.921875 "/><path style=" stroke:none;fill-rule:nonzero;fill:#ffffff;fill-opacity:1;" d="M 94.125 84.234375 L 88.675781 122.484375 C 87.609375 125.9375 114.550781 142.550781 131.097656 143.207031 C 133.15625 141.773438 128.015625 131.992188 127.90625 129.488281 L 132.5 98.425781 L 94.125 84.234375 "/><path style=" stroke:none;fill-rule:nonzero;fill:#ea5444;fill-opacity:1;" d="M 100.429688 93.546875 L 95.5 128.480469 C 102.046875 135.035156 113.8125 143.328125 130.359375 143.976562 C 132.328125 142.609375 127.277344 132.769531 127.167969 130.265625 L 131.761719 99.195312 L 100.429688 93.546875 "/><path style=" stroke:none;fill-rule:nonzero;fill:#262262;fill-opacity:1;" d="M 88.675781 122.484375 L 88.691406 122.484375 Z M 90.914062 123.167969 C 90.910156 123.167969 90.910156 123.171875 90.910156 123.171875 C 90.910156 123.171875 90.910156 123.167969 90.914062 123.167969 Z M 91.035156 122.511719 C 93.257812 126.128906 114.101562 138.9375 128.953125 140.683594 C 128.632812 138.875 127.628906 136.199219 127.0625 134.695312 C 126.257812 132.558594 125.621094 130.871094 125.566406 129.59375 C 125.5625 129.441406 125.570312 129.292969 125.589844 129.144531 L 129.902344 99.964844 L 96.035156 87.441406 Z M 131.101562 145.550781 C 131.070312 145.550781 131.042969 145.550781 131.007812 145.546875 C 115.394531 144.933594 91.460938 131.195312 87.226562 125.214844 C 86.4375 124.097656 86.152344 123.03125 86.375 122.035156 L 91.804688 83.90625 C 91.90625 83.207031 92.320312 82.585938 92.925781 82.222656 C 93.535156 81.859375 94.273438 81.796875 94.933594 82.039062 L 133.308594 96.222656 C 134.347656 96.605469 134.976562 97.671875 134.816406 98.765625 L 130.261719 129.546875 C 130.382812 130.222656 130.992188 131.839844 131.445312 133.046875 C 132.886719 136.882812 134.519531 141.230469 133.246094 144.144531 C 132.871094 145 132.03125 145.550781 131.101562 145.550781 "/><g clip-rule="nonzero" clip-path="url(#ef16b2d561)"><path style=" stroke:none;fill-rule:nonzero;fill:#ffffff;fill-opacity:1;" d="M 139.171875 37.851562 C 147.652344 55.671875 143.875 87.125 126.066406 95.617188 C 108.261719 104.113281 83.171875 86.433594 74.695312 68.609375 C 66.214844 50.785156 65.320312 27.246094 90.738281 16.5 C 119.207031 4.464844 130.691406 20.023438 139.171875 37.851562 "/></g><g clip-rule="nonzero" clip-path="url(#253894f46a)"><path style=" stroke:none;fill-rule:nonzero;fill:#24325b;fill-opacity:1;" d="M 139.398438 38.328125 C 147.785156 55.949219 145.3125 86.441406 129.179688 94.132812 C 113.050781 101.828125 89.371094 83.816406 80.988281 66.195312 C 72.601562 48.574219 71.03125 25.636719 94.101562 15.996094 C 119.9375 5.195312 131.015625 20.710938 139.398438 38.328125 "/></g><g clip-rule="nonzero" clip-path="url(#8faf121742)"><path style=" stroke:none;fill-rule:nonzero;fill:#262262;fill-opacity:1;" d="M 108.964844 14.519531 C 104.039062 14.519531 98.351562 15.828125 91.652344 18.660156 C 82.539062 22.511719 76.460938 28.304688 73.585938 35.871094 C 69 47.949219 73.636719 60.933594 76.808594 67.597656 C 80.847656 76.085938 88.992188 84.652344 98.0625 89.957031 C 103.84375 93.335938 115.039062 98.289062 125.0625 93.5 C 132.484375 89.960938 137.996094 81.320312 140.175781 69.796875 C 142.210938 59.03125 141.015625 47.179688 137.054688 38.855469 C 130.023438 24.074219 122.285156 14.519531 108.964844 14.519531 Z M 115.960938 100.167969 C 109.613281 100.167969 102.699219 98.097656 95.707031 94.003906 C 85.714844 88.167969 77.070312 79.050781 72.582031 69.613281 C 69.089844 62.273438 64.003906 47.914062 69.210938 34.207031 C 72.558594 25.394531 79.492188 18.710938 89.832031 14.335938 C 119.644531 1.730469 132.179688 17.703125 141.285156 36.84375 C 145.71875 46.15625 147.023438 58.800781 144.777344 70.667969 C 142.316406 83.679688 135.863281 93.542969 127.078125 97.734375 C 123.667969 99.359375 119.925781 100.167969 115.960938 100.167969 "/></g><g clip-rule="nonzero" clip-path="url(#9bbd33a7b1)"><path style=" stroke:none;fill-rule:nonzero;fill:#ffffff;fill-opacity:1;" d="M 145.160156 61.429688 C 140.851562 39.4375 131.300781 20.777344 111.222656 25.40625 C 99.722656 28.058594 82.234375 34.695312 87.453125 49.84375 C 86.632812 55.320312 84.957031 59.449219 90.351562 69 C 88.105469 68.21875 85.824219 68.246094 83.882812 69.289062 C 79.261719 71.773438 78.3125 78.996094 81.753906 85.421875 C 84.792969 91.09375 90.238281 94.246094 94.644531 93.207031 C 104.160156 103.0625 117.847656 108.1875 128.191406 106.15625 C 144.125 103.023438 149.46875 83.417969 145.160156 61.429688 "/></g><g clip-rule="nonzero" clip-path="url(#e8c5b12615)"><path style=" stroke:none;fill-rule:nonzero;fill:#ea5444;fill-opacity:1;" d="M 145.160156 61.429688 C 140.851562 39.4375 131.300781 20.777344 111.222656 25.40625 C 99.722656 28.058594 82.234375 34.695312 87.453125 49.84375 C 86.632812 55.320312 84.957031 59.449219 90.351562 69 C 88.105469 68.21875 88.667969 67.792969 86.722656 68.835938 C 82.105469 71.316406 84.425781 79.503906 89.285156 85.117188 C 93.492188 89.984375 95.554688 90.179688 99.96875 89.144531 C 109.484375 99 120.929688 105.074219 131.300781 103.179688 C 144.921875 100.6875 149.46875 83.417969 145.160156 61.429688 "/></g><g clip-rule="nonzero" clip-path="url(#9c9099984e)"><path style=" stroke:none;fill-rule:nonzero;fill:#262262;fill-opacity:1;" d="M 94.648438 90.863281 C 95.273438 90.863281 95.886719 91.113281 96.332031 91.578125 C 105.144531 100.707031 118.0625 105.75 127.738281 103.855469 C 143.273438 100.800781 146.527344 80.574219 142.863281 61.878906 C 139.640625 45.4375 134.261719 34.671875 126.878906 29.875 C 122.542969 27.0625 117.59375 26.347656 111.753906 27.695312 C 100.636719 30.253906 92.957031 34.46875 90.144531 39.554688 C 88.585938 42.371094 88.429688 45.488281 89.667969 49.085938 C 89.789062 49.441406 89.828125 49.824219 89.769531 50.195312 C 89.667969 50.871094 89.554688 51.523438 89.441406 52.175781 C 88.667969 56.644531 88.054688 60.171875 92.386719 67.847656 C 92.871094 68.695312 92.773438 69.753906 92.148438 70.5 C 91.519531 71.253906 90.5 71.53125 89.582031 71.214844 C 88.382812 70.800781 86.617188 70.480469 84.988281 71.359375 C 81.574219 73.191406 81.035156 79.128906 83.820312 84.3125 C 86.265625 88.890625 90.679688 91.742188 94.109375 90.921875 C 94.289062 90.878906 94.472656 90.863281 94.648438 90.863281 Z M 123.414062 108.945312 C 113.488281 108.945312 102.265625 104.011719 93.828125 95.710938 C 88.597656 96.179688 82.941406 92.59375 79.691406 86.53125 C 75.640625 78.972656 77.027344 70.3125 82.773438 67.222656 C 83.867188 66.640625 85.0625 66.285156 86.308594 66.164062 C 83.417969 59.492188 84.132812 55.371094 84.828125 51.371094 C 84.902344 50.933594 84.980469 50.492188 85.054688 50.046875 C 83.589844 45.410156 83.925781 41.113281 86.046875 37.28125 C 90.492188 29.25 101.910156 25.148438 110.699219 23.125 C 117.742188 21.5 124.046875 22.445312 129.429688 25.941406 C 137.914062 31.453125 143.980469 43.238281 147.457031 60.976562 C 152.402344 86.1875 144.839844 105.269531 128.644531 108.453125 C 126.957031 108.785156 125.207031 108.945312 123.414062 108.945312 "/></g><path style=" stroke:none;fill-rule:nonzero;fill:#262262;fill-opacity:1;" d="M 92.988281 95.734375 C 88.085938 95.734375 82.757812 92.257812 79.691406 86.53125 C 75.640625 78.972656 77.027344 70.3125 82.773438 67.222656 C 86.902344 65.007812 92.339844 66.175781 96.636719 70.199219 C 97.582031 71.082031 97.632812 72.570312 96.746094 73.511719 C 95.867188 74.457031 94.386719 74.511719 93.441406 73.621094 C 90.632812 70.996094 87.316406 70.105469 84.988281 71.359375 C 81.574219 73.191406 81.035156 79.128906 83.820312 84.3125 C 86.597656 89.503906 91.839844 92.34375 95.246094 90.5 C 95.9375 90.128906 96.523438 89.589844 96.988281 88.890625 C 97.707031 87.816406 99.160156 87.523438 100.238281 88.238281 C 101.308594 88.960938 101.601562 90.414062 100.882812 91.492188 C 99.988281 92.835938 98.835938 93.894531 97.460938 94.632812 C 96.070312 95.378906 94.550781 95.734375 92.988281 95.734375 "/><path style=" stroke:none;fill-rule:nonzero;fill:#ffffff;fill-opacity:1;" d="M 122.679688 90.230469 C 126.1875 88.195312 131.917969 85.292969 138.277344 83.792969 C 140.089844 83.363281 140.507812 81 138.960938 79.964844 C 136.515625 78.332031 132.738281 77.046875 127.789062 79.105469 C 122.613281 81.253906 120.433594 84.539062 119.582031 87.832031 C 119.109375 89.667969 121.039062 91.183594 122.679688 90.230469 "/><g clip-rule="nonzero" clip-path="url(#b60a59838b)"><path style=" stroke:none;fill-rule:nonzero;fill:#262262;fill-opacity:1;" d="M 128.953125 59.136719 C 129.988281 61.867188 132.523438 63.433594 134.605469 62.640625 C 136.6875 61.847656 137.542969 58.992188 136.503906 56.265625 C 135.46875 53.535156 132.9375 51.964844 130.851562 52.761719 C 128.769531 53.554688 127.917969 56.40625 128.953125 59.136719 "/></g><g clip-rule="nonzero" clip-path="url(#db86cbd8d8)"><path style=" stroke:none;fill-rule:nonzero;fill:#262262;fill-opacity:1;" d="M 110.625 66.113281 C 111.714844 68.976562 114.371094 70.625 116.558594 69.792969 C 118.746094 68.960938 119.636719 65.964844 118.550781 63.097656 C 117.464844 60.234375 114.804688 58.585938 112.617188 59.421875 C 110.433594 60.253906 109.539062 63.253906 110.625 66.113281 "/></g></g></svg>